G04 #@! TF.GenerationSoftware,KiCad,Pcbnew,(5.1.5)-3*
G04 #@! TF.CreationDate,2021-10-24T21:58:03+02:00*
G04 #@! TF.ProjectId,seg1,73656731-2e6b-4696-9361-645f70636258,1*
G04 #@! TF.SameCoordinates,Original*
G04 #@! TF.FileFunction,Copper,L1,Top*
G04 #@! TF.FilePolarity,Positive*
%FSLAX46Y46*%
G04 Gerber Fmt 4.6, Leading zero omitted, Abs format (unit mm)*
G04 Created by KiCad (PCBNEW (5.1.5)-3) date 2021-10-24 21:58:03*
%MOMM*%
%LPD*%
G04 APERTURE LIST*
%ADD10C,0.700000*%
%ADD11C,0.152400*%
G04 APERTURE END LIST*
D10*
X113063866Y-79973715D03*
X168105102Y-79926437D03*
D11*
X160888641Y-86966193D02*
X160952050Y-86944005D01*
X160821885Y-86973715D02*
X160888641Y-86966193D01*
X160755128Y-86966193D02*
X160821885Y-86973715D01*
X160691719Y-86944005D02*
X160755128Y-86966193D01*
X160634838Y-86908264D02*
X160691719Y-86944005D01*
X160587335Y-86860761D02*
X160634838Y-86908264D01*
X160551594Y-86803880D02*
X160587335Y-86860761D01*
X160529406Y-86740471D02*
X160551594Y-86803880D01*
X160521885Y-86673715D02*
X160529406Y-86740471D01*
X160521885Y-75473715D02*
X160521885Y-86673715D01*
X160514363Y-75406959D02*
X160521885Y-75473715D01*
X160492175Y-75343550D02*
X160514363Y-75406959D01*
X160456434Y-75286669D02*
X160492175Y-75343550D01*
X160408931Y-75239166D02*
X160456434Y-75286669D01*
X160352050Y-75203425D02*
X160408931Y-75239166D01*
X160288641Y-75181237D02*
X160352050Y-75203425D01*
X160221885Y-75173715D02*
X160288641Y-75181237D01*
X160155128Y-75181237D02*
X160221885Y-75173715D01*
X160091719Y-75203425D02*
X160155128Y-75181237D01*
X160034838Y-75239166D02*
X160091719Y-75203425D01*
X159987335Y-75286669D02*
X160034838Y-75239166D01*
X159951594Y-75343550D02*
X159987335Y-75286669D01*
X159929406Y-75406959D02*
X159951594Y-75343550D01*
X159921885Y-75473715D02*
X159929406Y-75406959D01*
X159921885Y-87773715D02*
X159921885Y-75473715D01*
X159914363Y-87840471D02*
X159921885Y-87773715D01*
X159892175Y-87903880D02*
X159914363Y-87840471D01*
X159856434Y-87960761D02*
X159892175Y-87903880D01*
X159808931Y-88008264D02*
X159856434Y-87960761D01*
X159752050Y-88044005D02*
X159808931Y-88008264D01*
X159688641Y-88066193D02*
X159752050Y-88044005D01*
X159621885Y-88073715D02*
X159688641Y-88066193D01*
X159555128Y-88066193D02*
X159621885Y-88073715D01*
X159491719Y-88044005D02*
X159555128Y-88066193D01*
X159434838Y-88008264D02*
X159491719Y-88044005D01*
X159387335Y-87960761D02*
X159434838Y-88008264D01*
X159351594Y-87903880D02*
X159387335Y-87960761D01*
X159329406Y-87840471D02*
X159351594Y-87903880D01*
X159321885Y-87773715D02*
X159329406Y-87840471D01*
X159321885Y-75123715D02*
X159321885Y-87773715D01*
X159314363Y-75056959D02*
X159321885Y-75123715D01*
X159292175Y-74993550D02*
X159314363Y-75056959D01*
X159256434Y-74936669D02*
X159292175Y-74993550D01*
X159208931Y-74889166D02*
X159256434Y-74936669D01*
X159152050Y-74853425D02*
X159208931Y-74889166D01*
X159088641Y-74831237D02*
X159152050Y-74853425D01*
X159021885Y-74823715D02*
X159088641Y-74831237D01*
X158955128Y-74831237D02*
X159021885Y-74823715D01*
X158891719Y-74853425D02*
X158955128Y-74831237D01*
X158834838Y-74889166D02*
X158891719Y-74853425D01*
X158787335Y-74936669D02*
X158834838Y-74889166D01*
X158751594Y-74993550D02*
X158787335Y-74936669D01*
X158729406Y-75056959D02*
X158751594Y-74993550D01*
X158721885Y-75123715D02*
X158729406Y-75056959D01*
X158721885Y-88923715D02*
X158721885Y-75123715D01*
X158714363Y-88990471D02*
X158721885Y-88923715D01*
X158692175Y-89053880D02*
X158714363Y-88990471D01*
X158656434Y-89110761D02*
X158692175Y-89053880D01*
X158608931Y-89158264D02*
X158656434Y-89110761D01*
X158552050Y-89194005D02*
X158608931Y-89158264D01*
X158488641Y-89216193D02*
X158552050Y-89194005D01*
X158421885Y-89223715D02*
X158488641Y-89216193D01*
X158355128Y-89216193D02*
X158421885Y-89223715D01*
X158291719Y-89194005D02*
X158355128Y-89216193D01*
X158234838Y-89158264D02*
X158291719Y-89194005D01*
X158187335Y-89110761D02*
X158234838Y-89158264D01*
X158151594Y-89053880D02*
X158187335Y-89110761D01*
X158129406Y-88990471D02*
X158151594Y-89053880D01*
X158121885Y-88923715D02*
X158129406Y-88990471D01*
X158121885Y-74873715D02*
X158121885Y-88923715D01*
X158114363Y-74806959D02*
X158121885Y-74873715D01*
X158092175Y-74743550D02*
X158114363Y-74806959D01*
X158056434Y-74686669D02*
X158092175Y-74743550D01*
X158008931Y-74639166D02*
X158056434Y-74686669D01*
X157952050Y-74603425D02*
X158008931Y-74639166D01*
X157888641Y-74581237D02*
X157952050Y-74603425D01*
X157821885Y-74573715D02*
X157888641Y-74581237D01*
X157755128Y-74581237D02*
X157821885Y-74573715D01*
X157691719Y-74603425D02*
X157755128Y-74581237D01*
X157634838Y-74639166D02*
X157691719Y-74603425D01*
X157587335Y-74686669D02*
X157634838Y-74639166D01*
X157551594Y-74743550D02*
X157587335Y-74686669D01*
X157529406Y-74806959D02*
X157551594Y-74743550D01*
X157521885Y-74873715D02*
X157529406Y-74806959D01*
X157521885Y-90023715D02*
X157521885Y-74873715D01*
X157514363Y-90090471D02*
X157521885Y-90023715D01*
X157492175Y-90153880D02*
X157514363Y-90090471D01*
X157456434Y-90210761D02*
X157492175Y-90153880D01*
X157408931Y-90258264D02*
X157456434Y-90210761D01*
X157352050Y-90294005D02*
X157408931Y-90258264D01*
X157288641Y-90316193D02*
X157352050Y-90294005D01*
X157221885Y-90323715D02*
X157288641Y-90316193D01*
X157155128Y-90316193D02*
X157221885Y-90323715D01*
X157091719Y-90294005D02*
X157155128Y-90316193D01*
X157034838Y-90258264D02*
X157091719Y-90294005D01*
X156987335Y-90210761D02*
X157034838Y-90258264D01*
X156951594Y-90153880D02*
X156987335Y-90210761D01*
X156929406Y-90090471D02*
X156951594Y-90153880D01*
X156921885Y-90023715D02*
X156929406Y-90090471D01*
X156921885Y-74723715D02*
X156921885Y-90023715D01*
X156914363Y-74656959D02*
X156921885Y-74723715D01*
X156892175Y-74593550D02*
X156914363Y-74656959D01*
X156856434Y-74536669D02*
X156892175Y-74593550D01*
X156808931Y-74489166D02*
X156856434Y-74536669D01*
X156752050Y-74453425D02*
X156808931Y-74489166D01*
X156688641Y-74431237D02*
X156752050Y-74453425D01*
X156621885Y-74423715D02*
X156688641Y-74431237D01*
X156555128Y-74431237D02*
X156621885Y-74423715D01*
X156491719Y-74453425D02*
X156555128Y-74431237D01*
X156434838Y-74489166D02*
X156491719Y-74453425D01*
X156387335Y-74536669D02*
X156434838Y-74489166D01*
X156351594Y-74593550D02*
X156387335Y-74536669D01*
X156329406Y-74656959D02*
X156351594Y-74593550D01*
X156321885Y-74723715D02*
X156329406Y-74656959D01*
X156321885Y-91123715D02*
X156321885Y-74723715D01*
X156314363Y-91190471D02*
X156321885Y-91123715D01*
X156292175Y-91253880D02*
X156314363Y-91190471D01*
X156256434Y-91310761D02*
X156292175Y-91253880D01*
X156208931Y-91358264D02*
X156256434Y-91310761D01*
X156152050Y-91394005D02*
X156208931Y-91358264D01*
X156088641Y-91416193D02*
X156152050Y-91394005D01*
X156021885Y-91423715D02*
X156088641Y-91416193D01*
X155955128Y-91416193D02*
X156021885Y-91423715D01*
X155891719Y-91394005D02*
X155955128Y-91416193D01*
X155834838Y-91358264D02*
X155891719Y-91394005D01*
X155787335Y-91310761D02*
X155834838Y-91358264D01*
X155751594Y-91253880D02*
X155787335Y-91310761D01*
X155729406Y-91190471D02*
X155751594Y-91253880D01*
X155721885Y-91123715D02*
X155729406Y-91190471D01*
X155721885Y-74573715D02*
X155721885Y-91123715D01*
X155714363Y-74506959D02*
X155721885Y-74573715D01*
X155692175Y-74443550D02*
X155714363Y-74506959D01*
X155656434Y-74386669D02*
X155692175Y-74443550D01*
X155608931Y-74339166D02*
X155656434Y-74386669D01*
X155552050Y-74303425D02*
X155608931Y-74339166D01*
X155488641Y-74281237D02*
X155552050Y-74303425D01*
X155421885Y-74273715D02*
X155488641Y-74281237D01*
X155355128Y-74281237D02*
X155421885Y-74273715D01*
X155291719Y-74303425D02*
X155355128Y-74281237D01*
X155234838Y-74339166D02*
X155291719Y-74303425D01*
X155187335Y-74386669D02*
X155234838Y-74339166D01*
X155151594Y-74443550D02*
X155187335Y-74386669D01*
X155129406Y-74506959D02*
X155151594Y-74443550D01*
X155121885Y-74573715D02*
X155129406Y-74506959D01*
X155121885Y-92273715D02*
X155121885Y-74573715D01*
X155114363Y-92340471D02*
X155121885Y-92273715D01*
X155092175Y-92403880D02*
X155114363Y-92340471D01*
X155056434Y-92460761D02*
X155092175Y-92403880D01*
X155008931Y-92508264D02*
X155056434Y-92460761D01*
X154952050Y-92544005D02*
X155008931Y-92508264D01*
X154888641Y-92566193D02*
X154952050Y-92544005D01*
X154821885Y-92573715D02*
X154888641Y-92566193D01*
X154755128Y-92566193D02*
X154821885Y-92573715D01*
X154691719Y-92544005D02*
X154755128Y-92566193D01*
X154634838Y-92508264D02*
X154691719Y-92544005D01*
X154587335Y-92460761D02*
X154634838Y-92508264D01*
X154551594Y-92403880D02*
X154587335Y-92460761D01*
X154529406Y-92340471D02*
X154551594Y-92403880D01*
X154521885Y-92273715D02*
X154529406Y-92340471D01*
X154521885Y-74423715D02*
X154521885Y-92273715D01*
X154514363Y-74356959D02*
X154521885Y-74423715D01*
X154492175Y-74293550D02*
X154514363Y-74356959D01*
X154456434Y-74236669D02*
X154492175Y-74293550D01*
X154408931Y-74189166D02*
X154456434Y-74236669D01*
X154352050Y-74153425D02*
X154408931Y-74189166D01*
X154288641Y-74131237D02*
X154352050Y-74153425D01*
X154221885Y-74123715D02*
X154288641Y-74131237D01*
X154155128Y-74131237D02*
X154221885Y-74123715D01*
X154091719Y-74153425D02*
X154155128Y-74131237D01*
X154034838Y-74189166D02*
X154091719Y-74153425D01*
X153987335Y-74236669D02*
X154034838Y-74189166D01*
X153951594Y-74293550D02*
X153987335Y-74236669D01*
X153929406Y-74356959D02*
X153951594Y-74293550D01*
X153921885Y-74423715D02*
X153929406Y-74356959D01*
X153921885Y-93373715D02*
X153921885Y-74423715D01*
X153914363Y-93440471D02*
X153921885Y-93373715D01*
X153892175Y-93503880D02*
X153914363Y-93440471D01*
X153856434Y-93560761D02*
X153892175Y-93503880D01*
X153808931Y-93608264D02*
X153856434Y-93560761D01*
X153752050Y-93644005D02*
X153808931Y-93608264D01*
X153688641Y-93666193D02*
X153752050Y-93644005D01*
X153621885Y-93673715D02*
X153688641Y-93666193D01*
X153555128Y-93666193D02*
X153621885Y-93673715D01*
X153491719Y-93644005D02*
X153555128Y-93666193D01*
X153434838Y-93608264D02*
X153491719Y-93644005D01*
X153387335Y-93560761D02*
X153434838Y-93608264D01*
X153351594Y-93503880D02*
X153387335Y-93560761D01*
X153329406Y-93440471D02*
X153351594Y-93503880D01*
X153321885Y-93373715D02*
X153329406Y-93440471D01*
X153321885Y-74323715D02*
X153321885Y-93373715D01*
X153314363Y-74256959D02*
X153321885Y-74323715D01*
X153292175Y-74193550D02*
X153314363Y-74256959D01*
X153256434Y-74136669D02*
X153292175Y-74193550D01*
X153208931Y-74089166D02*
X153256434Y-74136669D01*
X153152050Y-74053425D02*
X153208931Y-74089166D01*
X153088641Y-74031237D02*
X153152050Y-74053425D01*
X153021885Y-74023715D02*
X153088641Y-74031237D01*
X152955128Y-74031237D02*
X153021885Y-74023715D01*
X152891719Y-74053425D02*
X152955128Y-74031237D01*
X152834838Y-74089166D02*
X152891719Y-74053425D01*
X152787335Y-74136669D02*
X152834838Y-74089166D01*
X152751594Y-74193550D02*
X152787335Y-74136669D01*
X152729406Y-74256959D02*
X152751594Y-74193550D01*
X152721885Y-74323715D02*
X152729406Y-74256959D01*
X152721885Y-94523715D02*
X152721885Y-74323715D01*
X152714363Y-94590471D02*
X152721885Y-94523715D01*
X152692175Y-94653880D02*
X152714363Y-94590471D01*
X152656434Y-94710761D02*
X152692175Y-94653880D01*
X152608931Y-94758264D02*
X152656434Y-94710761D01*
X152552050Y-94794005D02*
X152608931Y-94758264D01*
X152488641Y-94816193D02*
X152552050Y-94794005D01*
X152421885Y-94823715D02*
X152488641Y-94816193D01*
X152355128Y-94816193D02*
X152421885Y-94823715D01*
X152291719Y-94794005D02*
X152355128Y-94816193D01*
X152234838Y-94758264D02*
X152291719Y-94794005D01*
X152187335Y-94710761D02*
X152234838Y-94758264D01*
X152151594Y-94653880D02*
X152187335Y-94710761D01*
X152129406Y-94590471D02*
X152151594Y-94653880D01*
X152121885Y-94523715D02*
X152129406Y-94590471D01*
X152121885Y-74323715D02*
X152121885Y-94523715D01*
X152114363Y-74256959D02*
X152121885Y-74323715D01*
X152092175Y-74193550D02*
X152114363Y-74256959D01*
X152056434Y-74136669D02*
X152092175Y-74193550D01*
X152008931Y-74089166D02*
X152056434Y-74136669D01*
X151952050Y-74053425D02*
X152008931Y-74089166D01*
X151888641Y-74031237D02*
X151952050Y-74053425D01*
X151821885Y-74023715D02*
X151888641Y-74031237D01*
X151755128Y-74031237D02*
X151821885Y-74023715D01*
X151691719Y-74053425D02*
X151755128Y-74031237D01*
X151634838Y-74089166D02*
X151691719Y-74053425D01*
X151587335Y-74136669D02*
X151634838Y-74089166D01*
X151551594Y-74193550D02*
X151587335Y-74136669D01*
X151529406Y-74256959D02*
X151551594Y-74193550D01*
X151521885Y-74323715D02*
X151529406Y-74256959D01*
X151521885Y-95623715D02*
X151521885Y-74323715D01*
X151514363Y-95690471D02*
X151521885Y-95623715D01*
X151492175Y-95753880D02*
X151514363Y-95690471D01*
X151456434Y-95810761D02*
X151492175Y-95753880D01*
X151408931Y-95858264D02*
X151456434Y-95810761D01*
X151352050Y-95894005D02*
X151408931Y-95858264D01*
X151288641Y-95916193D02*
X151352050Y-95894005D01*
X151221885Y-95923715D02*
X151288641Y-95916193D01*
X151155128Y-95916193D02*
X151221885Y-95923715D01*
X151091719Y-95894005D02*
X151155128Y-95916193D01*
X151034838Y-95858264D02*
X151091719Y-95894005D01*
X150987335Y-95810761D02*
X151034838Y-95858264D01*
X150951594Y-95753880D02*
X150987335Y-95810761D01*
X150929406Y-95690471D02*
X150951594Y-95753880D01*
X150921885Y-95623715D02*
X150929406Y-95690471D01*
X150921885Y-74323715D02*
X150921885Y-95623715D01*
X150914363Y-74256959D02*
X150921885Y-74323715D01*
X150892175Y-74193550D02*
X150914363Y-74256959D01*
X150856434Y-74136669D02*
X150892175Y-74193550D01*
X150808931Y-74089166D02*
X150856434Y-74136669D01*
X150752050Y-74053425D02*
X150808931Y-74089166D01*
X150688641Y-74031237D02*
X150752050Y-74053425D01*
X150621885Y-74023715D02*
X150688641Y-74031237D01*
X150555128Y-74031237D02*
X150621885Y-74023715D01*
X150491719Y-74053425D02*
X150555128Y-74031237D01*
X150434838Y-74089166D02*
X150491719Y-74053425D01*
X150387335Y-74136669D02*
X150434838Y-74089166D01*
X150351594Y-74193550D02*
X150387335Y-74136669D01*
X150329406Y-74256959D02*
X150351594Y-74193550D01*
X150321885Y-74323715D02*
X150329406Y-74256959D01*
X150321885Y-96723715D02*
X150321885Y-74323715D01*
X150314363Y-96790471D02*
X150321885Y-96723715D01*
X150292175Y-96853880D02*
X150314363Y-96790471D01*
X150256434Y-96910761D02*
X150292175Y-96853880D01*
X150208931Y-96958264D02*
X150256434Y-96910761D01*
X150152050Y-96994005D02*
X150208931Y-96958264D01*
X150088641Y-97016193D02*
X150152050Y-96994005D01*
X150021885Y-97023715D02*
X150088641Y-97016193D01*
X149955128Y-97016193D02*
X150021885Y-97023715D01*
X149891719Y-96994005D02*
X149955128Y-97016193D01*
X149834838Y-96958264D02*
X149891719Y-96994005D01*
X149787335Y-96910761D02*
X149834838Y-96958264D01*
X149751594Y-96853880D02*
X149787335Y-96910761D01*
X149729406Y-96790471D02*
X149751594Y-96853880D01*
X149721885Y-96723715D02*
X149729406Y-96790471D01*
X149721885Y-74323715D02*
X149721885Y-96723715D01*
X149714363Y-74256959D02*
X149721885Y-74323715D01*
X149692175Y-74193550D02*
X149714363Y-74256959D01*
X149656434Y-74136669D02*
X149692175Y-74193550D01*
X149608931Y-74089166D02*
X149656434Y-74136669D01*
X149552050Y-74053425D02*
X149608931Y-74089166D01*
X149488641Y-74031237D02*
X149552050Y-74053425D01*
X149421885Y-74023715D02*
X149488641Y-74031237D01*
X149355128Y-74031237D02*
X149421885Y-74023715D01*
X149291719Y-74053425D02*
X149355128Y-74031237D01*
X149234838Y-74089166D02*
X149291719Y-74053425D01*
X149187335Y-74136669D02*
X149234838Y-74089166D01*
X149151594Y-74193550D02*
X149187335Y-74136669D01*
X149129406Y-74256959D02*
X149151594Y-74193550D01*
X149121885Y-74323715D02*
X149129406Y-74256959D01*
X149121885Y-97873715D02*
X149121885Y-74323715D01*
X149114363Y-97940471D02*
X149121885Y-97873715D01*
X149092175Y-98003880D02*
X149114363Y-97940471D01*
X149056434Y-98060761D02*
X149092175Y-98003880D01*
X149008931Y-98108264D02*
X149056434Y-98060761D01*
X148952050Y-98144005D02*
X149008931Y-98108264D01*
X148888641Y-98166193D02*
X148952050Y-98144005D01*
X148821885Y-98173715D02*
X148888641Y-98166193D01*
X148755128Y-98166193D02*
X148821885Y-98173715D01*
X148691719Y-98144005D02*
X148755128Y-98166193D01*
X148634838Y-98108264D02*
X148691719Y-98144005D01*
X148587335Y-98060761D02*
X148634838Y-98108264D01*
X148551594Y-98003880D02*
X148587335Y-98060761D01*
X148529406Y-97940471D02*
X148551594Y-98003880D01*
X148521885Y-97873715D02*
X148529406Y-97940471D01*
X148521885Y-74323715D02*
X148521885Y-97873715D01*
X148514363Y-74256959D02*
X148521885Y-74323715D01*
X148492175Y-74193550D02*
X148514363Y-74256959D01*
X148456434Y-74136669D02*
X148492175Y-74193550D01*
X148408931Y-74089166D02*
X148456434Y-74136669D01*
X148352050Y-74053425D02*
X148408931Y-74089166D01*
X148288641Y-74031237D02*
X148352050Y-74053425D01*
X148221885Y-74023715D02*
X148288641Y-74031237D01*
X148155128Y-74031237D02*
X148221885Y-74023715D01*
X148091719Y-74053425D02*
X148155128Y-74031237D01*
X148034838Y-74089166D02*
X148091719Y-74053425D01*
X147987335Y-74136669D02*
X148034838Y-74089166D01*
X147951594Y-74193550D02*
X147987335Y-74136669D01*
X147929406Y-74256959D02*
X147951594Y-74193550D01*
X147921885Y-74323715D02*
X147929406Y-74256959D01*
X147921885Y-98973715D02*
X147921885Y-74323715D01*
X147914363Y-99040471D02*
X147921885Y-98973715D01*
X147892175Y-99103880D02*
X147914363Y-99040471D01*
X147856434Y-99160761D02*
X147892175Y-99103880D01*
X147808931Y-99208264D02*
X147856434Y-99160761D01*
X147752050Y-99244005D02*
X147808931Y-99208264D01*
X147688641Y-99266193D02*
X147752050Y-99244005D01*
X147621885Y-99273715D02*
X147688641Y-99266193D01*
X147555128Y-99266193D02*
X147621885Y-99273715D01*
X147491719Y-99244005D02*
X147555128Y-99266193D01*
X147434838Y-99208264D02*
X147491719Y-99244005D01*
X147387335Y-99160761D02*
X147434838Y-99208264D01*
X147351594Y-99103880D02*
X147387335Y-99160761D01*
X147329406Y-99040471D02*
X147351594Y-99103880D01*
X147321885Y-98973715D02*
X147329406Y-99040471D01*
X147321885Y-74323715D02*
X147321885Y-98973715D01*
X147314363Y-74256959D02*
X147321885Y-74323715D01*
X147292175Y-74193550D02*
X147314363Y-74256959D01*
X147256434Y-74136669D02*
X147292175Y-74193550D01*
X147208931Y-74089166D02*
X147256434Y-74136669D01*
X147152050Y-74053425D02*
X147208931Y-74089166D01*
X147088641Y-74031237D02*
X147152050Y-74053425D01*
X147021885Y-74023715D02*
X147088641Y-74031237D01*
X146955128Y-74031237D02*
X147021885Y-74023715D01*
X146891719Y-74053425D02*
X146955128Y-74031237D01*
X146834838Y-74089166D02*
X146891719Y-74053425D01*
X146787335Y-74136669D02*
X146834838Y-74089166D01*
X146751594Y-74193550D02*
X146787335Y-74136669D01*
X146729406Y-74256959D02*
X146751594Y-74193550D01*
X146721885Y-74323715D02*
X146729406Y-74256959D01*
X146721885Y-100123715D02*
X146721885Y-74323715D01*
X146714363Y-100190471D02*
X146721885Y-100123715D01*
X146692175Y-100253880D02*
X146714363Y-100190471D01*
X146656434Y-100310761D02*
X146692175Y-100253880D01*
X146608931Y-100358264D02*
X146656434Y-100310761D01*
X146552050Y-100394005D02*
X146608931Y-100358264D01*
X146488641Y-100416193D02*
X146552050Y-100394005D01*
X146421885Y-100423715D02*
X146488641Y-100416193D01*
X146355128Y-100416193D02*
X146421885Y-100423715D01*
X146291719Y-100394005D02*
X146355128Y-100416193D01*
X146234838Y-100358264D02*
X146291719Y-100394005D01*
X164751594Y-77643550D02*
X164787335Y-77586669D01*
X129555128Y-95666193D02*
X129621885Y-95673715D01*
X163529406Y-76956959D02*
X163551594Y-76893550D01*
X129491719Y-95644005D02*
X129555128Y-95666193D01*
X165292175Y-77643550D02*
X165314363Y-77706959D01*
X129434838Y-95608264D02*
X129491719Y-95644005D01*
X164421885Y-83623715D02*
X164488641Y-83616193D01*
X129387335Y-95560761D02*
X129434838Y-95608264D01*
X165621885Y-82473715D02*
X165688641Y-82466193D01*
X129351594Y-95503880D02*
X129387335Y-95560761D01*
X163521885Y-77023715D02*
X163529406Y-76956959D01*
X129329406Y-95440471D02*
X129351594Y-95503880D01*
X163952050Y-76753425D02*
X164008931Y-76789166D01*
X129321885Y-95373715D02*
X129329406Y-95440471D01*
X165387335Y-82360761D02*
X165434838Y-82408264D01*
X129321885Y-74323715D02*
X129321885Y-95373715D01*
X165021885Y-77473715D02*
X165088641Y-77481237D01*
X129292175Y-74193550D02*
X129314363Y-74256959D01*
X165555128Y-82466193D02*
X165621885Y-82473715D01*
X129256434Y-74136669D02*
X129292175Y-74193550D01*
X164729406Y-77706959D02*
X164751594Y-77643550D01*
X129088641Y-74031237D02*
X129152050Y-74053425D01*
X164187335Y-83510761D02*
X164234838Y-83558264D01*
X128955128Y-74031237D02*
X129021885Y-74023715D01*
X167121885Y-81073715D02*
X167121885Y-80273715D01*
X128834838Y-74089166D02*
X128891719Y-74053425D01*
X163634838Y-76789166D02*
X163691719Y-76753425D01*
X128751594Y-74193550D02*
X128787335Y-74136669D01*
X162921885Y-84423715D02*
X162929406Y-84490471D01*
X128729406Y-74256959D02*
X128751594Y-74193550D01*
X167291719Y-80003424D02*
X167355128Y-79981236D01*
X128721885Y-74323715D02*
X128729406Y-74256959D01*
X163521885Y-84423715D02*
X163521885Y-77023715D01*
X128721885Y-94223715D02*
X128721885Y-74323715D01*
X164721885Y-83323715D02*
X164721885Y-77773715D01*
X128692175Y-94353880D02*
X128714363Y-94290471D01*
X164552050Y-83594005D02*
X164608931Y-83558264D01*
X128552050Y-94494005D02*
X128608931Y-94458264D01*
X164834838Y-77539166D02*
X164891719Y-77503425D01*
X128488641Y-94516193D02*
X128552050Y-94494005D01*
X166492175Y-78493550D02*
X166514363Y-78556959D01*
X128421885Y-94523715D02*
X128488641Y-94516193D01*
X165152050Y-77503425D02*
X165208931Y-77539166D01*
X128234838Y-94458264D02*
X128291719Y-94494005D01*
X167234838Y-80039165D02*
X167291719Y-80003424D01*
X128151594Y-94353880D02*
X128187335Y-94410761D01*
X165987335Y-78436669D02*
X166034838Y-78389166D01*
X128121885Y-74373715D02*
X128121885Y-94223715D01*
X163587335Y-76836669D02*
X163634838Y-76789166D01*
X128114363Y-74306959D02*
X128121885Y-74373715D01*
X163456434Y-84610761D02*
X163492175Y-84553880D01*
X128092175Y-74243550D02*
X128114363Y-74306959D01*
X163691719Y-76753425D02*
X163755128Y-76731237D01*
X128056434Y-74186669D02*
X128092175Y-74243550D01*
X165208931Y-77539166D02*
X165256434Y-77586669D01*
X128008931Y-74139166D02*
X128056434Y-74186669D01*
X162314363Y-85590471D02*
X162321885Y-85523715D01*
X127952050Y-74103425D02*
X128008931Y-74139166D01*
X162688641Y-76131237D02*
X162752050Y-76153425D01*
X127888641Y-74081237D02*
X127952050Y-74103425D01*
X127821885Y-74073715D02*
X127888641Y-74081237D01*
X162351594Y-76293550D02*
X162387335Y-76236669D01*
X127755128Y-74081237D02*
X127821885Y-74073715D01*
X162208931Y-85758264D02*
X162256434Y-85710761D01*
X127691719Y-74103425D02*
X127755128Y-74081237D01*
X161714363Y-75806959D02*
X161721885Y-75873715D01*
X127634838Y-74139166D02*
X127691719Y-74103425D01*
X164955128Y-77481237D02*
X165021885Y-77473715D01*
X127587335Y-74186669D02*
X127634838Y-74139166D01*
X163408931Y-84658264D02*
X163456434Y-84610761D01*
X127551594Y-74243550D02*
X127587335Y-74186669D01*
X160952050Y-86944005D02*
X161008931Y-86908264D01*
X127529406Y-74306959D02*
X127551594Y-74243550D01*
X127521885Y-74373715D02*
X127529406Y-74306959D01*
X161955128Y-85816193D02*
X162021885Y-85823715D01*
X127521885Y-93123715D02*
X127521885Y-74373715D01*
X127514363Y-93190471D02*
X127521885Y-93123715D01*
X162929406Y-84490471D02*
X162951594Y-84553880D01*
X127492175Y-93253880D02*
X127514363Y-93190471D01*
X162914363Y-76356959D02*
X162921885Y-76423715D01*
X127456434Y-93310761D02*
X127492175Y-93253880D01*
X164488641Y-83616193D02*
X164552050Y-83594005D01*
X127408931Y-93358264D02*
X127456434Y-93310761D01*
X164656434Y-83510761D02*
X164692175Y-83453880D01*
X127352050Y-93394005D02*
X127408931Y-93358264D01*
X161187335Y-75686669D02*
X161234838Y-75639166D01*
X127288641Y-93416193D02*
X127352050Y-93394005D01*
X161787335Y-85710761D02*
X161834838Y-85758264D01*
X127221885Y-93423715D02*
X127288641Y-93416193D01*
X164355128Y-83616193D02*
X164421885Y-83623715D01*
X127155128Y-93416193D02*
X127221885Y-93423715D01*
X164008931Y-76789166D02*
X164056434Y-76836669D01*
X127091719Y-93394005D02*
X127155128Y-93416193D01*
X161656434Y-75686669D02*
X161692175Y-75743550D01*
X127034838Y-93358264D02*
X127091719Y-93394005D01*
X163551594Y-76893550D02*
X163587335Y-76836669D01*
X126987335Y-93310761D02*
X127034838Y-93358264D01*
X126951594Y-93253880D02*
X126987335Y-93310761D01*
X161114363Y-86740471D02*
X161121885Y-86673715D01*
X126929406Y-93190471D02*
X126951594Y-93253880D01*
X164714363Y-83390471D02*
X164721885Y-83323715D01*
X126921885Y-93123715D02*
X126929406Y-93190471D01*
X164151594Y-83453880D02*
X164187335Y-83510761D01*
X126921885Y-74473715D02*
X126921885Y-93123715D01*
X162292175Y-85653880D02*
X162314363Y-85590471D01*
X126914363Y-74406959D02*
X126921885Y-74473715D01*
X126892175Y-74343550D02*
X126914363Y-74406959D01*
X126856434Y-74286669D02*
X126892175Y-74343550D01*
X161729406Y-85590471D02*
X161751594Y-85653880D01*
X126808931Y-74239166D02*
X126856434Y-74286669D01*
X163091719Y-84694005D02*
X163155128Y-84716193D01*
X126752050Y-74203425D02*
X126808931Y-74239166D01*
X162555128Y-76131237D02*
X162621885Y-76123715D01*
X126688641Y-74181237D02*
X126752050Y-74203425D01*
X162621885Y-76123715D02*
X162688641Y-76131237D01*
X126621885Y-74173715D02*
X126688641Y-74181237D01*
X162387335Y-76236669D02*
X162434838Y-76189166D01*
X126555128Y-74181237D02*
X126621885Y-74173715D01*
X126491719Y-74203425D02*
X126555128Y-74181237D01*
X161721885Y-75873715D02*
X161721885Y-85523715D01*
X126434838Y-74239166D02*
X126491719Y-74203425D01*
X164891719Y-77503425D02*
X164955128Y-77481237D01*
X126387335Y-74286669D02*
X126434838Y-74239166D01*
X163155128Y-84716193D02*
X163221885Y-84723715D01*
X126351594Y-74343550D02*
X126387335Y-74286669D01*
X165088641Y-77481237D02*
X165152050Y-77503425D01*
X126329406Y-74406959D02*
X126351594Y-74343550D01*
X162921885Y-76423715D02*
X162921885Y-84423715D01*
X126321885Y-74473715D02*
X126329406Y-74406959D01*
X162856434Y-76236669D02*
X162892175Y-76293550D01*
X126321885Y-92023715D02*
X126321885Y-74473715D01*
X164056434Y-76836669D02*
X164092175Y-76893550D01*
X126314363Y-92090471D02*
X126321885Y-92023715D01*
X126292175Y-92153880D02*
X126314363Y-92090471D01*
X126256434Y-92210761D02*
X126292175Y-92153880D01*
X161121885Y-86673715D02*
X161121885Y-75873715D01*
X126208931Y-92258264D02*
X126256434Y-92210761D01*
X164234838Y-83558264D02*
X164291719Y-83594005D01*
X126152050Y-92294005D02*
X126208931Y-92258264D01*
X126088641Y-92316193D02*
X126152050Y-92294005D01*
X164291719Y-83594005D02*
X164355128Y-83616193D01*
X126021885Y-92323715D02*
X126088641Y-92316193D01*
X164121885Y-77023715D02*
X164121885Y-83323715D01*
X125955128Y-92316193D02*
X126021885Y-92323715D01*
X164129406Y-83390471D02*
X164151594Y-83453880D01*
X125891719Y-92294005D02*
X125955128Y-92316193D01*
X161552050Y-75603425D02*
X161608931Y-75639166D01*
X125834838Y-92258264D02*
X125891719Y-92294005D01*
X162752050Y-76153425D02*
X162808931Y-76189166D01*
X125787335Y-92210761D02*
X125834838Y-92258264D01*
X164721885Y-77773715D02*
X164729406Y-77706959D01*
X125751594Y-92153880D02*
X125787335Y-92210761D01*
X162256434Y-85710761D02*
X162292175Y-85653880D01*
X125729406Y-92090471D02*
X125751594Y-92153880D01*
X162987335Y-84610761D02*
X163034838Y-84658264D01*
X125721885Y-92023715D02*
X125729406Y-92090471D01*
X162491719Y-76153425D02*
X162555128Y-76131237D01*
X125721885Y-74573715D02*
X125721885Y-92023715D01*
X162808931Y-76189166D02*
X162856434Y-76236669D01*
X125714363Y-74506959D02*
X125721885Y-74573715D01*
X161488641Y-75581237D02*
X161552050Y-75603425D01*
X125692175Y-74443550D02*
X125714363Y-74506959D01*
X125656434Y-74386669D02*
X125692175Y-74443550D01*
X125608931Y-74339166D02*
X125656434Y-74386669D01*
X161834838Y-85758264D02*
X161891719Y-85794005D01*
X125552050Y-74303425D02*
X125608931Y-74339166D01*
X162329406Y-76356959D02*
X162351594Y-76293550D01*
X125488641Y-74281237D02*
X125552050Y-74303425D01*
X161234838Y-75639166D02*
X161291719Y-75603425D01*
X125421885Y-74273715D02*
X125488641Y-74281237D01*
X125355128Y-74281237D02*
X125421885Y-74273715D01*
X125291719Y-74303425D02*
X125355128Y-74281237D01*
X162152050Y-85794005D02*
X162208931Y-85758264D01*
X125234838Y-74339166D02*
X125291719Y-74303425D01*
X125187335Y-74386669D02*
X125234838Y-74339166D01*
X162434838Y-76189166D02*
X162491719Y-76153425D01*
X125151594Y-74443550D02*
X125187335Y-74386669D01*
X161151594Y-75743550D02*
X161187335Y-75686669D01*
X125129406Y-74506959D02*
X125151594Y-74443550D01*
X162321885Y-76423715D02*
X162329406Y-76356959D01*
X125121885Y-74573715D02*
X125129406Y-74506959D01*
X125121885Y-90873715D02*
X125121885Y-74573715D01*
X125114363Y-90940471D02*
X125121885Y-90873715D01*
X125092175Y-91003880D02*
X125114363Y-90940471D01*
X125056434Y-91060761D02*
X125092175Y-91003880D01*
X161121885Y-75873715D02*
X161129406Y-75806959D01*
X125008931Y-91108264D02*
X125056434Y-91060761D01*
X162021885Y-85823715D02*
X162088641Y-85816193D01*
X124952050Y-91144005D02*
X125008931Y-91108264D01*
X124888641Y-91166193D02*
X124952050Y-91144005D01*
X124821885Y-91173715D02*
X124888641Y-91166193D01*
X124755128Y-91166193D02*
X124821885Y-91173715D01*
X161056434Y-86860761D02*
X161092175Y-86803880D01*
X124691719Y-91144005D02*
X124755128Y-91166193D01*
X124634838Y-91108264D02*
X124691719Y-91144005D01*
X124587335Y-91060761D02*
X124634838Y-91108264D01*
X161008931Y-86908264D02*
X161056434Y-86860761D01*
X124551594Y-91003880D02*
X124587335Y-91060761D01*
X161608931Y-75639166D02*
X161656434Y-75686669D01*
X124529406Y-90940471D02*
X124551594Y-91003880D01*
X124521885Y-90873715D02*
X124529406Y-90940471D01*
X161751594Y-85653880D02*
X161787335Y-85710761D01*
X124521885Y-74723715D02*
X124521885Y-90873715D01*
X124514363Y-74656959D02*
X124521885Y-74723715D01*
X124492175Y-74593550D02*
X124514363Y-74656959D01*
X124456434Y-74536669D02*
X124492175Y-74593550D01*
X124408931Y-74489166D02*
X124456434Y-74536669D01*
X161291719Y-75603425D02*
X161355128Y-75581237D01*
X124352050Y-74453425D02*
X124408931Y-74489166D01*
X124288641Y-74431237D02*
X124352050Y-74453425D01*
X124221885Y-74423715D02*
X124288641Y-74431237D01*
X124155128Y-74431237D02*
X124221885Y-74423715D01*
X124091719Y-74453425D02*
X124155128Y-74431237D01*
X124034838Y-74489166D02*
X124091719Y-74453425D01*
X162321885Y-85523715D02*
X162321885Y-76423715D01*
X123987335Y-74536669D02*
X124034838Y-74489166D01*
X123951594Y-74593550D02*
X123987335Y-74536669D01*
X123929406Y-74656959D02*
X123951594Y-74593550D01*
X162088641Y-85816193D02*
X162152050Y-85794005D01*
X123921885Y-74723715D02*
X123929406Y-74656959D01*
X123921885Y-89773715D02*
X123921885Y-74723715D01*
X123914363Y-89840471D02*
X123921885Y-89773715D01*
X123892175Y-89903880D02*
X123914363Y-89840471D01*
X161421885Y-75573715D02*
X161488641Y-75581237D01*
X123856434Y-89960761D02*
X123892175Y-89903880D01*
X161891719Y-85794005D02*
X161955128Y-85816193D01*
X123808931Y-90008264D02*
X123856434Y-89960761D01*
X123752050Y-90044005D02*
X123808931Y-90008264D01*
X161692175Y-75743550D02*
X161714363Y-75806959D01*
X123688641Y-90066193D02*
X123752050Y-90044005D01*
X123621885Y-90073715D02*
X123688641Y-90066193D01*
X123555128Y-90066193D02*
X123621885Y-90073715D01*
X161355128Y-75581237D02*
X161421885Y-75573715D01*
X123491719Y-90044005D02*
X123555128Y-90066193D01*
X123434838Y-90008264D02*
X123491719Y-90044005D01*
X123387335Y-89960761D02*
X123434838Y-90008264D01*
X123351594Y-89903880D02*
X123387335Y-89960761D01*
X123329406Y-89840471D02*
X123351594Y-89903880D01*
X123321885Y-89773715D02*
X123329406Y-89840471D01*
X123321885Y-74923715D02*
X123321885Y-89773715D01*
X161129406Y-75806959D02*
X161151594Y-75743550D01*
X123314363Y-74856959D02*
X123321885Y-74923715D01*
X123292175Y-74793550D02*
X123314363Y-74856959D01*
X161092175Y-86803880D02*
X161114363Y-86740471D01*
X123256434Y-74736669D02*
X123292175Y-74793550D01*
X123208931Y-74689166D02*
X123256434Y-74736669D01*
X123152050Y-74653425D02*
X123208931Y-74689166D01*
X161721885Y-85523715D02*
X161729406Y-85590471D01*
X123088641Y-74631237D02*
X123152050Y-74653425D01*
X123021885Y-74623715D02*
X123088641Y-74631237D01*
X122955128Y-74631237D02*
X123021885Y-74623715D01*
X122891719Y-74653425D02*
X122955128Y-74631237D01*
X122834838Y-74689166D02*
X122891719Y-74653425D01*
X122787335Y-74736669D02*
X122834838Y-74689166D01*
X122751594Y-74793550D02*
X122787335Y-74736669D01*
X122729406Y-74856959D02*
X122751594Y-74793550D01*
X122721885Y-74923715D02*
X122729406Y-74856959D01*
X122721885Y-88623715D02*
X122721885Y-74923715D01*
X122714363Y-88690471D02*
X122721885Y-88623715D01*
X122692175Y-88753880D02*
X122714363Y-88690471D01*
X122656434Y-88810761D02*
X122692175Y-88753880D01*
X122608931Y-88858264D02*
X122656434Y-88810761D01*
X122552050Y-88894005D02*
X122608931Y-88858264D01*
X122488641Y-88916193D02*
X122552050Y-88894005D01*
X122421885Y-88923715D02*
X122488641Y-88916193D01*
X122355128Y-88916193D02*
X122421885Y-88923715D01*
X122291719Y-88894005D02*
X122355128Y-88916193D01*
X122234838Y-88858264D02*
X122291719Y-88894005D01*
X122187335Y-88810761D02*
X122234838Y-88858264D01*
X122151594Y-88753880D02*
X122187335Y-88810761D01*
X122129406Y-88690471D02*
X122151594Y-88753880D01*
X122121885Y-88623715D02*
X122129406Y-88690471D01*
X122121885Y-75223715D02*
X122121885Y-88623715D01*
X122114363Y-75156959D02*
X122121885Y-75223715D01*
X122092175Y-75093550D02*
X122114363Y-75156959D01*
X122056434Y-75036669D02*
X122092175Y-75093550D01*
X122008931Y-74989166D02*
X122056434Y-75036669D01*
X121952050Y-74953425D02*
X122008931Y-74989166D01*
X121888641Y-74931237D02*
X121952050Y-74953425D01*
X121821885Y-74923715D02*
X121888641Y-74931237D01*
X121755128Y-74931237D02*
X121821885Y-74923715D01*
X121691719Y-74953425D02*
X121755128Y-74931237D01*
X121634838Y-74989166D02*
X121691719Y-74953425D01*
X121587335Y-75036669D02*
X121634838Y-74989166D01*
X121551594Y-75093550D02*
X121587335Y-75036669D01*
X121529406Y-75156959D02*
X121551594Y-75093550D01*
X121521885Y-75223715D02*
X121529406Y-75156959D01*
X121521885Y-87523715D02*
X121521885Y-75223715D01*
X121514363Y-87590471D02*
X121521885Y-87523715D01*
X121492175Y-87653880D02*
X121514363Y-87590471D01*
X121456434Y-87710761D02*
X121492175Y-87653880D01*
X121408931Y-87758264D02*
X121456434Y-87710761D01*
X117292175Y-77093550D02*
X117314363Y-77156959D01*
X117256434Y-77036669D02*
X117292175Y-77093550D01*
X117208931Y-76989166D02*
X117256434Y-77036669D01*
X117152050Y-76953425D02*
X117208931Y-76989166D01*
X117088641Y-76931237D02*
X117152050Y-76953425D01*
X117021885Y-76923715D02*
X117088641Y-76931237D01*
X116891719Y-76953425D02*
X116955128Y-76931237D01*
X116834838Y-76989166D02*
X116891719Y-76953425D01*
X116787335Y-77036669D02*
X116834838Y-76989166D01*
X116721885Y-77223715D02*
X116729406Y-77156959D01*
X116656434Y-83210761D02*
X116692175Y-83153880D01*
X116608931Y-83258264D02*
X116656434Y-83210761D01*
X116552050Y-83294005D02*
X116608931Y-83258264D01*
X116488641Y-83316193D02*
X116552050Y-83294005D01*
X116421885Y-83323715D02*
X116488641Y-83316193D01*
X116355128Y-83316193D02*
X116421885Y-83323715D01*
X116291719Y-83294005D02*
X116355128Y-83316193D01*
X116234838Y-83258264D02*
X116291719Y-83294005D01*
X116187335Y-83210761D02*
X116234838Y-83258264D01*
X116151594Y-83153880D02*
X116187335Y-83210761D01*
X116121885Y-77973715D02*
X116121885Y-83023715D01*
X116114363Y-77906959D02*
X116121885Y-77973715D01*
X116092175Y-77843550D02*
X116114363Y-77906959D01*
X116056434Y-77786669D02*
X116092175Y-77843550D01*
X116008931Y-77739166D02*
X116056434Y-77786669D01*
X115952050Y-77703425D02*
X116008931Y-77739166D01*
X115888641Y-77681237D02*
X115952050Y-77703425D01*
X115755128Y-77681237D02*
X115821885Y-77673715D01*
X115634838Y-77739166D02*
X115691719Y-77703425D01*
X115587335Y-77786669D02*
X115634838Y-77739166D01*
X115551594Y-77843550D02*
X115587335Y-77786669D01*
X115521885Y-77973715D02*
X115529406Y-77906959D01*
X115521885Y-81923715D02*
X115521885Y-77973715D01*
X115514363Y-81990471D02*
X115521885Y-81923715D01*
X115456434Y-82110761D02*
X115492175Y-82053880D01*
X115408931Y-82158264D02*
X115456434Y-82110761D01*
X164608931Y-83558264D02*
X164656434Y-83510761D01*
X128187335Y-94410761D02*
X128234838Y-94458264D01*
X115288641Y-82216193D02*
X115352050Y-82194005D01*
X143714363Y-74256959D02*
X143721885Y-74323715D01*
X121352050Y-87794005D02*
X121408931Y-87758264D01*
X114256434Y-81010761D02*
X114292175Y-80953880D01*
X114208931Y-81058264D02*
X114256434Y-81010761D01*
X120387335Y-75336669D02*
X120434838Y-75289166D01*
X116751594Y-77093550D02*
X116787335Y-77036669D01*
X166691719Y-81344005D02*
X166755128Y-81366193D01*
X128891719Y-74053425D02*
X128955128Y-74031237D01*
X114292175Y-80953880D02*
X114314363Y-80890471D01*
X120921885Y-87523715D02*
X120929406Y-87590471D01*
X114152050Y-81094005D02*
X114208931Y-81058264D01*
X116121885Y-83023715D02*
X116129406Y-83090471D01*
X164787335Y-77586669D02*
X164834838Y-77539166D01*
X129021885Y-74023715D02*
X129088641Y-74031237D01*
X114021885Y-81123715D02*
X114088641Y-81116193D01*
X144321885Y-74323715D02*
X144329406Y-74256959D01*
X114856434Y-78586669D02*
X114892175Y-78643550D01*
X113891719Y-81094005D02*
X113955128Y-81116193D01*
X120914363Y-75456959D02*
X120921885Y-75523715D01*
X113787335Y-81010761D02*
X113834838Y-81058264D01*
X115691719Y-77703425D02*
X115755128Y-77681237D01*
X163034838Y-84658264D02*
X163091719Y-84694005D01*
X128714363Y-94290471D02*
X128721885Y-94223715D01*
X113751594Y-80953880D02*
X113787335Y-81010761D01*
X144256434Y-101660761D02*
X144292175Y-101603880D01*
X114808931Y-78539166D02*
X114856434Y-78586669D01*
X121034838Y-87758264D02*
X121091719Y-87794005D01*
X113955128Y-81116193D02*
X114021885Y-81123715D01*
X120929406Y-87590471D02*
X120951594Y-87653880D01*
X114921885Y-81923715D02*
X114929406Y-81990471D01*
X113834838Y-81058264D02*
X113891719Y-81094005D01*
X116129406Y-83090471D02*
X116151594Y-83153880D01*
X114088641Y-81116193D02*
X114152050Y-81094005D01*
X113608931Y-80039165D02*
X113656434Y-80086668D01*
X120434838Y-75289166D02*
X120491719Y-75253425D01*
X165434838Y-82408264D02*
X165491719Y-82444005D01*
X128129406Y-94290471D02*
X128151594Y-94353880D01*
X113488641Y-79981236D02*
X113552050Y-80003424D01*
X113421885Y-79973715D02*
X113488641Y-79981236D01*
X113552050Y-80003424D02*
X113608931Y-80039165D01*
X120951594Y-87653880D02*
X120987335Y-87710761D01*
X115352050Y-82194005D02*
X115408931Y-82158264D01*
X167056434Y-81260761D02*
X167092175Y-81203880D01*
X129208931Y-74089166D02*
X129256434Y-74136669D01*
X113692175Y-80143549D02*
X113714363Y-80206958D01*
X114914363Y-78706959D02*
X114921885Y-78773715D01*
X113656434Y-80086668D02*
X113692175Y-80143549D01*
X146114363Y-74256959D02*
X146121885Y-74323715D01*
X167355128Y-79981236D02*
X167421885Y-79973715D01*
X128291719Y-94494005D02*
X128355128Y-94516193D01*
X113714363Y-80206958D02*
X113721885Y-80273715D01*
X120555128Y-75231237D02*
X120621885Y-75223715D01*
X167008931Y-81308264D02*
X167056434Y-81260761D01*
X129621885Y-95673715D02*
X129688641Y-95666193D01*
X113721885Y-80273715D02*
X113721885Y-80823715D01*
X120688641Y-75231237D02*
X120752050Y-75253425D01*
X116692175Y-83153880D02*
X116714363Y-83090471D01*
X167151594Y-80143549D02*
X167187335Y-80086668D01*
X129152050Y-74053425D02*
X129208931Y-74089166D01*
X114314363Y-80890471D02*
X114321885Y-80823715D01*
X115091719Y-82194005D02*
X115155128Y-82216193D01*
X146151594Y-100253880D02*
X146187335Y-100310761D01*
X113721885Y-80823715D02*
X113729406Y-80890471D01*
X165491719Y-82444005D02*
X165555128Y-82466193D01*
X129314363Y-74256959D02*
X129321885Y-74323715D01*
X113063866Y-79973715D02*
X113421885Y-79973715D01*
X115492175Y-82053880D02*
X115514363Y-81990471D01*
X165929406Y-78556959D02*
X165951594Y-78493550D01*
X129752050Y-95644005D02*
X129808931Y-95608264D01*
X113729406Y-80890471D02*
X113751594Y-80953880D01*
X144808931Y-74089166D02*
X144856434Y-74136669D01*
X121288641Y-87816193D02*
X121352050Y-87794005D01*
X114321885Y-80823715D02*
X114321885Y-78773715D01*
X116955128Y-76931237D02*
X117021885Y-76923715D01*
X115155128Y-82216193D02*
X115221885Y-82223715D01*
X145221885Y-101523715D02*
X145288641Y-101516193D01*
X120856434Y-75336669D02*
X120892175Y-75393550D01*
X115821885Y-77673715D02*
X115888641Y-77681237D01*
X166529406Y-81140471D02*
X166551594Y-81203880D01*
X128121885Y-94223715D02*
X128129406Y-94290471D01*
X114321885Y-78773715D02*
X114329406Y-78706959D01*
X144752050Y-74053425D02*
X144808931Y-74089166D01*
X120892175Y-75393550D02*
X120914363Y-75456959D01*
X114892175Y-78643550D02*
X114914363Y-78706959D01*
X120752050Y-75253425D02*
X120808931Y-75289166D01*
X114329406Y-78706959D02*
X114351594Y-78643550D01*
X114951594Y-82053880D02*
X114987335Y-82110761D01*
X114351594Y-78643550D02*
X114387335Y-78586669D01*
X114387335Y-78586669D02*
X114434838Y-78539166D01*
X145408931Y-101458264D02*
X145456434Y-101410761D01*
X120621885Y-75223715D02*
X120688641Y-75231237D01*
X166408931Y-78389166D02*
X166456434Y-78436669D01*
X128787335Y-74136669D02*
X128834838Y-74089166D01*
X114434838Y-78539166D02*
X114491719Y-78503425D01*
X114987335Y-82110761D02*
X115034838Y-82158264D01*
X114491719Y-78503425D02*
X114555128Y-78481237D01*
X116714363Y-83090471D02*
X116721885Y-83023715D01*
X164092175Y-76893550D02*
X164114363Y-76956959D01*
X128656434Y-94410761D02*
X128692175Y-94353880D01*
X115221885Y-82223715D02*
X115288641Y-82216193D01*
X146056434Y-74136669D02*
X146092175Y-74193550D01*
X121221885Y-87823715D02*
X121288641Y-87816193D01*
X114555128Y-78481237D02*
X114621885Y-78473715D01*
X116721885Y-83023715D02*
X116721885Y-77223715D01*
X167187335Y-80086668D02*
X167234838Y-80039165D01*
X128608931Y-94458264D02*
X128656434Y-94410761D01*
X114621885Y-78473715D02*
X114688641Y-78481237D01*
X167092175Y-81203880D02*
X167114363Y-81140471D01*
X128355128Y-94516193D02*
X128421885Y-94523715D01*
X114688641Y-78481237D02*
X114752050Y-78503425D01*
X114752050Y-78503425D02*
X114808931Y-78539166D01*
X146092175Y-74193550D02*
X146114363Y-74256959D01*
X120351594Y-75393550D02*
X120387335Y-75336669D01*
X115529406Y-77906959D02*
X115551594Y-77843550D01*
X165856434Y-82360761D02*
X165892175Y-82303880D01*
X129688641Y-95666193D02*
X129752050Y-95644005D01*
X114921885Y-78773715D02*
X114921885Y-81923715D01*
X116729406Y-77156959D02*
X116751594Y-77093550D01*
X114929406Y-81990471D02*
X114951594Y-82053880D01*
X115034838Y-82158264D02*
X115091719Y-82194005D01*
X117314363Y-77156959D02*
X117321885Y-77223715D01*
X117321885Y-77223715D02*
X117321885Y-84173715D01*
X117321885Y-84173715D02*
X117329406Y-84240471D01*
X117329406Y-84240471D02*
X117351594Y-84303880D01*
X117351594Y-84303880D02*
X117387335Y-84360761D01*
X117387335Y-84360761D02*
X117434838Y-84408264D01*
X117434838Y-84408264D02*
X117491719Y-84444005D01*
X117491719Y-84444005D02*
X117555128Y-84466193D01*
X117555128Y-84466193D02*
X117621885Y-84473715D01*
X117621885Y-84473715D02*
X117688641Y-84466193D01*
X117688641Y-84466193D02*
X117752050Y-84444005D01*
X117752050Y-84444005D02*
X117808931Y-84408264D01*
X117808931Y-84408264D02*
X117856434Y-84360761D01*
X117856434Y-84360761D02*
X117892175Y-84303880D01*
X117892175Y-84303880D02*
X117914363Y-84240471D01*
X117914363Y-84240471D02*
X117921885Y-84173715D01*
X117921885Y-84173715D02*
X117921885Y-76523715D01*
X117921885Y-76523715D02*
X117929406Y-76456959D01*
X117929406Y-76456959D02*
X117951594Y-76393550D01*
X117951594Y-76393550D02*
X117987335Y-76336669D01*
X117987335Y-76336669D02*
X118034838Y-76289166D01*
X118034838Y-76289166D02*
X118091719Y-76253425D01*
X118091719Y-76253425D02*
X118155128Y-76231237D01*
X118155128Y-76231237D02*
X118221885Y-76223715D01*
X118221885Y-76223715D02*
X118288641Y-76231237D01*
X118288641Y-76231237D02*
X118352050Y-76253425D01*
X118352050Y-76253425D02*
X118408931Y-76289166D01*
X118408931Y-76289166D02*
X118456434Y-76336669D01*
X118456434Y-76336669D02*
X118492175Y-76393550D01*
X118492175Y-76393550D02*
X118514363Y-76456959D01*
X118514363Y-76456959D02*
X118521885Y-76523715D01*
X118521885Y-76523715D02*
X118521885Y-85273715D01*
X118521885Y-85273715D02*
X118529406Y-85340471D01*
X118529406Y-85340471D02*
X118551594Y-85403880D01*
X118551594Y-85403880D02*
X118587335Y-85460761D01*
X118587335Y-85460761D02*
X118634838Y-85508264D01*
X118634838Y-85508264D02*
X118691719Y-85544005D01*
X118691719Y-85544005D02*
X118755128Y-85566193D01*
X118755128Y-85566193D02*
X118821885Y-85573715D01*
X118821885Y-85573715D02*
X118888641Y-85566193D01*
X118888641Y-85566193D02*
X118952050Y-85544005D01*
X118952050Y-85544005D02*
X119008931Y-85508264D01*
X119008931Y-85508264D02*
X119056434Y-85460761D01*
X119056434Y-85460761D02*
X119092175Y-85403880D01*
X119092175Y-85403880D02*
X119114363Y-85340471D01*
X119114363Y-85340471D02*
X119121885Y-85273715D01*
X119121885Y-85273715D02*
X119121885Y-75973715D01*
X119121885Y-75973715D02*
X119129406Y-75906959D01*
X119129406Y-75906959D02*
X119151594Y-75843550D01*
X119151594Y-75843550D02*
X119187335Y-75786669D01*
X119187335Y-75786669D02*
X119234838Y-75739166D01*
X119234838Y-75739166D02*
X119291719Y-75703425D01*
X119291719Y-75703425D02*
X119355128Y-75681237D01*
X119355128Y-75681237D02*
X119421885Y-75673715D01*
X119421885Y-75673715D02*
X119488641Y-75681237D01*
X119488641Y-75681237D02*
X119552050Y-75703425D01*
X119552050Y-75703425D02*
X119608931Y-75739166D01*
X119608931Y-75739166D02*
X119656434Y-75786669D01*
X119656434Y-75786669D02*
X119692175Y-75843550D01*
X119692175Y-75843550D02*
X119714363Y-75906959D01*
X119714363Y-75906959D02*
X119721885Y-75973715D01*
X119721885Y-75973715D02*
X119721885Y-86423715D01*
X119721885Y-86423715D02*
X119729406Y-86490471D01*
X119729406Y-86490471D02*
X119751594Y-86553880D01*
X119751594Y-86553880D02*
X119787335Y-86610761D01*
X119787335Y-86610761D02*
X119834838Y-86658264D01*
X119834838Y-86658264D02*
X119891719Y-86694005D01*
X119891719Y-86694005D02*
X119955128Y-86716193D01*
X119955128Y-86716193D02*
X120021885Y-86723715D01*
X120021885Y-86723715D02*
X120088641Y-86716193D01*
X120088641Y-86716193D02*
X120152050Y-86694005D01*
X120152050Y-86694005D02*
X120208931Y-86658264D01*
X120208931Y-86658264D02*
X120256434Y-86610761D01*
X120256434Y-86610761D02*
X120292175Y-86553880D01*
X120292175Y-86553880D02*
X120314363Y-86490471D01*
X120314363Y-86490471D02*
X120321885Y-86423715D01*
X120321885Y-86423715D02*
X120321885Y-75523715D01*
X120321885Y-75523715D02*
X120329406Y-75456959D01*
X120329406Y-75456959D02*
X120351594Y-75393550D01*
X120491719Y-75253425D02*
X120555128Y-75231237D01*
X120808931Y-75289166D02*
X120856434Y-75336669D01*
X120921885Y-75523715D02*
X120921885Y-87523715D01*
X120987335Y-87710761D02*
X121034838Y-87758264D01*
X121091719Y-87794005D02*
X121155128Y-87816193D01*
X121155128Y-87816193D02*
X121221885Y-87823715D01*
X164114363Y-76956959D02*
X164121885Y-77023715D01*
X129808931Y-95608264D02*
X129856434Y-95560761D01*
X165914363Y-82240471D02*
X165921885Y-82173715D01*
X129856434Y-95560761D02*
X129892175Y-95503880D01*
X163755128Y-76731237D02*
X163821885Y-76723715D01*
X129892175Y-95503880D02*
X129914363Y-95440471D01*
X166521885Y-81073715D02*
X166529406Y-81140471D01*
X129914363Y-95440471D02*
X129921885Y-95373715D01*
X164121885Y-83323715D02*
X164129406Y-83390471D01*
X129921885Y-95373715D02*
X129921885Y-74323715D01*
X166888641Y-81366193D02*
X166952050Y-81344005D01*
X129921885Y-74323715D02*
X129929406Y-74256959D01*
X165752050Y-82444005D02*
X165808931Y-82408264D01*
X129929406Y-74256959D02*
X129951594Y-74193550D01*
X165321885Y-77773715D02*
X165321885Y-82173715D01*
X129951594Y-74193550D02*
X129987335Y-74136669D01*
X129987335Y-74136669D02*
X130034838Y-74089166D01*
X163514363Y-84490471D02*
X163521885Y-84423715D01*
X130034838Y-74089166D02*
X130091719Y-74053425D01*
X162951594Y-84553880D02*
X162987335Y-84610761D01*
X130091719Y-74053425D02*
X130155128Y-74031237D01*
X167114363Y-81140471D02*
X167121885Y-81073715D01*
X130155128Y-74031237D02*
X130221885Y-74023715D01*
X163352050Y-84694005D02*
X163408931Y-84658264D01*
X130221885Y-74023715D02*
X130288641Y-74031237D01*
X163821885Y-76723715D02*
X163888641Y-76731237D01*
X130288641Y-74031237D02*
X130352050Y-74053425D01*
X164692175Y-83453880D02*
X164714363Y-83390471D01*
X130352050Y-74053425D02*
X130408931Y-74089166D01*
X166352050Y-78353425D02*
X166408931Y-78389166D01*
X130408931Y-74089166D02*
X130456434Y-74136669D01*
X163288641Y-84716193D02*
X163352050Y-84694005D01*
X130456434Y-74136669D02*
X130492175Y-74193550D01*
X162892175Y-76293550D02*
X162914363Y-76356959D01*
X130492175Y-74193550D02*
X130514363Y-74256959D01*
X165921885Y-82173715D02*
X165921885Y-78623715D01*
X130514363Y-74256959D02*
X130521885Y-74323715D01*
X163888641Y-76731237D02*
X163952050Y-76753425D01*
X130521885Y-74323715D02*
X130521885Y-96473715D01*
X163492175Y-84553880D02*
X163514363Y-84490471D01*
X130521885Y-96473715D02*
X130529406Y-96540471D01*
X163221885Y-84723715D02*
X163288641Y-84716193D01*
X130529406Y-96540471D02*
X130551594Y-96603880D01*
X166288641Y-78331237D02*
X166352050Y-78353425D01*
X130551594Y-96603880D02*
X130587335Y-96660761D01*
X130587335Y-96660761D02*
X130634838Y-96708264D01*
X168057824Y-79973715D02*
X168093179Y-79938360D01*
X130634838Y-96708264D02*
X130691719Y-96744005D01*
X165256434Y-77586669D02*
X165292175Y-77643550D01*
X130691719Y-96744005D02*
X130755128Y-96766193D01*
X130755128Y-96766193D02*
X130821885Y-96773715D01*
X166521885Y-78623715D02*
X166521885Y-81073715D01*
X130821885Y-96773715D02*
X130888641Y-96766193D01*
X167129406Y-80206958D02*
X167151594Y-80143549D01*
X130888641Y-96766193D02*
X130952050Y-96744005D01*
X166221885Y-78323715D02*
X166288641Y-78331237D01*
X130952050Y-96744005D02*
X131008931Y-96708264D01*
X165921885Y-78623715D02*
X165929406Y-78556959D01*
X131008931Y-96708264D02*
X131056434Y-96660761D01*
X131056434Y-96660761D02*
X131092175Y-96603880D01*
X166634838Y-81308264D02*
X166691719Y-81344005D01*
X131092175Y-96603880D02*
X131114363Y-96540471D01*
X166456434Y-78436669D02*
X166492175Y-78493550D01*
X131114363Y-96540471D02*
X131121885Y-96473715D01*
X167121885Y-80273715D02*
X167129406Y-80206958D01*
X131121885Y-96473715D02*
X131121885Y-74323715D01*
X166821885Y-81373715D02*
X166888641Y-81366193D01*
X131121885Y-74323715D02*
X131129406Y-74256959D01*
X131129406Y-74256959D02*
X131151594Y-74193550D01*
X131151594Y-74193550D02*
X131187335Y-74136669D01*
X131187335Y-74136669D02*
X131234838Y-74089166D01*
X165314363Y-77706959D02*
X165321885Y-77773715D01*
X131234838Y-74089166D02*
X131291719Y-74053425D01*
X131291719Y-74053425D02*
X131355128Y-74031237D01*
X167421885Y-79973715D02*
X168057824Y-79973715D01*
X131355128Y-74031237D02*
X131421885Y-74023715D01*
X131421885Y-74023715D02*
X131488641Y-74031237D01*
X166091719Y-78353425D02*
X166155128Y-78331237D01*
X131488641Y-74031237D02*
X131552050Y-74053425D01*
X131552050Y-74053425D02*
X131608931Y-74089166D01*
X131608931Y-74089166D02*
X131656434Y-74136669D01*
X165688641Y-82466193D02*
X165752050Y-82444005D01*
X131656434Y-74136669D02*
X131692175Y-74193550D01*
X131692175Y-74193550D02*
X131714363Y-74256959D01*
X166952050Y-81344005D02*
X167008931Y-81308264D01*
X131714363Y-74256959D02*
X131721885Y-74323715D01*
X131721885Y-74323715D02*
X131721885Y-97623715D01*
X131721885Y-97623715D02*
X131729406Y-97690471D01*
X131729406Y-97690471D02*
X131751594Y-97753880D01*
X131751594Y-97753880D02*
X131787335Y-97810761D01*
X168093179Y-79938360D02*
X168105102Y-79926437D01*
X131787335Y-97810761D02*
X131834838Y-97858264D01*
X131834838Y-97858264D02*
X131891719Y-97894005D01*
X165892175Y-82303880D02*
X165914363Y-82240471D01*
X131891719Y-97894005D02*
X131955128Y-97916193D01*
X166514363Y-78556959D02*
X166521885Y-78623715D01*
X131955128Y-97916193D02*
X132021885Y-97923715D01*
X166551594Y-81203880D02*
X166587335Y-81260761D01*
X132021885Y-97923715D02*
X132088641Y-97916193D01*
X132088641Y-97916193D02*
X132152050Y-97894005D01*
X165321885Y-82173715D02*
X165329406Y-82240471D01*
X132152050Y-97894005D02*
X132208931Y-97858264D01*
X132208931Y-97858264D02*
X132256434Y-97810761D01*
X132256434Y-97810761D02*
X132292175Y-97753880D01*
X132292175Y-97753880D02*
X132314363Y-97690471D01*
X132314363Y-97690471D02*
X132321885Y-97623715D01*
X165329406Y-82240471D02*
X165351594Y-82303880D01*
X132321885Y-97623715D02*
X132321885Y-74323715D01*
X132321885Y-74323715D02*
X132329406Y-74256959D01*
X165951594Y-78493550D02*
X165987335Y-78436669D01*
X132329406Y-74256959D02*
X132351594Y-74193550D01*
X132351594Y-74193550D02*
X132387335Y-74136669D01*
X165351594Y-82303880D02*
X165387335Y-82360761D01*
X132387335Y-74136669D02*
X132434838Y-74089166D01*
X132434838Y-74089166D02*
X132491719Y-74053425D01*
X132491719Y-74053425D02*
X132555128Y-74031237D01*
X166755128Y-81366193D02*
X166821885Y-81373715D01*
X132555128Y-74031237D02*
X132621885Y-74023715D01*
X166034838Y-78389166D02*
X166091719Y-78353425D01*
X132621885Y-74023715D02*
X132688641Y-74031237D01*
X166587335Y-81260761D02*
X166634838Y-81308264D01*
X132688641Y-74031237D02*
X132752050Y-74053425D01*
X165808931Y-82408264D02*
X165856434Y-82360761D01*
X132752050Y-74053425D02*
X132808931Y-74089166D01*
X132808931Y-74089166D02*
X132856434Y-74136669D01*
X132856434Y-74136669D02*
X132892175Y-74193550D01*
X132892175Y-74193550D02*
X132914363Y-74256959D01*
X132914363Y-74256959D02*
X132921885Y-74323715D01*
X166155128Y-78331237D02*
X166221885Y-78323715D01*
X132921885Y-74323715D02*
X132921885Y-98723715D01*
X132921885Y-98723715D02*
X132929406Y-98790471D01*
X132929406Y-98790471D02*
X132951594Y-98853880D01*
X132951594Y-98853880D02*
X132987335Y-98910761D01*
X132987335Y-98910761D02*
X133034838Y-98958264D01*
X133034838Y-98958264D02*
X133091719Y-98994005D01*
X133091719Y-98994005D02*
X133155128Y-99016193D01*
X133155128Y-99016193D02*
X133221885Y-99023715D01*
X133221885Y-99023715D02*
X133288641Y-99016193D01*
X133288641Y-99016193D02*
X133352050Y-98994005D01*
X133352050Y-98994005D02*
X133408931Y-98958264D01*
X133408931Y-98958264D02*
X133456434Y-98910761D01*
X133456434Y-98910761D02*
X133492175Y-98853880D01*
X133492175Y-98853880D02*
X133514363Y-98790471D01*
X133514363Y-98790471D02*
X133521885Y-98723715D01*
X133521885Y-98723715D02*
X133521885Y-74323715D01*
X133521885Y-74323715D02*
X133529406Y-74256959D01*
X133529406Y-74256959D02*
X133551594Y-74193550D01*
X133551594Y-74193550D02*
X133587335Y-74136669D01*
X133587335Y-74136669D02*
X133634838Y-74089166D01*
X133634838Y-74089166D02*
X133691719Y-74053425D01*
X133691719Y-74053425D02*
X133755128Y-74031237D01*
X133755128Y-74031237D02*
X133821885Y-74023715D01*
X133821885Y-74023715D02*
X133888641Y-74031237D01*
X133888641Y-74031237D02*
X133952050Y-74053425D01*
X133952050Y-74053425D02*
X134008931Y-74089166D01*
X134008931Y-74089166D02*
X134056434Y-74136669D01*
X134056434Y-74136669D02*
X134092175Y-74193550D01*
X134092175Y-74193550D02*
X134114363Y-74256959D01*
X134114363Y-74256959D02*
X134121885Y-74323715D01*
X134121885Y-74323715D02*
X134121885Y-99823715D01*
X134121885Y-99823715D02*
X134129406Y-99890471D01*
X134129406Y-99890471D02*
X134151594Y-99953880D01*
X134151594Y-99953880D02*
X134187335Y-100010761D01*
X134187335Y-100010761D02*
X134234838Y-100058264D01*
X134234838Y-100058264D02*
X134291719Y-100094005D01*
X134291719Y-100094005D02*
X134355128Y-100116193D01*
X134355128Y-100116193D02*
X134421885Y-100123715D01*
X134421885Y-100123715D02*
X134488641Y-100116193D01*
X134488641Y-100116193D02*
X134552050Y-100094005D01*
X134552050Y-100094005D02*
X134608931Y-100058264D01*
X134608931Y-100058264D02*
X134656434Y-100010761D01*
X134656434Y-100010761D02*
X134692175Y-99953880D01*
X134692175Y-99953880D02*
X134714363Y-99890471D01*
X134714363Y-99890471D02*
X134721885Y-99823715D01*
X134721885Y-99823715D02*
X134721885Y-74323715D01*
X134721885Y-74323715D02*
X134729406Y-74256959D01*
X134729406Y-74256959D02*
X134751594Y-74193550D01*
X134751594Y-74193550D02*
X134787335Y-74136669D01*
X134787335Y-74136669D02*
X134834838Y-74089166D01*
X134834838Y-74089166D02*
X134891719Y-74053425D01*
X134891719Y-74053425D02*
X134955128Y-74031237D01*
X134955128Y-74031237D02*
X135021885Y-74023715D01*
X135021885Y-74023715D02*
X135088641Y-74031237D01*
X135088641Y-74031237D02*
X135152050Y-74053425D01*
X135152050Y-74053425D02*
X135208931Y-74089166D01*
X135208931Y-74089166D02*
X135256434Y-74136669D01*
X135256434Y-74136669D02*
X135292175Y-74193550D01*
X135292175Y-74193550D02*
X135314363Y-74256959D01*
X135314363Y-74256959D02*
X135321885Y-74323715D01*
X135321885Y-74323715D02*
X135321885Y-100973715D01*
X135321885Y-100973715D02*
X135329406Y-101040471D01*
X135329406Y-101040471D02*
X135351594Y-101103880D01*
X135351594Y-101103880D02*
X135387335Y-101160761D01*
X135387335Y-101160761D02*
X135434838Y-101208264D01*
X135434838Y-101208264D02*
X135491719Y-101244005D01*
X135491719Y-101244005D02*
X135555128Y-101266193D01*
X135555128Y-101266193D02*
X135621885Y-101273715D01*
X135621885Y-101273715D02*
X135688641Y-101266193D01*
X135688641Y-101266193D02*
X135752050Y-101244005D01*
X135752050Y-101244005D02*
X135808931Y-101208264D01*
X135808931Y-101208264D02*
X135856434Y-101160761D01*
X135856434Y-101160761D02*
X135892175Y-101103880D01*
X135892175Y-101103880D02*
X135914363Y-101040471D01*
X135914363Y-101040471D02*
X135921885Y-100973715D01*
X135921885Y-100973715D02*
X135921885Y-74323715D01*
X135921885Y-74323715D02*
X135929406Y-74256959D01*
X135929406Y-74256959D02*
X135951594Y-74193550D01*
X135951594Y-74193550D02*
X135987335Y-74136669D01*
X135987335Y-74136669D02*
X136034838Y-74089166D01*
X136034838Y-74089166D02*
X136091719Y-74053425D01*
X136091719Y-74053425D02*
X136155128Y-74031237D01*
X136155128Y-74031237D02*
X136221885Y-74023715D01*
X136221885Y-74023715D02*
X136288641Y-74031237D01*
X136288641Y-74031237D02*
X136352050Y-74053425D01*
X136352050Y-74053425D02*
X136408931Y-74089166D01*
X136408931Y-74089166D02*
X136456434Y-74136669D01*
X136456434Y-74136669D02*
X136492175Y-74193550D01*
X136492175Y-74193550D02*
X136514363Y-74256959D01*
X136514363Y-74256959D02*
X136521885Y-74323715D01*
X136521885Y-74323715D02*
X136521885Y-101473715D01*
X136521885Y-101473715D02*
X136529406Y-101540471D01*
X136529406Y-101540471D02*
X136551594Y-101603880D01*
X136551594Y-101603880D02*
X136587335Y-101660761D01*
X136587335Y-101660761D02*
X136634838Y-101708264D01*
X136634838Y-101708264D02*
X136691719Y-101744005D01*
X136691719Y-101744005D02*
X136755128Y-101766193D01*
X136755128Y-101766193D02*
X136821885Y-101773715D01*
X136821885Y-101773715D02*
X136888641Y-101766193D01*
X136888641Y-101766193D02*
X136952050Y-101744005D01*
X136952050Y-101744005D02*
X137008931Y-101708264D01*
X137008931Y-101708264D02*
X137056434Y-101660761D01*
X137056434Y-101660761D02*
X137092175Y-101603880D01*
X137092175Y-101603880D02*
X137114363Y-101540471D01*
X137114363Y-101540471D02*
X137121885Y-101473715D01*
X137121885Y-101473715D02*
X137121885Y-74323715D01*
X137121885Y-74323715D02*
X137129406Y-74256959D01*
X137129406Y-74256959D02*
X137151594Y-74193550D01*
X137151594Y-74193550D02*
X137187335Y-74136669D01*
X137187335Y-74136669D02*
X137234838Y-74089166D01*
X137234838Y-74089166D02*
X137291719Y-74053425D01*
X137291719Y-74053425D02*
X137355128Y-74031237D01*
X137355128Y-74031237D02*
X137421885Y-74023715D01*
X137421885Y-74023715D02*
X137488641Y-74031237D01*
X137488641Y-74031237D02*
X137552050Y-74053425D01*
X137552050Y-74053425D02*
X137608931Y-74089166D01*
X137608931Y-74089166D02*
X137656434Y-74136669D01*
X137656434Y-74136669D02*
X137692175Y-74193550D01*
X137692175Y-74193550D02*
X137714363Y-74256959D01*
X137714363Y-74256959D02*
X137721885Y-74323715D01*
X137721885Y-74323715D02*
X137721885Y-101473715D01*
X137721885Y-101473715D02*
X137729406Y-101540471D01*
X137729406Y-101540471D02*
X137751594Y-101603880D01*
X137751594Y-101603880D02*
X137787335Y-101660761D01*
X137787335Y-101660761D02*
X137834838Y-101708264D01*
X137834838Y-101708264D02*
X137891719Y-101744005D01*
X137891719Y-101744005D02*
X137955128Y-101766193D01*
X137955128Y-101766193D02*
X138021885Y-101773715D01*
X138021885Y-101773715D02*
X138088641Y-101766193D01*
X138088641Y-101766193D02*
X138152050Y-101744005D01*
X138152050Y-101744005D02*
X138208931Y-101708264D01*
X138208931Y-101708264D02*
X138256434Y-101660761D01*
X138256434Y-101660761D02*
X138292175Y-101603880D01*
X138292175Y-101603880D02*
X138314363Y-101540471D01*
X138314363Y-101540471D02*
X138321885Y-101473715D01*
X138321885Y-101473715D02*
X138321885Y-74323715D01*
X138321885Y-74323715D02*
X138329406Y-74256959D01*
X138329406Y-74256959D02*
X138351594Y-74193550D01*
X138351594Y-74193550D02*
X138387335Y-74136669D01*
X138387335Y-74136669D02*
X138434838Y-74089166D01*
X138434838Y-74089166D02*
X138491719Y-74053425D01*
X138491719Y-74053425D02*
X138555128Y-74031237D01*
X138555128Y-74031237D02*
X138621885Y-74023715D01*
X138621885Y-74023715D02*
X138688641Y-74031237D01*
X138688641Y-74031237D02*
X138752050Y-74053425D01*
X138752050Y-74053425D02*
X138808931Y-74089166D01*
X138808931Y-74089166D02*
X138856434Y-74136669D01*
X138856434Y-74136669D02*
X138892175Y-74193550D01*
X138892175Y-74193550D02*
X138914363Y-74256959D01*
X138914363Y-74256959D02*
X138921885Y-74323715D01*
X138921885Y-74323715D02*
X138921885Y-101473715D01*
X138921885Y-101473715D02*
X138929406Y-101540471D01*
X138929406Y-101540471D02*
X138951594Y-101603880D01*
X138951594Y-101603880D02*
X138987335Y-101660761D01*
X138987335Y-101660761D02*
X139034838Y-101708264D01*
X139034838Y-101708264D02*
X139091719Y-101744005D01*
X139091719Y-101744005D02*
X139155128Y-101766193D01*
X139155128Y-101766193D02*
X139221885Y-101773715D01*
X139221885Y-101773715D02*
X139288641Y-101766193D01*
X139288641Y-101766193D02*
X139352050Y-101744005D01*
X139352050Y-101744005D02*
X139408931Y-101708264D01*
X139408931Y-101708264D02*
X139456434Y-101660761D01*
X139456434Y-101660761D02*
X139492175Y-101603880D01*
X139492175Y-101603880D02*
X139514363Y-101540471D01*
X139514363Y-101540471D02*
X139521885Y-101473715D01*
X139521885Y-101473715D02*
X139521885Y-74323715D01*
X139521885Y-74323715D02*
X139529406Y-74256959D01*
X139529406Y-74256959D02*
X139551594Y-74193550D01*
X139551594Y-74193550D02*
X139587335Y-74136669D01*
X139587335Y-74136669D02*
X139634838Y-74089166D01*
X139634838Y-74089166D02*
X139691719Y-74053425D01*
X139691719Y-74053425D02*
X139755128Y-74031237D01*
X139755128Y-74031237D02*
X139821885Y-74023715D01*
X139821885Y-74023715D02*
X139888641Y-74031237D01*
X139888641Y-74031237D02*
X139952050Y-74053425D01*
X139952050Y-74053425D02*
X140008931Y-74089166D01*
X140008931Y-74089166D02*
X140056434Y-74136669D01*
X140056434Y-74136669D02*
X140092175Y-74193550D01*
X140092175Y-74193550D02*
X140114363Y-74256959D01*
X140114363Y-74256959D02*
X140121885Y-74323715D01*
X140121885Y-74323715D02*
X140121885Y-101473715D01*
X140121885Y-101473715D02*
X140129406Y-101540471D01*
X140129406Y-101540471D02*
X140151594Y-101603880D01*
X140151594Y-101603880D02*
X140187335Y-101660761D01*
X140187335Y-101660761D02*
X140234838Y-101708264D01*
X140234838Y-101708264D02*
X140291719Y-101744005D01*
X140291719Y-101744005D02*
X140355128Y-101766193D01*
X140355128Y-101766193D02*
X140421885Y-101773715D01*
X140421885Y-101773715D02*
X140488641Y-101766193D01*
X140488641Y-101766193D02*
X140552050Y-101744005D01*
X140552050Y-101744005D02*
X140608931Y-101708264D01*
X140608931Y-101708264D02*
X140656434Y-101660761D01*
X140656434Y-101660761D02*
X140692175Y-101603880D01*
X140692175Y-101603880D02*
X140714363Y-101540471D01*
X140714363Y-101540471D02*
X140721885Y-101473715D01*
X140721885Y-101473715D02*
X140721885Y-74323715D01*
X140721885Y-74323715D02*
X140729406Y-74256959D01*
X140729406Y-74256959D02*
X140751594Y-74193550D01*
X140751594Y-74193550D02*
X140787335Y-74136669D01*
X140787335Y-74136669D02*
X140834838Y-74089166D01*
X140834838Y-74089166D02*
X140891719Y-74053425D01*
X140891719Y-74053425D02*
X140955128Y-74031237D01*
X140955128Y-74031237D02*
X141021885Y-74023715D01*
X141021885Y-74023715D02*
X141088641Y-74031237D01*
X141088641Y-74031237D02*
X141152050Y-74053425D01*
X141152050Y-74053425D02*
X141208931Y-74089166D01*
X141208931Y-74089166D02*
X141256434Y-74136669D01*
X141256434Y-74136669D02*
X141292175Y-74193550D01*
X141292175Y-74193550D02*
X141314363Y-74256959D01*
X141314363Y-74256959D02*
X141321885Y-74323715D01*
X141321885Y-74323715D02*
X141321885Y-101473715D01*
X141321885Y-101473715D02*
X141329406Y-101540471D01*
X141329406Y-101540471D02*
X141351594Y-101603880D01*
X141351594Y-101603880D02*
X141387335Y-101660761D01*
X141387335Y-101660761D02*
X141434838Y-101708264D01*
X141434838Y-101708264D02*
X141491719Y-101744005D01*
X141491719Y-101744005D02*
X141555128Y-101766193D01*
X141555128Y-101766193D02*
X141621885Y-101773715D01*
X141621885Y-101773715D02*
X141688641Y-101766193D01*
X141688641Y-101766193D02*
X141752050Y-101744005D01*
X141752050Y-101744005D02*
X141808931Y-101708264D01*
X141808931Y-101708264D02*
X141856434Y-101660761D01*
X141856434Y-101660761D02*
X141892175Y-101603880D01*
X141892175Y-101603880D02*
X141914363Y-101540471D01*
X141914363Y-101540471D02*
X141921885Y-101473715D01*
X141921885Y-101473715D02*
X141921885Y-74323715D01*
X141921885Y-74323715D02*
X141929406Y-74256959D01*
X141929406Y-74256959D02*
X141951594Y-74193550D01*
X141951594Y-74193550D02*
X141987335Y-74136669D01*
X141987335Y-74136669D02*
X142034838Y-74089166D01*
X142034838Y-74089166D02*
X142091719Y-74053425D01*
X142091719Y-74053425D02*
X142155128Y-74031237D01*
X142155128Y-74031237D02*
X142221885Y-74023715D01*
X142221885Y-74023715D02*
X142288641Y-74031237D01*
X142288641Y-74031237D02*
X142352050Y-74053425D01*
X142352050Y-74053425D02*
X142408931Y-74089166D01*
X142408931Y-74089166D02*
X142456434Y-74136669D01*
X142456434Y-74136669D02*
X142492175Y-74193550D01*
X142492175Y-74193550D02*
X142514363Y-74256959D01*
X142514363Y-74256959D02*
X142521885Y-74323715D01*
X142521885Y-74323715D02*
X142521885Y-101473715D01*
X142521885Y-101473715D02*
X142529406Y-101540471D01*
X142529406Y-101540471D02*
X142551594Y-101603880D01*
X142551594Y-101603880D02*
X142587335Y-101660761D01*
X142587335Y-101660761D02*
X142634838Y-101708264D01*
X142634838Y-101708264D02*
X142691719Y-101744005D01*
X142691719Y-101744005D02*
X142755128Y-101766193D01*
X142755128Y-101766193D02*
X142821885Y-101773715D01*
X142821885Y-101773715D02*
X142888641Y-101766193D01*
X142888641Y-101766193D02*
X142952050Y-101744005D01*
X142952050Y-101744005D02*
X143008931Y-101708264D01*
X143008931Y-101708264D02*
X143056434Y-101660761D01*
X143056434Y-101660761D02*
X143092175Y-101603880D01*
X143092175Y-101603880D02*
X143114363Y-101540471D01*
X143114363Y-101540471D02*
X143121885Y-101473715D01*
X143121885Y-101473715D02*
X143121885Y-74323715D01*
X143121885Y-74323715D02*
X143129406Y-74256959D01*
X143129406Y-74256959D02*
X143151594Y-74193550D01*
X143151594Y-74193550D02*
X143187335Y-74136669D01*
X143187335Y-74136669D02*
X143234838Y-74089166D01*
X143234838Y-74089166D02*
X143291719Y-74053425D01*
X143291719Y-74053425D02*
X143355128Y-74031237D01*
X143355128Y-74031237D02*
X143421885Y-74023715D01*
X143421885Y-74023715D02*
X143488641Y-74031237D01*
X143488641Y-74031237D02*
X143552050Y-74053425D01*
X143552050Y-74053425D02*
X143608931Y-74089166D01*
X143608931Y-74089166D02*
X143656434Y-74136669D01*
X143656434Y-74136669D02*
X143692175Y-74193550D01*
X143692175Y-74193550D02*
X143714363Y-74256959D01*
X143721885Y-74323715D02*
X143721885Y-101473715D01*
X143721885Y-101473715D02*
X143729406Y-101540471D01*
X143729406Y-101540471D02*
X143751594Y-101603880D01*
X143751594Y-101603880D02*
X143787335Y-101660761D01*
X143787335Y-101660761D02*
X143834838Y-101708264D01*
X143834838Y-101708264D02*
X143891719Y-101744005D01*
X143891719Y-101744005D02*
X143955128Y-101766193D01*
X143955128Y-101766193D02*
X144021885Y-101773715D01*
X144021885Y-101773715D02*
X144088641Y-101766193D01*
X144088641Y-101766193D02*
X144152050Y-101744005D01*
X144152050Y-101744005D02*
X144208931Y-101708264D01*
X144208931Y-101708264D02*
X144256434Y-101660761D01*
X144292175Y-101603880D02*
X144314363Y-101540471D01*
X144314363Y-101540471D02*
X144321885Y-101473715D01*
X144321885Y-101473715D02*
X144321885Y-74323715D01*
X144329406Y-74256959D02*
X144351594Y-74193550D01*
X144351594Y-74193550D02*
X144387335Y-74136669D01*
X144387335Y-74136669D02*
X144434838Y-74089166D01*
X144434838Y-74089166D02*
X144491719Y-74053425D01*
X144491719Y-74053425D02*
X144555128Y-74031237D01*
X144555128Y-74031237D02*
X144621885Y-74023715D01*
X144621885Y-74023715D02*
X144688641Y-74031237D01*
X144688641Y-74031237D02*
X144752050Y-74053425D01*
X144856434Y-74136669D02*
X144892175Y-74193550D01*
X144892175Y-74193550D02*
X144914363Y-74256959D01*
X144914363Y-74256959D02*
X144921885Y-74323715D01*
X144921885Y-74323715D02*
X144921885Y-101223715D01*
X144921885Y-101223715D02*
X144929406Y-101290471D01*
X144929406Y-101290471D02*
X144951594Y-101353880D01*
X144951594Y-101353880D02*
X144987335Y-101410761D01*
X144987335Y-101410761D02*
X145034838Y-101458264D01*
X145034838Y-101458264D02*
X145091719Y-101494005D01*
X145091719Y-101494005D02*
X145155128Y-101516193D01*
X145155128Y-101516193D02*
X145221885Y-101523715D01*
X145288641Y-101516193D02*
X145352050Y-101494005D01*
X145352050Y-101494005D02*
X145408931Y-101458264D01*
X145456434Y-101410761D02*
X145492175Y-101353880D01*
X145492175Y-101353880D02*
X145514363Y-101290471D01*
X145514363Y-101290471D02*
X145521885Y-101223715D01*
X145521885Y-101223715D02*
X145521885Y-74323715D01*
X145521885Y-74323715D02*
X145529406Y-74256959D01*
X145529406Y-74256959D02*
X145551594Y-74193550D01*
X145551594Y-74193550D02*
X145587335Y-74136669D01*
X145587335Y-74136669D02*
X145634838Y-74089166D01*
X145634838Y-74089166D02*
X145691719Y-74053425D01*
X145691719Y-74053425D02*
X145755128Y-74031237D01*
X145755128Y-74031237D02*
X145821885Y-74023715D01*
X145821885Y-74023715D02*
X145888641Y-74031237D01*
X145888641Y-74031237D02*
X145952050Y-74053425D01*
X145952050Y-74053425D02*
X146008931Y-74089166D01*
X146008931Y-74089166D02*
X146056434Y-74136669D01*
X146121885Y-74323715D02*
X146121885Y-100123715D01*
X146121885Y-100123715D02*
X146129406Y-100190471D01*
X146129406Y-100190471D02*
X146151594Y-100253880D01*
X146187335Y-100310761D02*
X146234838Y-100358264D01*
M02*
