G04 #@! TF.GenerationSoftware,KiCad,Pcbnew,(5.1.5)-3*
G04 #@! TF.CreationDate,2021-10-24T21:58:03+02:00*
G04 #@! TF.ProjectId,seg1,73656731-2e6b-4696-9361-645f70636258,1*
G04 #@! TF.SameCoordinates,Original*
G04 #@! TF.FileFunction,Soldermask,Bot*
G04 #@! TF.FilePolarity,Negative*
%FSLAX46Y46*%
G04 Gerber Fmt 4.6, Leading zero omitted, Abs format (unit mm)*
G04 Created by KiCad (PCBNEW (5.1.5)-3) date 2021-10-24 21:58:03*
%MOMM*%
%LPD*%
G04 APERTURE LIST*
%ADD10C,0.152400*%
G04 APERTURE END LIST*
D10*
G36*
X144526834Y-88154374D02*
G01*
X144567139Y-88166599D01*
X144604275Y-88186449D01*
X144636832Y-88213168D01*
X144663551Y-88245725D01*
X144683401Y-88282861D01*
X144695626Y-88323166D01*
X144700000Y-88367568D01*
X144700000Y-90932432D01*
X144695626Y-90976834D01*
X144683401Y-91017139D01*
X144663551Y-91054275D01*
X144636832Y-91086832D01*
X144604275Y-91113551D01*
X144567139Y-91133401D01*
X144526834Y-91145626D01*
X144482432Y-91150000D01*
X143317568Y-91150000D01*
X143273166Y-91145626D01*
X143232861Y-91133401D01*
X143195725Y-91113551D01*
X143163168Y-91086832D01*
X143136449Y-91054275D01*
X143116599Y-91017139D01*
X143104374Y-90976834D01*
X143100000Y-90932432D01*
X143100000Y-88367568D01*
X143104374Y-88323166D01*
X143116599Y-88282861D01*
X143136449Y-88245725D01*
X143163168Y-88213168D01*
X143195725Y-88186449D01*
X143232861Y-88166599D01*
X143273166Y-88154374D01*
X143317568Y-88150000D01*
X144482432Y-88150000D01*
X144526834Y-88154374D01*
G37*
G36*
X137726834Y-88154374D02*
G01*
X137767139Y-88166599D01*
X137804275Y-88186449D01*
X137836832Y-88213168D01*
X137863551Y-88245725D01*
X137883401Y-88282861D01*
X137895626Y-88323166D01*
X137900000Y-88367568D01*
X137900000Y-90932432D01*
X137895626Y-90976834D01*
X137883401Y-91017139D01*
X137863551Y-91054275D01*
X137836832Y-91086832D01*
X137804275Y-91113551D01*
X137767139Y-91133401D01*
X137726834Y-91145626D01*
X137682432Y-91150000D01*
X136517568Y-91150000D01*
X136473166Y-91145626D01*
X136432861Y-91133401D01*
X136395725Y-91113551D01*
X136363168Y-91086832D01*
X136336449Y-91054275D01*
X136316599Y-91017139D01*
X136304374Y-90976834D01*
X136300000Y-90932432D01*
X136300000Y-88367568D01*
X136304374Y-88323166D01*
X136316599Y-88282861D01*
X136336449Y-88245725D01*
X136363168Y-88213168D01*
X136395725Y-88186449D01*
X136432861Y-88166599D01*
X136473166Y-88154374D01*
X136517568Y-88150000D01*
X137682432Y-88150000D01*
X137726834Y-88154374D01*
G37*
G36*
X141819166Y-84654556D02*
G01*
X141861258Y-84667325D01*
X141900043Y-84688056D01*
X141934043Y-84715957D01*
X141961944Y-84749957D01*
X141982675Y-84788742D01*
X141995444Y-84830834D01*
X142000000Y-84877092D01*
X142000000Y-89922908D01*
X141995444Y-89969166D01*
X141982675Y-90011258D01*
X141961944Y-90050043D01*
X141934043Y-90084043D01*
X141900043Y-90111944D01*
X141861258Y-90132675D01*
X141819166Y-90145444D01*
X141772908Y-90150000D01*
X141227092Y-90150000D01*
X141180834Y-90145444D01*
X141138742Y-90132675D01*
X141099957Y-90111944D01*
X141065957Y-90084043D01*
X141038056Y-90050043D01*
X141017325Y-90011258D01*
X141004556Y-89969166D01*
X141000000Y-89922908D01*
X141000000Y-84877092D01*
X141004556Y-84830834D01*
X141017325Y-84788742D01*
X141038056Y-84749957D01*
X141065957Y-84715957D01*
X141099957Y-84688056D01*
X141138742Y-84667325D01*
X141180834Y-84654556D01*
X141227092Y-84650000D01*
X141772908Y-84650000D01*
X141819166Y-84654556D01*
G37*
G36*
X139819166Y-84654556D02*
G01*
X139861258Y-84667325D01*
X139900043Y-84688056D01*
X139934043Y-84715957D01*
X139961944Y-84749957D01*
X139982675Y-84788742D01*
X139995444Y-84830834D01*
X140000000Y-84877092D01*
X140000000Y-89922908D01*
X139995444Y-89969166D01*
X139982675Y-90011258D01*
X139961944Y-90050043D01*
X139934043Y-90084043D01*
X139900043Y-90111944D01*
X139861258Y-90132675D01*
X139819166Y-90145444D01*
X139772908Y-90150000D01*
X139227092Y-90150000D01*
X139180834Y-90145444D01*
X139138742Y-90132675D01*
X139099957Y-90111944D01*
X139065957Y-90084043D01*
X139038056Y-90050043D01*
X139017325Y-90011258D01*
X139004556Y-89969166D01*
X139000000Y-89922908D01*
X139000000Y-84877092D01*
X139004556Y-84830834D01*
X139017325Y-84788742D01*
X139038056Y-84749957D01*
X139065957Y-84715957D01*
X139099957Y-84688056D01*
X139138742Y-84667325D01*
X139180834Y-84654556D01*
X139227092Y-84650000D01*
X139772908Y-84650000D01*
X139819166Y-84654556D01*
G37*
G36*
X113165957Y-79637165D02*
G01*
X113229653Y-79663549D01*
X113286978Y-79701852D01*
X113335729Y-79750603D01*
X113374032Y-79807928D01*
X113400416Y-79871624D01*
X113413866Y-79939243D01*
X113413866Y-80008187D01*
X113400416Y-80075806D01*
X113374032Y-80139502D01*
X113335729Y-80196827D01*
X113286978Y-80245578D01*
X113229653Y-80283881D01*
X113165957Y-80310265D01*
X113098338Y-80323715D01*
X113029394Y-80323715D01*
X112961775Y-80310265D01*
X112898079Y-80283881D01*
X112840754Y-80245578D01*
X112792003Y-80196827D01*
X112753700Y-80139502D01*
X112727316Y-80075806D01*
X112713866Y-80008187D01*
X112713866Y-79939243D01*
X112727316Y-79871624D01*
X112753700Y-79807928D01*
X112792003Y-79750603D01*
X112840754Y-79701852D01*
X112898079Y-79663549D01*
X112961775Y-79637165D01*
X113029394Y-79623715D01*
X113098338Y-79623715D01*
X113165957Y-79637165D01*
G37*
G36*
X168207193Y-79589887D02*
G01*
X168270889Y-79616271D01*
X168328214Y-79654574D01*
X168376965Y-79703325D01*
X168415268Y-79760650D01*
X168441652Y-79824346D01*
X168455102Y-79891965D01*
X168455102Y-79960909D01*
X168441652Y-80028528D01*
X168415268Y-80092224D01*
X168376965Y-80149549D01*
X168328214Y-80198300D01*
X168270889Y-80236603D01*
X168207193Y-80262987D01*
X168139574Y-80276437D01*
X168070630Y-80276437D01*
X168003011Y-80262987D01*
X167939315Y-80236603D01*
X167881990Y-80198300D01*
X167833239Y-80149549D01*
X167794936Y-80092224D01*
X167768552Y-80028528D01*
X167755102Y-79960909D01*
X167755102Y-79891965D01*
X167768552Y-79824346D01*
X167794936Y-79760650D01*
X167833239Y-79703325D01*
X167881990Y-79654574D01*
X167939315Y-79616271D01*
X168003011Y-79589887D01*
X168070630Y-79576437D01*
X168139574Y-79576437D01*
X168207193Y-79589887D01*
G37*
M02*
