G04 #@! TF.GenerationSoftware,KiCad,Pcbnew,(5.1.5)-3*
G04 #@! TF.CreationDate,2021-10-24T21:58:03+02:00*
G04 #@! TF.ProjectId,seg1,73656731-2e6b-4696-9361-645f70636258,1*
G04 #@! TF.SameCoordinates,Original*
G04 #@! TF.FileFunction,Profile,NP*
%FSLAX46Y46*%
G04 Gerber Fmt 4.6, Leading zero omitted, Abs format (unit mm)*
G04 Created by KiCad (PCBNEW (5.1.5)-3) date 2021-10-24 21:58:03*
%MOMM*%
%LPD*%
G04 APERTURE LIST*
%ADD10C,0.200000*%
G04 APERTURE END LIST*
D10*
X161523012Y-75214217D02*
X161374705Y-75158284D01*
X161374705Y-75158284D02*
X161227806Y-75104592D01*
X161227806Y-75104592D02*
X161079352Y-75052010D01*
X161079352Y-75052010D02*
X160930343Y-75000872D01*
X160930343Y-75000872D02*
X160779781Y-74950826D01*
X160779781Y-74950826D02*
X160626665Y-74901553D01*
X160626665Y-74901553D02*
X160474015Y-74854006D01*
X160474015Y-74854006D02*
X160308644Y-74804219D01*
X160308644Y-74804219D02*
X160151854Y-74758614D01*
X160151854Y-74758614D02*
X159990449Y-74713244D01*
X159990449Y-74713244D02*
X159826452Y-74668725D01*
X159826452Y-74668725D02*
X159661917Y-74625607D01*
X159661917Y-74625607D02*
X159498927Y-74584372D01*
X159498927Y-74584372D02*
X159331291Y-74543444D01*
X159331291Y-74543444D02*
X159165223Y-74504327D01*
X159165223Y-74504327D02*
X158998670Y-74466473D01*
X158998670Y-74466473D02*
X158831644Y-74429850D01*
X158831644Y-74429850D02*
X158664162Y-74394424D01*
X158664162Y-74394424D02*
X158494132Y-74359735D01*
X158494132Y-74359735D02*
X158313124Y-74324171D01*
X158313124Y-74324171D02*
X158141139Y-74291627D01*
X158141139Y-74291627D02*
X157964500Y-74259420D01*
X157964500Y-74259420D02*
X157786373Y-74228140D01*
X157786373Y-74228140D02*
X157607832Y-74197941D01*
X157607832Y-74197941D02*
X157428892Y-74168785D01*
X157428892Y-74168785D02*
X157255977Y-74141620D01*
X157255977Y-74141620D02*
X157081648Y-74115190D01*
X157081648Y-74115190D02*
X156901622Y-74088862D01*
X156901622Y-74088862D02*
X156718033Y-74062974D01*
X156718033Y-74062974D02*
X156528725Y-74037240D01*
X156528725Y-74037240D02*
X156347707Y-74013499D01*
X156347707Y-74013499D02*
X156166397Y-73990522D01*
X156166397Y-73990522D02*
X155976153Y-73967225D01*
X155976153Y-73967225D02*
X155794291Y-73945685D01*
X155794291Y-73945685D02*
X155612184Y-73924787D01*
X155612184Y-73924787D02*
X155429844Y-73904491D01*
X155429844Y-73904491D02*
X155240766Y-73884060D01*
X155240766Y-73884060D02*
X155055829Y-73864639D01*
X155055829Y-73864639D02*
X154868524Y-73845490D01*
X154868524Y-73845490D02*
X154681042Y-73826800D01*
X154681042Y-73826800D02*
X154489034Y-73808107D01*
X154489034Y-73808107D02*
X154292507Y-73789393D01*
X154292507Y-73789393D02*
X154098028Y-73771243D01*
X154098028Y-73771243D02*
X153912183Y-73754193D01*
X153912183Y-73754193D02*
X153697801Y-73734827D01*
X153697801Y-73734827D02*
X153470187Y-73714546D01*
X153470187Y-73714546D02*
X153286287Y-73698321D01*
X153286287Y-73698321D02*
X153071691Y-73679508D01*
X153071691Y-73679508D02*
X152848314Y-73660000D01*
X135932650Y-102141932D02*
X145185665Y-102141932D01*
X169041084Y-79876869D02*
X168914165Y-79781249D01*
X168914165Y-79781249D02*
X168778422Y-79679020D01*
X168778422Y-79679020D02*
X168660293Y-79590117D01*
X168660293Y-79590117D02*
X168510386Y-79477424D01*
X168510386Y-79477424D02*
X168385129Y-79383407D01*
X168385129Y-79383407D02*
X168268650Y-79296122D01*
X168268650Y-79296122D02*
X168145057Y-79203692D01*
X168145057Y-79203692D02*
X168021397Y-79111428D01*
X168021397Y-79111428D02*
X167901202Y-79021985D01*
X167901202Y-79021985D02*
X167777390Y-78930121D01*
X167777390Y-78930121D02*
X167660570Y-78843727D01*
X167660570Y-78843727D02*
X167540116Y-78754954D01*
X167540116Y-78754954D02*
X167423108Y-78669049D01*
X167423108Y-78669049D02*
X167295344Y-78575644D01*
X167295344Y-78575644D02*
X167167447Y-78482586D01*
X167167447Y-78482586D02*
X167050081Y-78397608D01*
X167050081Y-78397608D02*
X166929025Y-78310405D01*
X166929025Y-78310405D02*
X166809610Y-78224850D01*
X166809610Y-78224850D02*
X166686477Y-78137142D01*
X166686477Y-78137142D02*
X166557814Y-78046082D01*
X166557814Y-78046082D02*
X166436124Y-77960531D01*
X166436124Y-77960531D02*
X166314261Y-77875443D01*
X166314261Y-77875443D02*
X166185023Y-77785874D01*
X166185023Y-77785874D02*
X166064567Y-77703034D01*
X166064567Y-77703034D02*
X165939408Y-77617642D01*
X165939408Y-77617642D02*
X165817642Y-77535257D01*
X165817642Y-77535257D02*
X165694756Y-77452828D01*
X165694756Y-77452828D02*
X165573457Y-77372188D01*
X165573457Y-77372188D02*
X165448300Y-77289762D01*
X165448300Y-77289762D02*
X165319250Y-77205627D01*
X165319250Y-77205627D02*
X165195398Y-77125717D01*
X165195398Y-77125717D02*
X165069459Y-77045322D01*
X165069459Y-77045322D02*
X164945076Y-76966798D01*
X164945076Y-76966798D02*
X164820417Y-76888992D01*
X164820417Y-76888992D02*
X164695475Y-76811929D01*
X164695475Y-76811929D02*
X164564706Y-76732279D01*
X164564706Y-76732279D02*
X164437308Y-76655692D01*
X164437308Y-76655692D02*
X164309590Y-76579935D01*
X164309590Y-76579935D02*
X164182474Y-76505569D01*
X164182474Y-76505569D02*
X164053167Y-76431001D01*
X164053167Y-76431001D02*
X163925378Y-76358395D01*
X163925378Y-76358395D02*
X163789748Y-76282537D01*
X163789748Y-76282537D02*
X163656537Y-76209256D01*
X163656537Y-76209256D02*
X163524820Y-76138010D01*
X163524820Y-76138010D02*
X163392713Y-76067780D01*
X163392713Y-76067780D02*
X163256414Y-75996629D01*
X163256414Y-75996629D02*
X163123486Y-75928531D01*
X163123486Y-75928531D02*
X162987281Y-75860099D01*
X162987281Y-75860099D02*
X162852544Y-75793759D01*
X162852544Y-75793759D02*
X162704881Y-75722619D01*
X162704881Y-75722619D02*
X162568248Y-75658265D01*
X162568248Y-75658265D02*
X162426309Y-75592928D01*
X162426309Y-75592928D02*
X162285803Y-75529785D01*
X162285803Y-75529785D02*
X162145763Y-75468386D01*
X162145763Y-75468386D02*
X162005215Y-75408318D01*
X162005215Y-75408318D02*
X161863164Y-75349198D01*
X161863164Y-75349198D02*
X161716638Y-75289909D01*
X161716638Y-75289909D02*
X161569533Y-75232123D01*
X161569533Y-75232123D02*
X161523012Y-75214217D01*
X112077228Y-79876869D02*
X135932650Y-102141932D01*
X145185665Y-102141932D02*
X169041084Y-79876869D01*
X119595300Y-75214217D02*
X119441102Y-75274247D01*
X119441102Y-75274247D02*
X119293438Y-75333536D01*
X119293438Y-75333536D02*
X119136564Y-75398437D01*
X119136564Y-75398437D02*
X118988131Y-75461645D01*
X118988131Y-75461645D02*
X118846094Y-75523759D01*
X118846094Y-75523759D02*
X118704570Y-75587214D01*
X118704570Y-75587214D02*
X118567410Y-75650194D01*
X118567410Y-75650194D02*
X118421107Y-75718961D01*
X118421107Y-75718961D02*
X118282992Y-75785373D01*
X118282992Y-75785373D02*
X118137702Y-75856779D01*
X118137702Y-75856779D02*
X118000523Y-75925637D01*
X118000523Y-75925637D02*
X117865684Y-75994667D01*
X117865684Y-75994667D02*
X117733153Y-76063797D01*
X117733153Y-76063797D02*
X117599138Y-76134980D01*
X117599138Y-76134980D02*
X117469282Y-76205159D01*
X117469282Y-76205159D02*
X117337924Y-76277344D01*
X117337924Y-76277344D02*
X117207870Y-76349974D01*
X117207870Y-76349974D02*
X117080043Y-76422476D01*
X117080043Y-76422476D02*
X116947906Y-76498558D01*
X116947906Y-76498558D02*
X116814272Y-76576660D01*
X116814272Y-76576660D02*
X116682844Y-76654588D01*
X116682844Y-76654588D02*
X116555442Y-76731163D01*
X116555442Y-76731163D02*
X116422831Y-76811929D01*
X116422831Y-76811929D02*
X116297886Y-76888992D01*
X116297886Y-76888992D02*
X116172311Y-76967372D01*
X116172311Y-76967372D02*
X116026921Y-77059252D01*
X116026921Y-77059252D02*
X115902855Y-77138598D01*
X115902855Y-77138598D02*
X115779044Y-77218616D01*
X115779044Y-77218616D02*
X115655482Y-77299285D01*
X115655482Y-77299285D02*
X115532163Y-77380586D01*
X115532163Y-77380586D02*
X115409078Y-77462495D01*
X115409078Y-77462495D02*
X115278998Y-77549864D01*
X115278998Y-77549864D02*
X115158170Y-77631734D01*
X115158170Y-77631734D02*
X115033949Y-77716601D01*
X115033949Y-77716601D02*
X114911727Y-77800763D01*
X114911727Y-77800763D02*
X114775355Y-77895421D01*
X114775355Y-77895421D02*
X114653531Y-77980619D01*
X114653531Y-77980619D02*
X114531881Y-78066275D01*
X114531881Y-78066275D02*
X114410400Y-78152366D01*
X114410400Y-78152366D02*
X114289078Y-78238871D01*
X114289078Y-78238871D02*
X114160781Y-78330890D01*
X114160781Y-78330890D02*
X114036202Y-78420751D01*
X114036202Y-78420751D02*
X113908212Y-78513565D01*
X113908212Y-78513565D02*
X113789232Y-78600259D01*
X113789232Y-78600259D02*
X113666822Y-78689851D01*
X113666822Y-78689851D02*
X113549837Y-78775819D01*
X113549837Y-78775819D02*
X113425867Y-78867268D01*
X113425867Y-78867268D02*
X113298454Y-78961591D01*
X113298454Y-78961591D02*
X113171136Y-79056159D01*
X113171136Y-79056159D02*
X113054501Y-79143039D01*
X113054501Y-79143039D02*
X112934397Y-79232724D01*
X112934397Y-79232724D02*
X112817882Y-79319915D01*
X112817882Y-79319915D02*
X112690828Y-79415175D01*
X112690828Y-79415175D02*
X112563823Y-79510556D01*
X112563823Y-79510556D02*
X112436854Y-79606035D01*
X112436854Y-79606035D02*
X112288758Y-79717518D01*
X112288758Y-79717518D02*
X112174174Y-79803823D01*
X112174174Y-79803823D02*
X112077228Y-79876869D01*
X152848314Y-73660000D02*
X128270000Y-73660000D01*
X128270000Y-73660000D02*
X128050996Y-73679125D01*
X128050996Y-73679125D02*
X127858295Y-73696012D01*
X127858295Y-73696012D02*
X127663442Y-73713188D01*
X127663442Y-73713188D02*
X127473024Y-73730125D01*
X127473024Y-73730125D02*
X127284865Y-73747046D01*
X127284865Y-73747046D02*
X127088047Y-73764996D01*
X127088047Y-73764996D02*
X126898985Y-73782523D01*
X126898985Y-73782523D02*
X126710048Y-73800366D01*
X126710048Y-73800366D02*
X126511431Y-73819528D01*
X126511431Y-73819528D02*
X126326063Y-73837830D01*
X126326063Y-73837830D02*
X126143040Y-73856340D01*
X126143040Y-73856340D02*
X125952577Y-73876116D01*
X125952577Y-73876116D02*
X125766673Y-73895967D01*
X125766673Y-73895967D02*
X125566876Y-73917957D01*
X125566876Y-73917957D02*
X125376019Y-73939651D01*
X125376019Y-73939651D02*
X125194087Y-73961004D01*
X125194087Y-73961004D02*
X125014569Y-73982758D01*
X125014569Y-73982758D02*
X124822372Y-74006858D01*
X124822372Y-74006858D02*
X124641269Y-74030378D01*
X124641269Y-74030378D02*
X124443265Y-74057046D01*
X124443265Y-74057046D02*
X124254230Y-74083491D01*
X124254230Y-74083491D02*
X124065566Y-74110899D01*
X124065566Y-74110899D02*
X123885839Y-74138001D01*
X123885839Y-74138001D02*
X123712876Y-74165041D01*
X123712876Y-74165041D02*
X123536012Y-74193713D01*
X123536012Y-74193713D02*
X123359535Y-74223396D01*
X123359535Y-74223396D02*
X123185581Y-74253753D01*
X123185581Y-74253753D02*
X123009924Y-74285565D01*
X123009924Y-74285565D02*
X122841020Y-74317291D01*
X122841020Y-74317291D02*
X122670431Y-74350517D01*
X122670431Y-74350517D02*
X122496082Y-74385750D01*
X122496082Y-74385750D02*
X122328488Y-74420883D01*
X122328488Y-74420883D02*
X122151958Y-74459282D01*
X122151958Y-74459282D02*
X121988433Y-74496177D01*
X121988433Y-74496177D02*
X121811892Y-74537494D01*
X121811892Y-74537494D02*
X121648315Y-74577203D01*
X121648315Y-74577203D02*
X121487293Y-74617676D01*
X121487293Y-74617676D02*
X121326770Y-74659445D01*
X121326770Y-74659445D02*
X121168803Y-74701980D01*
X121168803Y-74701980D02*
X121005220Y-74747573D01*
X121005220Y-74747573D02*
X120844230Y-74794033D01*
X120844230Y-74794033D02*
X120689883Y-74840103D01*
X120689883Y-74840103D02*
X120525965Y-74890726D01*
X120525965Y-74890726D02*
X120370709Y-74940334D01*
X120370709Y-74940334D02*
X120218029Y-74990749D01*
X120218029Y-74990749D02*
X120067912Y-75041945D01*
X120067912Y-75041945D02*
X119918352Y-75094599D01*
X119918352Y-75094599D02*
X119771348Y-75148014D01*
X119771348Y-75148014D02*
X119617011Y-75205914D01*
X119617011Y-75205914D02*
X119595300Y-75214217D01*
M02*
