G04 #@! TF.GenerationSoftware,KiCad,Pcbnew,(5.1.5)-3*
G04 #@! TF.CreationDate,2021-10-24T21:58:03+02:00*
G04 #@! TF.ProjectId,seg1,73656731-2e6b-4696-9361-645f70636258,1*
G04 #@! TF.SameCoordinates,Original*
G04 #@! TF.FileFunction,Soldermask,Top*
G04 #@! TF.FilePolarity,Negative*
%FSLAX46Y46*%
G04 Gerber Fmt 4.6, Leading zero omitted, Abs format (unit mm)*
G04 Created by KiCad (PCBNEW (5.1.5)-3) date 2021-10-24 21:58:03*
%MOMM*%
%LPD*%
G04 APERTURE LIST*
%ADD10C,0.152400*%
G04 APERTURE END LIST*
D10*
G36*
X113165957Y-79637165D02*
G01*
X113229653Y-79663549D01*
X113286978Y-79701852D01*
X113335729Y-79750603D01*
X113374032Y-79807928D01*
X113400416Y-79871624D01*
X113413866Y-79939243D01*
X113413866Y-80008187D01*
X113400416Y-80075806D01*
X113374032Y-80139502D01*
X113335729Y-80196827D01*
X113286978Y-80245578D01*
X113229653Y-80283881D01*
X113165957Y-80310265D01*
X113098338Y-80323715D01*
X113029394Y-80323715D01*
X112961775Y-80310265D01*
X112898079Y-80283881D01*
X112840754Y-80245578D01*
X112792003Y-80196827D01*
X112753700Y-80139502D01*
X112727316Y-80075806D01*
X112713866Y-80008187D01*
X112713866Y-79939243D01*
X112727316Y-79871624D01*
X112753700Y-79807928D01*
X112792003Y-79750603D01*
X112840754Y-79701852D01*
X112898079Y-79663549D01*
X112961775Y-79637165D01*
X113029394Y-79623715D01*
X113098338Y-79623715D01*
X113165957Y-79637165D01*
G37*
G36*
X168207193Y-79589887D02*
G01*
X168270889Y-79616271D01*
X168328214Y-79654574D01*
X168376965Y-79703325D01*
X168415268Y-79760650D01*
X168441652Y-79824346D01*
X168455102Y-79891965D01*
X168455102Y-79960909D01*
X168441652Y-80028528D01*
X168415268Y-80092224D01*
X168376965Y-80149549D01*
X168328214Y-80198300D01*
X168270889Y-80236603D01*
X168207193Y-80262987D01*
X168139574Y-80276437D01*
X168070630Y-80276437D01*
X168003011Y-80262987D01*
X167939315Y-80236603D01*
X167881990Y-80198300D01*
X167833239Y-80149549D01*
X167794936Y-80092224D01*
X167768552Y-80028528D01*
X167755102Y-79960909D01*
X167755102Y-79891965D01*
X167768552Y-79824346D01*
X167794936Y-79760650D01*
X167833239Y-79703325D01*
X167881990Y-79654574D01*
X167939315Y-79616271D01*
X168003011Y-79589887D01*
X168070630Y-79576437D01*
X168139574Y-79576437D01*
X168207193Y-79589887D01*
G37*
M02*
