G04 #@! TF.GenerationSoftware,KiCad,Pcbnew,(5.1.5)-3*
G04 #@! TF.CreationDate,2021-10-24T21:58:38+02:00*
G04 #@! TF.ProjectId,seg2,73656732-2e6b-4696-9361-645f70636258,1*
G04 #@! TF.SameCoordinates,Original*
G04 #@! TF.FileFunction,Copper,L1,Top*
G04 #@! TF.FilePolarity,Positive*
%FSLAX46Y46*%
G04 Gerber Fmt 4.6, Leading zero omitted, Abs format (unit mm)*
G04 Created by KiCad (PCBNEW (5.1.5)-3) date 2021-10-24 21:58:38*
%MOMM*%
%LPD*%
G04 APERTURE LIST*
%ADD10C,0.700000*%
%ADD11C,0.152400*%
G04 APERTURE END LIST*
D10*
X166610047Y-78062990D03*
X116546222Y-78318961D03*
D11*
X166601561Y-78071476D02*
X166610047Y-78062990D01*
X166354076Y-78318961D02*
X166601561Y-78071476D01*
X165556239Y-78318961D02*
X166354076Y-78318961D01*
X165489482Y-78311440D02*
X165556239Y-78318961D01*
X165426073Y-78289252D02*
X165489482Y-78311440D01*
X165369192Y-78253511D02*
X165426073Y-78289252D01*
X165321689Y-78206008D02*
X165369192Y-78253511D01*
X165285948Y-78149127D02*
X165321689Y-78206008D01*
X165263760Y-78085718D02*
X165285948Y-78149127D01*
X165256239Y-78018961D02*
X165263760Y-78085718D01*
X165256239Y-76818961D02*
X165256239Y-78018961D01*
X165248717Y-76752205D02*
X165256239Y-76818961D01*
X165226529Y-76688796D02*
X165248717Y-76752205D01*
X165190788Y-76631915D02*
X165226529Y-76688796D01*
X165143285Y-76584412D02*
X165190788Y-76631915D01*
X165086404Y-76548671D02*
X165143285Y-76584412D01*
X165022995Y-76526483D02*
X165086404Y-76548671D01*
X164956239Y-76518961D02*
X165022995Y-76526483D01*
X164889482Y-76526483D02*
X164956239Y-76518961D01*
X164826073Y-76548671D02*
X164889482Y-76526483D01*
X164769192Y-76584412D02*
X164826073Y-76548671D01*
X164721689Y-76631915D02*
X164769192Y-76584412D01*
X164685948Y-76688796D02*
X164721689Y-76631915D01*
X164663760Y-76752205D02*
X164685948Y-76688796D01*
X164656239Y-76818961D02*
X164663760Y-76752205D01*
X164656239Y-80418961D02*
X164656239Y-76818961D01*
X164648717Y-80485717D02*
X164656239Y-80418961D01*
X164626529Y-80549126D02*
X164648717Y-80485717D01*
X164590788Y-80606007D02*
X164626529Y-80549126D01*
X164543285Y-80653510D02*
X164590788Y-80606007D01*
X164486404Y-80689251D02*
X164543285Y-80653510D01*
X164422995Y-80711439D02*
X164486404Y-80689251D01*
X164356239Y-80718961D02*
X164422995Y-80711439D01*
X164289482Y-80711439D02*
X164356239Y-80718961D01*
X164226073Y-80689251D02*
X164289482Y-80711439D01*
X164169192Y-80653510D02*
X164226073Y-80689251D01*
X164121689Y-80606007D02*
X164169192Y-80653510D01*
X164085948Y-80549126D02*
X164121689Y-80606007D01*
X164063760Y-80485717D02*
X164085948Y-80549126D01*
X164056239Y-80418961D02*
X164063760Y-80485717D01*
X164056239Y-75918961D02*
X164056239Y-80418961D01*
X164048717Y-75852205D02*
X164056239Y-75918961D01*
X164026529Y-75788796D02*
X164048717Y-75852205D01*
X163990788Y-75731915D02*
X164026529Y-75788796D01*
X163943285Y-75684412D02*
X163990788Y-75731915D01*
X163886404Y-75648671D02*
X163943285Y-75684412D01*
X163822995Y-75626483D02*
X163886404Y-75648671D01*
X163756239Y-75618961D02*
X163822995Y-75626483D01*
X163689482Y-75626483D02*
X163756239Y-75618961D01*
X163626073Y-75648671D02*
X163689482Y-75626483D01*
X163569192Y-75684412D02*
X163626073Y-75648671D01*
X163521689Y-75731915D02*
X163569192Y-75684412D01*
X163485948Y-75788796D02*
X163521689Y-75731915D01*
X163463760Y-75852205D02*
X163485948Y-75788796D01*
X163456239Y-75918961D02*
X163463760Y-75852205D01*
X163456239Y-81718961D02*
X163456239Y-75918961D01*
X163448717Y-81785717D02*
X163456239Y-81718961D01*
X163426529Y-81849126D02*
X163448717Y-81785717D01*
X163390788Y-81906007D02*
X163426529Y-81849126D01*
X163343285Y-81953510D02*
X163390788Y-81906007D01*
X163286404Y-81989251D02*
X163343285Y-81953510D01*
X163222995Y-82011439D02*
X163286404Y-81989251D01*
X163156239Y-82018961D02*
X163222995Y-82011439D01*
X163089482Y-82011439D02*
X163156239Y-82018961D01*
X163026073Y-81989251D02*
X163089482Y-82011439D01*
X162969192Y-81953510D02*
X163026073Y-81989251D01*
X162921689Y-81906007D02*
X162969192Y-81953510D01*
X162885948Y-81849126D02*
X162921689Y-81906007D01*
X162863760Y-81785717D02*
X162885948Y-81849126D01*
X162856239Y-81718961D02*
X162863760Y-81785717D01*
X162856239Y-75068961D02*
X162856239Y-81718961D01*
X162848717Y-75002205D02*
X162856239Y-75068961D01*
X162826529Y-74938796D02*
X162848717Y-75002205D01*
X162790788Y-74881915D02*
X162826529Y-74938796D01*
X162743285Y-74834412D02*
X162790788Y-74881915D01*
X162686404Y-74798671D02*
X162743285Y-74834412D01*
X162622995Y-74776483D02*
X162686404Y-74798671D01*
X162556239Y-74768961D02*
X162622995Y-74776483D01*
X162489482Y-74776483D02*
X162556239Y-74768961D01*
X162426073Y-74798671D02*
X162489482Y-74776483D01*
X162369192Y-74834412D02*
X162426073Y-74798671D01*
X162321689Y-74881915D02*
X162369192Y-74834412D01*
X162285948Y-74938796D02*
X162321689Y-74881915D01*
X162263760Y-75002205D02*
X162285948Y-74938796D01*
X162256239Y-75068961D02*
X162263760Y-75002205D01*
X162256239Y-83018961D02*
X162256239Y-75068961D01*
X162248717Y-83085717D02*
X162256239Y-83018961D01*
X162226529Y-83149126D02*
X162248717Y-83085717D01*
X162190788Y-83206007D02*
X162226529Y-83149126D01*
X162143285Y-83253510D02*
X162190788Y-83206007D01*
X162086404Y-83289251D02*
X162143285Y-83253510D01*
X162022995Y-83311439D02*
X162086404Y-83289251D01*
X161956239Y-83318961D02*
X162022995Y-83311439D01*
X161889482Y-83311439D02*
X161956239Y-83318961D01*
X161826073Y-83289251D02*
X161889482Y-83311439D01*
X161769192Y-83253510D02*
X161826073Y-83289251D01*
X161721689Y-83206007D02*
X161769192Y-83253510D01*
X161685948Y-83149126D02*
X161721689Y-83206007D01*
X161663760Y-83085717D02*
X161685948Y-83149126D01*
X161656239Y-83018961D02*
X161663760Y-83085717D01*
X161656239Y-74368961D02*
X161656239Y-83018961D01*
X161648717Y-74302205D02*
X161656239Y-74368961D01*
X161626529Y-74238796D02*
X161648717Y-74302205D01*
X161590788Y-74181915D02*
X161626529Y-74238796D01*
X161543285Y-74134412D02*
X161590788Y-74181915D01*
X161486404Y-74098671D02*
X161543285Y-74134412D01*
X161422995Y-74076483D02*
X161486404Y-74098671D01*
X161356239Y-74068961D02*
X161422995Y-74076483D01*
X161289482Y-74076483D02*
X161356239Y-74068961D01*
X161226073Y-74098671D02*
X161289482Y-74076483D01*
X161169192Y-74134412D02*
X161226073Y-74098671D01*
X161121689Y-74181915D02*
X161169192Y-74134412D01*
X161085948Y-74238796D02*
X161121689Y-74181915D01*
X161063760Y-74302205D02*
X161085948Y-74238796D01*
X161056239Y-74368961D02*
X161063760Y-74302205D01*
X161056239Y-84318961D02*
X161056239Y-74368961D01*
X161048717Y-84385717D02*
X161056239Y-84318961D01*
X161026529Y-84449126D02*
X161048717Y-84385717D01*
X160990788Y-84506007D02*
X161026529Y-84449126D01*
X160943285Y-84553510D02*
X160990788Y-84506007D01*
X160886404Y-84589251D02*
X160943285Y-84553510D01*
X160822995Y-84611439D02*
X160886404Y-84589251D01*
X160756239Y-84618961D02*
X160822995Y-84611439D01*
X160689482Y-84611439D02*
X160756239Y-84618961D01*
X160626073Y-84589251D02*
X160689482Y-84611439D01*
X160569192Y-84553510D02*
X160626073Y-84589251D01*
X160521689Y-84506007D02*
X160569192Y-84553510D01*
X160485948Y-84449126D02*
X160521689Y-84506007D01*
X160463760Y-84385717D02*
X160485948Y-84449126D01*
X160456239Y-84318961D02*
X160463760Y-84385717D01*
X160456239Y-73768961D02*
X160456239Y-84318961D01*
X160448717Y-73702205D02*
X160456239Y-73768961D01*
X160426529Y-73638796D02*
X160448717Y-73702205D01*
X160390788Y-73581915D02*
X160426529Y-73638796D01*
X160343285Y-73534412D02*
X160390788Y-73581915D01*
X160286404Y-73498671D02*
X160343285Y-73534412D01*
X160222995Y-73476483D02*
X160286404Y-73498671D01*
X160156239Y-73468961D02*
X160222995Y-73476483D01*
X160089482Y-73476483D02*
X160156239Y-73468961D01*
X160026073Y-73498671D02*
X160089482Y-73476483D01*
X159969192Y-73534412D02*
X160026073Y-73498671D01*
X159921689Y-73581915D02*
X159969192Y-73534412D01*
X159885948Y-73638796D02*
X159921689Y-73581915D01*
X159863760Y-73702205D02*
X159885948Y-73638796D01*
X159856239Y-73768961D02*
X159863760Y-73702205D01*
X159856239Y-85618961D02*
X159856239Y-73768961D01*
X159848717Y-85685717D02*
X159856239Y-85618961D01*
X159826529Y-85749126D02*
X159848717Y-85685717D01*
X159790788Y-85806007D02*
X159826529Y-85749126D01*
X159743285Y-85853510D02*
X159790788Y-85806007D01*
X159686404Y-85889251D02*
X159743285Y-85853510D01*
X159622995Y-85911439D02*
X159686404Y-85889251D01*
X159556239Y-85918961D02*
X159622995Y-85911439D01*
X159489482Y-85911439D02*
X159556239Y-85918961D01*
X159426073Y-85889251D02*
X159489482Y-85911439D01*
X159369192Y-85853510D02*
X159426073Y-85889251D01*
X159321689Y-85806007D02*
X159369192Y-85853510D01*
X159285948Y-85749126D02*
X159321689Y-85806007D01*
X159263760Y-85685717D02*
X159285948Y-85749126D01*
X159256239Y-85618961D02*
X159263760Y-85685717D01*
X159256239Y-73318961D02*
X159256239Y-85618961D01*
X159248717Y-73252205D02*
X159256239Y-73318961D01*
X159226529Y-73188796D02*
X159248717Y-73252205D01*
X159190788Y-73131915D02*
X159226529Y-73188796D01*
X159143285Y-73084412D02*
X159190788Y-73131915D01*
X159086404Y-73048671D02*
X159143285Y-73084412D01*
X159022995Y-73026483D02*
X159086404Y-73048671D01*
X158956239Y-73018961D02*
X159022995Y-73026483D01*
X158889482Y-73026483D02*
X158956239Y-73018961D01*
X158826073Y-73048671D02*
X158889482Y-73026483D01*
X158769192Y-73084412D02*
X158826073Y-73048671D01*
X158721689Y-73131915D02*
X158769192Y-73084412D01*
X158685948Y-73188796D02*
X158721689Y-73131915D01*
X158663760Y-73252205D02*
X158685948Y-73188796D01*
X158656239Y-73318961D02*
X158663760Y-73252205D01*
X158656239Y-86868961D02*
X158656239Y-73318961D01*
X158648717Y-86935717D02*
X158656239Y-86868961D01*
X158626529Y-86999126D02*
X158648717Y-86935717D01*
X158590788Y-87056007D02*
X158626529Y-86999126D01*
X158543285Y-87103510D02*
X158590788Y-87056007D01*
X158486404Y-87139251D02*
X158543285Y-87103510D01*
X158422995Y-87161439D02*
X158486404Y-87139251D01*
X158356239Y-87168961D02*
X158422995Y-87161439D01*
X158289482Y-87161439D02*
X158356239Y-87168961D01*
X158226073Y-87139251D02*
X158289482Y-87161439D01*
X158169192Y-87103510D02*
X158226073Y-87139251D01*
X158121689Y-87056007D02*
X158169192Y-87103510D01*
X158085948Y-86999126D02*
X158121689Y-87056007D01*
X158063760Y-86935717D02*
X158085948Y-86999126D01*
X158056239Y-86868961D02*
X158063760Y-86935717D01*
X158056239Y-72968961D02*
X158056239Y-86868961D01*
X158048717Y-72902205D02*
X158056239Y-72968961D01*
X158026529Y-72838796D02*
X158048717Y-72902205D01*
X157990788Y-72781915D02*
X158026529Y-72838796D01*
X157943285Y-72734412D02*
X157990788Y-72781915D01*
X157886404Y-72698671D02*
X157943285Y-72734412D01*
X157822995Y-72676483D02*
X157886404Y-72698671D01*
X157756239Y-72668961D02*
X157822995Y-72676483D01*
X157689482Y-72676483D02*
X157756239Y-72668961D01*
X157626073Y-72698671D02*
X157689482Y-72676483D01*
X157569192Y-72734412D02*
X157626073Y-72698671D01*
X157521689Y-72781915D02*
X157569192Y-72734412D01*
X157485948Y-72838796D02*
X157521689Y-72781915D01*
X157463760Y-72902205D02*
X157485948Y-72838796D01*
X157456239Y-72968961D02*
X157463760Y-72902205D01*
X157456239Y-88168961D02*
X157456239Y-72968961D01*
X157448717Y-88235717D02*
X157456239Y-88168961D01*
X157426529Y-88299126D02*
X157448717Y-88235717D01*
X157390788Y-88356007D02*
X157426529Y-88299126D01*
X157343285Y-88403510D02*
X157390788Y-88356007D01*
X157286404Y-88439251D02*
X157343285Y-88403510D01*
X157222995Y-88461439D02*
X157286404Y-88439251D01*
X157156239Y-88468961D02*
X157222995Y-88461439D01*
X157089482Y-88461439D02*
X157156239Y-88468961D01*
X157026073Y-88439251D02*
X157089482Y-88461439D01*
X156969192Y-88403510D02*
X157026073Y-88439251D01*
X156921689Y-88356007D02*
X156969192Y-88403510D01*
X156885948Y-88299126D02*
X156921689Y-88356007D01*
X156863760Y-88235717D02*
X156885948Y-88299126D01*
X156856239Y-88168961D02*
X156863760Y-88235717D01*
X156856239Y-72668961D02*
X156856239Y-88168961D01*
X156848717Y-72602205D02*
X156856239Y-72668961D01*
X156826529Y-72538796D02*
X156848717Y-72602205D01*
X156790788Y-72481915D02*
X156826529Y-72538796D01*
X156743285Y-72434412D02*
X156790788Y-72481915D01*
X156686404Y-72398671D02*
X156743285Y-72434412D01*
X156622995Y-72376483D02*
X156686404Y-72398671D01*
X156556239Y-72368961D02*
X156622995Y-72376483D01*
X156489482Y-72376483D02*
X156556239Y-72368961D01*
X156426073Y-72398671D02*
X156489482Y-72376483D01*
X156369192Y-72434412D02*
X156426073Y-72398671D01*
X156321689Y-72481915D02*
X156369192Y-72434412D01*
X156285948Y-72538796D02*
X156321689Y-72481915D01*
X156263760Y-72602205D02*
X156285948Y-72538796D01*
X156256239Y-72668961D02*
X156263760Y-72602205D01*
X156256239Y-89468961D02*
X156256239Y-72668961D01*
X156248717Y-89535717D02*
X156256239Y-89468961D01*
X156226529Y-89599126D02*
X156248717Y-89535717D01*
X156190788Y-89656007D02*
X156226529Y-89599126D01*
X156143285Y-89703510D02*
X156190788Y-89656007D01*
X156086404Y-89739251D02*
X156143285Y-89703510D01*
X156022995Y-89761439D02*
X156086404Y-89739251D01*
X155956239Y-89768961D02*
X156022995Y-89761439D01*
X155889482Y-89761439D02*
X155956239Y-89768961D01*
X155826073Y-89739251D02*
X155889482Y-89761439D01*
X155769192Y-89703510D02*
X155826073Y-89739251D01*
X155721689Y-89656007D02*
X155769192Y-89703510D01*
X155685948Y-89599126D02*
X155721689Y-89656007D01*
X155663760Y-89535717D02*
X155685948Y-89599126D01*
X155656239Y-89468961D02*
X155663760Y-89535717D01*
X155656239Y-72468961D02*
X155656239Y-89468961D01*
X155648717Y-72402205D02*
X155656239Y-72468961D01*
X155626529Y-72338796D02*
X155648717Y-72402205D01*
X155590788Y-72281915D02*
X155626529Y-72338796D01*
X155543285Y-72234412D02*
X155590788Y-72281915D01*
X155486404Y-72198671D02*
X155543285Y-72234412D01*
X155422995Y-72176483D02*
X155486404Y-72198671D01*
X155356239Y-72168961D02*
X155422995Y-72176483D01*
X155289482Y-72176483D02*
X155356239Y-72168961D01*
X155226073Y-72198671D02*
X155289482Y-72176483D01*
X155169192Y-72234412D02*
X155226073Y-72198671D01*
X155121689Y-72281915D02*
X155169192Y-72234412D01*
X155085948Y-72338796D02*
X155121689Y-72281915D01*
X155063760Y-72402205D02*
X155085948Y-72338796D01*
X155056239Y-72468961D02*
X155063760Y-72402205D01*
X155056239Y-90768961D02*
X155056239Y-72468961D01*
X155048717Y-90835717D02*
X155056239Y-90768961D01*
X155026529Y-90899126D02*
X155048717Y-90835717D01*
X154990788Y-90956007D02*
X155026529Y-90899126D01*
X154943285Y-91003510D02*
X154990788Y-90956007D01*
X154886404Y-91039251D02*
X154943285Y-91003510D01*
X154822995Y-91061439D02*
X154886404Y-91039251D01*
X154756239Y-91068961D02*
X154822995Y-91061439D01*
X154689482Y-91061439D02*
X154756239Y-91068961D01*
X154626073Y-91039251D02*
X154689482Y-91061439D01*
X154569192Y-91003510D02*
X154626073Y-91039251D01*
X154521689Y-90956007D02*
X154569192Y-91003510D01*
X154485948Y-90899126D02*
X154521689Y-90956007D01*
X154463760Y-90835717D02*
X154485948Y-90899126D01*
X154456239Y-90768961D02*
X154463760Y-90835717D01*
X154456239Y-72318961D02*
X154456239Y-90768961D01*
X154448717Y-72252205D02*
X154456239Y-72318961D01*
X154426529Y-72188796D02*
X154448717Y-72252205D01*
X154390788Y-72131915D02*
X154426529Y-72188796D01*
X154343285Y-72084412D02*
X154390788Y-72131915D01*
X154286404Y-72048671D02*
X154343285Y-72084412D01*
X154222995Y-72026483D02*
X154286404Y-72048671D01*
X154156239Y-72018961D02*
X154222995Y-72026483D01*
X154089482Y-72026483D02*
X154156239Y-72018961D01*
X154026073Y-72048671D02*
X154089482Y-72026483D01*
X153969192Y-72084412D02*
X154026073Y-72048671D01*
X153921689Y-72131915D02*
X153969192Y-72084412D01*
X153885948Y-72188796D02*
X153921689Y-72131915D01*
X153863760Y-72252205D02*
X153885948Y-72188796D01*
X153856239Y-72318961D02*
X153863760Y-72252205D01*
X153856239Y-92068961D02*
X153856239Y-72318961D01*
X153848717Y-92135717D02*
X153856239Y-92068961D01*
X153826529Y-92199126D02*
X153848717Y-92135717D01*
X153790788Y-92256007D02*
X153826529Y-92199126D01*
X153743285Y-92303510D02*
X153790788Y-92256007D01*
X153686404Y-92339251D02*
X153743285Y-92303510D01*
X153622995Y-92361439D02*
X153686404Y-92339251D01*
X153556239Y-92368961D02*
X153622995Y-92361439D01*
X153489482Y-92361439D02*
X153556239Y-92368961D01*
X153426073Y-92339251D02*
X153489482Y-92361439D01*
X153369192Y-92303510D02*
X153426073Y-92339251D01*
X153321689Y-92256007D02*
X153369192Y-92303510D01*
X153285948Y-92199126D02*
X153321689Y-92256007D01*
X153263760Y-92135717D02*
X153285948Y-92199126D01*
X153256239Y-92068961D02*
X153263760Y-92135717D01*
X153256239Y-72168961D02*
X153256239Y-92068961D01*
X153248717Y-72102205D02*
X153256239Y-72168961D01*
X153226529Y-72038796D02*
X153248717Y-72102205D01*
X153190788Y-71981915D02*
X153226529Y-72038796D01*
X153143285Y-71934412D02*
X153190788Y-71981915D01*
X153086404Y-71898671D02*
X153143285Y-71934412D01*
X153022995Y-71876483D02*
X153086404Y-71898671D01*
X152956239Y-71868961D02*
X153022995Y-71876483D01*
X152889482Y-71876483D02*
X152956239Y-71868961D01*
X152826073Y-71898671D02*
X152889482Y-71876483D01*
X152769192Y-71934412D02*
X152826073Y-71898671D01*
X152721689Y-71981915D02*
X152769192Y-71934412D01*
X152685948Y-72038796D02*
X152721689Y-71981915D01*
X152663760Y-72102205D02*
X152685948Y-72038796D01*
X152656239Y-72168961D02*
X152663760Y-72102205D01*
X152656239Y-93368961D02*
X152656239Y-72168961D01*
X152648717Y-93435717D02*
X152656239Y-93368961D01*
X152626529Y-93499126D02*
X152648717Y-93435717D01*
X152590788Y-93556007D02*
X152626529Y-93499126D01*
X152543285Y-93603510D02*
X152590788Y-93556007D01*
X152486404Y-93639251D02*
X152543285Y-93603510D01*
X152422995Y-93661439D02*
X152486404Y-93639251D01*
X152356239Y-93668961D02*
X152422995Y-93661439D01*
X152289482Y-93661439D02*
X152356239Y-93668961D01*
X152226073Y-93639251D02*
X152289482Y-93661439D01*
X152169192Y-93603510D02*
X152226073Y-93639251D01*
X152121689Y-93556007D02*
X152169192Y-93603510D01*
X152085948Y-93499126D02*
X152121689Y-93556007D01*
X152063760Y-93435717D02*
X152085948Y-93499126D01*
X152056239Y-93368961D02*
X152063760Y-93435717D01*
X152056239Y-72068961D02*
X152056239Y-93368961D01*
X152048717Y-72002205D02*
X152056239Y-72068961D01*
X152026529Y-71938796D02*
X152048717Y-72002205D01*
X151990788Y-71881915D02*
X152026529Y-71938796D01*
X151943285Y-71834412D02*
X151990788Y-71881915D01*
X151886404Y-71798671D02*
X151943285Y-71834412D01*
X151822995Y-71776483D02*
X151886404Y-71798671D01*
X151756239Y-71768961D02*
X151822995Y-71776483D01*
X151689482Y-71776483D02*
X151756239Y-71768961D01*
X151626073Y-71798671D02*
X151689482Y-71776483D01*
X151569192Y-71834412D02*
X151626073Y-71798671D01*
X151521689Y-71881915D02*
X151569192Y-71834412D01*
X151485948Y-71938796D02*
X151521689Y-71881915D01*
X151463760Y-72002205D02*
X151485948Y-71938796D01*
X151456239Y-72068961D02*
X151463760Y-72002205D01*
X151456239Y-94668961D02*
X151456239Y-72068961D01*
X151448717Y-94735717D02*
X151456239Y-94668961D01*
X151426529Y-94799126D02*
X151448717Y-94735717D01*
X151390788Y-94856007D02*
X151426529Y-94799126D01*
X151343285Y-94903510D02*
X151390788Y-94856007D01*
X151286404Y-94939251D02*
X151343285Y-94903510D01*
X151222995Y-94961439D02*
X151286404Y-94939251D01*
X151156239Y-94968961D02*
X151222995Y-94961439D01*
X151089482Y-94961439D02*
X151156239Y-94968961D01*
X151026073Y-94939251D02*
X151089482Y-94961439D01*
X150969192Y-94903510D02*
X151026073Y-94939251D01*
X150921689Y-94856007D02*
X150969192Y-94903510D01*
X150885948Y-94799126D02*
X150921689Y-94856007D01*
X150863760Y-94735717D02*
X150885948Y-94799126D01*
X150856239Y-94668961D02*
X150863760Y-94735717D01*
X150856239Y-72018961D02*
X150856239Y-94668961D01*
X150848717Y-71952205D02*
X150856239Y-72018961D01*
X150826529Y-71888796D02*
X150848717Y-71952205D01*
X150790788Y-71831915D02*
X150826529Y-71888796D01*
X150743285Y-71784412D02*
X150790788Y-71831915D01*
X150686404Y-71748671D02*
X150743285Y-71784412D01*
X150622995Y-71726483D02*
X150686404Y-71748671D01*
X150556239Y-71718961D02*
X150622995Y-71726483D01*
X150489482Y-71726483D02*
X150556239Y-71718961D01*
X150426073Y-71748671D02*
X150489482Y-71726483D01*
X150369192Y-71784412D02*
X150426073Y-71748671D01*
X150321689Y-71831915D02*
X150369192Y-71784412D01*
X150285948Y-71888796D02*
X150321689Y-71831915D01*
X150263760Y-71952205D02*
X150285948Y-71888796D01*
X150256239Y-72018961D02*
X150263760Y-71952205D01*
X150256239Y-95918961D02*
X150256239Y-72018961D01*
X150248717Y-95985717D02*
X150256239Y-95918961D01*
X150226529Y-96049126D02*
X150248717Y-95985717D01*
X150190788Y-96106007D02*
X150226529Y-96049126D01*
X150143285Y-96153510D02*
X150190788Y-96106007D01*
X150086404Y-96189251D02*
X150143285Y-96153510D01*
X150022995Y-96211439D02*
X150086404Y-96189251D01*
X149956239Y-96218961D02*
X150022995Y-96211439D01*
X149889482Y-96211439D02*
X149956239Y-96218961D01*
X149826073Y-96189251D02*
X149889482Y-96211439D01*
X149769192Y-96153510D02*
X149826073Y-96189251D01*
X133286404Y-101739251D02*
X133343285Y-101703510D01*
X133156239Y-101768961D02*
X133222995Y-101761439D01*
X133089482Y-101761439D02*
X133156239Y-101768961D01*
X133026073Y-101739251D02*
X133089482Y-101761439D01*
X132969192Y-101703510D02*
X133026073Y-101739251D01*
X132921689Y-101656007D02*
X132969192Y-101703510D01*
X132863760Y-101535717D02*
X132885948Y-101599126D01*
X132856239Y-72018961D02*
X132856239Y-101468961D01*
X132826529Y-71888796D02*
X132848717Y-71952205D01*
X132790788Y-71831915D02*
X132826529Y-71888796D01*
X132686404Y-71748671D02*
X132743285Y-71784412D01*
X132622995Y-71726483D02*
X132686404Y-71748671D01*
X132489482Y-71726483D02*
X132556239Y-71718961D01*
X120369192Y-75034412D02*
X120426073Y-74998671D01*
X132426073Y-71748671D02*
X132489482Y-71726483D01*
X132369192Y-71784412D02*
X132426073Y-71748671D01*
X132285948Y-71888796D02*
X132321689Y-71831915D01*
X132263760Y-71952205D02*
X132285948Y-71888796D01*
X132248717Y-101535717D02*
X132256239Y-101468961D01*
X132190788Y-101656007D02*
X132226529Y-101599126D01*
X132086404Y-101739251D02*
X132143285Y-101703510D01*
X132022995Y-101761439D02*
X132086404Y-101739251D01*
X131956239Y-101768961D02*
X132022995Y-101761439D01*
X131889482Y-101761439D02*
X131956239Y-101768961D01*
X131826073Y-101739251D02*
X131889482Y-101761439D01*
X131769192Y-101703510D02*
X131826073Y-101739251D01*
X131721689Y-101656007D02*
X131769192Y-101703510D01*
X120321689Y-75081915D02*
X120369192Y-75034412D01*
X131685948Y-101599126D02*
X131721689Y-101656007D01*
X131663760Y-101535717D02*
X131685948Y-101599126D01*
X131656239Y-101468961D02*
X131663760Y-101535717D01*
X131590788Y-71881915D02*
X131626529Y-71938796D01*
X131422995Y-71776483D02*
X131486404Y-71798671D01*
X131356239Y-71768961D02*
X131422995Y-71776483D01*
X131289482Y-71776483D02*
X131356239Y-71768961D01*
X131121689Y-71881915D02*
X131169192Y-71834412D01*
X131085948Y-71938796D02*
X131121689Y-71881915D01*
X131063760Y-72002205D02*
X131085948Y-71938796D01*
X131056239Y-101168961D02*
X131056239Y-72068961D01*
X131048717Y-101235717D02*
X131056239Y-101168961D01*
X130990788Y-101356007D02*
X131026529Y-101299126D01*
X130943285Y-101403510D02*
X130990788Y-101356007D01*
X130886404Y-101439251D02*
X130943285Y-101403510D01*
X130689482Y-101461439D02*
X130756239Y-101468961D01*
X130626073Y-101439251D02*
X130689482Y-101461439D01*
X130569192Y-101403510D02*
X130626073Y-101439251D01*
X130485948Y-101299126D02*
X130521689Y-101356007D01*
X130463760Y-101235717D02*
X130485948Y-101299126D01*
X130448717Y-72102205D02*
X130456239Y-72168961D01*
X130426529Y-72038796D02*
X130448717Y-72102205D01*
X130390788Y-71981915D02*
X130426529Y-72038796D01*
X130343285Y-71934412D02*
X130390788Y-71981915D01*
X130222995Y-71876483D02*
X130286404Y-71898671D01*
X130156239Y-71868961D02*
X130222995Y-71876483D01*
X130089482Y-71876483D02*
X130156239Y-71868961D01*
X130026073Y-71898671D02*
X130089482Y-71876483D01*
X129921689Y-71981915D02*
X129969192Y-71934412D01*
X129885948Y-72038796D02*
X129921689Y-71981915D01*
X129856239Y-72168961D02*
X129863760Y-72102205D01*
X129848717Y-99285717D02*
X129856239Y-99218961D01*
X129826529Y-99349126D02*
X129848717Y-99285717D01*
X129743285Y-99453510D02*
X129790788Y-99406007D01*
X129686404Y-99489251D02*
X129743285Y-99453510D01*
X129622995Y-99511439D02*
X129686404Y-99489251D01*
X129489482Y-99511439D02*
X129556239Y-99518961D01*
X129321689Y-99406007D02*
X129369192Y-99453510D01*
X129285948Y-99349126D02*
X129321689Y-99406007D01*
X129263760Y-99285717D02*
X129285948Y-99349126D01*
X129248717Y-72202205D02*
X129256239Y-72268961D01*
X129190788Y-72081915D02*
X129226529Y-72138796D01*
X129143285Y-72034412D02*
X129190788Y-72081915D01*
X129022995Y-71976483D02*
X129086404Y-71998671D01*
X128826073Y-71998671D02*
X128889482Y-71976483D01*
X128721689Y-72081915D02*
X128769192Y-72034412D01*
X128663760Y-72202205D02*
X128685948Y-72138796D01*
X128656239Y-72268961D02*
X128663760Y-72202205D01*
X128656239Y-97268961D02*
X128656239Y-72268961D01*
X128648717Y-97335717D02*
X128656239Y-97268961D01*
X128626529Y-97399126D02*
X128648717Y-97335717D01*
X128543285Y-97503510D02*
X128590788Y-97456007D01*
X128486404Y-97539251D02*
X128543285Y-97503510D01*
X128422995Y-97561439D02*
X128486404Y-97539251D01*
X128356239Y-97568961D02*
X128422995Y-97561439D01*
X128289482Y-97561439D02*
X128356239Y-97568961D01*
X128226073Y-97539251D02*
X128289482Y-97561439D01*
X128169192Y-97503510D02*
X128226073Y-97539251D01*
X128121689Y-97456007D02*
X128169192Y-97503510D01*
X128085948Y-97399126D02*
X128121689Y-97456007D01*
X128063760Y-97335717D02*
X128085948Y-97399126D01*
X128056239Y-97268961D02*
X128063760Y-97335717D01*
X128056239Y-72518961D02*
X128056239Y-97268961D01*
X128048717Y-72452205D02*
X128056239Y-72518961D01*
X128026529Y-72388796D02*
X128048717Y-72452205D01*
X127990788Y-72331915D02*
X128026529Y-72388796D01*
X127943285Y-72284412D02*
X127990788Y-72331915D01*
X127886404Y-72248671D02*
X127943285Y-72284412D01*
X127822995Y-72226483D02*
X127886404Y-72248671D01*
X127756239Y-72218961D02*
X127822995Y-72226483D01*
X127689482Y-72226483D02*
X127756239Y-72218961D01*
X127626073Y-72248671D02*
X127689482Y-72226483D01*
X127569192Y-72284412D02*
X127626073Y-72248671D01*
X127521689Y-72331915D02*
X127569192Y-72284412D01*
X127485948Y-72388796D02*
X127521689Y-72331915D01*
X127463760Y-72452205D02*
X127485948Y-72388796D01*
X127456239Y-72518961D02*
X127463760Y-72452205D01*
X127456239Y-95368961D02*
X127456239Y-72518961D01*
X127448717Y-95435717D02*
X127456239Y-95368961D01*
X127426529Y-95499126D02*
X127448717Y-95435717D01*
X127286404Y-95639251D02*
X127343285Y-95603510D01*
X127222995Y-95661439D02*
X127286404Y-95639251D01*
X127156239Y-95668961D02*
X127222995Y-95661439D01*
X127026073Y-95639251D02*
X127089482Y-95661439D01*
X126969192Y-95603510D02*
X127026073Y-95639251D01*
X126921689Y-95556007D02*
X126969192Y-95603510D01*
X126885948Y-95499126D02*
X126921689Y-95556007D01*
X126863760Y-95435717D02*
X126885948Y-95499126D01*
X126856239Y-95368961D02*
X126863760Y-95435717D01*
X126856239Y-72818961D02*
X126856239Y-95368961D01*
X126848717Y-72752205D02*
X126856239Y-72818961D01*
X126826529Y-72688796D02*
X126848717Y-72752205D01*
X126790788Y-72631915D02*
X126826529Y-72688796D01*
X126686404Y-72548671D02*
X126743285Y-72584412D01*
X126622995Y-72526483D02*
X126686404Y-72548671D01*
X126556239Y-72518961D02*
X126622995Y-72526483D01*
X126489482Y-72526483D02*
X126556239Y-72518961D01*
X126426073Y-72548671D02*
X126489482Y-72526483D01*
X126369192Y-72584412D02*
X126426073Y-72548671D01*
X126321689Y-72631915D02*
X126369192Y-72584412D01*
X126285948Y-72688796D02*
X126321689Y-72631915D01*
X126263760Y-72752205D02*
X126285948Y-72688796D01*
X126256239Y-72818961D02*
X126263760Y-72752205D01*
X126256239Y-93418961D02*
X126256239Y-72818961D01*
X126248717Y-93485717D02*
X126256239Y-93418961D01*
X126226529Y-93549126D02*
X126248717Y-93485717D01*
X126190788Y-93606007D02*
X126226529Y-93549126D01*
X126143285Y-93653510D02*
X126190788Y-93606007D01*
X126086404Y-93689251D02*
X126143285Y-93653510D01*
X126022995Y-93711439D02*
X126086404Y-93689251D01*
X125956239Y-93718961D02*
X126022995Y-93711439D01*
X125889482Y-93711439D02*
X125956239Y-93718961D01*
X125826073Y-93689251D02*
X125889482Y-93711439D01*
X125769192Y-93653510D02*
X125826073Y-93689251D01*
X125721689Y-93606007D02*
X125769192Y-93653510D01*
X125685948Y-93549126D02*
X125721689Y-93606007D01*
X125656239Y-93418961D02*
X125663760Y-93485717D01*
X125656239Y-73168961D02*
X125656239Y-93418961D01*
X125648717Y-73102205D02*
X125656239Y-73168961D01*
X125626529Y-73038796D02*
X125648717Y-73102205D01*
X125590788Y-72981915D02*
X125626529Y-73038796D01*
X125543285Y-72934412D02*
X125590788Y-72981915D01*
X125486404Y-72898671D02*
X125543285Y-72934412D01*
X125422995Y-72876483D02*
X125486404Y-72898671D01*
X125356239Y-72868961D02*
X125422995Y-72876483D01*
X125289482Y-72876483D02*
X125356239Y-72868961D01*
X125226073Y-72898671D02*
X125289482Y-72876483D01*
X125169192Y-72934412D02*
X125226073Y-72898671D01*
X125121689Y-72981915D02*
X125169192Y-72934412D01*
X125085948Y-73038796D02*
X125121689Y-72981915D01*
X125063760Y-73102205D02*
X125085948Y-73038796D01*
X125056239Y-73168961D02*
X125063760Y-73102205D01*
X125056239Y-91468961D02*
X125056239Y-73168961D01*
X125048717Y-91535717D02*
X125056239Y-91468961D01*
X125026529Y-91599126D02*
X125048717Y-91535717D01*
X124990788Y-91656007D02*
X125026529Y-91599126D01*
X124943285Y-91703510D02*
X124990788Y-91656007D01*
X120826529Y-75138796D02*
X120848717Y-75202205D01*
X130286404Y-71898671D02*
X130343285Y-71934412D01*
X120489482Y-74976483D02*
X120556239Y-74968961D01*
X132256239Y-101468961D02*
X132256239Y-72018961D01*
X147256239Y-72018961D02*
X147256239Y-98518961D01*
X128956239Y-71968961D02*
X129022995Y-71976483D01*
X143663760Y-101535717D02*
X143685948Y-101599126D01*
X120969192Y-85903510D02*
X121026073Y-85939251D01*
X131226073Y-71798671D02*
X131289482Y-71776483D01*
X147263760Y-98585717D02*
X147285948Y-98649126D01*
X131026529Y-101299126D02*
X131048717Y-101235717D01*
X146721689Y-71831915D02*
X146769192Y-71784412D01*
X122056239Y-87618961D02*
X122063760Y-87685717D01*
X132143285Y-101703510D02*
X132190788Y-101656007D01*
X148485948Y-97349126D02*
X148521689Y-97406007D01*
X131056239Y-72068961D02*
X131063760Y-72002205D01*
X147190788Y-71831915D02*
X147226529Y-71888796D01*
X122889482Y-73776483D02*
X122956239Y-73768961D01*
X133222995Y-101761439D02*
X133286404Y-101739251D01*
X146085948Y-99949126D02*
X146121689Y-100006007D01*
X121485948Y-74488796D02*
X121521689Y-74431915D01*
X132556239Y-71718961D02*
X132622995Y-71726483D01*
X147256239Y-98518961D02*
X147263760Y-98585717D01*
X122289482Y-87911439D02*
X122356239Y-87918961D01*
X132885948Y-101599126D02*
X132921689Y-101656007D01*
X148456239Y-97218961D02*
X148463760Y-97285717D01*
X122663760Y-74002205D02*
X122685948Y-73938796D01*
X131169192Y-71834412D02*
X131226073Y-71798671D01*
X147969192Y-71784412D02*
X148026073Y-71748671D01*
X123086404Y-73798671D02*
X123143285Y-73834412D01*
X127343285Y-95603510D02*
X127390788Y-95556007D01*
X125663760Y-93485717D02*
X125685948Y-93549126D01*
X132226529Y-101599126D02*
X132248717Y-101535717D01*
X148463760Y-97285717D02*
X148485948Y-97349126D01*
X121448717Y-85735717D02*
X121456239Y-85668961D01*
X126743285Y-72584412D02*
X126790788Y-72631915D01*
X143543285Y-71784412D02*
X143590788Y-71831915D01*
X130456239Y-101168961D02*
X130463760Y-101235717D01*
X132256239Y-72018961D02*
X132263760Y-71952205D01*
X148156239Y-71718961D02*
X148222995Y-71726483D01*
X120686404Y-74998671D02*
X120743285Y-75034412D01*
X127089482Y-95661439D02*
X127156239Y-95668961D01*
X143486404Y-71748671D02*
X143543285Y-71784412D01*
X129969192Y-71934412D02*
X130026073Y-71898671D01*
X130456239Y-72168961D02*
X130456239Y-101168961D01*
X129863760Y-72102205D02*
X129885948Y-72038796D01*
X145569192Y-71784412D02*
X145626073Y-71748671D01*
X121943285Y-74384412D02*
X121990788Y-74431915D01*
X131486404Y-71798671D02*
X131543285Y-71834412D01*
X148026073Y-71748671D02*
X148089482Y-71726483D01*
X129369192Y-99453510D02*
X129426073Y-99489251D01*
X128685948Y-72138796D02*
X128721689Y-72081915D01*
X127390788Y-95556007D02*
X127426529Y-95499126D01*
X142485948Y-101599126D02*
X142521689Y-101656007D01*
X129790788Y-99406007D02*
X129826529Y-99349126D01*
X144022995Y-101761439D02*
X144086404Y-101739251D01*
X121156239Y-85968961D02*
X121222995Y-85961439D01*
X149626529Y-71888796D02*
X149648717Y-71952205D01*
X149169192Y-71784412D02*
X149226073Y-71748671D01*
X123256239Y-89568961D02*
X123263760Y-89635717D01*
X132856239Y-101468961D02*
X132863760Y-101535717D01*
X147086404Y-71748671D02*
X147143285Y-71784412D01*
X124343285Y-73384412D02*
X124390788Y-73431915D01*
X149543285Y-71784412D02*
X149590788Y-71831915D01*
X123226529Y-73938796D02*
X123248717Y-74002205D01*
X123489482Y-89861439D02*
X123556239Y-89868961D01*
X129086404Y-71998671D02*
X129143285Y-72034412D01*
X146422995Y-100111439D02*
X146486404Y-100089251D01*
X124886404Y-91739251D02*
X124943285Y-91703510D01*
X141921689Y-71831915D02*
X141969192Y-71784412D01*
X117369192Y-80103510D02*
X117426073Y-80139251D01*
X148448717Y-71952205D02*
X148456239Y-72018961D01*
X145026073Y-101389251D02*
X145089482Y-101411439D01*
X117143285Y-78384411D02*
X117190788Y-78431914D01*
X149486404Y-71748671D02*
X149543285Y-71784412D01*
X123969192Y-73384412D02*
X124026073Y-73348671D01*
X129856239Y-99218961D02*
X129856239Y-72168961D01*
X117826529Y-79999126D02*
X117848717Y-79935717D01*
X144885948Y-101249126D02*
X144921689Y-101306007D01*
X132743285Y-71784412D02*
X132790788Y-71831915D01*
X146648717Y-99885717D02*
X146656239Y-99818961D01*
X123743285Y-89803510D02*
X123790788Y-89756007D01*
X131543285Y-71834412D02*
X131590788Y-71881915D01*
X146826073Y-71748671D02*
X146889482Y-71726483D01*
X121463760Y-74552205D02*
X121485948Y-74488796D01*
X148689482Y-97511439D02*
X148756239Y-97518961D01*
X123248717Y-74002205D02*
X123256239Y-74068961D01*
X124456239Y-91468961D02*
X124463760Y-91535717D01*
X120622995Y-74976483D02*
X120686404Y-74998671D01*
X149648717Y-71952205D02*
X149656239Y-72018961D01*
X124485948Y-91599126D02*
X124521689Y-91656007D01*
X120743285Y-75034412D02*
X120790788Y-75081915D01*
X130756239Y-101468961D02*
X130822995Y-101461439D01*
X148286404Y-71748671D02*
X148343285Y-71784412D01*
X124156239Y-73318961D02*
X124222995Y-73326483D01*
X143656239Y-101468961D02*
X143663760Y-101535717D01*
X117263760Y-79935717D02*
X117285948Y-79999126D01*
X123556239Y-89868961D02*
X123622995Y-89861439D01*
X120556239Y-74968961D02*
X120622995Y-74976483D01*
X148822995Y-97511439D02*
X148886404Y-97489251D01*
X123369192Y-89803510D02*
X123426073Y-89839251D01*
X129556239Y-99518961D02*
X129622995Y-99511439D01*
X148456239Y-72018961D02*
X148456239Y-97218961D01*
X123263760Y-89635717D02*
X123285948Y-89699126D01*
X124626073Y-91739251D02*
X124689482Y-91761439D01*
X145943285Y-71784412D02*
X145990788Y-71831915D01*
X117622995Y-80161439D02*
X117686404Y-80139251D01*
X148222995Y-71726483D02*
X148286404Y-71748671D01*
X129256239Y-72268961D02*
X129256239Y-99218961D01*
X120426073Y-74998671D02*
X120489482Y-74976483D01*
X143956239Y-101768961D02*
X144022995Y-101761439D01*
X122226073Y-87889251D02*
X122289482Y-87911439D01*
X124222995Y-73326483D02*
X124286404Y-73348671D01*
X130521689Y-101356007D02*
X130569192Y-101403510D01*
X117190788Y-78431914D02*
X117226529Y-78488795D01*
X145426529Y-101249126D02*
X145448717Y-101185717D01*
X120790788Y-75081915D02*
X120826529Y-75138796D01*
X132321689Y-71831915D02*
X132369192Y-71784412D01*
X144426073Y-71748671D02*
X144489482Y-71726483D01*
X121456239Y-85668961D02*
X121456239Y-74618961D01*
X123848717Y-89635717D02*
X123856239Y-89568961D01*
X147143285Y-71784412D02*
X147190788Y-71831915D01*
X123826529Y-89699126D02*
X123848717Y-89635717D01*
X132848717Y-71952205D02*
X132856239Y-72018961D01*
X144969192Y-101353510D02*
X145026073Y-101389251D01*
X122121689Y-87806007D02*
X122169192Y-87853510D01*
X143626529Y-71888796D02*
X143648717Y-71952205D01*
X117856239Y-79868961D02*
X117856239Y-76868961D01*
X123856239Y-73618961D02*
X123863760Y-73552205D01*
X128590788Y-97456007D02*
X128626529Y-97399126D01*
X141143285Y-71784412D02*
X141190788Y-71831915D01*
X117885948Y-76738796D02*
X117921689Y-76681915D01*
X146685948Y-71888796D02*
X146721689Y-71831915D01*
X124463760Y-91535717D02*
X124485948Y-91599126D01*
X129426073Y-99489251D02*
X129489482Y-99511439D01*
X146048717Y-71952205D02*
X146056239Y-72018961D01*
X120856239Y-75268961D02*
X120856239Y-85668961D01*
X124822995Y-91761439D02*
X124886404Y-91739251D01*
X129256239Y-99218961D02*
X129263760Y-99285717D01*
X122956239Y-73768961D02*
X123022995Y-73776483D01*
X128769192Y-72034412D02*
X128826073Y-71998671D01*
X147321689Y-98706007D02*
X147369192Y-98753510D01*
X131648717Y-72002205D02*
X131656239Y-72068961D01*
X143590788Y-71831915D02*
X143626529Y-71888796D01*
X118026073Y-76598671D02*
X118089482Y-76576483D01*
X146626529Y-99949126D02*
X146648717Y-99885717D01*
X124569192Y-91703510D02*
X124626073Y-91739251D01*
X145456239Y-101118961D02*
X145456239Y-72018961D01*
X118286404Y-76598671D02*
X118343285Y-76634412D01*
X129226529Y-72138796D02*
X129248717Y-72202205D01*
X146226073Y-100089251D02*
X146289482Y-100111439D01*
X124426529Y-73488796D02*
X124448717Y-73552205D01*
X149656239Y-72018961D02*
X149656239Y-95918961D01*
X123426073Y-89839251D02*
X123489482Y-89861439D01*
X124089482Y-73326483D02*
X124156239Y-73318961D01*
X144190788Y-101656007D02*
X144226529Y-101599126D01*
X118426529Y-76738796D02*
X118448717Y-76802205D01*
X149663760Y-95985717D02*
X149685948Y-96049126D01*
X124390788Y-73431915D02*
X124426529Y-73488796D01*
X131656239Y-72068961D02*
X131656239Y-101468961D01*
X141790788Y-101656007D02*
X141826529Y-101599126D01*
X118448717Y-76802205D02*
X118456239Y-76868961D01*
X147743285Y-98753510D02*
X147790788Y-98706007D01*
X123686404Y-89839251D02*
X123743285Y-89803510D01*
X131626529Y-71938796D02*
X131648717Y-72002205D01*
X144826529Y-71888796D02*
X144848717Y-71952205D01*
X122826073Y-73798671D02*
X122889482Y-73776483D01*
X143769192Y-101703510D02*
X143826073Y-101739251D01*
X118626073Y-82089251D02*
X118689482Y-82111439D01*
X148990788Y-97406007D02*
X149026529Y-97349126D01*
X123285948Y-89699126D02*
X123321689Y-89756007D01*
X149422995Y-71726483D02*
X149486404Y-71748671D01*
X123143285Y-73834412D02*
X123190788Y-73881915D01*
X144263760Y-71952205D02*
X144285948Y-71888796D01*
X118463760Y-81885717D02*
X118485948Y-81949126D01*
X124286404Y-73348671D02*
X124343285Y-73384412D01*
X130822995Y-101461439D02*
X130886404Y-101439251D01*
X147285948Y-98649126D02*
X147321689Y-98706007D01*
X149026529Y-97349126D02*
X149048717Y-97285717D01*
X123885948Y-73488796D02*
X123921689Y-73431915D01*
X128889482Y-71976483D02*
X128956239Y-71968961D01*
X144143285Y-101703510D02*
X144190788Y-101656007D01*
X121286404Y-85939251D02*
X121343285Y-85903510D01*
X124448717Y-73552205D02*
X124456239Y-73618961D01*
X145521689Y-71831915D02*
X145569192Y-71784412D01*
X118689482Y-82111439D02*
X118756239Y-82118961D01*
X149048717Y-97285717D02*
X149056239Y-97218961D01*
X123190788Y-73881915D02*
X123226529Y-73938796D01*
X120848717Y-75202205D02*
X120856239Y-75268961D01*
X120856239Y-85668961D02*
X120863760Y-85735717D01*
X120863760Y-85735717D02*
X120885948Y-85799126D01*
X120885948Y-85799126D02*
X120921689Y-85856007D01*
X120921689Y-85856007D02*
X120969192Y-85903510D01*
X121026073Y-85939251D02*
X121089482Y-85961439D01*
X121089482Y-85961439D02*
X121156239Y-85968961D01*
X121222995Y-85961439D02*
X121286404Y-85939251D01*
X121343285Y-85903510D02*
X121390788Y-85856007D01*
X121390788Y-85856007D02*
X121426529Y-85799126D01*
X121426529Y-85799126D02*
X121448717Y-85735717D01*
X121456239Y-74618961D02*
X121463760Y-74552205D01*
X121521689Y-74431915D02*
X121569192Y-74384412D01*
X121569192Y-74384412D02*
X121626073Y-74348671D01*
X121626073Y-74348671D02*
X121689482Y-74326483D01*
X121689482Y-74326483D02*
X121756239Y-74318961D01*
X121756239Y-74318961D02*
X121822995Y-74326483D01*
X121822995Y-74326483D02*
X121886404Y-74348671D01*
X121886404Y-74348671D02*
X121943285Y-74384412D01*
X121990788Y-74431915D02*
X122026529Y-74488796D01*
X122026529Y-74488796D02*
X122048717Y-74552205D01*
X122048717Y-74552205D02*
X122056239Y-74618961D01*
X122056239Y-74618961D02*
X122056239Y-87618961D01*
X122063760Y-87685717D02*
X122085948Y-87749126D01*
X122085948Y-87749126D02*
X122121689Y-87806007D01*
X122169192Y-87853510D02*
X122226073Y-87889251D01*
X122356239Y-87918961D02*
X122422995Y-87911439D01*
X122422995Y-87911439D02*
X122486404Y-87889251D01*
X122486404Y-87889251D02*
X122543285Y-87853510D01*
X122543285Y-87853510D02*
X122590788Y-87806007D01*
X122590788Y-87806007D02*
X122626529Y-87749126D01*
X122626529Y-87749126D02*
X122648717Y-87685717D01*
X122648717Y-87685717D02*
X122656239Y-87618961D01*
X122656239Y-87618961D02*
X122656239Y-74068961D01*
X122656239Y-74068961D02*
X122663760Y-74002205D01*
X122685948Y-73938796D02*
X122721689Y-73881915D01*
X122721689Y-73881915D02*
X122769192Y-73834412D01*
X122769192Y-73834412D02*
X122826073Y-73798671D01*
X123022995Y-73776483D02*
X123086404Y-73798671D01*
X123256239Y-74068961D02*
X123256239Y-89568961D01*
X123321689Y-89756007D02*
X123369192Y-89803510D01*
X123622995Y-89861439D02*
X123686404Y-89839251D01*
X123790788Y-89756007D02*
X123826529Y-89699126D01*
X123856239Y-89568961D02*
X123856239Y-73618961D01*
X123863760Y-73552205D02*
X123885948Y-73488796D01*
X123921689Y-73431915D02*
X123969192Y-73384412D01*
X124026073Y-73348671D02*
X124089482Y-73326483D01*
X124456239Y-73618961D02*
X124456239Y-91468961D01*
X124521689Y-91656007D02*
X124569192Y-91703510D01*
X124689482Y-91761439D02*
X124756239Y-91768961D01*
X124756239Y-91768961D02*
X124822995Y-91761439D01*
X133343285Y-101703510D02*
X133390788Y-101656007D01*
X133390788Y-101656007D02*
X133426529Y-101599126D01*
X133426529Y-101599126D02*
X133448717Y-101535717D01*
X133448717Y-101535717D02*
X133456239Y-101468961D01*
X133456239Y-101468961D02*
X133456239Y-72018961D01*
X133456239Y-72018961D02*
X133463760Y-71952205D01*
X133463760Y-71952205D02*
X133485948Y-71888796D01*
X133485948Y-71888796D02*
X133521689Y-71831915D01*
X133521689Y-71831915D02*
X133569192Y-71784412D01*
X133569192Y-71784412D02*
X133626073Y-71748671D01*
X133626073Y-71748671D02*
X133689482Y-71726483D01*
X133689482Y-71726483D02*
X133756239Y-71718961D01*
X133756239Y-71718961D02*
X133822995Y-71726483D01*
X133822995Y-71726483D02*
X133886404Y-71748671D01*
X133886404Y-71748671D02*
X133943285Y-71784412D01*
X133943285Y-71784412D02*
X133990788Y-71831915D01*
X133990788Y-71831915D02*
X134026529Y-71888796D01*
X134026529Y-71888796D02*
X134048717Y-71952205D01*
X134048717Y-71952205D02*
X134056239Y-72018961D01*
X134056239Y-72018961D02*
X134056239Y-101468961D01*
X134056239Y-101468961D02*
X134063760Y-101535717D01*
X134063760Y-101535717D02*
X134085948Y-101599126D01*
X134085948Y-101599126D02*
X134121689Y-101656007D01*
X134121689Y-101656007D02*
X134169192Y-101703510D01*
X134169192Y-101703510D02*
X134226073Y-101739251D01*
X134226073Y-101739251D02*
X134289482Y-101761439D01*
X134289482Y-101761439D02*
X134356239Y-101768961D01*
X134356239Y-101768961D02*
X134422995Y-101761439D01*
X134422995Y-101761439D02*
X134486404Y-101739251D01*
X134486404Y-101739251D02*
X134543285Y-101703510D01*
X134543285Y-101703510D02*
X134590788Y-101656007D01*
X134590788Y-101656007D02*
X134626529Y-101599126D01*
X134626529Y-101599126D02*
X134648717Y-101535717D01*
X134648717Y-101535717D02*
X134656239Y-101468961D01*
X134656239Y-101468961D02*
X134656239Y-72018961D01*
X134656239Y-72018961D02*
X134663760Y-71952205D01*
X134663760Y-71952205D02*
X134685948Y-71888796D01*
X134685948Y-71888796D02*
X134721689Y-71831915D01*
X134721689Y-71831915D02*
X134769192Y-71784412D01*
X134769192Y-71784412D02*
X134826073Y-71748671D01*
X134826073Y-71748671D02*
X134889482Y-71726483D01*
X134889482Y-71726483D02*
X134956239Y-71718961D01*
X134956239Y-71718961D02*
X135022995Y-71726483D01*
X135022995Y-71726483D02*
X135086404Y-71748671D01*
X135086404Y-71748671D02*
X135143285Y-71784412D01*
X135143285Y-71784412D02*
X135190788Y-71831915D01*
X135190788Y-71831915D02*
X135226529Y-71888796D01*
X135226529Y-71888796D02*
X135248717Y-71952205D01*
X135248717Y-71952205D02*
X135256239Y-72018961D01*
X135256239Y-72018961D02*
X135256239Y-101468961D01*
X135256239Y-101468961D02*
X135263760Y-101535717D01*
X135263760Y-101535717D02*
X135285948Y-101599126D01*
X135285948Y-101599126D02*
X135321689Y-101656007D01*
X135321689Y-101656007D02*
X135369192Y-101703510D01*
X135369192Y-101703510D02*
X135426073Y-101739251D01*
X135426073Y-101739251D02*
X135489482Y-101761439D01*
X135489482Y-101761439D02*
X135556239Y-101768961D01*
X135556239Y-101768961D02*
X135622995Y-101761439D01*
X135622995Y-101761439D02*
X135686404Y-101739251D01*
X135686404Y-101739251D02*
X135743285Y-101703510D01*
X135743285Y-101703510D02*
X135790788Y-101656007D01*
X135790788Y-101656007D02*
X135826529Y-101599126D01*
X135826529Y-101599126D02*
X135848717Y-101535717D01*
X135848717Y-101535717D02*
X135856239Y-101468961D01*
X135856239Y-101468961D02*
X135856239Y-72018961D01*
X135856239Y-72018961D02*
X135863760Y-71952205D01*
X135863760Y-71952205D02*
X135885948Y-71888796D01*
X135885948Y-71888796D02*
X135921689Y-71831915D01*
X135921689Y-71831915D02*
X135969192Y-71784412D01*
X119121689Y-75781915D02*
X119169192Y-75734412D01*
X135969192Y-71784412D02*
X136026073Y-71748671D01*
X136026073Y-71748671D02*
X136089482Y-71726483D01*
X136089482Y-71726483D02*
X136156239Y-71718961D01*
X136156239Y-71718961D02*
X136222995Y-71726483D01*
X136222995Y-71726483D02*
X136286404Y-71748671D01*
X136286404Y-71748671D02*
X136343285Y-71784412D01*
X136343285Y-71784412D02*
X136390788Y-71831915D01*
X136390788Y-71831915D02*
X136426529Y-71888796D01*
X136426529Y-71888796D02*
X136448717Y-71952205D01*
X136448717Y-71952205D02*
X136456239Y-72018961D01*
X136456239Y-72018961D02*
X136456239Y-101468961D01*
X119356239Y-75668961D02*
X119422995Y-75676483D01*
X136456239Y-101468961D02*
X136463760Y-101535717D01*
X118822995Y-82111439D02*
X118886404Y-82089251D01*
X136463760Y-101535717D02*
X136485948Y-101599126D01*
X136485948Y-101599126D02*
X136521689Y-101656007D01*
X136521689Y-101656007D02*
X136569192Y-101703510D01*
X136569192Y-101703510D02*
X136626073Y-101739251D01*
X119422995Y-75676483D02*
X119486404Y-75698671D01*
X136626073Y-101739251D02*
X136689482Y-101761439D01*
X136689482Y-101761439D02*
X136756239Y-101768961D01*
X136756239Y-101768961D02*
X136822995Y-101761439D01*
X136822995Y-101761439D02*
X136886404Y-101739251D01*
X136886404Y-101739251D02*
X136943285Y-101703510D01*
X136943285Y-101703510D02*
X136990788Y-101656007D01*
X136990788Y-101656007D02*
X137026529Y-101599126D01*
X137026529Y-101599126D02*
X137048717Y-101535717D01*
X137048717Y-101535717D02*
X137056239Y-101468961D01*
X137056239Y-101468961D02*
X137056239Y-72018961D01*
X137056239Y-72018961D02*
X137063760Y-71952205D01*
X137063760Y-71952205D02*
X137085948Y-71888796D01*
X137085948Y-71888796D02*
X137121689Y-71831915D01*
X137121689Y-71831915D02*
X137169192Y-71784412D01*
X137169192Y-71784412D02*
X137226073Y-71748671D01*
X137226073Y-71748671D02*
X137289482Y-71726483D01*
X137289482Y-71726483D02*
X137356239Y-71718961D01*
X137356239Y-71718961D02*
X137422995Y-71726483D01*
X137422995Y-71726483D02*
X137486404Y-71748671D01*
X137486404Y-71748671D02*
X137543285Y-71784412D01*
X137543285Y-71784412D02*
X137590788Y-71831915D01*
X137590788Y-71831915D02*
X137626529Y-71888796D01*
X137626529Y-71888796D02*
X137648717Y-71952205D01*
X137648717Y-71952205D02*
X137656239Y-72018961D01*
X137656239Y-72018961D02*
X137656239Y-101468961D01*
X137656239Y-101468961D02*
X137663760Y-101535717D01*
X137663760Y-101535717D02*
X137685948Y-101599126D01*
X137685948Y-101599126D02*
X137721689Y-101656007D01*
X137721689Y-101656007D02*
X137769192Y-101703510D01*
X137769192Y-101703510D02*
X137826073Y-101739251D01*
X137826073Y-101739251D02*
X137889482Y-101761439D01*
X137889482Y-101761439D02*
X137956239Y-101768961D01*
X137956239Y-101768961D02*
X138022995Y-101761439D01*
X138022995Y-101761439D02*
X138086404Y-101739251D01*
X138086404Y-101739251D02*
X138143285Y-101703510D01*
X119486404Y-75698671D02*
X119543285Y-75734412D01*
X138143285Y-101703510D02*
X138190788Y-101656007D01*
X119543285Y-75734412D02*
X119590788Y-75781915D01*
X138190788Y-101656007D02*
X138226529Y-101599126D01*
X119590788Y-75781915D02*
X119626529Y-75838796D01*
X138226529Y-101599126D02*
X138248717Y-101535717D01*
X138248717Y-101535717D02*
X138256239Y-101468961D01*
X138256239Y-101468961D02*
X138256239Y-72018961D01*
X138256239Y-72018961D02*
X138263760Y-71952205D01*
X138263760Y-71952205D02*
X138285948Y-71888796D01*
X138285948Y-71888796D02*
X138321689Y-71831915D01*
X138321689Y-71831915D02*
X138369192Y-71784412D01*
X138369192Y-71784412D02*
X138426073Y-71748671D01*
X138426073Y-71748671D02*
X138489482Y-71726483D01*
X138489482Y-71726483D02*
X138556239Y-71718961D01*
X119085948Y-75838796D02*
X119121689Y-75781915D01*
X138556239Y-71718961D02*
X138622995Y-71726483D01*
X138622995Y-71726483D02*
X138686404Y-71748671D01*
X119226073Y-75698671D02*
X119289482Y-75676483D01*
X138686404Y-71748671D02*
X138743285Y-71784412D01*
X138743285Y-71784412D02*
X138790788Y-71831915D01*
X138790788Y-71831915D02*
X138826529Y-71888796D01*
X138826529Y-71888796D02*
X138848717Y-71952205D01*
X120256239Y-83718961D02*
X120256239Y-75268961D01*
X138848717Y-71952205D02*
X138856239Y-72018961D01*
X119169192Y-75734412D02*
X119226073Y-75698671D01*
X138856239Y-72018961D02*
X138856239Y-101468961D01*
X119026529Y-81949126D02*
X119048717Y-81885717D01*
X138856239Y-101468961D02*
X138863760Y-101535717D01*
X138863760Y-101535717D02*
X138885948Y-101599126D01*
X138885948Y-101599126D02*
X138921689Y-101656007D01*
X119656239Y-83718961D02*
X119663760Y-83785717D01*
X138921689Y-101656007D02*
X138969192Y-101703510D01*
X138969192Y-101703510D02*
X139026073Y-101739251D01*
X118943285Y-82053510D02*
X118990788Y-82006007D01*
X139026073Y-101739251D02*
X139089482Y-101761439D01*
X120263760Y-75202205D02*
X120285948Y-75138796D01*
X139089482Y-101761439D02*
X139156239Y-101768961D01*
X139156239Y-101768961D02*
X139222995Y-101761439D01*
X139222995Y-101761439D02*
X139286404Y-101739251D01*
X120256239Y-75268961D02*
X120263760Y-75202205D01*
X139286404Y-101739251D02*
X139343285Y-101703510D01*
X139343285Y-101703510D02*
X139390788Y-101656007D01*
X139390788Y-101656007D02*
X139426529Y-101599126D01*
X139426529Y-101599126D02*
X139448717Y-101535717D01*
X120143285Y-83953510D02*
X120190788Y-83906007D01*
X139448717Y-101535717D02*
X139456239Y-101468961D01*
X118886404Y-82089251D02*
X118943285Y-82053510D01*
X139456239Y-101468961D02*
X139456239Y-72018961D01*
X139456239Y-72018961D02*
X139463760Y-71952205D01*
X120285948Y-75138796D02*
X120321689Y-75081915D01*
X139463760Y-71952205D02*
X139485948Y-71888796D01*
X139485948Y-71888796D02*
X139521689Y-71831915D01*
X119063760Y-75902205D02*
X119085948Y-75838796D01*
X139521689Y-71831915D02*
X139569192Y-71784412D01*
X139569192Y-71784412D02*
X139626073Y-71748671D01*
X139626073Y-71748671D02*
X139689482Y-71726483D01*
X139689482Y-71726483D02*
X139756239Y-71718961D01*
X139756239Y-71718961D02*
X139822995Y-71726483D01*
X139822995Y-71726483D02*
X139886404Y-71748671D01*
X139886404Y-71748671D02*
X139943285Y-71784412D01*
X139943285Y-71784412D02*
X139990788Y-71831915D01*
X119056239Y-75968961D02*
X119063760Y-75902205D01*
X139990788Y-71831915D02*
X140026529Y-71888796D01*
X140026529Y-71888796D02*
X140048717Y-71952205D01*
X140048717Y-71952205D02*
X140056239Y-72018961D01*
X140056239Y-72018961D02*
X140056239Y-101468961D01*
X140056239Y-101468961D02*
X140063760Y-101535717D01*
X119289482Y-75676483D02*
X119356239Y-75668961D01*
X140063760Y-101535717D02*
X140085948Y-101599126D01*
X140085948Y-101599126D02*
X140121689Y-101656007D01*
X140121689Y-101656007D02*
X140169192Y-101703510D01*
X119826073Y-83989251D02*
X119889482Y-84011439D01*
X140169192Y-101703510D02*
X140226073Y-101739251D01*
X140226073Y-101739251D02*
X140289482Y-101761439D01*
X140289482Y-101761439D02*
X140356239Y-101768961D01*
X140356239Y-101768961D02*
X140422995Y-101761439D01*
X119048717Y-81885717D02*
X119056239Y-81818961D01*
X140422995Y-101761439D02*
X140486404Y-101739251D01*
X119648717Y-75902205D02*
X119656239Y-75968961D01*
X140486404Y-101739251D02*
X140543285Y-101703510D01*
X140543285Y-101703510D02*
X140590788Y-101656007D01*
X118756239Y-82118961D02*
X118822995Y-82111439D01*
X140590788Y-101656007D02*
X140626529Y-101599126D01*
X140626529Y-101599126D02*
X140648717Y-101535717D01*
X119056239Y-81818961D02*
X119056239Y-75968961D01*
X140648717Y-101535717D02*
X140656239Y-101468961D01*
X140656239Y-101468961D02*
X140656239Y-72018961D01*
X140656239Y-72018961D02*
X140663760Y-71952205D01*
X140663760Y-71952205D02*
X140685948Y-71888796D01*
X118990788Y-82006007D02*
X119026529Y-81949126D01*
X140685948Y-71888796D02*
X140721689Y-71831915D01*
X140721689Y-71831915D02*
X140769192Y-71784412D01*
X140769192Y-71784412D02*
X140826073Y-71748671D01*
X140826073Y-71748671D02*
X140889482Y-71726483D01*
X140889482Y-71726483D02*
X140956239Y-71718961D01*
X140956239Y-71718961D02*
X141022995Y-71726483D01*
X141022995Y-71726483D02*
X141086404Y-71748671D01*
X141086404Y-71748671D02*
X141143285Y-71784412D01*
X120226529Y-83849126D02*
X120248717Y-83785717D01*
X141190788Y-71831915D02*
X141226529Y-71888796D01*
X119685948Y-83849126D02*
X119721689Y-83906007D01*
X141226529Y-71888796D02*
X141248717Y-71952205D01*
X141248717Y-71952205D02*
X141256239Y-72018961D01*
X117256239Y-78618961D02*
X117256239Y-79868961D01*
X141256239Y-72018961D02*
X141256239Y-101468961D01*
X141256239Y-101468961D02*
X141263760Y-101535717D01*
X117256239Y-79868961D02*
X117263760Y-79935717D01*
X141263760Y-101535717D02*
X141285948Y-101599126D01*
X141285948Y-101599126D02*
X141321689Y-101656007D01*
X141321689Y-101656007D02*
X141369192Y-101703510D01*
X141369192Y-101703510D02*
X141426073Y-101739251D01*
X141426073Y-101739251D02*
X141489482Y-101761439D01*
X119626529Y-75838796D02*
X119648717Y-75902205D01*
X141489482Y-101761439D02*
X141556239Y-101768961D01*
X141556239Y-101768961D02*
X141622995Y-101761439D01*
X141622995Y-101761439D02*
X141686404Y-101739251D01*
X141686404Y-101739251D02*
X141743285Y-101703510D01*
X141743285Y-101703510D02*
X141790788Y-101656007D01*
X119769192Y-83953510D02*
X119826073Y-83989251D01*
X141826529Y-101599126D02*
X141848717Y-101535717D01*
X117226529Y-78488795D02*
X117248717Y-78552204D01*
X141848717Y-101535717D02*
X141856239Y-101468961D01*
X141856239Y-101468961D02*
X141856239Y-72018961D01*
X141856239Y-72018961D02*
X141863760Y-71952205D01*
X120086404Y-83989251D02*
X120143285Y-83953510D01*
X141863760Y-71952205D02*
X141885948Y-71888796D01*
X141885948Y-71888796D02*
X141921689Y-71831915D01*
X120190788Y-83906007D02*
X120226529Y-83849126D01*
X141969192Y-71784412D02*
X142026073Y-71748671D01*
X142026073Y-71748671D02*
X142089482Y-71726483D01*
X118089482Y-76576483D02*
X118156239Y-76568961D01*
X142089482Y-71726483D02*
X142156239Y-71718961D01*
X142156239Y-71718961D02*
X142222995Y-71726483D01*
X142222995Y-71726483D02*
X142286404Y-71748671D01*
X142286404Y-71748671D02*
X142343285Y-71784412D01*
X117969192Y-76634412D02*
X118026073Y-76598671D01*
X142343285Y-71784412D02*
X142390788Y-71831915D01*
X142390788Y-71831915D02*
X142426529Y-71888796D01*
X118456239Y-76868961D02*
X118456239Y-81818961D01*
X142426529Y-71888796D02*
X142448717Y-71952205D01*
X118521689Y-82006007D02*
X118569192Y-82053510D01*
X142448717Y-71952205D02*
X142456239Y-72018961D01*
X142456239Y-72018961D02*
X142456239Y-101468961D01*
X142456239Y-101468961D02*
X142463760Y-101535717D01*
X119889482Y-84011439D02*
X119956239Y-84018961D01*
X142463760Y-101535717D02*
X142485948Y-101599126D01*
X142521689Y-101656007D02*
X142569192Y-101703510D01*
X118485948Y-81949126D02*
X118521689Y-82006007D01*
X142569192Y-101703510D02*
X142626073Y-101739251D01*
X142626073Y-101739251D02*
X142689482Y-101761439D01*
X142689482Y-101761439D02*
X142756239Y-101768961D01*
X142756239Y-101768961D02*
X142822995Y-101761439D01*
X119656239Y-75968961D02*
X119656239Y-83718961D01*
X142822995Y-101761439D02*
X142886404Y-101739251D01*
X142886404Y-101739251D02*
X142943285Y-101703510D01*
X142943285Y-101703510D02*
X142990788Y-101656007D01*
X117686404Y-80139251D02*
X117743285Y-80103510D01*
X142990788Y-101656007D02*
X143026529Y-101599126D01*
X143026529Y-101599126D02*
X143048717Y-101535717D01*
X120022995Y-84011439D02*
X120086404Y-83989251D01*
X143048717Y-101535717D02*
X143056239Y-101468961D01*
X120248717Y-83785717D02*
X120256239Y-83718961D01*
X143056239Y-101468961D02*
X143056239Y-72018961D01*
X143056239Y-72018961D02*
X143063760Y-71952205D01*
X143063760Y-71952205D02*
X143085948Y-71888796D01*
X143085948Y-71888796D02*
X143121689Y-71831915D01*
X119663760Y-83785717D02*
X119685948Y-83849126D01*
X143121689Y-71831915D02*
X143169192Y-71784412D01*
X143169192Y-71784412D02*
X143226073Y-71748671D01*
X117556239Y-80168961D02*
X117622995Y-80161439D01*
X143226073Y-71748671D02*
X143289482Y-71726483D01*
X119721689Y-83906007D02*
X119769192Y-83953510D01*
X143289482Y-71726483D02*
X143356239Y-71718961D01*
X119956239Y-84018961D02*
X120022995Y-84011439D01*
X143356239Y-71718961D02*
X143422995Y-71726483D01*
X117856239Y-76868961D02*
X117863760Y-76802205D01*
X143422995Y-71726483D02*
X143486404Y-71748671D01*
X117248717Y-78552204D02*
X117256239Y-78618961D01*
X143648717Y-71952205D02*
X143656239Y-72018961D01*
X143656239Y-72018961D02*
X143656239Y-101468961D01*
X143685948Y-101599126D02*
X143721689Y-101656007D01*
X143721689Y-101656007D02*
X143769192Y-101703510D01*
X118222995Y-76576483D02*
X118286404Y-76598671D01*
X143826073Y-101739251D02*
X143889482Y-101761439D01*
X143889482Y-101761439D02*
X143956239Y-101768961D01*
X144086404Y-101739251D02*
X144143285Y-101703510D01*
X118456239Y-81818961D02*
X118463760Y-81885717D01*
X144226529Y-101599126D02*
X144248717Y-101535717D01*
X117863760Y-76802205D02*
X117885948Y-76738796D01*
X144248717Y-101535717D02*
X144256239Y-101468961D01*
X144256239Y-101468961D02*
X144256239Y-72018961D01*
X144256239Y-72018961D02*
X144263760Y-71952205D01*
X117848717Y-79935717D02*
X117856239Y-79868961D01*
X144285948Y-71888796D02*
X144321689Y-71831915D01*
X117086404Y-78348670D02*
X117143285Y-78384411D01*
X144321689Y-71831915D02*
X144369192Y-71784412D01*
X117285948Y-79999126D02*
X117321689Y-80056007D01*
X144369192Y-71784412D02*
X144426073Y-71748671D01*
X117921689Y-76681915D02*
X117969192Y-76634412D01*
X144489482Y-71726483D02*
X144556239Y-71718961D01*
X144556239Y-71718961D02*
X144622995Y-71726483D01*
X144622995Y-71726483D02*
X144686404Y-71748671D01*
X144686404Y-71748671D02*
X144743285Y-71784412D01*
X117790788Y-80056007D02*
X117826529Y-79999126D01*
X144743285Y-71784412D02*
X144790788Y-71831915D01*
X118390788Y-76681915D02*
X118426529Y-76738796D01*
X144790788Y-71831915D02*
X144826529Y-71888796D01*
X144848717Y-71952205D02*
X144856239Y-72018961D01*
X144856239Y-72018961D02*
X144856239Y-101118961D01*
X144856239Y-101118961D02*
X144863760Y-101185717D01*
X116956239Y-78318961D02*
X117022995Y-78326482D01*
X144863760Y-101185717D02*
X144885948Y-101249126D01*
X144921689Y-101306007D02*
X144969192Y-101353510D01*
X145089482Y-101411439D02*
X145156239Y-101418961D01*
X145156239Y-101418961D02*
X145222995Y-101411439D01*
X118569192Y-82053510D02*
X118626073Y-82089251D01*
X145222995Y-101411439D02*
X145286404Y-101389251D01*
X145286404Y-101389251D02*
X145343285Y-101353510D01*
X118156239Y-76568961D02*
X118222995Y-76576483D01*
X145343285Y-101353510D02*
X145390788Y-101306007D01*
X145390788Y-101306007D02*
X145426529Y-101249126D01*
X117489482Y-80161439D02*
X117556239Y-80168961D01*
X145448717Y-101185717D02*
X145456239Y-101118961D01*
X145456239Y-72018961D02*
X145463760Y-71952205D01*
X145463760Y-71952205D02*
X145485948Y-71888796D01*
X116546222Y-78318961D02*
X116956239Y-78318961D01*
X145485948Y-71888796D02*
X145521689Y-71831915D01*
X145626073Y-71748671D02*
X145689482Y-71726483D01*
X117022995Y-78326482D02*
X117086404Y-78348670D01*
X145689482Y-71726483D02*
X145756239Y-71718961D01*
X117321689Y-80056007D02*
X117369192Y-80103510D01*
X145756239Y-71718961D02*
X145822995Y-71726483D01*
X117426073Y-80139251D02*
X117489482Y-80161439D01*
X145822995Y-71726483D02*
X145886404Y-71748671D01*
X145886404Y-71748671D02*
X145943285Y-71784412D01*
X117743285Y-80103510D02*
X117790788Y-80056007D01*
X145990788Y-71831915D02*
X146026529Y-71888796D01*
X118343285Y-76634412D02*
X118390788Y-76681915D01*
X146026529Y-71888796D02*
X146048717Y-71952205D01*
X146056239Y-72018961D02*
X146056239Y-99818961D01*
X146056239Y-99818961D02*
X146063760Y-99885717D01*
X146063760Y-99885717D02*
X146085948Y-99949126D01*
X146121689Y-100006007D02*
X146169192Y-100053510D01*
X146169192Y-100053510D02*
X146226073Y-100089251D01*
X146289482Y-100111439D02*
X146356239Y-100118961D01*
X146356239Y-100118961D02*
X146422995Y-100111439D01*
X146486404Y-100089251D02*
X146543285Y-100053510D01*
X146543285Y-100053510D02*
X146590788Y-100006007D01*
X146590788Y-100006007D02*
X146626529Y-99949126D01*
X146656239Y-99818961D02*
X146656239Y-72018961D01*
X146656239Y-72018961D02*
X146663760Y-71952205D01*
X146663760Y-71952205D02*
X146685948Y-71888796D01*
X146769192Y-71784412D02*
X146826073Y-71748671D01*
X146889482Y-71726483D02*
X146956239Y-71718961D01*
X146956239Y-71718961D02*
X147022995Y-71726483D01*
X147022995Y-71726483D02*
X147086404Y-71748671D01*
X147226529Y-71888796D02*
X147248717Y-71952205D01*
X147248717Y-71952205D02*
X147256239Y-72018961D01*
X147369192Y-98753510D02*
X147426073Y-98789251D01*
X147426073Y-98789251D02*
X147489482Y-98811439D01*
X147489482Y-98811439D02*
X147556239Y-98818961D01*
X147556239Y-98818961D02*
X147622995Y-98811439D01*
X147622995Y-98811439D02*
X147686404Y-98789251D01*
X147686404Y-98789251D02*
X147743285Y-98753510D01*
X147790788Y-98706007D02*
X147826529Y-98649126D01*
X147826529Y-98649126D02*
X147848717Y-98585717D01*
X147848717Y-98585717D02*
X147856239Y-98518961D01*
X147856239Y-98518961D02*
X147856239Y-72018961D01*
X147856239Y-72018961D02*
X147863760Y-71952205D01*
X147863760Y-71952205D02*
X147885948Y-71888796D01*
X147885948Y-71888796D02*
X147921689Y-71831915D01*
X147921689Y-71831915D02*
X147969192Y-71784412D01*
X148089482Y-71726483D02*
X148156239Y-71718961D01*
X148343285Y-71784412D02*
X148390788Y-71831915D01*
X148390788Y-71831915D02*
X148426529Y-71888796D01*
X148426529Y-71888796D02*
X148448717Y-71952205D01*
X148521689Y-97406007D02*
X148569192Y-97453510D01*
X148569192Y-97453510D02*
X148626073Y-97489251D01*
X148626073Y-97489251D02*
X148689482Y-97511439D01*
X148756239Y-97518961D02*
X148822995Y-97511439D01*
X148886404Y-97489251D02*
X148943285Y-97453510D01*
X148943285Y-97453510D02*
X148990788Y-97406007D01*
X149056239Y-97218961D02*
X149056239Y-72018961D01*
X149056239Y-72018961D02*
X149063760Y-71952205D01*
X149063760Y-71952205D02*
X149085948Y-71888796D01*
X149085948Y-71888796D02*
X149121689Y-71831915D01*
X149121689Y-71831915D02*
X149169192Y-71784412D01*
X149226073Y-71748671D02*
X149289482Y-71726483D01*
X149289482Y-71726483D02*
X149356239Y-71718961D01*
X149356239Y-71718961D02*
X149422995Y-71726483D01*
X149590788Y-71831915D02*
X149626529Y-71888796D01*
X149656239Y-95918961D02*
X149663760Y-95985717D01*
X149685948Y-96049126D02*
X149721689Y-96106007D01*
X149721689Y-96106007D02*
X149769192Y-96153510D01*
M02*
