G04 #@! TF.GenerationSoftware,KiCad,Pcbnew,(5.1.5)-3*
G04 #@! TF.CreationDate,2021-10-24T21:58:38+02:00*
G04 #@! TF.ProjectId,seg2,73656732-2e6b-4696-9361-645f70636258,1*
G04 #@! TF.SameCoordinates,Original*
G04 #@! TF.FileFunction,Soldermask,Top*
G04 #@! TF.FilePolarity,Negative*
%FSLAX46Y46*%
G04 Gerber Fmt 4.6, Leading zero omitted, Abs format (unit mm)*
G04 Created by KiCad (PCBNEW (5.1.5)-3) date 2021-10-24 21:58:38*
%MOMM*%
%LPD*%
G04 APERTURE LIST*
%ADD10C,0.152400*%
G04 APERTURE END LIST*
D10*
G36*
X116648313Y-77982411D02*
G01*
X116712009Y-78008795D01*
X116769334Y-78047098D01*
X116818085Y-78095849D01*
X116856388Y-78153174D01*
X116882772Y-78216870D01*
X116896222Y-78284489D01*
X116896222Y-78353433D01*
X116882772Y-78421052D01*
X116856388Y-78484748D01*
X116818085Y-78542073D01*
X116769334Y-78590824D01*
X116712009Y-78629127D01*
X116648313Y-78655511D01*
X116580694Y-78668961D01*
X116511750Y-78668961D01*
X116444131Y-78655511D01*
X116380435Y-78629127D01*
X116323110Y-78590824D01*
X116274359Y-78542073D01*
X116236056Y-78484748D01*
X116209672Y-78421052D01*
X116196222Y-78353433D01*
X116196222Y-78284489D01*
X116209672Y-78216870D01*
X116236056Y-78153174D01*
X116274359Y-78095849D01*
X116323110Y-78047098D01*
X116380435Y-78008795D01*
X116444131Y-77982411D01*
X116511750Y-77968961D01*
X116580694Y-77968961D01*
X116648313Y-77982411D01*
G37*
G36*
X166712138Y-77726440D02*
G01*
X166775834Y-77752824D01*
X166833159Y-77791127D01*
X166881910Y-77839878D01*
X166920213Y-77897203D01*
X166946597Y-77960899D01*
X166960047Y-78028518D01*
X166960047Y-78097462D01*
X166946597Y-78165081D01*
X166920213Y-78228777D01*
X166881910Y-78286102D01*
X166833159Y-78334853D01*
X166775834Y-78373156D01*
X166712138Y-78399540D01*
X166644519Y-78412990D01*
X166575575Y-78412990D01*
X166507956Y-78399540D01*
X166444260Y-78373156D01*
X166386935Y-78334853D01*
X166338184Y-78286102D01*
X166299881Y-78228777D01*
X166273497Y-78165081D01*
X166260047Y-78097462D01*
X166260047Y-78028518D01*
X166273497Y-77960899D01*
X166299881Y-77897203D01*
X166338184Y-77839878D01*
X166386935Y-77791127D01*
X166444260Y-77752824D01*
X166507956Y-77726440D01*
X166575575Y-77712990D01*
X166644519Y-77712990D01*
X166712138Y-77726440D01*
G37*
M02*
