G04 #@! TF.GenerationSoftware,KiCad,Pcbnew,(5.1.5)-3*
G04 #@! TF.CreationDate,2021-10-24T21:58:38+02:00*
G04 #@! TF.ProjectId,seg2,73656732-2e6b-4696-9361-645f70636258,1*
G04 #@! TF.SameCoordinates,Original*
G04 #@! TF.FileFunction,Legend,Bot*
G04 #@! TF.FilePolarity,Positive*
%FSLAX46Y46*%
G04 Gerber Fmt 4.6, Leading zero omitted, Abs format (unit mm)*
G04 Created by KiCad (PCBNEW (5.1.5)-3) date 2021-10-24 21:58:38*
%MOMM*%
%LPD*%
G04 APERTURE LIST*
%ADD10C,0.150000*%
%ADD11C,0.200000*%
%ADD12C,0.120000*%
%ADD13C,0.152400*%
%ADD14C,0.700000*%
G04 APERTURE END LIST*
D10*
X151109828Y-73132971D02*
X150805066Y-73132971D01*
X150995542Y-72866304D02*
X150995542Y-73552019D01*
X150957447Y-73628209D01*
X150881257Y-73666304D01*
X150805066Y-73666304D01*
X150538400Y-73666304D02*
X150538400Y-72866304D01*
X150195542Y-73666304D02*
X150195542Y-73247257D01*
X150233638Y-73171066D01*
X150309828Y-73132971D01*
X150424114Y-73132971D01*
X150500304Y-73171066D01*
X150538400Y-73209161D01*
X149509828Y-73628209D02*
X149586019Y-73666304D01*
X149738400Y-73666304D01*
X149814590Y-73628209D01*
X149852685Y-73552019D01*
X149852685Y-73247257D01*
X149814590Y-73171066D01*
X149738400Y-73132971D01*
X149586019Y-73132971D01*
X149509828Y-73171066D01*
X149471733Y-73247257D01*
X149471733Y-73323447D01*
X149852685Y-73399638D01*
X149128876Y-73666304D02*
X149128876Y-73132971D01*
X149128876Y-73285352D02*
X149090780Y-73209161D01*
X149052685Y-73171066D01*
X148976495Y-73132971D01*
X148900304Y-73132971D01*
X148633638Y-73666304D02*
X148633638Y-73132971D01*
X148633638Y-73209161D02*
X148595542Y-73171066D01*
X148519352Y-73132971D01*
X148405066Y-73132971D01*
X148328876Y-73171066D01*
X148290780Y-73247257D01*
X148290780Y-73666304D01*
X148290780Y-73247257D02*
X148252685Y-73171066D01*
X148176495Y-73132971D01*
X148062209Y-73132971D01*
X147986019Y-73171066D01*
X147947923Y-73247257D01*
X147947923Y-73666304D01*
X147452685Y-73666304D02*
X147528876Y-73628209D01*
X147566971Y-73590114D01*
X147605066Y-73513923D01*
X147605066Y-73285352D01*
X147566971Y-73209161D01*
X147528876Y-73171066D01*
X147452685Y-73132971D01*
X147338400Y-73132971D01*
X147262209Y-73171066D01*
X147224114Y-73209161D01*
X147186019Y-73285352D01*
X147186019Y-73513923D01*
X147224114Y-73590114D01*
X147262209Y-73628209D01*
X147338400Y-73666304D01*
X147452685Y-73666304D01*
X146500304Y-73628209D02*
X146576495Y-73666304D01*
X146728876Y-73666304D01*
X146805066Y-73628209D01*
X146843161Y-73590114D01*
X146881257Y-73513923D01*
X146881257Y-73285352D01*
X146843161Y-73209161D01*
X146805066Y-73171066D01*
X146728876Y-73132971D01*
X146576495Y-73132971D01*
X146500304Y-73171066D01*
X146157447Y-73666304D02*
X146157447Y-72866304D01*
X145814590Y-73666304D02*
X145814590Y-73247257D01*
X145852685Y-73171066D01*
X145928876Y-73132971D01*
X146043161Y-73132971D01*
X146119352Y-73171066D01*
X146157447Y-73209161D01*
X145433638Y-73666304D02*
X145433638Y-73132971D01*
X145433638Y-73285352D02*
X145395542Y-73209161D01*
X145357447Y-73171066D01*
X145281257Y-73132971D01*
X145205066Y-73132971D01*
X144824114Y-73666304D02*
X144900304Y-73628209D01*
X144938400Y-73590114D01*
X144976495Y-73513923D01*
X144976495Y-73285352D01*
X144938400Y-73209161D01*
X144900304Y-73171066D01*
X144824114Y-73132971D01*
X144709828Y-73132971D01*
X144633638Y-73171066D01*
X144595542Y-73209161D01*
X144557447Y-73285352D01*
X144557447Y-73513923D01*
X144595542Y-73590114D01*
X144633638Y-73628209D01*
X144709828Y-73666304D01*
X144824114Y-73666304D01*
X144214590Y-73666304D02*
X144214590Y-73132971D01*
X144214590Y-73209161D02*
X144176495Y-73171066D01*
X144100304Y-73132971D01*
X143986019Y-73132971D01*
X143909828Y-73171066D01*
X143871733Y-73247257D01*
X143871733Y-73666304D01*
X143871733Y-73247257D02*
X143833638Y-73171066D01*
X143757447Y-73132971D01*
X143643161Y-73132971D01*
X143566971Y-73171066D01*
X143528876Y-73247257D01*
X143528876Y-73666304D01*
X143147923Y-73666304D02*
X143147923Y-73132971D01*
X143147923Y-72866304D02*
X143186019Y-72904400D01*
X143147923Y-72942495D01*
X143109828Y-72904400D01*
X143147923Y-72866304D01*
X143147923Y-72942495D01*
X142424114Y-73628209D02*
X142500304Y-73666304D01*
X142652685Y-73666304D01*
X142728876Y-73628209D01*
X142766971Y-73590114D01*
X142805066Y-73513923D01*
X142805066Y-73285352D01*
X142766971Y-73209161D01*
X142728876Y-73171066D01*
X142652685Y-73132971D01*
X142500304Y-73132971D01*
X142424114Y-73171066D01*
X141128876Y-73628209D02*
X141205066Y-73666304D01*
X141357447Y-73666304D01*
X141433638Y-73628209D01*
X141471733Y-73590114D01*
X141509828Y-73513923D01*
X141509828Y-73285352D01*
X141471733Y-73209161D01*
X141433638Y-73171066D01*
X141357447Y-73132971D01*
X141205066Y-73132971D01*
X141128876Y-73171066D01*
X140671733Y-73666304D02*
X140747923Y-73628209D01*
X140786019Y-73552019D01*
X140786019Y-72866304D01*
X140252685Y-73666304D02*
X140328876Y-73628209D01*
X140366971Y-73590114D01*
X140405066Y-73513923D01*
X140405066Y-73285352D01*
X140366971Y-73209161D01*
X140328876Y-73171066D01*
X140252685Y-73132971D01*
X140138400Y-73132971D01*
X140062209Y-73171066D01*
X140024114Y-73209161D01*
X139986019Y-73285352D01*
X139986019Y-73513923D01*
X140024114Y-73590114D01*
X140062209Y-73628209D01*
X140138400Y-73666304D01*
X140252685Y-73666304D01*
X139300304Y-73628209D02*
X139376495Y-73666304D01*
X139528876Y-73666304D01*
X139605066Y-73628209D01*
X139643161Y-73590114D01*
X139681257Y-73513923D01*
X139681257Y-73285352D01*
X139643161Y-73209161D01*
X139605066Y-73171066D01*
X139528876Y-73132971D01*
X139376495Y-73132971D01*
X139300304Y-73171066D01*
X138957447Y-73666304D02*
X138957447Y-72866304D01*
X138881257Y-73361542D02*
X138652685Y-73666304D01*
X138652685Y-73132971D02*
X138957447Y-73437733D01*
X137738400Y-73628209D02*
X137662209Y-73666304D01*
X137509828Y-73666304D01*
X137433638Y-73628209D01*
X137395542Y-73552019D01*
X137395542Y-73513923D01*
X137433638Y-73437733D01*
X137509828Y-73399638D01*
X137624114Y-73399638D01*
X137700304Y-73361542D01*
X137738400Y-73285352D01*
X137738400Y-73247257D01*
X137700304Y-73171066D01*
X137624114Y-73132971D01*
X137509828Y-73132971D01*
X137433638Y-73171066D01*
X136747923Y-73628209D02*
X136824114Y-73666304D01*
X136976495Y-73666304D01*
X137052685Y-73628209D01*
X137090780Y-73552019D01*
X137090780Y-73247257D01*
X137052685Y-73171066D01*
X136976495Y-73132971D01*
X136824114Y-73132971D01*
X136747923Y-73171066D01*
X136709828Y-73247257D01*
X136709828Y-73323447D01*
X137090780Y-73399638D01*
X136024114Y-73132971D02*
X136024114Y-73780590D01*
X136062209Y-73856780D01*
X136100304Y-73894876D01*
X136176495Y-73932971D01*
X136290780Y-73932971D01*
X136366971Y-73894876D01*
X136024114Y-73628209D02*
X136100304Y-73666304D01*
X136252685Y-73666304D01*
X136328876Y-73628209D01*
X136366971Y-73590114D01*
X136405066Y-73513923D01*
X136405066Y-73285352D01*
X136366971Y-73209161D01*
X136328876Y-73171066D01*
X136252685Y-73132971D01*
X136100304Y-73132971D01*
X136024114Y-73171066D01*
X135681257Y-72942495D02*
X135643161Y-72904400D01*
X135566971Y-72866304D01*
X135376495Y-72866304D01*
X135300304Y-72904400D01*
X135262209Y-72942495D01*
X135224114Y-73018685D01*
X135224114Y-73094876D01*
X135262209Y-73209161D01*
X135719352Y-73666304D01*
X135224114Y-73666304D01*
X134347923Y-73132971D02*
X134157447Y-73666304D01*
X133966971Y-73132971D01*
X133243161Y-73666304D02*
X133700304Y-73666304D01*
X133471733Y-73666304D02*
X133471733Y-72866304D01*
X133547923Y-72980590D01*
X133624114Y-73056780D01*
X133700304Y-73094876D01*
D11*
X125657067Y-74800122D02*
X122894214Y-76479400D01*
X122967083Y-79711740D02*
X125802807Y-81264803D01*
X157561946Y-74800122D02*
X160324800Y-76479400D01*
X122894214Y-76479400D02*
X122967083Y-79711740D01*
X128492791Y-76353185D02*
X125657067Y-74800122D01*
X128565661Y-79585525D02*
X128492791Y-76353185D01*
X125802807Y-81264803D02*
X128565661Y-79585525D01*
X154726222Y-76353185D02*
X157561946Y-74800122D01*
X157416206Y-81264803D02*
X154653352Y-79585525D01*
X154653352Y-79585525D02*
X154726222Y-76353185D01*
X160251930Y-79711740D02*
X157416206Y-81264803D01*
X160324800Y-76479400D02*
X160251930Y-79711740D01*
D12*
X144585000Y-92260000D02*
X144585000Y-91410000D01*
X136415000Y-92260000D02*
X144585000Y-92260000D01*
X136415000Y-91410000D02*
X136415000Y-92260000D01*
X144585000Y-87040000D02*
X142260000Y-87040000D01*
X144585000Y-87890000D02*
X144585000Y-87040000D01*
X138740000Y-87040000D02*
X138740000Y-84650000D01*
X136415000Y-87040000D02*
X138740000Y-87040000D01*
X136415000Y-87890000D02*
X136415000Y-87040000D01*
D10*
X140833333Y-92802380D02*
X140833333Y-93516666D01*
X140880952Y-93659523D01*
X140976190Y-93754761D01*
X141119047Y-93802380D01*
X141214285Y-93802380D01*
X139833333Y-93802380D02*
X140404761Y-93802380D01*
X140119047Y-93802380D02*
X140119047Y-92802380D01*
X140214285Y-92945238D01*
X140309523Y-93040476D01*
X140404761Y-93088095D01*
%LPC*%
D13*
G36*
X144474504Y-88151204D02*
G01*
X144498773Y-88154804D01*
X144522571Y-88160765D01*
X144545671Y-88169030D01*
X144567849Y-88179520D01*
X144588893Y-88192133D01*
X144608598Y-88206747D01*
X144626777Y-88223223D01*
X144643253Y-88241402D01*
X144657867Y-88261107D01*
X144670480Y-88282151D01*
X144680970Y-88304329D01*
X144689235Y-88327429D01*
X144695196Y-88351227D01*
X144698796Y-88375496D01*
X144700000Y-88400000D01*
X144700000Y-90900000D01*
X144698796Y-90924504D01*
X144695196Y-90948773D01*
X144689235Y-90972571D01*
X144680970Y-90995671D01*
X144670480Y-91017849D01*
X144657867Y-91038893D01*
X144643253Y-91058598D01*
X144626777Y-91076777D01*
X144608598Y-91093253D01*
X144588893Y-91107867D01*
X144567849Y-91120480D01*
X144545671Y-91130970D01*
X144522571Y-91139235D01*
X144498773Y-91145196D01*
X144474504Y-91148796D01*
X144450000Y-91150000D01*
X143350000Y-91150000D01*
X143325496Y-91148796D01*
X143301227Y-91145196D01*
X143277429Y-91139235D01*
X143254329Y-91130970D01*
X143232151Y-91120480D01*
X143211107Y-91107867D01*
X143191402Y-91093253D01*
X143173223Y-91076777D01*
X143156747Y-91058598D01*
X143142133Y-91038893D01*
X143129520Y-91017849D01*
X143119030Y-90995671D01*
X143110765Y-90972571D01*
X143104804Y-90948773D01*
X143101204Y-90924504D01*
X143100000Y-90900000D01*
X143100000Y-88400000D01*
X143101204Y-88375496D01*
X143104804Y-88351227D01*
X143110765Y-88327429D01*
X143119030Y-88304329D01*
X143129520Y-88282151D01*
X143142133Y-88261107D01*
X143156747Y-88241402D01*
X143173223Y-88223223D01*
X143191402Y-88206747D01*
X143211107Y-88192133D01*
X143232151Y-88179520D01*
X143254329Y-88169030D01*
X143277429Y-88160765D01*
X143301227Y-88154804D01*
X143325496Y-88151204D01*
X143350000Y-88150000D01*
X144450000Y-88150000D01*
X144474504Y-88151204D01*
G37*
G36*
X137674504Y-88151204D02*
G01*
X137698773Y-88154804D01*
X137722571Y-88160765D01*
X137745671Y-88169030D01*
X137767849Y-88179520D01*
X137788893Y-88192133D01*
X137808598Y-88206747D01*
X137826777Y-88223223D01*
X137843253Y-88241402D01*
X137857867Y-88261107D01*
X137870480Y-88282151D01*
X137880970Y-88304329D01*
X137889235Y-88327429D01*
X137895196Y-88351227D01*
X137898796Y-88375496D01*
X137900000Y-88400000D01*
X137900000Y-90900000D01*
X137898796Y-90924504D01*
X137895196Y-90948773D01*
X137889235Y-90972571D01*
X137880970Y-90995671D01*
X137870480Y-91017849D01*
X137857867Y-91038893D01*
X137843253Y-91058598D01*
X137826777Y-91076777D01*
X137808598Y-91093253D01*
X137788893Y-91107867D01*
X137767849Y-91120480D01*
X137745671Y-91130970D01*
X137722571Y-91139235D01*
X137698773Y-91145196D01*
X137674504Y-91148796D01*
X137650000Y-91150000D01*
X136550000Y-91150000D01*
X136525496Y-91148796D01*
X136501227Y-91145196D01*
X136477429Y-91139235D01*
X136454329Y-91130970D01*
X136432151Y-91120480D01*
X136411107Y-91107867D01*
X136391402Y-91093253D01*
X136373223Y-91076777D01*
X136356747Y-91058598D01*
X136342133Y-91038893D01*
X136329520Y-91017849D01*
X136319030Y-90995671D01*
X136310765Y-90972571D01*
X136304804Y-90948773D01*
X136301204Y-90924504D01*
X136300000Y-90900000D01*
X136300000Y-88400000D01*
X136301204Y-88375496D01*
X136304804Y-88351227D01*
X136310765Y-88327429D01*
X136319030Y-88304329D01*
X136329520Y-88282151D01*
X136342133Y-88261107D01*
X136356747Y-88241402D01*
X136373223Y-88223223D01*
X136391402Y-88206747D01*
X136411107Y-88192133D01*
X136432151Y-88179520D01*
X136454329Y-88169030D01*
X136477429Y-88160765D01*
X136501227Y-88154804D01*
X136525496Y-88151204D01*
X136550000Y-88150000D01*
X137650000Y-88150000D01*
X137674504Y-88151204D01*
G37*
G36*
X141774504Y-84651204D02*
G01*
X141798773Y-84654804D01*
X141822571Y-84660765D01*
X141845671Y-84669030D01*
X141867849Y-84679520D01*
X141888893Y-84692133D01*
X141908598Y-84706747D01*
X141926777Y-84723223D01*
X141943253Y-84741402D01*
X141957867Y-84761107D01*
X141970480Y-84782151D01*
X141980970Y-84804329D01*
X141989235Y-84827429D01*
X141995196Y-84851227D01*
X141998796Y-84875496D01*
X142000000Y-84900000D01*
X142000000Y-89900000D01*
X141998796Y-89924504D01*
X141995196Y-89948773D01*
X141989235Y-89972571D01*
X141980970Y-89995671D01*
X141970480Y-90017849D01*
X141957867Y-90038893D01*
X141943253Y-90058598D01*
X141926777Y-90076777D01*
X141908598Y-90093253D01*
X141888893Y-90107867D01*
X141867849Y-90120480D01*
X141845671Y-90130970D01*
X141822571Y-90139235D01*
X141798773Y-90145196D01*
X141774504Y-90148796D01*
X141750000Y-90150000D01*
X141250000Y-90150000D01*
X141225496Y-90148796D01*
X141201227Y-90145196D01*
X141177429Y-90139235D01*
X141154329Y-90130970D01*
X141132151Y-90120480D01*
X141111107Y-90107867D01*
X141091402Y-90093253D01*
X141073223Y-90076777D01*
X141056747Y-90058598D01*
X141042133Y-90038893D01*
X141029520Y-90017849D01*
X141019030Y-89995671D01*
X141010765Y-89972571D01*
X141004804Y-89948773D01*
X141001204Y-89924504D01*
X141000000Y-89900000D01*
X141000000Y-84900000D01*
X141001204Y-84875496D01*
X141004804Y-84851227D01*
X141010765Y-84827429D01*
X141019030Y-84804329D01*
X141029520Y-84782151D01*
X141042133Y-84761107D01*
X141056747Y-84741402D01*
X141073223Y-84723223D01*
X141091402Y-84706747D01*
X141111107Y-84692133D01*
X141132151Y-84679520D01*
X141154329Y-84669030D01*
X141177429Y-84660765D01*
X141201227Y-84654804D01*
X141225496Y-84651204D01*
X141250000Y-84650000D01*
X141750000Y-84650000D01*
X141774504Y-84651204D01*
G37*
G36*
X139774504Y-84651204D02*
G01*
X139798773Y-84654804D01*
X139822571Y-84660765D01*
X139845671Y-84669030D01*
X139867849Y-84679520D01*
X139888893Y-84692133D01*
X139908598Y-84706747D01*
X139926777Y-84723223D01*
X139943253Y-84741402D01*
X139957867Y-84761107D01*
X139970480Y-84782151D01*
X139980970Y-84804329D01*
X139989235Y-84827429D01*
X139995196Y-84851227D01*
X139998796Y-84875496D01*
X140000000Y-84900000D01*
X140000000Y-89900000D01*
X139998796Y-89924504D01*
X139995196Y-89948773D01*
X139989235Y-89972571D01*
X139980970Y-89995671D01*
X139970480Y-90017849D01*
X139957867Y-90038893D01*
X139943253Y-90058598D01*
X139926777Y-90076777D01*
X139908598Y-90093253D01*
X139888893Y-90107867D01*
X139867849Y-90120480D01*
X139845671Y-90130970D01*
X139822571Y-90139235D01*
X139798773Y-90145196D01*
X139774504Y-90148796D01*
X139750000Y-90150000D01*
X139250000Y-90150000D01*
X139225496Y-90148796D01*
X139201227Y-90145196D01*
X139177429Y-90139235D01*
X139154329Y-90130970D01*
X139132151Y-90120480D01*
X139111107Y-90107867D01*
X139091402Y-90093253D01*
X139073223Y-90076777D01*
X139056747Y-90058598D01*
X139042133Y-90038893D01*
X139029520Y-90017849D01*
X139019030Y-89995671D01*
X139010765Y-89972571D01*
X139004804Y-89948773D01*
X139001204Y-89924504D01*
X139000000Y-89900000D01*
X139000000Y-84900000D01*
X139001204Y-84875496D01*
X139004804Y-84851227D01*
X139010765Y-84827429D01*
X139019030Y-84804329D01*
X139029520Y-84782151D01*
X139042133Y-84761107D01*
X139056747Y-84741402D01*
X139073223Y-84723223D01*
X139091402Y-84706747D01*
X139111107Y-84692133D01*
X139132151Y-84679520D01*
X139154329Y-84669030D01*
X139177429Y-84660765D01*
X139201227Y-84654804D01*
X139225496Y-84651204D01*
X139250000Y-84650000D01*
X139750000Y-84650000D01*
X139774504Y-84651204D01*
G37*
D14*
X166610047Y-78062990D03*
X116546222Y-78318961D03*
M02*
