G04 #@! TF.GenerationSoftware,KiCad,Pcbnew,(5.1.5)-3*
G04 #@! TF.CreationDate,2021-10-24T21:58:59+02:00*
G04 #@! TF.ProjectId,seg3,73656733-2e6b-4696-9361-645f70636258,1*
G04 #@! TF.SameCoordinates,Original*
G04 #@! TF.FileFunction,Copper,L1,Top*
G04 #@! TF.FilePolarity,Positive*
%FSLAX46Y46*%
G04 Gerber Fmt 4.6, Leading zero omitted, Abs format (unit mm)*
G04 Created by KiCad (PCBNEW (5.1.5)-3) date 2021-10-24 21:58:59*
%MOMM*%
%LPD*%
G04 APERTURE LIST*
%ADD10C,0.700000*%
%ADD11C,0.152400*%
G04 APERTURE END LIST*
D10*
X162630994Y-77536077D03*
X112530535Y-77339131D03*
D11*
X160140781Y-81276177D02*
X160188284Y-81323680D01*
X160105040Y-81219296D02*
X160140781Y-81276177D01*
X160667809Y-81155887D02*
X160675331Y-81089131D01*
X160082852Y-81155887D02*
X160105040Y-81219296D01*
X161267809Y-76072375D02*
X161275331Y-76139131D01*
X160075331Y-81089131D02*
X160082852Y-81155887D01*
X160075331Y-75239131D02*
X160075331Y-81089131D01*
X162539830Y-77444913D02*
X162630994Y-77536077D01*
X160067809Y-75172375D02*
X160075331Y-75239131D01*
X161388284Y-77273681D02*
X161445165Y-77309422D01*
X160045621Y-75108966D02*
X160067809Y-75172375D01*
X160609880Y-81276177D02*
X160645621Y-81219296D01*
X160009880Y-75052085D02*
X160045621Y-75108966D01*
X159962377Y-75004582D02*
X160009880Y-75052085D01*
X161209880Y-75952085D02*
X161245621Y-76008966D01*
X159905496Y-74968841D02*
X159962377Y-75004582D01*
X161105496Y-75868841D02*
X161162377Y-75904582D01*
X159842087Y-74946653D02*
X159905496Y-74968841D01*
X160562377Y-81323680D02*
X160609880Y-81276177D01*
X159775331Y-74939131D02*
X159842087Y-74946653D01*
X160245165Y-81359421D02*
X160308574Y-81381609D01*
X159708574Y-74946653D02*
X159775331Y-74939131D01*
X160188284Y-81323680D02*
X160245165Y-81359421D01*
X159645165Y-74968841D02*
X159708574Y-74946653D01*
X159588284Y-75004582D02*
X159645165Y-74968841D01*
X159540781Y-75052085D02*
X159588284Y-75004582D01*
X159505040Y-75108966D02*
X159540781Y-75052085D01*
X159482852Y-75172375D02*
X159505040Y-75108966D01*
X159475331Y-75239131D02*
X159482852Y-75172375D01*
X161162377Y-75904582D02*
X161209880Y-75952085D01*
X159475331Y-83039131D02*
X159475331Y-75239131D01*
X159467809Y-83105887D02*
X159475331Y-83039131D01*
X159445621Y-83169296D02*
X159467809Y-83105887D01*
X159409880Y-83226177D02*
X159445621Y-83169296D01*
X159362377Y-83273680D02*
X159409880Y-83226177D01*
X159305496Y-83309421D02*
X159362377Y-83273680D01*
X159242087Y-83331609D02*
X159305496Y-83309421D01*
X159175331Y-83339131D02*
X159242087Y-83331609D01*
X159108574Y-83331609D02*
X159175331Y-83339131D01*
X161305040Y-77169297D02*
X161340781Y-77226178D01*
X159045165Y-83309421D02*
X159108574Y-83331609D01*
X160845165Y-75868841D02*
X160908574Y-75846653D01*
X158988284Y-83273680D02*
X159045165Y-83309421D01*
X158940781Y-83226177D02*
X158988284Y-83273680D01*
X158905040Y-83169296D02*
X158940781Y-83226177D01*
X158882852Y-83105887D02*
X158905040Y-83169296D01*
X158875331Y-83039131D02*
X158882852Y-83105887D01*
X161275331Y-77039131D02*
X161282852Y-77105888D01*
X158875331Y-74539131D02*
X158875331Y-83039131D01*
X158867809Y-74472375D02*
X158875331Y-74539131D01*
X158845621Y-74408966D02*
X158867809Y-74472375D01*
X158809880Y-74352085D02*
X158845621Y-74408966D01*
X158762377Y-74304582D02*
X158809880Y-74352085D01*
X158705496Y-74268841D02*
X158762377Y-74304582D01*
X158642087Y-74246653D02*
X158705496Y-74268841D01*
X161508574Y-77331610D02*
X161575331Y-77339131D01*
X158575331Y-74239131D02*
X158642087Y-74246653D01*
X158508574Y-74246653D02*
X158575331Y-74239131D01*
X158445165Y-74268841D02*
X158508574Y-74246653D01*
X161245621Y-76008966D02*
X161267809Y-76072375D01*
X158388284Y-74304582D02*
X158445165Y-74268841D01*
X158340781Y-74352085D02*
X158388284Y-74304582D01*
X158305040Y-74408966D02*
X158340781Y-74352085D01*
X158282852Y-74472375D02*
X158305040Y-74408966D01*
X158275331Y-74539131D02*
X158282852Y-74472375D01*
X161275331Y-76139131D02*
X161275331Y-77039131D01*
X158275331Y-84989131D02*
X158275331Y-74539131D01*
X160645621Y-81219296D02*
X160667809Y-81155887D01*
X158267809Y-85055887D02*
X158275331Y-84989131D01*
X160908574Y-75846653D02*
X160975331Y-75839131D01*
X158245621Y-85119296D02*
X158267809Y-85055887D01*
X158209880Y-85176177D02*
X158245621Y-85119296D01*
X158162377Y-85223680D02*
X158209880Y-85176177D01*
X158105496Y-85259421D02*
X158162377Y-85223680D01*
X160788284Y-75904582D02*
X160845165Y-75868841D01*
X158042087Y-85281609D02*
X158105496Y-85259421D01*
X157975331Y-85289131D02*
X158042087Y-85281609D01*
X160442087Y-81381609D02*
X160505496Y-81359421D01*
X157908574Y-85281609D02*
X157975331Y-85289131D01*
X157845165Y-85259421D02*
X157908574Y-85281609D01*
X157788284Y-85223680D02*
X157845165Y-85259421D01*
X161340781Y-77226178D02*
X161388284Y-77273681D01*
X157740781Y-85176177D02*
X157788284Y-85223680D01*
X157705040Y-85119296D02*
X157740781Y-85176177D01*
X157682852Y-85055887D02*
X157705040Y-85119296D01*
X160740781Y-75952085D02*
X160788284Y-75904582D01*
X157675331Y-84989131D02*
X157682852Y-85055887D01*
X160675331Y-76139131D02*
X160682852Y-76072375D01*
X157675331Y-73889131D02*
X157675331Y-84989131D01*
X157667809Y-73822375D02*
X157675331Y-73889131D01*
X157645621Y-73758966D02*
X157667809Y-73822375D01*
X160308574Y-81381609D02*
X160375331Y-81389131D01*
X157609880Y-73702085D02*
X157645621Y-73758966D01*
X157562377Y-73654582D02*
X157609880Y-73702085D01*
X157505496Y-73618841D02*
X157562377Y-73654582D01*
X161575331Y-77339131D02*
X162434048Y-77339131D01*
X157442087Y-73596653D02*
X157505496Y-73618841D01*
X157375331Y-73589131D02*
X157442087Y-73596653D01*
X161445165Y-77309422D02*
X161508574Y-77331610D01*
X157308574Y-73596653D02*
X157375331Y-73589131D01*
X157245165Y-73618841D02*
X157308574Y-73596653D01*
X157188284Y-73654582D02*
X157245165Y-73618841D01*
X157140781Y-73702085D02*
X157188284Y-73654582D01*
X160375331Y-81389131D02*
X160442087Y-81381609D01*
X157105040Y-73758966D02*
X157140781Y-73702085D01*
X157082852Y-73822375D02*
X157105040Y-73758966D01*
X161282852Y-77105888D02*
X161305040Y-77169297D01*
X157075331Y-73889131D02*
X157082852Y-73822375D01*
X157075331Y-86889131D02*
X157075331Y-73889131D01*
X157067809Y-86955887D02*
X157075331Y-86889131D01*
X157045621Y-87019296D02*
X157067809Y-86955887D01*
X157009880Y-87076177D02*
X157045621Y-87019296D01*
X156962377Y-87123680D02*
X157009880Y-87076177D01*
X156905496Y-87159421D02*
X156962377Y-87123680D01*
X156842087Y-87181609D02*
X156905496Y-87159421D01*
X160505496Y-81359421D02*
X160562377Y-81323680D01*
X156775331Y-87189131D02*
X156842087Y-87181609D01*
X156708574Y-87181609D02*
X156775331Y-87189131D01*
X156645165Y-87159421D02*
X156708574Y-87181609D01*
X156588284Y-87123680D02*
X156645165Y-87159421D01*
X156540781Y-87076177D02*
X156588284Y-87123680D01*
X156505040Y-87019296D02*
X156540781Y-87076177D01*
X156482852Y-86955887D02*
X156505040Y-87019296D01*
X156475331Y-86889131D02*
X156482852Y-86955887D01*
X160975331Y-75839131D02*
X161042087Y-75846653D01*
X156475331Y-73339131D02*
X156475331Y-86889131D01*
X156467809Y-73272375D02*
X156475331Y-73339131D01*
X156445621Y-73208966D02*
X156467809Y-73272375D01*
X156409880Y-73152085D02*
X156445621Y-73208966D01*
X156362377Y-73104582D02*
X156409880Y-73152085D01*
X156305496Y-73068841D02*
X156362377Y-73104582D01*
X160675331Y-81089131D02*
X160675331Y-76139131D01*
X156242087Y-73046653D02*
X156305496Y-73068841D01*
X156175331Y-73039131D02*
X156242087Y-73046653D01*
X156108574Y-73046653D02*
X156175331Y-73039131D01*
X160682852Y-76072375D02*
X160705040Y-76008966D01*
X156045165Y-73068841D02*
X156108574Y-73046653D01*
X155988284Y-73104582D02*
X156045165Y-73068841D01*
X155940781Y-73152085D02*
X155988284Y-73104582D01*
X155905040Y-73208966D02*
X155940781Y-73152085D01*
X155882852Y-73272375D02*
X155905040Y-73208966D01*
X155875331Y-73339131D02*
X155882852Y-73272375D01*
X155875331Y-88839131D02*
X155875331Y-73339131D01*
X155867809Y-88905887D02*
X155875331Y-88839131D01*
X155845621Y-88969296D02*
X155867809Y-88905887D01*
X155809880Y-89026177D02*
X155845621Y-88969296D01*
X155762377Y-89073680D02*
X155809880Y-89026177D01*
X162434048Y-77339131D02*
X162539830Y-77444913D01*
X155705496Y-89109421D02*
X155762377Y-89073680D01*
X155642087Y-89131609D02*
X155705496Y-89109421D01*
X155575331Y-89139131D02*
X155642087Y-89131609D01*
X155508574Y-89131609D02*
X155575331Y-89139131D01*
X161042087Y-75846653D02*
X161105496Y-75868841D01*
X155445165Y-89109421D02*
X155508574Y-89131609D01*
X155388284Y-89073680D02*
X155445165Y-89109421D01*
X155340781Y-89026177D02*
X155388284Y-89073680D01*
X155305040Y-88969296D02*
X155340781Y-89026177D01*
X155282852Y-88905887D02*
X155305040Y-88969296D01*
X155275331Y-88839131D02*
X155282852Y-88905887D01*
X155275331Y-72889131D02*
X155275331Y-88839131D01*
X160705040Y-76008966D02*
X160740781Y-75952085D01*
X155267809Y-72822375D02*
X155275331Y-72889131D01*
X155245621Y-72758966D02*
X155267809Y-72822375D01*
X155209880Y-72702085D02*
X155245621Y-72758966D01*
X155162377Y-72654582D02*
X155209880Y-72702085D01*
X155105496Y-72618841D02*
X155162377Y-72654582D01*
X155042087Y-72596653D02*
X155105496Y-72618841D01*
X154975331Y-72589131D02*
X155042087Y-72596653D01*
X154908574Y-72596653D02*
X154975331Y-72589131D01*
X154845165Y-72618841D02*
X154908574Y-72596653D01*
X154788284Y-72654582D02*
X154845165Y-72618841D01*
X154740781Y-72702085D02*
X154788284Y-72654582D01*
X154705040Y-72758966D02*
X154740781Y-72702085D01*
X154682852Y-72822375D02*
X154705040Y-72758966D01*
X154675331Y-72889131D02*
X154682852Y-72822375D01*
X154675331Y-90789131D02*
X154675331Y-72889131D01*
X154667809Y-90855887D02*
X154675331Y-90789131D01*
X154645621Y-90919296D02*
X154667809Y-90855887D01*
X154609880Y-90976177D02*
X154645621Y-90919296D01*
X154562377Y-91023680D02*
X154609880Y-90976177D01*
X154505496Y-91059421D02*
X154562377Y-91023680D01*
X154442087Y-91081609D02*
X154505496Y-91059421D01*
X154375331Y-91089131D02*
X154442087Y-91081609D01*
X154308574Y-91081609D02*
X154375331Y-91089131D01*
X154245165Y-91059421D02*
X154308574Y-91081609D01*
X154188284Y-91023680D02*
X154245165Y-91059421D01*
X154140781Y-90976177D02*
X154188284Y-91023680D01*
X154105040Y-90919296D02*
X154140781Y-90976177D01*
X154082852Y-90855887D02*
X154105040Y-90919296D01*
X154075331Y-90789131D02*
X154082852Y-90855887D01*
X154075331Y-72439131D02*
X154075331Y-90789131D01*
X154067809Y-72372375D02*
X154075331Y-72439131D01*
X154045621Y-72308966D02*
X154067809Y-72372375D01*
X154009880Y-72252085D02*
X154045621Y-72308966D01*
X153962377Y-72204582D02*
X154009880Y-72252085D01*
X153905496Y-72168841D02*
X153962377Y-72204582D01*
X153842087Y-72146653D02*
X153905496Y-72168841D01*
X153775331Y-72139131D02*
X153842087Y-72146653D01*
X153708574Y-72146653D02*
X153775331Y-72139131D01*
X153645165Y-72168841D02*
X153708574Y-72146653D01*
X153588284Y-72204582D02*
X153645165Y-72168841D01*
X153540781Y-72252085D02*
X153588284Y-72204582D01*
X153505040Y-72308966D02*
X153540781Y-72252085D01*
X153482852Y-72372375D02*
X153505040Y-72308966D01*
X153475331Y-72439131D02*
X153482852Y-72372375D01*
X153475331Y-92689131D02*
X153475331Y-72439131D01*
X153467809Y-92755887D02*
X153475331Y-92689131D01*
X153445621Y-92819296D02*
X153467809Y-92755887D01*
X153409880Y-92876177D02*
X153445621Y-92819296D01*
X153362377Y-92923680D02*
X153409880Y-92876177D01*
X153305496Y-92959421D02*
X153362377Y-92923680D01*
X153242087Y-92981609D02*
X153305496Y-92959421D01*
X153175331Y-92989131D02*
X153242087Y-92981609D01*
X153108574Y-92981609D02*
X153175331Y-92989131D01*
X153045165Y-92959421D02*
X153108574Y-92981609D01*
X152988284Y-92923680D02*
X153045165Y-92959421D01*
X152940781Y-92876177D02*
X152988284Y-92923680D01*
X152905040Y-92819296D02*
X152940781Y-92876177D01*
X152882852Y-92755887D02*
X152905040Y-92819296D01*
X152875331Y-92689131D02*
X152882852Y-92755887D01*
X152875331Y-72089131D02*
X152875331Y-92689131D01*
X152867809Y-72022375D02*
X152875331Y-72089131D01*
X152845621Y-71958966D02*
X152867809Y-72022375D01*
X152809880Y-71902085D02*
X152845621Y-71958966D01*
X152762377Y-71854582D02*
X152809880Y-71902085D01*
X152705496Y-71818841D02*
X152762377Y-71854582D01*
X152642087Y-71796653D02*
X152705496Y-71818841D01*
X152575331Y-71789131D02*
X152642087Y-71796653D01*
X152508574Y-71796653D02*
X152575331Y-71789131D01*
X152445165Y-71818841D02*
X152508574Y-71796653D01*
X152388284Y-71854582D02*
X152445165Y-71818841D01*
X152340781Y-71902085D02*
X152388284Y-71854582D01*
X152305040Y-71958966D02*
X152340781Y-71902085D01*
X152282852Y-72022375D02*
X152305040Y-71958966D01*
X152275331Y-72089131D02*
X152282852Y-72022375D01*
X152275331Y-94639131D02*
X152275331Y-72089131D01*
X152267809Y-94705887D02*
X152275331Y-94639131D01*
X152245621Y-94769296D02*
X152267809Y-94705887D01*
X152209880Y-94826177D02*
X152245621Y-94769296D01*
X152162377Y-94873680D02*
X152209880Y-94826177D01*
X152105496Y-94909421D02*
X152162377Y-94873680D01*
X152042087Y-94931609D02*
X152105496Y-94909421D01*
X151975331Y-94939131D02*
X152042087Y-94931609D01*
X151908574Y-94931609D02*
X151975331Y-94939131D01*
X151845165Y-94909421D02*
X151908574Y-94931609D01*
X151788284Y-94873680D02*
X151845165Y-94909421D01*
X151740781Y-94826177D02*
X151788284Y-94873680D01*
X151705040Y-94769296D02*
X151740781Y-94826177D01*
X151682852Y-94705887D02*
X151705040Y-94769296D01*
X151675331Y-94639131D02*
X151682852Y-94705887D01*
X151675331Y-71789131D02*
X151675331Y-94639131D01*
X151667809Y-71722375D02*
X151675331Y-71789131D01*
X151645621Y-71658966D02*
X151667809Y-71722375D01*
X151609880Y-71602085D02*
X151645621Y-71658966D01*
X151562377Y-71554582D02*
X151609880Y-71602085D01*
X151505496Y-71518841D02*
X151562377Y-71554582D01*
X151442087Y-71496653D02*
X151505496Y-71518841D01*
X151375331Y-71489131D02*
X151442087Y-71496653D01*
X151308574Y-71496653D02*
X151375331Y-71489131D01*
X151245165Y-71518841D02*
X151308574Y-71496653D01*
X151188284Y-71554582D02*
X151245165Y-71518841D01*
X151140781Y-71602085D02*
X151188284Y-71554582D01*
X151105040Y-71658966D02*
X151140781Y-71602085D01*
X151082852Y-71722375D02*
X151105040Y-71658966D01*
X151075331Y-71789131D02*
X151082852Y-71722375D01*
X151075331Y-96589131D02*
X151075331Y-71789131D01*
X151067809Y-96655887D02*
X151075331Y-96589131D01*
X151045621Y-96719296D02*
X151067809Y-96655887D01*
X151009880Y-96776177D02*
X151045621Y-96719296D01*
X150962377Y-96823680D02*
X151009880Y-96776177D01*
X150905496Y-96859421D02*
X150962377Y-96823680D01*
X150842087Y-96881609D02*
X150905496Y-96859421D01*
X150775331Y-96889131D02*
X150842087Y-96881609D01*
X150708574Y-96881609D02*
X150775331Y-96889131D01*
X150645165Y-96859421D02*
X150708574Y-96881609D01*
X150588284Y-96823680D02*
X150645165Y-96859421D01*
X150540781Y-96776177D02*
X150588284Y-96823680D01*
X150505040Y-96719296D02*
X150540781Y-96776177D01*
X150482852Y-96655887D02*
X150505040Y-96719296D01*
X150475331Y-96589131D02*
X150482852Y-96655887D01*
X150475331Y-71589131D02*
X150475331Y-96589131D01*
X150467809Y-71522375D02*
X150475331Y-71589131D01*
X150445621Y-71458966D02*
X150467809Y-71522375D01*
X150409880Y-71402085D02*
X150445621Y-71458966D01*
X150362377Y-71354582D02*
X150409880Y-71402085D01*
X150305496Y-71318841D02*
X150362377Y-71354582D01*
X150242087Y-71296653D02*
X150305496Y-71318841D01*
X150175331Y-71289131D02*
X150242087Y-71296653D01*
X150108574Y-71296653D02*
X150175331Y-71289131D01*
X150045165Y-71318841D02*
X150108574Y-71296653D01*
X149988284Y-71354582D02*
X150045165Y-71318841D01*
X149940781Y-71402085D02*
X149988284Y-71354582D01*
X149905040Y-71458966D02*
X149940781Y-71402085D01*
X149882852Y-71522375D02*
X149905040Y-71458966D01*
X149875331Y-71589131D02*
X149882852Y-71522375D01*
X149875331Y-98489131D02*
X149875331Y-71589131D01*
X149867809Y-98555887D02*
X149875331Y-98489131D01*
X149845621Y-98619296D02*
X149867809Y-98555887D01*
X149809880Y-98676177D02*
X149845621Y-98619296D01*
X149762377Y-98723680D02*
X149809880Y-98676177D01*
X149705496Y-98759421D02*
X149762377Y-98723680D01*
X149642087Y-98781609D02*
X149705496Y-98759421D01*
X149575331Y-98789131D02*
X149642087Y-98781609D01*
X149508574Y-98781609D02*
X149575331Y-98789131D01*
X149445165Y-98759421D02*
X149508574Y-98781609D01*
X149388284Y-98723680D02*
X149445165Y-98759421D01*
X149340781Y-98676177D02*
X149388284Y-98723680D01*
X149305040Y-98619296D02*
X149340781Y-98676177D01*
X149282852Y-98555887D02*
X149305040Y-98619296D01*
X149275331Y-98489131D02*
X149282852Y-98555887D01*
X149275331Y-71439131D02*
X149275331Y-98489131D01*
X149267809Y-71372375D02*
X149275331Y-71439131D01*
X149245621Y-71308966D02*
X149267809Y-71372375D01*
X149209880Y-71252085D02*
X149245621Y-71308966D01*
X149162377Y-71204582D02*
X149209880Y-71252085D01*
X149105496Y-71168841D02*
X149162377Y-71204582D01*
X149042087Y-71146653D02*
X149105496Y-71168841D01*
X148975331Y-71139131D02*
X149042087Y-71146653D01*
X148908574Y-71146653D02*
X148975331Y-71139131D01*
X148845165Y-71168841D02*
X148908574Y-71146653D01*
X148788284Y-71204582D02*
X148845165Y-71168841D01*
X148740781Y-71252085D02*
X148788284Y-71204582D01*
X148705040Y-71308966D02*
X148740781Y-71252085D01*
X148682852Y-71372375D02*
X148705040Y-71308966D01*
X148675331Y-71439131D02*
X148682852Y-71372375D01*
X148675331Y-100439131D02*
X148675331Y-71439131D01*
X148667809Y-100505887D02*
X148675331Y-100439131D01*
X148645621Y-100569296D02*
X148667809Y-100505887D01*
X148609880Y-100626177D02*
X148645621Y-100569296D01*
X148562377Y-100673680D02*
X148609880Y-100626177D01*
X148505496Y-100709421D02*
X148562377Y-100673680D01*
X148442087Y-100731609D02*
X148505496Y-100709421D01*
X148375331Y-100739131D02*
X148442087Y-100731609D01*
X148308574Y-100731609D02*
X148375331Y-100739131D01*
X148245165Y-100709421D02*
X148308574Y-100731609D01*
X148188284Y-100673680D02*
X148245165Y-100709421D01*
X148140781Y-100626177D02*
X148188284Y-100673680D01*
X148105040Y-100569296D02*
X148140781Y-100626177D01*
X148082852Y-100505887D02*
X148105040Y-100569296D01*
X148075331Y-100439131D02*
X148082852Y-100505887D01*
X148075331Y-71339131D02*
X148075331Y-100439131D01*
X148067809Y-71272375D02*
X148075331Y-71339131D01*
X148045621Y-71208966D02*
X148067809Y-71272375D01*
X148009880Y-71152085D02*
X148045621Y-71208966D01*
X147962377Y-71104582D02*
X148009880Y-71152085D01*
X147905496Y-71068841D02*
X147962377Y-71104582D01*
X147842087Y-71046653D02*
X147905496Y-71068841D01*
X147775331Y-71039131D02*
X147842087Y-71046653D01*
X147708574Y-71046653D02*
X147775331Y-71039131D01*
X147645165Y-71068841D02*
X147708574Y-71046653D01*
X147588284Y-71104582D02*
X147645165Y-71068841D01*
X147540781Y-71152085D02*
X147588284Y-71104582D01*
X147505040Y-71208966D02*
X147540781Y-71152085D01*
X147482852Y-71272375D02*
X147505040Y-71208966D01*
X147475331Y-71339131D02*
X147482852Y-71272375D01*
X147475331Y-100789131D02*
X147475331Y-71339131D01*
X147467809Y-100855887D02*
X147475331Y-100789131D01*
X147445621Y-100919296D02*
X147467809Y-100855887D01*
X147409880Y-100976177D02*
X147445621Y-100919296D01*
X147362377Y-101023680D02*
X147409880Y-100976177D01*
X147305496Y-101059421D02*
X147362377Y-101023680D01*
X147242087Y-101081609D02*
X147305496Y-101059421D01*
X147175331Y-101089131D02*
X147242087Y-101081609D01*
X147108574Y-101081609D02*
X147175331Y-101089131D01*
X147045165Y-101059421D02*
X147108574Y-101081609D01*
X146988284Y-101023680D02*
X147045165Y-101059421D01*
X146940781Y-100976177D02*
X146988284Y-101023680D01*
X146905040Y-100919296D02*
X146940781Y-100976177D01*
X146882852Y-100855887D02*
X146905040Y-100919296D01*
X146875331Y-100789131D02*
X146882852Y-100855887D01*
X146875331Y-71289131D02*
X146875331Y-100789131D01*
X146867809Y-71222375D02*
X146875331Y-71289131D01*
X146845621Y-71158966D02*
X146867809Y-71222375D01*
X146809880Y-71102085D02*
X146845621Y-71158966D01*
X146762377Y-71054582D02*
X146809880Y-71102085D01*
X146705496Y-71018841D02*
X146762377Y-71054582D01*
X146642087Y-70996653D02*
X146705496Y-71018841D01*
X146575331Y-70989131D02*
X146642087Y-70996653D01*
X146508574Y-70996653D02*
X146575331Y-70989131D01*
X146445165Y-71018841D02*
X146508574Y-70996653D01*
X146388284Y-71054582D02*
X146445165Y-71018841D01*
X146340781Y-71102085D02*
X146388284Y-71054582D01*
X146305040Y-71158966D02*
X146340781Y-71102085D01*
X146282852Y-71222375D02*
X146305040Y-71158966D01*
X146275331Y-71289131D02*
X146282852Y-71222375D01*
X146275331Y-100789131D02*
X146275331Y-71289131D01*
X146267809Y-100855887D02*
X146275331Y-100789131D01*
X146245621Y-100919296D02*
X146267809Y-100855887D01*
X146209880Y-100976177D02*
X146245621Y-100919296D01*
X146162377Y-101023680D02*
X146209880Y-100976177D01*
X146105496Y-101059421D02*
X146162377Y-101023680D01*
X146042087Y-101081609D02*
X146105496Y-101059421D01*
X145975331Y-101089131D02*
X146042087Y-101081609D01*
X145908574Y-101081609D02*
X145975331Y-101089131D01*
X145845165Y-101059421D02*
X145908574Y-101081609D01*
X145788284Y-101023680D02*
X145845165Y-101059421D01*
X129242087Y-95481609D02*
X129305496Y-95459421D01*
X143245621Y-71158966D02*
X143267809Y-71222375D01*
X129108574Y-95481609D02*
X129175331Y-95489131D01*
X144305496Y-71018841D02*
X144362377Y-71054582D01*
X128988284Y-95423680D02*
X129045165Y-95459421D01*
X143882852Y-71222375D02*
X143905040Y-71158966D01*
X128940781Y-95376177D02*
X128988284Y-95423680D01*
X144362377Y-71054582D02*
X144409880Y-71102085D01*
X128882852Y-95255887D02*
X128905040Y-95319296D01*
X143988284Y-71054582D02*
X144045165Y-71018841D01*
X128875331Y-95189131D02*
X128882852Y-95255887D01*
X142308574Y-101081609D02*
X142375331Y-101089131D01*
X128809880Y-71102085D02*
X128845621Y-71158966D01*
X144467809Y-71222375D02*
X144475331Y-71289131D01*
X128762377Y-71054582D02*
X128809880Y-71102085D01*
X143508574Y-101081609D02*
X143575331Y-101089131D01*
X128705496Y-71018841D02*
X128762377Y-71054582D01*
X144045165Y-71018841D02*
X144108574Y-70996653D01*
X128642087Y-70996653D02*
X128705496Y-71018841D01*
X143042087Y-70996653D02*
X143105496Y-71018841D01*
X128508574Y-70996653D02*
X128575331Y-70989131D01*
X143575331Y-101089131D02*
X143642087Y-101081609D01*
X128340781Y-71102085D02*
X128388284Y-71054582D01*
X143762377Y-101023680D02*
X143809880Y-100976177D01*
X128305040Y-71158966D02*
X128340781Y-71102085D01*
X143809880Y-100976177D02*
X143845621Y-100919296D01*
X128275331Y-71289131D02*
X128282852Y-71222375D01*
X143305040Y-100919296D02*
X143340781Y-100976177D01*
X128245621Y-94069296D02*
X128267809Y-94005887D01*
X143209880Y-71102085D02*
X143245621Y-71158966D01*
X128105496Y-94209421D02*
X128162377Y-94173680D01*
X143162377Y-71054582D02*
X143209880Y-71102085D01*
X128042087Y-94231609D02*
X128105496Y-94209421D01*
X143275331Y-100789131D02*
X143282852Y-100855887D01*
X127908574Y-94231609D02*
X127975331Y-94239131D01*
X145245165Y-71018841D02*
X145308574Y-70996653D01*
X127845165Y-94209421D02*
X127908574Y-94231609D01*
X140875331Y-71289131D02*
X140875331Y-100789131D01*
X127788284Y-94173680D02*
X127845165Y-94209421D01*
X141362377Y-101023680D02*
X141409880Y-100976177D01*
X127740781Y-94126177D02*
X127788284Y-94173680D01*
X142140781Y-100976177D02*
X142188284Y-101023680D01*
X127705040Y-94069296D02*
X127740781Y-94126177D01*
X141842087Y-70996653D02*
X141905496Y-71018841D01*
X127682852Y-94005887D02*
X127705040Y-94069296D01*
X142067809Y-71222375D02*
X142075331Y-71289131D01*
X127675331Y-93939131D02*
X127682852Y-94005887D01*
X142082852Y-100855887D02*
X142105040Y-100919296D01*
X127675331Y-71339131D02*
X127675331Y-93939131D01*
X140867809Y-71222375D02*
X140875331Y-71289131D01*
X127667809Y-71272375D02*
X127675331Y-71339131D01*
X141175331Y-101089131D02*
X141242087Y-101081609D01*
X127645621Y-71208966D02*
X127667809Y-71272375D01*
X139845165Y-101059421D02*
X139908574Y-101081609D01*
X127609880Y-71152085D02*
X127645621Y-71208966D01*
X141445621Y-100919296D02*
X141467809Y-100855887D01*
X127562377Y-71104582D02*
X127609880Y-71152085D01*
X142105040Y-100919296D02*
X142140781Y-100976177D01*
X127505496Y-71068841D02*
X127562377Y-71104582D01*
X139908574Y-101081609D02*
X139975331Y-101089131D01*
X127442087Y-71046653D02*
X127505496Y-71068841D01*
X140905040Y-100919296D02*
X140940781Y-100976177D01*
X127375331Y-71039131D02*
X127442087Y-71046653D01*
X140305040Y-71158966D02*
X140340781Y-71102085D01*
X127308574Y-71046653D02*
X127375331Y-71039131D01*
X141475331Y-100789131D02*
X141475331Y-71289131D01*
X127245165Y-71068841D02*
X127308574Y-71046653D01*
X141482852Y-71222375D02*
X141505040Y-71158966D01*
X127188284Y-71104582D02*
X127245165Y-71068841D01*
X142245165Y-101059421D02*
X142308574Y-101081609D01*
X127140781Y-71152085D02*
X127188284Y-71104582D01*
X140940781Y-100976177D02*
X140988284Y-101023680D01*
X127105040Y-71208966D02*
X127140781Y-71152085D01*
X142075331Y-71289131D02*
X142075331Y-100789131D01*
X127082852Y-71272375D02*
X127105040Y-71208966D01*
X140508574Y-70996653D02*
X140575331Y-70989131D01*
X127075331Y-71339131D02*
X127082852Y-71272375D01*
X140882852Y-100855887D02*
X140905040Y-100919296D01*
X127075331Y-92639131D02*
X127075331Y-71339131D01*
X140267809Y-100855887D02*
X140275331Y-100789131D01*
X127067809Y-92705887D02*
X127075331Y-92639131D01*
X142045621Y-71158966D02*
X142067809Y-71222375D01*
X127045621Y-92769296D02*
X127067809Y-92705887D01*
X142188284Y-101023680D02*
X142245165Y-101059421D01*
X127009880Y-92826177D02*
X127045621Y-92769296D01*
X140809880Y-71102085D02*
X140845621Y-71158966D01*
X126962377Y-92873680D02*
X127009880Y-92826177D01*
X141708574Y-70996653D02*
X141775331Y-70989131D01*
X126905496Y-92909421D02*
X126962377Y-92873680D01*
X140705496Y-71018841D02*
X140762377Y-71054582D01*
X126842087Y-92931609D02*
X126905496Y-92909421D01*
X140245621Y-100919296D02*
X140267809Y-100855887D01*
X126775331Y-92939131D02*
X126842087Y-92931609D01*
X140275331Y-100789131D02*
X140275331Y-71289131D01*
X126708574Y-92931609D02*
X126775331Y-92939131D01*
X139705040Y-100919296D02*
X139740781Y-100976177D01*
X126645165Y-92909421D02*
X126708574Y-92931609D01*
X142975331Y-70989131D02*
X143042087Y-70996653D01*
X126588284Y-92873680D02*
X126645165Y-92909421D01*
X142009880Y-71102085D02*
X142045621Y-71158966D01*
X126540781Y-92826177D02*
X126588284Y-92873680D01*
X141467809Y-100855887D02*
X141475331Y-100789131D01*
X126505040Y-92769296D02*
X126540781Y-92826177D01*
X141962377Y-71054582D02*
X142009880Y-71102085D01*
X126482852Y-92705887D02*
X126505040Y-92769296D01*
X140642087Y-70996653D02*
X140705496Y-71018841D01*
X126475331Y-92639131D02*
X126482852Y-92705887D01*
X140162377Y-101023680D02*
X140209880Y-100976177D01*
X126475331Y-71439131D02*
X126475331Y-92639131D01*
X143388284Y-101023680D02*
X143445165Y-101059421D01*
X126467809Y-71372375D02*
X126475331Y-71439131D01*
X141645165Y-71018841D02*
X141708574Y-70996653D01*
X126445621Y-71308966D02*
X126467809Y-71372375D01*
X140209880Y-100976177D02*
X140245621Y-100919296D01*
X126409880Y-71252085D02*
X126445621Y-71308966D01*
X142645621Y-100919296D02*
X142667809Y-100855887D01*
X126362377Y-71204582D02*
X126409880Y-71252085D01*
X141409880Y-100976177D02*
X141445621Y-100919296D01*
X126305496Y-71168841D02*
X126362377Y-71204582D01*
X141242087Y-101081609D02*
X141305496Y-101059421D01*
X126242087Y-71146653D02*
X126305496Y-71168841D01*
X142609880Y-100976177D02*
X142645621Y-100919296D01*
X126175331Y-71139131D02*
X126242087Y-71146653D01*
X141588284Y-71054582D02*
X141645165Y-71018841D01*
X126108574Y-71146653D02*
X126175331Y-71139131D01*
X139740781Y-100976177D02*
X139788284Y-101023680D01*
X126045165Y-71168841D02*
X126108574Y-71146653D01*
X141905496Y-71018841D02*
X141962377Y-71054582D01*
X125988284Y-71204582D02*
X126045165Y-71168841D01*
X140445165Y-71018841D02*
X140508574Y-70996653D01*
X125940781Y-71252085D02*
X125988284Y-71204582D01*
X141475331Y-71289131D02*
X141482852Y-71222375D01*
X125905040Y-71308966D02*
X125940781Y-71252085D01*
X143267809Y-71222375D02*
X143275331Y-71289131D01*
X125882852Y-71372375D02*
X125905040Y-71308966D01*
X141305496Y-101059421D02*
X141362377Y-101023680D01*
X125875331Y-71439131D02*
X125882852Y-71372375D01*
X142075331Y-100789131D02*
X142082852Y-100855887D01*
X125875331Y-91339131D02*
X125875331Y-71439131D01*
X141540781Y-71102085D02*
X141588284Y-71054582D01*
X125867809Y-91405887D02*
X125875331Y-91339131D01*
X140762377Y-71054582D02*
X140809880Y-71102085D01*
X125845621Y-91469296D02*
X125867809Y-91405887D01*
X142705040Y-71158966D02*
X142740781Y-71102085D01*
X125809880Y-91526177D02*
X125845621Y-91469296D01*
X140282852Y-71222375D02*
X140305040Y-71158966D01*
X125762377Y-91573680D02*
X125809880Y-91526177D01*
X141775331Y-70989131D02*
X141842087Y-70996653D01*
X125705496Y-91609421D02*
X125762377Y-91573680D01*
X141505040Y-71158966D02*
X141540781Y-71102085D01*
X125642087Y-91631609D02*
X125705496Y-91609421D01*
X140875331Y-100789131D02*
X140882852Y-100855887D01*
X125575331Y-91639131D02*
X125642087Y-91631609D01*
X143445165Y-101059421D02*
X143508574Y-101081609D01*
X125508574Y-91631609D02*
X125575331Y-91639131D01*
X140575331Y-70989131D02*
X140642087Y-70996653D01*
X125445165Y-91609421D02*
X125508574Y-91631609D01*
X140988284Y-101023680D02*
X141045165Y-101059421D01*
X125388284Y-91573680D02*
X125445165Y-91609421D01*
X143705496Y-101059421D02*
X143762377Y-101023680D01*
X125340781Y-91526177D02*
X125388284Y-91573680D01*
X140340781Y-71102085D02*
X140388284Y-71054582D01*
X125305040Y-91469296D02*
X125340781Y-91526177D01*
X143642087Y-101081609D02*
X143705496Y-101059421D01*
X125282852Y-91405887D02*
X125305040Y-91469296D01*
X138708574Y-101081609D02*
X138775331Y-101089131D01*
X125275331Y-91339131D02*
X125282852Y-91405887D01*
X137267809Y-71222375D02*
X137275331Y-71289131D01*
X125275331Y-71589131D02*
X125275331Y-91339131D01*
X137940781Y-71102085D02*
X137988284Y-71054582D01*
X125267809Y-71522375D02*
X125275331Y-71589131D01*
X138842087Y-101081609D02*
X138905496Y-101059421D01*
X125245621Y-71458966D02*
X125267809Y-71522375D01*
X137575331Y-101089131D02*
X137642087Y-101081609D01*
X125209880Y-71402085D02*
X125245621Y-71458966D01*
X137275331Y-100789131D02*
X137282852Y-100855887D01*
X125162377Y-71354582D02*
X125209880Y-71402085D01*
X137388284Y-101023680D02*
X137445165Y-101059421D01*
X125105496Y-71318841D02*
X125162377Y-71354582D01*
X139645621Y-71158966D02*
X139667809Y-71222375D01*
X125042087Y-71296653D02*
X125105496Y-71318841D01*
X139188284Y-71054582D02*
X139245165Y-71018841D01*
X124975331Y-71289131D02*
X125042087Y-71296653D01*
X137275331Y-71289131D02*
X137275331Y-100789131D01*
X124908574Y-71296653D02*
X124975331Y-71289131D01*
X139082852Y-71222375D02*
X139105040Y-71158966D01*
X124845165Y-71318841D02*
X124908574Y-71296653D01*
X137305040Y-100919296D02*
X137340781Y-100976177D01*
X124788284Y-71354582D02*
X124845165Y-71318841D01*
X138962377Y-101023680D02*
X139009880Y-100976177D01*
X124740781Y-71402085D02*
X124788284Y-71354582D01*
X138482852Y-100855887D02*
X138505040Y-100919296D01*
X124705040Y-71458966D02*
X124740781Y-71402085D01*
X139562377Y-71054582D02*
X139609880Y-71102085D01*
X124682852Y-71522375D02*
X124705040Y-71458966D01*
X139675331Y-100789131D02*
X139682852Y-100855887D01*
X124675331Y-71589131D02*
X124682852Y-71522375D01*
X139140781Y-71102085D02*
X139188284Y-71054582D01*
X124675331Y-90039131D02*
X124675331Y-71589131D01*
X139009880Y-100976177D02*
X139045621Y-100919296D01*
X124667809Y-90105887D02*
X124675331Y-90039131D01*
X137988284Y-71054582D02*
X138045165Y-71018841D01*
X124645621Y-90169296D02*
X124667809Y-90105887D01*
X137705496Y-101059421D02*
X137762377Y-101023680D01*
X124609880Y-90226177D02*
X124645621Y-90169296D01*
X139505496Y-71018841D02*
X139562377Y-71054582D01*
X124562377Y-90273680D02*
X124609880Y-90226177D01*
X138467809Y-71222375D02*
X138475331Y-71289131D01*
X124505496Y-90309421D02*
X124562377Y-90273680D01*
X137905040Y-71158966D02*
X137940781Y-71102085D01*
X124442087Y-90331609D02*
X124505496Y-90309421D01*
X138645165Y-101059421D02*
X138708574Y-101081609D01*
X124375331Y-90339131D02*
X124442087Y-90331609D01*
X139075331Y-71289131D02*
X139082852Y-71222375D01*
X124308574Y-90331609D02*
X124375331Y-90339131D01*
X139675331Y-71289131D02*
X139675331Y-100789131D01*
X124245165Y-90309421D02*
X124308574Y-90331609D01*
X141108574Y-101081609D02*
X141175331Y-101089131D01*
X124188284Y-90273680D02*
X124245165Y-90309421D01*
X139609880Y-71102085D02*
X139645621Y-71158966D01*
X124140781Y-90226177D02*
X124188284Y-90273680D01*
X138409880Y-71102085D02*
X138445621Y-71158966D01*
X124105040Y-90169296D02*
X124140781Y-90226177D01*
X137875331Y-71289131D02*
X137882852Y-71222375D01*
X124082852Y-90105887D02*
X124105040Y-90169296D01*
X140388284Y-71054582D02*
X140445165Y-71018841D01*
X124075331Y-90039131D02*
X124082852Y-90105887D01*
X138588284Y-101023680D02*
X138645165Y-101059421D01*
X124075331Y-71739131D02*
X124075331Y-90039131D01*
X139245165Y-71018841D02*
X139308574Y-70996653D01*
X124067809Y-71672375D02*
X124075331Y-71739131D01*
X139788284Y-101023680D02*
X139845165Y-101059421D01*
X124045621Y-71608966D02*
X124067809Y-71672375D01*
X137867809Y-100855887D02*
X137875331Y-100789131D01*
X124009880Y-71552085D02*
X124045621Y-71608966D01*
X137809880Y-100976177D02*
X137845621Y-100919296D01*
X123962377Y-71504582D02*
X124009880Y-71552085D01*
X139045621Y-100919296D02*
X139067809Y-100855887D01*
X123905496Y-71468841D02*
X123962377Y-71504582D01*
X139682852Y-100855887D02*
X139705040Y-100919296D01*
X123842087Y-71446653D02*
X123905496Y-71468841D01*
X138475331Y-100789131D02*
X138482852Y-100855887D01*
X123775331Y-71439131D02*
X123842087Y-71446653D01*
X140275331Y-71289131D02*
X140282852Y-71222375D01*
X123708574Y-71446653D02*
X123775331Y-71439131D01*
X138540781Y-100976177D02*
X138588284Y-101023680D01*
X123645165Y-71468841D02*
X123708574Y-71446653D01*
X141045165Y-101059421D02*
X141108574Y-101081609D01*
X123588284Y-71504582D02*
X123645165Y-71468841D01*
X138242087Y-70996653D02*
X138305496Y-71018841D01*
X123540781Y-71552085D02*
X123588284Y-71504582D01*
X138108574Y-70996653D02*
X138175331Y-70989131D01*
X123505040Y-71608966D02*
X123540781Y-71552085D01*
X140845621Y-71158966D02*
X140867809Y-71222375D01*
X123482852Y-71672375D02*
X123505040Y-71608966D01*
X139442087Y-70996653D02*
X139505496Y-71018841D01*
X123475331Y-71739131D02*
X123482852Y-71672375D01*
X138475331Y-71289131D02*
X138475331Y-100789131D01*
X123475331Y-88739131D02*
X123475331Y-71739131D01*
X137508574Y-101081609D02*
X137575331Y-101089131D01*
X123467809Y-88805887D02*
X123475331Y-88739131D01*
X139075331Y-100789131D02*
X139075331Y-71289131D01*
X123445621Y-88869296D02*
X123467809Y-88805887D01*
X140105496Y-101059421D02*
X140162377Y-101023680D01*
X123409880Y-88926177D02*
X123445621Y-88869296D01*
X139105040Y-71158966D02*
X139140781Y-71102085D01*
X123362377Y-88973680D02*
X123409880Y-88926177D01*
X137882852Y-71222375D02*
X137905040Y-71158966D01*
X123305496Y-89009421D02*
X123362377Y-88973680D01*
X138445621Y-71158966D02*
X138467809Y-71222375D01*
X123242087Y-89031609D02*
X123305496Y-89009421D01*
X138775331Y-101089131D02*
X138842087Y-101081609D01*
X123175331Y-89039131D02*
X123242087Y-89031609D01*
X139375331Y-70989131D02*
X139442087Y-70996653D01*
X123108574Y-89031609D02*
X123175331Y-89039131D01*
X139308574Y-70996653D02*
X139375331Y-70989131D01*
X123045165Y-89009421D02*
X123108574Y-89031609D01*
X137845621Y-100919296D02*
X137867809Y-100855887D01*
X122988284Y-88973680D02*
X123045165Y-89009421D01*
X140042087Y-101081609D02*
X140105496Y-101059421D01*
X122940781Y-88926177D02*
X122988284Y-88973680D01*
X139975331Y-101089131D02*
X140042087Y-101081609D01*
X122905040Y-88869296D02*
X122940781Y-88926177D01*
X137642087Y-101081609D02*
X137705496Y-101059421D01*
X122882852Y-88805887D02*
X122905040Y-88869296D01*
X138045165Y-71018841D02*
X138108574Y-70996653D01*
X122875331Y-88739131D02*
X122882852Y-88805887D01*
X139667809Y-71222375D02*
X139675331Y-71289131D01*
X122875331Y-71989131D02*
X122875331Y-88739131D01*
X137875331Y-100789131D02*
X137875331Y-71289131D01*
X122867809Y-71922375D02*
X122875331Y-71989131D01*
X138362377Y-71054582D02*
X138409880Y-71102085D01*
X122845621Y-71858966D02*
X122867809Y-71922375D01*
X135108574Y-101081609D02*
X135175331Y-101089131D01*
X122809880Y-71802085D02*
X122845621Y-71858966D01*
X136105040Y-100919296D02*
X136140781Y-100976177D01*
X122762377Y-71754582D02*
X122809880Y-71802085D01*
X136675331Y-100789131D02*
X136675331Y-71289131D01*
X122705496Y-71718841D02*
X122762377Y-71754582D01*
X137042087Y-70996653D02*
X137105496Y-71018841D01*
X122642087Y-71696653D02*
X122705496Y-71718841D01*
X134867809Y-71222375D02*
X134875331Y-71289131D01*
X122575331Y-71689131D02*
X122642087Y-71696653D01*
X135588284Y-71054582D02*
X135645165Y-71018841D01*
X122508574Y-71696653D02*
X122575331Y-71689131D01*
X135905496Y-71018841D02*
X135962377Y-71054582D01*
X122445165Y-71718841D02*
X122508574Y-71696653D01*
X136609880Y-100976177D02*
X136645621Y-100919296D01*
X122388284Y-71754582D02*
X122445165Y-71718841D01*
X136682852Y-71222375D02*
X136705040Y-71158966D01*
X122340781Y-71802085D02*
X122388284Y-71754582D01*
X136140781Y-100976177D02*
X136188284Y-101023680D01*
X122305040Y-71858966D02*
X122340781Y-71802085D01*
X136562377Y-101023680D02*
X136609880Y-100976177D01*
X122282852Y-71922375D02*
X122305040Y-71858966D01*
X136075331Y-100789131D02*
X136082852Y-100855887D01*
X122275331Y-71989131D02*
X122282852Y-71922375D01*
X137209880Y-71102085D02*
X137245621Y-71158966D01*
X122275331Y-87439131D02*
X122275331Y-71989131D01*
X136788284Y-71054582D02*
X136845165Y-71018841D01*
X122267809Y-87505887D02*
X122275331Y-87439131D01*
X138175331Y-70989131D02*
X138242087Y-70996653D01*
X122245621Y-87569296D02*
X122267809Y-87505887D01*
X137762377Y-101023680D02*
X137809880Y-100976177D01*
X122209880Y-87626177D02*
X122245621Y-87569296D01*
X134940781Y-100976177D02*
X134988284Y-101023680D01*
X122162377Y-87673680D02*
X122209880Y-87626177D01*
X137105496Y-71018841D02*
X137162377Y-71054582D01*
X122105496Y-87709421D02*
X122162377Y-87673680D01*
X136442087Y-101081609D02*
X136505496Y-101059421D01*
X122042087Y-87731609D02*
X122105496Y-87709421D01*
X138905496Y-101059421D02*
X138962377Y-101023680D01*
X121975331Y-87739131D02*
X122042087Y-87731609D01*
X137245621Y-71158966D02*
X137267809Y-71222375D01*
X121908574Y-87731609D02*
X121975331Y-87739131D01*
X136067809Y-71222375D02*
X136075331Y-71289131D01*
X121845165Y-87709421D02*
X121908574Y-87731609D01*
X135482852Y-71222375D02*
X135505040Y-71158966D01*
X121788284Y-87673680D02*
X121845165Y-87709421D01*
X139067809Y-100855887D02*
X139075331Y-100789131D01*
X121740781Y-87626177D02*
X121788284Y-87673680D01*
X135962377Y-71054582D02*
X136009880Y-71102085D01*
X121705040Y-87569296D02*
X121740781Y-87626177D01*
X137162377Y-71054582D02*
X137209880Y-71102085D01*
X121682852Y-87505887D02*
X121705040Y-87569296D01*
X136082852Y-100855887D02*
X136105040Y-100919296D01*
X121675331Y-87439131D02*
X121682852Y-87505887D01*
X136075331Y-71289131D02*
X136075331Y-100789131D01*
X121675331Y-72239131D02*
X121675331Y-87439131D01*
X138305496Y-71018841D02*
X138362377Y-71054582D01*
X121667809Y-72172375D02*
X121675331Y-72239131D01*
X135540781Y-71102085D02*
X135588284Y-71054582D01*
X121645621Y-72108966D02*
X121667809Y-72172375D01*
X136245165Y-101059421D02*
X136308574Y-101081609D01*
X121609880Y-72052085D02*
X121645621Y-72108966D01*
X134809880Y-71102085D02*
X134845621Y-71158966D01*
X121562377Y-72004582D02*
X121609880Y-72052085D01*
X138505040Y-100919296D02*
X138540781Y-100976177D01*
X121505496Y-71968841D02*
X121562377Y-72004582D01*
X135475331Y-100789131D02*
X135475331Y-71289131D01*
X121442087Y-71946653D02*
X121505496Y-71968841D01*
X135708574Y-70996653D02*
X135775331Y-70989131D01*
X121375331Y-71939131D02*
X121442087Y-71946653D01*
X135842087Y-70996653D02*
X135905496Y-71018841D01*
X121308574Y-71946653D02*
X121375331Y-71939131D01*
X136308574Y-101081609D02*
X136375331Y-101089131D01*
X121245165Y-71968841D02*
X121308574Y-71946653D01*
X137445165Y-101059421D02*
X137508574Y-101081609D01*
X121188284Y-72004582D02*
X121245165Y-71968841D01*
X134762377Y-71054582D02*
X134809880Y-71102085D01*
X121140781Y-72052085D02*
X121188284Y-72004582D01*
X135445621Y-100919296D02*
X135467809Y-100855887D01*
X121105040Y-72108966D02*
X121140781Y-72052085D01*
X134875331Y-71289131D02*
X134875331Y-100789131D01*
X121082852Y-72172375D02*
X121105040Y-72108966D01*
X135775331Y-70989131D02*
X135842087Y-70996653D01*
X121075331Y-72239131D02*
X121082852Y-72172375D01*
X135467809Y-100855887D02*
X135475331Y-100789131D01*
X121075331Y-86139131D02*
X121075331Y-72239131D01*
X136009880Y-71102085D02*
X136045621Y-71158966D01*
X121067809Y-86205887D02*
X121075331Y-86139131D01*
X135645165Y-71018841D02*
X135708574Y-70996653D01*
X121045621Y-86269296D02*
X121067809Y-86205887D01*
X135475331Y-71289131D02*
X135482852Y-71222375D01*
X121009880Y-86326177D02*
X121045621Y-86269296D01*
X136375331Y-101089131D02*
X136442087Y-101081609D01*
X120962377Y-86373680D02*
X121009880Y-86326177D01*
X134988284Y-101023680D02*
X135045165Y-101059421D01*
X116845621Y-74258966D02*
X116867809Y-74322375D01*
X116809880Y-74202085D02*
X116845621Y-74258966D01*
X116762377Y-74154582D02*
X116809880Y-74202085D01*
X116705496Y-74118841D02*
X116762377Y-74154582D01*
X116642087Y-74096653D02*
X116705496Y-74118841D01*
X116575331Y-74089131D02*
X116642087Y-74096653D01*
X116388284Y-74154582D02*
X116445165Y-74118841D01*
X116340781Y-74202085D02*
X116388284Y-74154582D01*
X116305040Y-74258966D02*
X116340781Y-74202085D01*
X116282852Y-74322375D02*
X116305040Y-74258966D01*
X116275331Y-80989131D02*
X116275331Y-74389131D01*
X116209880Y-81176177D02*
X116245621Y-81119296D01*
X116042087Y-81281609D02*
X116105496Y-81259421D01*
X115975331Y-81289131D02*
X116042087Y-81281609D01*
X115845165Y-81259421D02*
X115908574Y-81281609D01*
X115788284Y-81223680D02*
X115845165Y-81259421D01*
X115740781Y-81176177D02*
X115788284Y-81223680D01*
X115705040Y-81119296D02*
X115740781Y-81176177D01*
X115675331Y-80989131D02*
X115682852Y-81055887D01*
X132540781Y-99276177D02*
X132588284Y-99323680D01*
X115675331Y-75189131D02*
X115675331Y-80989131D01*
X115645621Y-75058966D02*
X115667809Y-75122375D01*
X115562377Y-74954582D02*
X115609880Y-75002085D01*
X115505496Y-74918841D02*
X115562377Y-74954582D01*
X115308574Y-74896653D02*
X115375331Y-74889131D01*
X115245165Y-74918841D02*
X115308574Y-74896653D01*
X133105040Y-71158966D02*
X133140781Y-71102085D01*
X115140781Y-75002085D02*
X115188284Y-74954582D01*
X115082852Y-75122375D02*
X115105040Y-75058966D01*
X128867809Y-71222375D02*
X128875331Y-71289131D01*
X143905040Y-71158966D02*
X143940781Y-71102085D01*
X115075331Y-75189131D02*
X115082852Y-75122375D01*
X120588284Y-86373680D02*
X120645165Y-86409421D01*
X135409880Y-100976177D02*
X135445621Y-100919296D01*
X116445165Y-74118841D02*
X116508574Y-74096653D01*
X134275331Y-71289131D02*
X134282852Y-71222375D01*
X128209880Y-94126177D02*
X128245621Y-94069296D01*
X142667809Y-100855887D02*
X142675331Y-100789131D01*
X115075331Y-79689131D02*
X115075331Y-75189131D01*
X115067809Y-79755887D02*
X115075331Y-79689131D01*
X115045621Y-79819296D02*
X115067809Y-79755887D01*
X129305496Y-95459421D02*
X129362377Y-95423680D01*
X142788284Y-71054582D02*
X142845165Y-71018841D01*
X115009880Y-79876177D02*
X115045621Y-79819296D01*
X114962377Y-79923680D02*
X115009880Y-79876177D01*
X114905496Y-79959421D02*
X114962377Y-79923680D01*
X120475331Y-72589131D02*
X120475331Y-86139131D01*
X136188284Y-101023680D02*
X136245165Y-101059421D01*
X115609880Y-75002085D02*
X115645621Y-75058966D01*
X114842087Y-79981609D02*
X114905496Y-79959421D01*
X128282852Y-71222375D02*
X128305040Y-71158966D01*
X144962377Y-101023680D02*
X145009880Y-100976177D01*
X113845621Y-78519296D02*
X113867809Y-78455887D01*
X116267809Y-81055887D02*
X116275331Y-80989131D01*
X128275331Y-93939131D02*
X128275331Y-71289131D01*
X143340781Y-100976177D02*
X143388284Y-101023680D01*
X113809880Y-78576177D02*
X113845621Y-78519296D01*
X113642087Y-78681609D02*
X113705496Y-78659421D01*
X120540781Y-86326177D02*
X120588284Y-86373680D01*
X136675331Y-71289131D02*
X136682852Y-71222375D01*
X128388284Y-71054582D02*
X128445165Y-71018841D01*
X145082852Y-71222375D02*
X145105040Y-71158966D01*
X113445165Y-78659421D02*
X113508574Y-78681609D01*
X128845621Y-71158966D02*
X128867809Y-71222375D01*
X145009880Y-100976177D02*
X145045621Y-100919296D01*
X113388284Y-78623680D02*
X113445165Y-78659421D01*
X113340781Y-78576177D02*
X113388284Y-78623680D01*
X113042087Y-77346652D02*
X113105496Y-77368840D01*
X113275331Y-78389131D02*
X113282852Y-78455887D01*
X120905496Y-86409421D02*
X120962377Y-86373680D01*
X136908574Y-70996653D02*
X136975331Y-70989131D01*
X113575331Y-78689131D02*
X113642087Y-78681609D01*
X113875331Y-78389131D02*
X113875331Y-76089131D01*
X113305040Y-78519296D02*
X113340781Y-78576177D01*
X120467809Y-72522375D02*
X120475331Y-72589131D01*
X137282852Y-100855887D02*
X137305040Y-100919296D01*
X112530535Y-77339131D02*
X112975331Y-77339131D01*
X113275331Y-77639131D02*
X113275331Y-78389131D01*
X116162377Y-81223680D02*
X116209880Y-81176177D01*
X113209880Y-77452084D02*
X113245621Y-77508965D01*
X116508574Y-74096653D02*
X116575331Y-74089131D01*
X133682852Y-100455887D02*
X133705040Y-100519296D01*
X128267809Y-94005887D02*
X128275331Y-93939131D01*
X143845621Y-100919296D02*
X143867809Y-100855887D01*
X113705496Y-78659421D02*
X113762377Y-78623680D01*
X113105496Y-77368840D02*
X113162377Y-77404581D01*
X120445621Y-72458966D02*
X120467809Y-72522375D01*
X136845165Y-71018841D02*
X136908574Y-70996653D01*
X113162377Y-77404581D02*
X113209880Y-77452084D01*
X115667809Y-75122375D02*
X115675331Y-75189131D01*
X128575331Y-70989131D02*
X128642087Y-70996653D01*
X144540781Y-100976177D02*
X144588284Y-101023680D01*
X113867809Y-78455887D02*
X113875331Y-78389131D01*
X113875331Y-76089131D02*
X113882852Y-76022375D01*
X113267809Y-77572374D02*
X113275331Y-77639131D01*
X115188284Y-74954582D02*
X115245165Y-74918841D01*
X128162377Y-94173680D02*
X128209880Y-94126177D01*
X142675331Y-71289131D02*
X142682852Y-71222375D01*
X114645165Y-79959421D02*
X114708574Y-79981609D01*
X115105040Y-75058966D02*
X115140781Y-75002085D01*
X113508574Y-78681609D02*
X113575331Y-78689131D01*
X112975331Y-77339131D02*
X113042087Y-77346652D01*
X120842087Y-86431609D02*
X120905496Y-86409421D01*
X135305496Y-101059421D02*
X135362377Y-101023680D01*
X113762377Y-78623680D02*
X113809880Y-78576177D01*
X128445165Y-71018841D02*
X128508574Y-70996653D01*
X144588284Y-101023680D02*
X144645165Y-101059421D01*
X114475331Y-79689131D02*
X114482852Y-79755887D01*
X120475331Y-86139131D02*
X120482852Y-86205887D01*
X136975331Y-70989131D02*
X137042087Y-70996653D01*
X116105496Y-81259421D02*
X116162377Y-81223680D01*
X133705040Y-100519296D02*
X133740781Y-100576177D01*
X127975331Y-94239131D02*
X128042087Y-94231609D01*
X145067809Y-100855887D02*
X145075331Y-100789131D01*
X113282852Y-78455887D02*
X113305040Y-78519296D01*
X115908574Y-81281609D02*
X115975331Y-81289131D01*
X113245621Y-77508965D02*
X113267809Y-77572374D01*
X120305496Y-72318841D02*
X120362377Y-72354582D01*
X136045621Y-71158966D02*
X136067809Y-71222375D01*
X113882852Y-76022375D02*
X113905040Y-75958966D01*
X113905040Y-75958966D02*
X113940781Y-75902085D01*
X120409880Y-72402085D02*
X120445621Y-72458966D01*
X137340781Y-100976177D02*
X137388284Y-101023680D01*
X116275331Y-74389131D02*
X116282852Y-74322375D01*
X114045165Y-75818841D02*
X114108574Y-75796653D01*
X113940781Y-75902085D02*
X113988284Y-75854582D01*
X115682852Y-81055887D02*
X115705040Y-81119296D01*
X114445621Y-75958966D02*
X114467809Y-76022375D01*
X113988284Y-75854582D02*
X114045165Y-75818841D01*
X115442087Y-74896653D02*
X115505496Y-74918841D01*
X114505040Y-79819296D02*
X114540781Y-79876177D01*
X116245621Y-81119296D02*
X116267809Y-81055887D01*
X114108574Y-75796653D02*
X114175331Y-75789131D01*
X114409880Y-75902085D02*
X114445621Y-75958966D01*
X114175331Y-75789131D02*
X114242087Y-75796653D01*
X128875331Y-71289131D02*
X128875331Y-95189131D01*
X145188284Y-71054582D02*
X145245165Y-71018841D01*
X114242087Y-75796653D02*
X114305496Y-75818841D01*
X114305496Y-75818841D02*
X114362377Y-75854582D01*
X114362377Y-75854582D02*
X114409880Y-75902085D01*
X115375331Y-74889131D02*
X115442087Y-74896653D01*
X133075331Y-99089131D02*
X133075331Y-71289131D01*
X114467809Y-76022375D02*
X114475331Y-76089131D01*
X114475331Y-76089131D02*
X114475331Y-79689131D01*
X128905040Y-95319296D02*
X128940781Y-95376177D01*
X144108574Y-70996653D02*
X144175331Y-70989131D01*
X114708574Y-79981609D02*
X114775331Y-79989131D01*
X120645165Y-86409421D02*
X120708574Y-86431609D01*
X134875331Y-100789131D02*
X134882852Y-100855887D01*
X114482852Y-79755887D02*
X114505040Y-79819296D01*
X120708574Y-86431609D02*
X120775331Y-86439131D01*
X135505040Y-71158966D02*
X135540781Y-71102085D01*
X129045165Y-95459421D02*
X129108574Y-95481609D01*
X114540781Y-79876177D02*
X114588284Y-79923680D01*
X129175331Y-95489131D02*
X129242087Y-95481609D01*
X145308574Y-70996653D02*
X145375331Y-70989131D01*
X114588284Y-79923680D02*
X114645165Y-79959421D01*
X114775331Y-79989131D02*
X114842087Y-79981609D01*
X116867809Y-74322375D02*
X116875331Y-74389131D01*
X116875331Y-74389131D02*
X116875331Y-82289131D01*
X116875331Y-82289131D02*
X116882852Y-82355887D01*
X116882852Y-82355887D02*
X116905040Y-82419296D01*
X132842087Y-99381609D02*
X132905496Y-99359421D01*
X116905040Y-82419296D02*
X116940781Y-82476177D01*
X116940781Y-82476177D02*
X116988284Y-82523680D01*
X116988284Y-82523680D02*
X117045165Y-82559421D01*
X117045165Y-82559421D02*
X117108574Y-82581609D01*
X117108574Y-82581609D02*
X117175331Y-82589131D01*
X117175331Y-82589131D02*
X117242087Y-82581609D01*
X117242087Y-82581609D02*
X117305496Y-82559421D01*
X117305496Y-82559421D02*
X117362377Y-82523680D01*
X117362377Y-82523680D02*
X117409880Y-82476177D01*
X117409880Y-82476177D02*
X117445621Y-82419296D01*
X117445621Y-82419296D02*
X117467809Y-82355887D01*
X117467809Y-82355887D02*
X117475331Y-82289131D01*
X117475331Y-82289131D02*
X117475331Y-73639131D01*
X117475331Y-73639131D02*
X117482852Y-73572375D01*
X117482852Y-73572375D02*
X117505040Y-73508966D01*
X117505040Y-73508966D02*
X117540781Y-73452085D01*
X117540781Y-73452085D02*
X117588284Y-73404582D01*
X134508574Y-70996653D02*
X134575331Y-70989131D01*
X117588284Y-73404582D02*
X117645165Y-73368841D01*
X133067809Y-99155887D02*
X133075331Y-99089131D01*
X117645165Y-73368841D02*
X117708574Y-73346653D01*
X136645621Y-100919296D02*
X136667809Y-100855887D01*
X117708574Y-73346653D02*
X117775331Y-73339131D01*
X133505496Y-71018841D02*
X133562377Y-71054582D01*
X117775331Y-73339131D02*
X117842087Y-73346653D01*
X117842087Y-73346653D02*
X117905496Y-73368841D01*
X117905496Y-73368841D02*
X117962377Y-73404582D01*
X133308574Y-70996653D02*
X133375331Y-70989131D01*
X117962377Y-73404582D02*
X118009880Y-73452085D01*
X134575331Y-70989131D02*
X134642087Y-70996653D01*
X118009880Y-73452085D02*
X118045621Y-73508966D01*
X118045621Y-73508966D02*
X118067809Y-73572375D01*
X132905496Y-99359421D02*
X132962377Y-99323680D01*
X118067809Y-73572375D02*
X118075331Y-73639131D01*
X133245165Y-71018841D02*
X133308574Y-70996653D01*
X118075331Y-73639131D02*
X118075331Y-83589131D01*
X132775331Y-99389131D02*
X132842087Y-99381609D01*
X118075331Y-83589131D02*
X118082852Y-83655887D01*
X132645165Y-99359421D02*
X132708574Y-99381609D01*
X118082852Y-83655887D02*
X118105040Y-83719296D01*
X118105040Y-83719296D02*
X118140781Y-83776177D01*
X134042087Y-100681609D02*
X134105496Y-100659421D01*
X118140781Y-83776177D02*
X118188284Y-83823680D01*
X136505496Y-101059421D02*
X136562377Y-101023680D01*
X118188284Y-83823680D02*
X118245165Y-83859421D01*
X136705040Y-71158966D02*
X136740781Y-71102085D01*
X118245165Y-83859421D02*
X118308574Y-83881609D01*
X134340781Y-71102085D02*
X134388284Y-71054582D01*
X118308574Y-83881609D02*
X118375331Y-83889131D01*
X132505040Y-99219296D02*
X132540781Y-99276177D01*
X118375331Y-83889131D02*
X118442087Y-83881609D01*
X133140781Y-71102085D02*
X133188284Y-71054582D01*
X118442087Y-83881609D02*
X118505496Y-83859421D01*
X135175331Y-101089131D02*
X135242087Y-101081609D01*
X118505496Y-83859421D02*
X118562377Y-83823680D01*
X118562377Y-83823680D02*
X118609880Y-83776177D01*
X118609880Y-83776177D02*
X118645621Y-83719296D01*
X133045621Y-99219296D02*
X133067809Y-99155887D01*
X118645621Y-83719296D02*
X118667809Y-83655887D01*
X136667809Y-100855887D02*
X136675331Y-100789131D01*
X118667809Y-83655887D02*
X118675331Y-83589131D01*
X133675331Y-71289131D02*
X133675331Y-100389131D01*
X118675331Y-83589131D02*
X118675331Y-73089131D01*
X134305040Y-71158966D02*
X134340781Y-71102085D01*
X118675331Y-73089131D02*
X118682852Y-73022375D01*
X133609880Y-71102085D02*
X133645621Y-71158966D01*
X118682852Y-73022375D02*
X118705040Y-72958966D01*
X133908574Y-100681609D02*
X133975331Y-100689131D01*
X118705040Y-72958966D02*
X118740781Y-72902085D01*
X135045165Y-101059421D02*
X135108574Y-101081609D01*
X118740781Y-72902085D02*
X118788284Y-72854582D01*
X134245621Y-100519296D02*
X134267809Y-100455887D01*
X118788284Y-72854582D02*
X118845165Y-72818841D01*
X133009880Y-99276177D02*
X133045621Y-99219296D01*
X118845165Y-72818841D02*
X118908574Y-72796653D01*
X133562377Y-71054582D02*
X133609880Y-71102085D01*
X118908574Y-72796653D02*
X118975331Y-72789131D01*
X133975331Y-100689131D02*
X134042087Y-100681609D01*
X118975331Y-72789131D02*
X119042087Y-72796653D01*
X132588284Y-99323680D02*
X132645165Y-99359421D01*
X119042087Y-72796653D02*
X119105496Y-72818841D01*
X134162377Y-100623680D02*
X134209880Y-100576177D01*
X119105496Y-72818841D02*
X119162377Y-72854582D01*
X133788284Y-100623680D02*
X133845165Y-100659421D01*
X119162377Y-72854582D02*
X119209880Y-72902085D01*
X134845621Y-71158966D02*
X134867809Y-71222375D01*
X119209880Y-72902085D02*
X119245621Y-72958966D01*
X134642087Y-70996653D02*
X134705496Y-71018841D01*
X119245621Y-72958966D02*
X119267809Y-73022375D01*
X119267809Y-73022375D02*
X119275331Y-73089131D01*
X133075331Y-71289131D02*
X133082852Y-71222375D01*
X119275331Y-73089131D02*
X119275331Y-84889131D01*
X135362377Y-101023680D02*
X135409880Y-100976177D01*
X119275331Y-84889131D02*
X119282852Y-84955887D01*
X133188284Y-71054582D02*
X133245165Y-71018841D01*
X119282852Y-84955887D02*
X119305040Y-85019296D01*
X133675331Y-100389131D02*
X133682852Y-100455887D01*
X119305040Y-85019296D02*
X119340781Y-85076177D01*
X134105496Y-100659421D02*
X134162377Y-100623680D01*
X119340781Y-85076177D02*
X119388284Y-85123680D01*
X133740781Y-100576177D02*
X133788284Y-100623680D01*
X119388284Y-85123680D02*
X119445165Y-85159421D01*
X134905040Y-100919296D02*
X134940781Y-100976177D01*
X119445165Y-85159421D02*
X119508574Y-85181609D01*
X133645621Y-71158966D02*
X133667809Y-71222375D01*
X119508574Y-85181609D02*
X119575331Y-85189131D01*
X119575331Y-85189131D02*
X119642087Y-85181609D01*
X133082852Y-71222375D02*
X133105040Y-71158966D01*
X119642087Y-85181609D02*
X119705496Y-85159421D01*
X133667809Y-71222375D02*
X133675331Y-71289131D01*
X119705496Y-85159421D02*
X119762377Y-85123680D01*
X134209880Y-100576177D02*
X134245621Y-100519296D01*
X119762377Y-85123680D02*
X119809880Y-85076177D01*
X119809880Y-85076177D02*
X119845621Y-85019296D01*
X134267809Y-100455887D02*
X134275331Y-100389131D01*
X119845621Y-85019296D02*
X119867809Y-84955887D01*
X119867809Y-84955887D02*
X119875331Y-84889131D01*
X132962377Y-99323680D02*
X133009880Y-99276177D01*
X119875331Y-84889131D02*
X119875331Y-72589131D01*
X119875331Y-72589131D02*
X119882852Y-72522375D01*
X119882852Y-72522375D02*
X119905040Y-72458966D01*
X134388284Y-71054582D02*
X134445165Y-71018841D01*
X119905040Y-72458966D02*
X119940781Y-72402085D01*
X134275331Y-100389131D02*
X134275331Y-71289131D01*
X119940781Y-72402085D02*
X119988284Y-72354582D01*
X134282852Y-71222375D02*
X134305040Y-71158966D01*
X119988284Y-72354582D02*
X120045165Y-72318841D01*
X134445165Y-71018841D02*
X134508574Y-70996653D01*
X120045165Y-72318841D02*
X120108574Y-72296653D01*
X133442087Y-70996653D02*
X133505496Y-71018841D01*
X120108574Y-72296653D02*
X120175331Y-72289131D01*
X133845165Y-100659421D02*
X133908574Y-100681609D01*
X120175331Y-72289131D02*
X120242087Y-72296653D01*
X133375331Y-70989131D02*
X133442087Y-70996653D01*
X120242087Y-72296653D02*
X120305496Y-72318841D01*
X132708574Y-99381609D02*
X132775331Y-99389131D01*
X120362377Y-72354582D02*
X120409880Y-72402085D01*
X134882852Y-100855887D02*
X134905040Y-100919296D01*
X120482852Y-86205887D02*
X120505040Y-86269296D01*
X135242087Y-101081609D02*
X135305496Y-101059421D01*
X120505040Y-86269296D02*
X120540781Y-86326177D01*
X136740781Y-71102085D02*
X136788284Y-71054582D01*
X120775331Y-86439131D02*
X120842087Y-86431609D01*
X134705496Y-71018841D02*
X134762377Y-71054582D01*
X129362377Y-95423680D02*
X129409880Y-95376177D01*
X144482852Y-100855887D02*
X144505040Y-100919296D01*
X129409880Y-95376177D02*
X129445621Y-95319296D01*
X142845165Y-71018841D02*
X142908574Y-70996653D01*
X129445621Y-95319296D02*
X129467809Y-95255887D01*
X145667809Y-71222375D02*
X145675331Y-71289131D01*
X129467809Y-95255887D02*
X129475331Y-95189131D01*
X142375331Y-101089131D02*
X142442087Y-101081609D01*
X129475331Y-95189131D02*
X129475331Y-71289131D01*
X143875331Y-100789131D02*
X143875331Y-71289131D01*
X129475331Y-71289131D02*
X129482852Y-71222375D01*
X144475331Y-100789131D02*
X144482852Y-100855887D01*
X129482852Y-71222375D02*
X129505040Y-71158966D01*
X144842087Y-101081609D02*
X144905496Y-101059421D01*
X129505040Y-71158966D02*
X129540781Y-71102085D01*
X144475331Y-71289131D02*
X144475331Y-100789131D01*
X129540781Y-71102085D02*
X129588284Y-71054582D01*
X144775331Y-101089131D02*
X144842087Y-101081609D01*
X129588284Y-71054582D02*
X129645165Y-71018841D01*
X142675331Y-100789131D02*
X142675331Y-71289131D01*
X129645165Y-71018841D02*
X129708574Y-70996653D01*
X142908574Y-70996653D02*
X142975331Y-70989131D01*
X129708574Y-70996653D02*
X129775331Y-70989131D01*
X144445621Y-71158966D02*
X144467809Y-71222375D01*
X129775331Y-70989131D02*
X129842087Y-70996653D01*
X143875331Y-71289131D02*
X143882852Y-71222375D01*
X129842087Y-70996653D02*
X129905496Y-71018841D01*
X143867809Y-100855887D02*
X143875331Y-100789131D01*
X129905496Y-71018841D02*
X129962377Y-71054582D01*
X143940781Y-71102085D02*
X143988284Y-71054582D01*
X129962377Y-71054582D02*
X130009880Y-71102085D01*
X144242087Y-70996653D02*
X144305496Y-71018841D01*
X130009880Y-71102085D02*
X130045621Y-71158966D01*
X142682852Y-71222375D02*
X142705040Y-71158966D01*
X130045621Y-71158966D02*
X130067809Y-71222375D01*
X143282852Y-100855887D02*
X143305040Y-100919296D01*
X130067809Y-71222375D02*
X130075331Y-71289131D01*
X144175331Y-70989131D02*
X144242087Y-70996653D01*
X130075331Y-71289131D02*
X130075331Y-96489131D01*
X142442087Y-101081609D02*
X142505496Y-101059421D01*
X130075331Y-96489131D02*
X130082852Y-96555887D01*
X144505040Y-100919296D02*
X144540781Y-100976177D01*
X130082852Y-96555887D02*
X130105040Y-96619296D01*
X144409880Y-71102085D02*
X144445621Y-71158966D01*
X130105040Y-96619296D02*
X130140781Y-96676177D01*
X144708574Y-101081609D02*
X144775331Y-101089131D01*
X130140781Y-96676177D02*
X130188284Y-96723680D01*
X142505496Y-101059421D02*
X142562377Y-101023680D01*
X130188284Y-96723680D02*
X130245165Y-96759421D01*
X144645165Y-101059421D02*
X144708574Y-101081609D01*
X130245165Y-96759421D02*
X130308574Y-96781609D01*
X143105496Y-71018841D02*
X143162377Y-71054582D01*
X130308574Y-96781609D02*
X130375331Y-96789131D01*
X142562377Y-101023680D02*
X142609880Y-100976177D01*
X130375331Y-96789131D02*
X130442087Y-96781609D01*
X144905496Y-101059421D02*
X144962377Y-101023680D01*
X130442087Y-96781609D02*
X130505496Y-96759421D01*
X143275331Y-71289131D02*
X143275331Y-100789131D01*
X130505496Y-96759421D02*
X130562377Y-96723680D01*
X142740781Y-71102085D02*
X142788284Y-71054582D01*
X130562377Y-96723680D02*
X130609880Y-96676177D01*
X130609880Y-96676177D02*
X130645621Y-96619296D01*
X130645621Y-96619296D02*
X130667809Y-96555887D01*
X145075331Y-71289131D02*
X145082852Y-71222375D01*
X130667809Y-96555887D02*
X130675331Y-96489131D01*
X130675331Y-96489131D02*
X130675331Y-71289131D01*
X145140781Y-71102085D02*
X145188284Y-71054582D01*
X130675331Y-71289131D02*
X130682852Y-71222375D01*
X130682852Y-71222375D02*
X130705040Y-71158966D01*
X130705040Y-71158966D02*
X130740781Y-71102085D01*
X145645621Y-71158966D02*
X145667809Y-71222375D01*
X130740781Y-71102085D02*
X130788284Y-71054582D01*
X130788284Y-71054582D02*
X130845165Y-71018841D01*
X130845165Y-71018841D02*
X130908574Y-70996653D01*
X130908574Y-70996653D02*
X130975331Y-70989131D01*
X130975331Y-70989131D02*
X131042087Y-70996653D01*
X145705040Y-100919296D02*
X145740781Y-100976177D01*
X131042087Y-70996653D02*
X131105496Y-71018841D01*
X131105496Y-71018841D02*
X131162377Y-71054582D01*
X145045621Y-100919296D02*
X145067809Y-100855887D01*
X131162377Y-71054582D02*
X131209880Y-71102085D01*
X145740781Y-100976177D02*
X145788284Y-101023680D01*
X131209880Y-71102085D02*
X131245621Y-71158966D01*
X131245621Y-71158966D02*
X131267809Y-71222375D01*
X131267809Y-71222375D02*
X131275331Y-71289131D01*
X131275331Y-71289131D02*
X131275331Y-97789131D01*
X131275331Y-97789131D02*
X131282852Y-97855887D01*
X131282852Y-97855887D02*
X131305040Y-97919296D01*
X145505496Y-71018841D02*
X145562377Y-71054582D01*
X131305040Y-97919296D02*
X131340781Y-97976177D01*
X145682852Y-100855887D02*
X145705040Y-100919296D01*
X131340781Y-97976177D02*
X131388284Y-98023680D01*
X131388284Y-98023680D02*
X131445165Y-98059421D01*
X131445165Y-98059421D02*
X131508574Y-98081609D01*
X131508574Y-98081609D02*
X131575331Y-98089131D01*
X145442087Y-70996653D02*
X145505496Y-71018841D01*
X131575331Y-98089131D02*
X131642087Y-98081609D01*
X131642087Y-98081609D02*
X131705496Y-98059421D01*
X131705496Y-98059421D02*
X131762377Y-98023680D01*
X131762377Y-98023680D02*
X131809880Y-97976177D01*
X131809880Y-97976177D02*
X131845621Y-97919296D01*
X145609880Y-71102085D02*
X145645621Y-71158966D01*
X131845621Y-97919296D02*
X131867809Y-97855887D01*
X131867809Y-97855887D02*
X131875331Y-97789131D01*
X145375331Y-70989131D02*
X145442087Y-70996653D01*
X131875331Y-97789131D02*
X131875331Y-71289131D01*
X145562377Y-71054582D02*
X145609880Y-71102085D01*
X131875331Y-71289131D02*
X131882852Y-71222375D01*
X131882852Y-71222375D02*
X131905040Y-71158966D01*
X131905040Y-71158966D02*
X131940781Y-71102085D01*
X131940781Y-71102085D02*
X131988284Y-71054582D01*
X145675331Y-71289131D02*
X145675331Y-100789131D01*
X131988284Y-71054582D02*
X132045165Y-71018841D01*
X132045165Y-71018841D02*
X132108574Y-70996653D01*
X132108574Y-70996653D02*
X132175331Y-70989131D01*
X145075331Y-100789131D02*
X145075331Y-71289131D01*
X132175331Y-70989131D02*
X132242087Y-70996653D01*
X132242087Y-70996653D02*
X132305496Y-71018841D01*
X132305496Y-71018841D02*
X132362377Y-71054582D01*
X132362377Y-71054582D02*
X132409880Y-71102085D01*
X132409880Y-71102085D02*
X132445621Y-71158966D01*
X132445621Y-71158966D02*
X132467809Y-71222375D01*
X145675331Y-100789131D02*
X145682852Y-100855887D01*
X132467809Y-71222375D02*
X132475331Y-71289131D01*
X145105040Y-71158966D02*
X145140781Y-71102085D01*
X132475331Y-71289131D02*
X132475331Y-99089131D01*
X132475331Y-99089131D02*
X132482852Y-99155887D01*
X132482852Y-99155887D02*
X132505040Y-99219296D01*
M02*
