G04 #@! TF.GenerationSoftware,KiCad,Pcbnew,(5.1.5)-3*
G04 #@! TF.CreationDate,2021-10-24T21:58:59+02:00*
G04 #@! TF.ProjectId,seg3,73656733-2e6b-4696-9361-645f70636258,1*
G04 #@! TF.SameCoordinates,Original*
G04 #@! TF.FileFunction,Legend,Bot*
G04 #@! TF.FilePolarity,Positive*
%FSLAX46Y46*%
G04 Gerber Fmt 4.6, Leading zero omitted, Abs format (unit mm)*
G04 Created by KiCad (PCBNEW (5.1.5)-3) date 2021-10-24 21:58:59*
%MOMM*%
%LPD*%
G04 APERTURE LIST*
%ADD10C,0.150000*%
%ADD11C,0.200000*%
%ADD12C,0.120000*%
%ADD13C,0.152400*%
%ADD14C,0.700000*%
G04 APERTURE END LIST*
D10*
X147071228Y-72523371D02*
X146766466Y-72523371D01*
X146956942Y-72256704D02*
X146956942Y-72942419D01*
X146918847Y-73018609D01*
X146842657Y-73056704D01*
X146766466Y-73056704D01*
X146499800Y-73056704D02*
X146499800Y-72256704D01*
X146156942Y-73056704D02*
X146156942Y-72637657D01*
X146195038Y-72561466D01*
X146271228Y-72523371D01*
X146385514Y-72523371D01*
X146461704Y-72561466D01*
X146499800Y-72599561D01*
X145471228Y-73018609D02*
X145547419Y-73056704D01*
X145699800Y-73056704D01*
X145775990Y-73018609D01*
X145814085Y-72942419D01*
X145814085Y-72637657D01*
X145775990Y-72561466D01*
X145699800Y-72523371D01*
X145547419Y-72523371D01*
X145471228Y-72561466D01*
X145433133Y-72637657D01*
X145433133Y-72713847D01*
X145814085Y-72790038D01*
X145090276Y-73056704D02*
X145090276Y-72523371D01*
X145090276Y-72675752D02*
X145052180Y-72599561D01*
X145014085Y-72561466D01*
X144937895Y-72523371D01*
X144861704Y-72523371D01*
X144595038Y-73056704D02*
X144595038Y-72523371D01*
X144595038Y-72599561D02*
X144556942Y-72561466D01*
X144480752Y-72523371D01*
X144366466Y-72523371D01*
X144290276Y-72561466D01*
X144252180Y-72637657D01*
X144252180Y-73056704D01*
X144252180Y-72637657D02*
X144214085Y-72561466D01*
X144137895Y-72523371D01*
X144023609Y-72523371D01*
X143947419Y-72561466D01*
X143909323Y-72637657D01*
X143909323Y-73056704D01*
X143414085Y-73056704D02*
X143490276Y-73018609D01*
X143528371Y-72980514D01*
X143566466Y-72904323D01*
X143566466Y-72675752D01*
X143528371Y-72599561D01*
X143490276Y-72561466D01*
X143414085Y-72523371D01*
X143299800Y-72523371D01*
X143223609Y-72561466D01*
X143185514Y-72599561D01*
X143147419Y-72675752D01*
X143147419Y-72904323D01*
X143185514Y-72980514D01*
X143223609Y-73018609D01*
X143299800Y-73056704D01*
X143414085Y-73056704D01*
X142461704Y-73018609D02*
X142537895Y-73056704D01*
X142690276Y-73056704D01*
X142766466Y-73018609D01*
X142804561Y-72980514D01*
X142842657Y-72904323D01*
X142842657Y-72675752D01*
X142804561Y-72599561D01*
X142766466Y-72561466D01*
X142690276Y-72523371D01*
X142537895Y-72523371D01*
X142461704Y-72561466D01*
X142118847Y-73056704D02*
X142118847Y-72256704D01*
X141775990Y-73056704D02*
X141775990Y-72637657D01*
X141814085Y-72561466D01*
X141890276Y-72523371D01*
X142004561Y-72523371D01*
X142080752Y-72561466D01*
X142118847Y-72599561D01*
X141395038Y-73056704D02*
X141395038Y-72523371D01*
X141395038Y-72675752D02*
X141356942Y-72599561D01*
X141318847Y-72561466D01*
X141242657Y-72523371D01*
X141166466Y-72523371D01*
X140785514Y-73056704D02*
X140861704Y-73018609D01*
X140899800Y-72980514D01*
X140937895Y-72904323D01*
X140937895Y-72675752D01*
X140899800Y-72599561D01*
X140861704Y-72561466D01*
X140785514Y-72523371D01*
X140671228Y-72523371D01*
X140595038Y-72561466D01*
X140556942Y-72599561D01*
X140518847Y-72675752D01*
X140518847Y-72904323D01*
X140556942Y-72980514D01*
X140595038Y-73018609D01*
X140671228Y-73056704D01*
X140785514Y-73056704D01*
X140175990Y-73056704D02*
X140175990Y-72523371D01*
X140175990Y-72599561D02*
X140137895Y-72561466D01*
X140061704Y-72523371D01*
X139947419Y-72523371D01*
X139871228Y-72561466D01*
X139833133Y-72637657D01*
X139833133Y-73056704D01*
X139833133Y-72637657D02*
X139795038Y-72561466D01*
X139718847Y-72523371D01*
X139604561Y-72523371D01*
X139528371Y-72561466D01*
X139490276Y-72637657D01*
X139490276Y-73056704D01*
X139109323Y-73056704D02*
X139109323Y-72523371D01*
X139109323Y-72256704D02*
X139147419Y-72294800D01*
X139109323Y-72332895D01*
X139071228Y-72294800D01*
X139109323Y-72256704D01*
X139109323Y-72332895D01*
X138385514Y-73018609D02*
X138461704Y-73056704D01*
X138614085Y-73056704D01*
X138690276Y-73018609D01*
X138728371Y-72980514D01*
X138766466Y-72904323D01*
X138766466Y-72675752D01*
X138728371Y-72599561D01*
X138690276Y-72561466D01*
X138614085Y-72523371D01*
X138461704Y-72523371D01*
X138385514Y-72561466D01*
X137090276Y-73018609D02*
X137166466Y-73056704D01*
X137318847Y-73056704D01*
X137395038Y-73018609D01*
X137433133Y-72980514D01*
X137471228Y-72904323D01*
X137471228Y-72675752D01*
X137433133Y-72599561D01*
X137395038Y-72561466D01*
X137318847Y-72523371D01*
X137166466Y-72523371D01*
X137090276Y-72561466D01*
X136633133Y-73056704D02*
X136709323Y-73018609D01*
X136747419Y-72942419D01*
X136747419Y-72256704D01*
X136214085Y-73056704D02*
X136290276Y-73018609D01*
X136328371Y-72980514D01*
X136366466Y-72904323D01*
X136366466Y-72675752D01*
X136328371Y-72599561D01*
X136290276Y-72561466D01*
X136214085Y-72523371D01*
X136099800Y-72523371D01*
X136023609Y-72561466D01*
X135985514Y-72599561D01*
X135947419Y-72675752D01*
X135947419Y-72904323D01*
X135985514Y-72980514D01*
X136023609Y-73018609D01*
X136099800Y-73056704D01*
X136214085Y-73056704D01*
X135261704Y-73018609D02*
X135337895Y-73056704D01*
X135490276Y-73056704D01*
X135566466Y-73018609D01*
X135604561Y-72980514D01*
X135642657Y-72904323D01*
X135642657Y-72675752D01*
X135604561Y-72599561D01*
X135566466Y-72561466D01*
X135490276Y-72523371D01*
X135337895Y-72523371D01*
X135261704Y-72561466D01*
X134918847Y-73056704D02*
X134918847Y-72256704D01*
X134842657Y-72751942D02*
X134614085Y-73056704D01*
X134614085Y-72523371D02*
X134918847Y-72828133D01*
X133699800Y-73018609D02*
X133623609Y-73056704D01*
X133471228Y-73056704D01*
X133395038Y-73018609D01*
X133356942Y-72942419D01*
X133356942Y-72904323D01*
X133395038Y-72828133D01*
X133471228Y-72790038D01*
X133585514Y-72790038D01*
X133661704Y-72751942D01*
X133699800Y-72675752D01*
X133699800Y-72637657D01*
X133661704Y-72561466D01*
X133585514Y-72523371D01*
X133471228Y-72523371D01*
X133395038Y-72561466D01*
X132709323Y-73018609D02*
X132785514Y-73056704D01*
X132937895Y-73056704D01*
X133014085Y-73018609D01*
X133052180Y-72942419D01*
X133052180Y-72637657D01*
X133014085Y-72561466D01*
X132937895Y-72523371D01*
X132785514Y-72523371D01*
X132709323Y-72561466D01*
X132671228Y-72637657D01*
X132671228Y-72713847D01*
X133052180Y-72790038D01*
X131985514Y-72523371D02*
X131985514Y-73170990D01*
X132023609Y-73247180D01*
X132061704Y-73285276D01*
X132137895Y-73323371D01*
X132252180Y-73323371D01*
X132328371Y-73285276D01*
X131985514Y-73018609D02*
X132061704Y-73056704D01*
X132214085Y-73056704D01*
X132290276Y-73018609D01*
X132328371Y-72980514D01*
X132366466Y-72904323D01*
X132366466Y-72675752D01*
X132328371Y-72599561D01*
X132290276Y-72561466D01*
X132214085Y-72523371D01*
X132061704Y-72523371D01*
X131985514Y-72561466D01*
X131680752Y-72256704D02*
X131185514Y-72256704D01*
X131452180Y-72561466D01*
X131337895Y-72561466D01*
X131261704Y-72599561D01*
X131223609Y-72637657D01*
X131185514Y-72713847D01*
X131185514Y-72904323D01*
X131223609Y-72980514D01*
X131261704Y-73018609D01*
X131337895Y-73056704D01*
X131566466Y-73056704D01*
X131642657Y-73018609D01*
X131680752Y-72980514D01*
X130309323Y-72523371D02*
X130118847Y-73056704D01*
X129928371Y-72523371D01*
X129204561Y-73056704D02*
X129661704Y-73056704D01*
X129433133Y-73056704D02*
X129433133Y-72256704D01*
X129509323Y-72370990D01*
X129585514Y-72447180D01*
X129661704Y-72485276D01*
D11*
X118863442Y-75626452D02*
X121675182Y-74030380D01*
X124439661Y-78900458D02*
X121627920Y-80496530D01*
X150622504Y-78900458D02*
X153434245Y-80496530D01*
X153386982Y-74030380D02*
X150598873Y-75667383D01*
X156198723Y-75626452D02*
X153386982Y-74030380D01*
X153434245Y-80496530D02*
X156222355Y-78859527D01*
X118839810Y-78859527D02*
X118863442Y-75626452D01*
X124463292Y-75667383D02*
X124439661Y-78900458D01*
X156222355Y-78859527D02*
X156198723Y-75626452D01*
X150598873Y-75667383D02*
X150622504Y-78900458D01*
X121675182Y-74030380D02*
X124463292Y-75667383D01*
X121627920Y-80496530D02*
X118839810Y-78859527D01*
D12*
X144585000Y-92260000D02*
X144585000Y-91410000D01*
X136415000Y-92260000D02*
X144585000Y-92260000D01*
X136415000Y-91410000D02*
X136415000Y-92260000D01*
X144585000Y-87040000D02*
X142260000Y-87040000D01*
X144585000Y-87890000D02*
X144585000Y-87040000D01*
X138740000Y-87040000D02*
X138740000Y-84650000D01*
X136415000Y-87040000D02*
X138740000Y-87040000D01*
X136415000Y-87890000D02*
X136415000Y-87040000D01*
D10*
X140833333Y-92802380D02*
X140833333Y-93516666D01*
X140880952Y-93659523D01*
X140976190Y-93754761D01*
X141119047Y-93802380D01*
X141214285Y-93802380D01*
X139833333Y-93802380D02*
X140404761Y-93802380D01*
X140119047Y-93802380D02*
X140119047Y-92802380D01*
X140214285Y-92945238D01*
X140309523Y-93040476D01*
X140404761Y-93088095D01*
%LPC*%
D13*
G36*
X144474504Y-88151204D02*
G01*
X144498773Y-88154804D01*
X144522571Y-88160765D01*
X144545671Y-88169030D01*
X144567849Y-88179520D01*
X144588893Y-88192133D01*
X144608598Y-88206747D01*
X144626777Y-88223223D01*
X144643253Y-88241402D01*
X144657867Y-88261107D01*
X144670480Y-88282151D01*
X144680970Y-88304329D01*
X144689235Y-88327429D01*
X144695196Y-88351227D01*
X144698796Y-88375496D01*
X144700000Y-88400000D01*
X144700000Y-90900000D01*
X144698796Y-90924504D01*
X144695196Y-90948773D01*
X144689235Y-90972571D01*
X144680970Y-90995671D01*
X144670480Y-91017849D01*
X144657867Y-91038893D01*
X144643253Y-91058598D01*
X144626777Y-91076777D01*
X144608598Y-91093253D01*
X144588893Y-91107867D01*
X144567849Y-91120480D01*
X144545671Y-91130970D01*
X144522571Y-91139235D01*
X144498773Y-91145196D01*
X144474504Y-91148796D01*
X144450000Y-91150000D01*
X143350000Y-91150000D01*
X143325496Y-91148796D01*
X143301227Y-91145196D01*
X143277429Y-91139235D01*
X143254329Y-91130970D01*
X143232151Y-91120480D01*
X143211107Y-91107867D01*
X143191402Y-91093253D01*
X143173223Y-91076777D01*
X143156747Y-91058598D01*
X143142133Y-91038893D01*
X143129520Y-91017849D01*
X143119030Y-90995671D01*
X143110765Y-90972571D01*
X143104804Y-90948773D01*
X143101204Y-90924504D01*
X143100000Y-90900000D01*
X143100000Y-88400000D01*
X143101204Y-88375496D01*
X143104804Y-88351227D01*
X143110765Y-88327429D01*
X143119030Y-88304329D01*
X143129520Y-88282151D01*
X143142133Y-88261107D01*
X143156747Y-88241402D01*
X143173223Y-88223223D01*
X143191402Y-88206747D01*
X143211107Y-88192133D01*
X143232151Y-88179520D01*
X143254329Y-88169030D01*
X143277429Y-88160765D01*
X143301227Y-88154804D01*
X143325496Y-88151204D01*
X143350000Y-88150000D01*
X144450000Y-88150000D01*
X144474504Y-88151204D01*
G37*
G36*
X137674504Y-88151204D02*
G01*
X137698773Y-88154804D01*
X137722571Y-88160765D01*
X137745671Y-88169030D01*
X137767849Y-88179520D01*
X137788893Y-88192133D01*
X137808598Y-88206747D01*
X137826777Y-88223223D01*
X137843253Y-88241402D01*
X137857867Y-88261107D01*
X137870480Y-88282151D01*
X137880970Y-88304329D01*
X137889235Y-88327429D01*
X137895196Y-88351227D01*
X137898796Y-88375496D01*
X137900000Y-88400000D01*
X137900000Y-90900000D01*
X137898796Y-90924504D01*
X137895196Y-90948773D01*
X137889235Y-90972571D01*
X137880970Y-90995671D01*
X137870480Y-91017849D01*
X137857867Y-91038893D01*
X137843253Y-91058598D01*
X137826777Y-91076777D01*
X137808598Y-91093253D01*
X137788893Y-91107867D01*
X137767849Y-91120480D01*
X137745671Y-91130970D01*
X137722571Y-91139235D01*
X137698773Y-91145196D01*
X137674504Y-91148796D01*
X137650000Y-91150000D01*
X136550000Y-91150000D01*
X136525496Y-91148796D01*
X136501227Y-91145196D01*
X136477429Y-91139235D01*
X136454329Y-91130970D01*
X136432151Y-91120480D01*
X136411107Y-91107867D01*
X136391402Y-91093253D01*
X136373223Y-91076777D01*
X136356747Y-91058598D01*
X136342133Y-91038893D01*
X136329520Y-91017849D01*
X136319030Y-90995671D01*
X136310765Y-90972571D01*
X136304804Y-90948773D01*
X136301204Y-90924504D01*
X136300000Y-90900000D01*
X136300000Y-88400000D01*
X136301204Y-88375496D01*
X136304804Y-88351227D01*
X136310765Y-88327429D01*
X136319030Y-88304329D01*
X136329520Y-88282151D01*
X136342133Y-88261107D01*
X136356747Y-88241402D01*
X136373223Y-88223223D01*
X136391402Y-88206747D01*
X136411107Y-88192133D01*
X136432151Y-88179520D01*
X136454329Y-88169030D01*
X136477429Y-88160765D01*
X136501227Y-88154804D01*
X136525496Y-88151204D01*
X136550000Y-88150000D01*
X137650000Y-88150000D01*
X137674504Y-88151204D01*
G37*
G36*
X141774504Y-84651204D02*
G01*
X141798773Y-84654804D01*
X141822571Y-84660765D01*
X141845671Y-84669030D01*
X141867849Y-84679520D01*
X141888893Y-84692133D01*
X141908598Y-84706747D01*
X141926777Y-84723223D01*
X141943253Y-84741402D01*
X141957867Y-84761107D01*
X141970480Y-84782151D01*
X141980970Y-84804329D01*
X141989235Y-84827429D01*
X141995196Y-84851227D01*
X141998796Y-84875496D01*
X142000000Y-84900000D01*
X142000000Y-89900000D01*
X141998796Y-89924504D01*
X141995196Y-89948773D01*
X141989235Y-89972571D01*
X141980970Y-89995671D01*
X141970480Y-90017849D01*
X141957867Y-90038893D01*
X141943253Y-90058598D01*
X141926777Y-90076777D01*
X141908598Y-90093253D01*
X141888893Y-90107867D01*
X141867849Y-90120480D01*
X141845671Y-90130970D01*
X141822571Y-90139235D01*
X141798773Y-90145196D01*
X141774504Y-90148796D01*
X141750000Y-90150000D01*
X141250000Y-90150000D01*
X141225496Y-90148796D01*
X141201227Y-90145196D01*
X141177429Y-90139235D01*
X141154329Y-90130970D01*
X141132151Y-90120480D01*
X141111107Y-90107867D01*
X141091402Y-90093253D01*
X141073223Y-90076777D01*
X141056747Y-90058598D01*
X141042133Y-90038893D01*
X141029520Y-90017849D01*
X141019030Y-89995671D01*
X141010765Y-89972571D01*
X141004804Y-89948773D01*
X141001204Y-89924504D01*
X141000000Y-89900000D01*
X141000000Y-84900000D01*
X141001204Y-84875496D01*
X141004804Y-84851227D01*
X141010765Y-84827429D01*
X141019030Y-84804329D01*
X141029520Y-84782151D01*
X141042133Y-84761107D01*
X141056747Y-84741402D01*
X141073223Y-84723223D01*
X141091402Y-84706747D01*
X141111107Y-84692133D01*
X141132151Y-84679520D01*
X141154329Y-84669030D01*
X141177429Y-84660765D01*
X141201227Y-84654804D01*
X141225496Y-84651204D01*
X141250000Y-84650000D01*
X141750000Y-84650000D01*
X141774504Y-84651204D01*
G37*
G36*
X139774504Y-84651204D02*
G01*
X139798773Y-84654804D01*
X139822571Y-84660765D01*
X139845671Y-84669030D01*
X139867849Y-84679520D01*
X139888893Y-84692133D01*
X139908598Y-84706747D01*
X139926777Y-84723223D01*
X139943253Y-84741402D01*
X139957867Y-84761107D01*
X139970480Y-84782151D01*
X139980970Y-84804329D01*
X139989235Y-84827429D01*
X139995196Y-84851227D01*
X139998796Y-84875496D01*
X140000000Y-84900000D01*
X140000000Y-89900000D01*
X139998796Y-89924504D01*
X139995196Y-89948773D01*
X139989235Y-89972571D01*
X139980970Y-89995671D01*
X139970480Y-90017849D01*
X139957867Y-90038893D01*
X139943253Y-90058598D01*
X139926777Y-90076777D01*
X139908598Y-90093253D01*
X139888893Y-90107867D01*
X139867849Y-90120480D01*
X139845671Y-90130970D01*
X139822571Y-90139235D01*
X139798773Y-90145196D01*
X139774504Y-90148796D01*
X139750000Y-90150000D01*
X139250000Y-90150000D01*
X139225496Y-90148796D01*
X139201227Y-90145196D01*
X139177429Y-90139235D01*
X139154329Y-90130970D01*
X139132151Y-90120480D01*
X139111107Y-90107867D01*
X139091402Y-90093253D01*
X139073223Y-90076777D01*
X139056747Y-90058598D01*
X139042133Y-90038893D01*
X139029520Y-90017849D01*
X139019030Y-89995671D01*
X139010765Y-89972571D01*
X139004804Y-89948773D01*
X139001204Y-89924504D01*
X139000000Y-89900000D01*
X139000000Y-84900000D01*
X139001204Y-84875496D01*
X139004804Y-84851227D01*
X139010765Y-84827429D01*
X139019030Y-84804329D01*
X139029520Y-84782151D01*
X139042133Y-84761107D01*
X139056747Y-84741402D01*
X139073223Y-84723223D01*
X139091402Y-84706747D01*
X139111107Y-84692133D01*
X139132151Y-84679520D01*
X139154329Y-84669030D01*
X139177429Y-84660765D01*
X139201227Y-84654804D01*
X139225496Y-84651204D01*
X139250000Y-84650000D01*
X139750000Y-84650000D01*
X139774504Y-84651204D01*
G37*
D14*
X162630994Y-77536077D03*
X112530535Y-77339131D03*
M02*
