G04 #@! TF.GenerationSoftware,KiCad,Pcbnew,(5.1.5)-3*
G04 #@! TF.CreationDate,2021-10-24T21:59:00+02:00*
G04 #@! TF.ProjectId,seg3,73656733-2e6b-4696-9361-645f70636258,1*
G04 #@! TF.SameCoordinates,Original*
G04 #@! TF.FileFunction,Profile,NP*
%FSLAX46Y46*%
G04 Gerber Fmt 4.6, Leading zero omitted, Abs format (unit mm)*
G04 Created by KiCad (PCBNEW (5.1.5)-3) date 2021-10-24 21:59:00*
%MOMM*%
%LPD*%
G04 APERTURE LIST*
%ADD10C,0.200000*%
G04 APERTURE END LIST*
D10*
X111651561Y-77277622D02*
X134061200Y-101422200D01*
X119133489Y-72289667D02*
X118989485Y-72349313D01*
X118989485Y-72349313D02*
X118849065Y-72409218D01*
X118849065Y-72409218D02*
X118702350Y-72473628D01*
X118702350Y-72473628D02*
X118559201Y-72538255D01*
X118559201Y-72538255D02*
X118420544Y-72602525D01*
X118420544Y-72602525D02*
X118283409Y-72667692D01*
X118283409Y-72667692D02*
X118133276Y-72740855D01*
X118133276Y-72740855D02*
X117992434Y-72811195D01*
X117992434Y-72811195D02*
X117857898Y-72879923D01*
X117857898Y-72879923D02*
X117725767Y-72948869D01*
X117725767Y-72948869D02*
X117594107Y-73018978D01*
X117594107Y-73018978D02*
X117459111Y-73092311D01*
X117459111Y-73092311D02*
X117315138Y-73172118D01*
X117315138Y-73172118D02*
X117184891Y-73245722D01*
X117184891Y-73245722D02*
X117051315Y-73322572D01*
X117051315Y-73322572D02*
X116923804Y-73397210D01*
X116923804Y-73397210D02*
X116796692Y-73472837D01*
X116796692Y-73472837D02*
X116664387Y-73552833D01*
X116664387Y-73552833D02*
X116536209Y-73631560D01*
X116536209Y-73631560D02*
X116409336Y-73710652D01*
X116409336Y-73710652D02*
X116284678Y-73789482D01*
X116284678Y-73789482D02*
X116159447Y-73869766D01*
X116159447Y-73869766D02*
X116036392Y-73949701D01*
X116036392Y-73949701D02*
X115914578Y-74029838D01*
X115914578Y-74029838D02*
X115791254Y-74111967D01*
X115791254Y-74111967D02*
X115656408Y-74202891D01*
X115656408Y-74202891D02*
X115531004Y-74288483D01*
X115531004Y-74288483D02*
X115410432Y-74371691D01*
X115410432Y-74371691D02*
X115291039Y-74454951D01*
X115291039Y-74454951D02*
X115161091Y-74546518D01*
X115161091Y-74546518D02*
X115035046Y-74636262D01*
X115035046Y-74636262D02*
X114917351Y-74720854D01*
X114917351Y-74720854D02*
X114795411Y-74809285D01*
X114795411Y-74809285D02*
X114652260Y-74914085D01*
X114652260Y-74914085D02*
X114530833Y-75003791D01*
X114530833Y-75003791D02*
X114409632Y-75094045D01*
X114409632Y-75094045D02*
X114293975Y-75180810D01*
X114293975Y-75180810D02*
X114174954Y-75270729D01*
X114174954Y-75270729D02*
X114060551Y-75357732D01*
X114060551Y-75357732D02*
X113941010Y-75449230D01*
X113941010Y-75449230D02*
X113806622Y-75552762D01*
X113806622Y-75552762D02*
X113686557Y-75645835D01*
X113686557Y-75645835D02*
X113565768Y-75739986D01*
X113565768Y-75739986D02*
X113449532Y-75831054D01*
X113449532Y-75831054D02*
X113329907Y-75925221D01*
X113329907Y-75925221D02*
X113197242Y-76030148D01*
X113197242Y-76030148D02*
X113074373Y-76127761D01*
X113074373Y-76127761D02*
X112948115Y-76228462D01*
X112948115Y-76228462D02*
X112832480Y-76321018D01*
X112832480Y-76321018D02*
X112720431Y-76410974D01*
X112720431Y-76410974D02*
X112608455Y-76501112D01*
X112608455Y-76501112D02*
X112496544Y-76591413D01*
X112496544Y-76591413D02*
X112384691Y-76681856D01*
X112384691Y-76681856D02*
X112271141Y-76773840D01*
X112271141Y-76773840D02*
X112156765Y-76866643D01*
X112156765Y-76866643D02*
X112028461Y-76970888D01*
X112028461Y-76970888D02*
X111909788Y-77067408D01*
X111909788Y-77067408D02*
X111756242Y-77192386D01*
X111756242Y-77192386D02*
X111651561Y-77277622D01*
X128278072Y-70627012D02*
X128068100Y-70644139D01*
X128068100Y-70644139D02*
X127874395Y-70659997D01*
X127874395Y-70659997D02*
X127674931Y-70676429D01*
X127674931Y-70676429D02*
X127489434Y-70691845D01*
X127489434Y-70691845D02*
X127304007Y-70707430D01*
X127304007Y-70707430D02*
X127114032Y-70723621D01*
X127114032Y-70723621D02*
X126919529Y-70740479D01*
X126919529Y-70740479D02*
X126729787Y-70757244D01*
X126729787Y-70757244D02*
X126542494Y-70774146D01*
X126542494Y-70774146D02*
X126341502Y-70792727D01*
X126341502Y-70792727D02*
X126124560Y-70813354D01*
X126124560Y-70813354D02*
X125940130Y-70831410D01*
X125940130Y-70831410D02*
X125746695Y-70850906D01*
X125746695Y-70850906D02*
X125553503Y-70871000D01*
X125553503Y-70871000D02*
X125369752Y-70890738D01*
X125369752Y-70890738D02*
X125186255Y-70911099D01*
X125186255Y-70911099D02*
X125003023Y-70932124D01*
X125003023Y-70932124D02*
X124820077Y-70953853D01*
X124820077Y-70953853D02*
X124636290Y-70976465D01*
X124636290Y-70976465D02*
X124455103Y-70999578D01*
X124455103Y-70999578D02*
X124273105Y-71023653D01*
X124273105Y-71023653D02*
X124091455Y-71048591D01*
X124091455Y-71048591D02*
X123912434Y-71074104D01*
X123912434Y-71074104D02*
X123728136Y-71101384D01*
X123728136Y-71101384D02*
X123541997Y-71130038D01*
X123541997Y-71130038D02*
X123368663Y-71157761D01*
X123368663Y-71157761D02*
X123188995Y-71187604D01*
X123188995Y-71187604D02*
X123009773Y-71218548D01*
X123009773Y-71218548D02*
X122839936Y-71249000D01*
X122839936Y-71249000D02*
X122668304Y-71280937D01*
X122668304Y-71280937D02*
X122492688Y-71314875D01*
X122492688Y-71314875D02*
X122321991Y-71349131D01*
X122321991Y-71349131D02*
X122153986Y-71384116D01*
X122153986Y-71384116D02*
X121988668Y-71419818D01*
X121988668Y-71419818D02*
X121811766Y-71459478D01*
X121811766Y-71459478D02*
X121648566Y-71497451D01*
X121648566Y-71497451D02*
X121482598Y-71537478D01*
X121482598Y-71537478D02*
X121321520Y-71577742D01*
X121321520Y-71577742D02*
X121160964Y-71619303D01*
X121160964Y-71619303D02*
X121000946Y-71662194D01*
X121000946Y-71662194D02*
X120839328Y-71707056D01*
X120839328Y-71707056D02*
X120682576Y-71752099D01*
X120682576Y-71752099D02*
X120524249Y-71799172D01*
X120524249Y-71799172D02*
X120351620Y-71852372D01*
X120351620Y-71852372D02*
X120197719Y-71901504D01*
X120197719Y-71901504D02*
X120040186Y-71953511D01*
X120040186Y-71953511D02*
X119888543Y-72005272D01*
X119888543Y-72005272D02*
X119737508Y-72058532D01*
X119737508Y-72058532D02*
X119587091Y-72113319D01*
X119587091Y-72113319D02*
X119441455Y-72168079D01*
X119441455Y-72168079D02*
X119295389Y-72224744D01*
X119295389Y-72224744D02*
X119147893Y-72283798D01*
X119147893Y-72283798D02*
X119133489Y-72289667D01*
X146784093Y-70627012D02*
X128278072Y-70627012D01*
X155892527Y-72506532D02*
X155732822Y-72448736D01*
X155732822Y-72448736D02*
X155581979Y-72394207D01*
X155581979Y-72394207D02*
X155422238Y-72336587D01*
X155422238Y-72336587D02*
X155262463Y-72279148D01*
X155262463Y-72279148D02*
X155102636Y-72221950D01*
X155102636Y-72221950D02*
X154942751Y-72165055D01*
X154942751Y-72165055D02*
X154793902Y-72112436D01*
X154793902Y-72112436D02*
X154640531Y-72058627D01*
X154640531Y-72058627D02*
X154486513Y-72005064D01*
X154486513Y-72005064D02*
X154333512Y-71952383D01*
X154333512Y-71952383D02*
X154182069Y-71900810D01*
X154182069Y-71900810D02*
X154030504Y-71849818D01*
X154030504Y-71849818D02*
X153867095Y-71795603D01*
X153867095Y-71795603D02*
X153709110Y-71743999D01*
X153709110Y-71743999D02*
X153557112Y-71695159D01*
X153557112Y-71695159D02*
X153404949Y-71647114D01*
X153404949Y-71647114D02*
X153243648Y-71597167D01*
X153243648Y-71597167D02*
X153072040Y-71545207D01*
X153072040Y-71545207D02*
X152909179Y-71497083D01*
X152909179Y-71497083D02*
X152749460Y-71451075D01*
X152749460Y-71451075D02*
X152569207Y-71400630D01*
X152569207Y-71400630D02*
X152408969Y-71357166D01*
X152408969Y-71357166D02*
X152242811Y-71313530D01*
X152242811Y-71313530D02*
X152082025Y-71272753D01*
X152082025Y-71272753D02*
X151917548Y-71232569D01*
X151917548Y-71232569D02*
X151751619Y-71193654D01*
X151751619Y-71193654D02*
X151578525Y-71154859D01*
X151578525Y-71154859D02*
X151387917Y-71114339D01*
X151387917Y-71114339D02*
X151302168Y-71096887D01*
X163410594Y-77422199D02*
X163277187Y-77300255D01*
X163277187Y-77300255D02*
X163166441Y-77199114D01*
X163166441Y-77199114D02*
X163053668Y-77096288D01*
X163053668Y-77096288D02*
X162943932Y-76996461D01*
X162943932Y-76996461D02*
X162836426Y-76898954D01*
X162836426Y-76898954D02*
X162727207Y-76800248D01*
X162727207Y-76800248D02*
X162617021Y-76701105D01*
X162617021Y-76701105D02*
X162509782Y-76605096D01*
X162509782Y-76605096D02*
X162395991Y-76503809D01*
X162395991Y-76503809D02*
X162288262Y-76408541D01*
X162288262Y-76408541D02*
X162180256Y-76313695D01*
X162180256Y-76313695D02*
X162070348Y-76217925D01*
X162070348Y-76217925D02*
X161962500Y-76124738D01*
X161962500Y-76124738D02*
X161854300Y-76032086D01*
X161854300Y-76032086D02*
X161740081Y-75935250D01*
X161740081Y-75935250D02*
X161627836Y-75841115D01*
X161627836Y-75841115D02*
X161511885Y-75744998D01*
X161511885Y-75744998D02*
X161399498Y-75652980D01*
X161399498Y-75652980D02*
X161288242Y-75563052D01*
X161288242Y-75563052D02*
X161171524Y-75469998D01*
X161171524Y-75469998D02*
X161059176Y-75381723D01*
X161059176Y-75381723D02*
X160946254Y-75294318D01*
X160946254Y-75294318D02*
X160831053Y-75206554D01*
X160831053Y-75206554D02*
X160710157Y-75116024D01*
X160710157Y-75116024D02*
X160589370Y-75027223D01*
X160589370Y-75027223D02*
X160470388Y-74941394D01*
X160470388Y-74941394D02*
X160353223Y-74858506D01*
X160353223Y-74858506D02*
X160232719Y-74774977D01*
X160232719Y-74774977D02*
X160109666Y-74691511D01*
X160109666Y-74691511D02*
X160085304Y-74675207D01*
X151302168Y-71096887D02*
X151130992Y-71063490D01*
X151130992Y-71063490D02*
X150961624Y-71032285D01*
X150961624Y-71032285D02*
X150783203Y-71001300D01*
X150783203Y-71001300D02*
X150610964Y-70973136D01*
X150610964Y-70973136D02*
X150427471Y-70944922D01*
X150427471Y-70944922D02*
X150252394Y-70919638D01*
X150252394Y-70919638D02*
X150067144Y-70894525D01*
X150067144Y-70894525D02*
X149887074Y-70871638D01*
X149887074Y-70871638D02*
X149707823Y-70850259D01*
X149707823Y-70850259D02*
X149525005Y-70829804D01*
X149525005Y-70829804D02*
X149337520Y-70810152D01*
X149337520Y-70810152D02*
X149155307Y-70792240D01*
X149155307Y-70792240D02*
X148968458Y-70775000D01*
X148968458Y-70775000D02*
X148780291Y-70758695D01*
X148780291Y-70758695D02*
X148595252Y-70743602D01*
X148595252Y-70743602D02*
X148405609Y-70729012D01*
X148405609Y-70729012D02*
X148212477Y-70714970D01*
X148212477Y-70714970D02*
X147990306Y-70699700D01*
X147990306Y-70699700D02*
X147794660Y-70686925D01*
X147794660Y-70686925D02*
X147598909Y-70674665D01*
X147598909Y-70674665D02*
X147398623Y-70662557D01*
X147398623Y-70662557D02*
X147202166Y-70651003D01*
X147202166Y-70651003D02*
X146988965Y-70638707D01*
X146988965Y-70638707D02*
X146784093Y-70627012D01*
X160085304Y-74675207D02*
X159964816Y-74595641D01*
X159964816Y-74595641D02*
X159841602Y-74516049D01*
X159841602Y-74516049D02*
X159715163Y-74436140D01*
X159715163Y-74436140D02*
X159590373Y-74358937D01*
X159590373Y-74358937D02*
X159460412Y-74280198D01*
X159460412Y-74280198D02*
X159333150Y-74204653D01*
X159333150Y-74204653D02*
X159203699Y-74129303D01*
X159203699Y-74129303D02*
X159075562Y-74056126D01*
X159075562Y-74056126D02*
X158946282Y-73983634D01*
X158946282Y-73983634D02*
X158814366Y-73910973D01*
X158814366Y-73910973D02*
X158683366Y-73840048D01*
X158683366Y-73840048D02*
X158549765Y-73768905D01*
X158549765Y-73768905D02*
X158417139Y-73699397D01*
X158417139Y-73699397D02*
X158279897Y-73628568D01*
X158279897Y-73628568D02*
X158144196Y-73559560D01*
X158144196Y-73559560D02*
X157997690Y-73486120D01*
X157997690Y-73486120D02*
X157856892Y-73416507D01*
X157856892Y-73416507D02*
X157715661Y-73347556D01*
X157715661Y-73347556D02*
X157576110Y-73280217D01*
X157576110Y-73280217D02*
X157440380Y-73215413D01*
X157440380Y-73215413D02*
X157300144Y-73149109D01*
X157300144Y-73149109D02*
X157163806Y-73085223D01*
X157163806Y-73085223D02*
X157020900Y-73018806D01*
X157020900Y-73018806D02*
X156881959Y-72954702D01*
X156881959Y-72954702D02*
X156740702Y-72889944D01*
X156740702Y-72889944D02*
X156595038Y-72823543D01*
X156595038Y-72823543D02*
X156430187Y-72748770D01*
X156430187Y-72748770D02*
X156286338Y-72683775D01*
X156286338Y-72683775D02*
X156121233Y-72609384D01*
X156121233Y-72609384D02*
X155977239Y-72544614D01*
X155977239Y-72544614D02*
X155892527Y-72506532D01*
X148519032Y-101422200D02*
X163410594Y-77422199D01*
X134061200Y-101422200D02*
X148519032Y-101422200D01*
M02*
