G04 #@! TF.GenerationSoftware,KiCad,Pcbnew,(5.1.5)-3*
G04 #@! TF.CreationDate,2021-10-24T21:59:00+02:00*
G04 #@! TF.ProjectId,seg3,73656733-2e6b-4696-9361-645f70636258,1*
G04 #@! TF.SameCoordinates,Original*
G04 #@! TF.FileFunction,Soldermask,Bot*
G04 #@! TF.FilePolarity,Negative*
%FSLAX46Y46*%
G04 Gerber Fmt 4.6, Leading zero omitted, Abs format (unit mm)*
G04 Created by KiCad (PCBNEW (5.1.5)-3) date 2021-10-24 21:59:00*
%MOMM*%
%LPD*%
G04 APERTURE LIST*
%ADD10C,0.152400*%
G04 APERTURE END LIST*
D10*
G36*
X144526834Y-88154374D02*
G01*
X144567139Y-88166599D01*
X144604275Y-88186449D01*
X144636832Y-88213168D01*
X144663551Y-88245725D01*
X144683401Y-88282861D01*
X144695626Y-88323166D01*
X144700000Y-88367568D01*
X144700000Y-90932432D01*
X144695626Y-90976834D01*
X144683401Y-91017139D01*
X144663551Y-91054275D01*
X144636832Y-91086832D01*
X144604275Y-91113551D01*
X144567139Y-91133401D01*
X144526834Y-91145626D01*
X144482432Y-91150000D01*
X143317568Y-91150000D01*
X143273166Y-91145626D01*
X143232861Y-91133401D01*
X143195725Y-91113551D01*
X143163168Y-91086832D01*
X143136449Y-91054275D01*
X143116599Y-91017139D01*
X143104374Y-90976834D01*
X143100000Y-90932432D01*
X143100000Y-88367568D01*
X143104374Y-88323166D01*
X143116599Y-88282861D01*
X143136449Y-88245725D01*
X143163168Y-88213168D01*
X143195725Y-88186449D01*
X143232861Y-88166599D01*
X143273166Y-88154374D01*
X143317568Y-88150000D01*
X144482432Y-88150000D01*
X144526834Y-88154374D01*
G37*
G36*
X137726834Y-88154374D02*
G01*
X137767139Y-88166599D01*
X137804275Y-88186449D01*
X137836832Y-88213168D01*
X137863551Y-88245725D01*
X137883401Y-88282861D01*
X137895626Y-88323166D01*
X137900000Y-88367568D01*
X137900000Y-90932432D01*
X137895626Y-90976834D01*
X137883401Y-91017139D01*
X137863551Y-91054275D01*
X137836832Y-91086832D01*
X137804275Y-91113551D01*
X137767139Y-91133401D01*
X137726834Y-91145626D01*
X137682432Y-91150000D01*
X136517568Y-91150000D01*
X136473166Y-91145626D01*
X136432861Y-91133401D01*
X136395725Y-91113551D01*
X136363168Y-91086832D01*
X136336449Y-91054275D01*
X136316599Y-91017139D01*
X136304374Y-90976834D01*
X136300000Y-90932432D01*
X136300000Y-88367568D01*
X136304374Y-88323166D01*
X136316599Y-88282861D01*
X136336449Y-88245725D01*
X136363168Y-88213168D01*
X136395725Y-88186449D01*
X136432861Y-88166599D01*
X136473166Y-88154374D01*
X136517568Y-88150000D01*
X137682432Y-88150000D01*
X137726834Y-88154374D01*
G37*
G36*
X141819166Y-84654556D02*
G01*
X141861258Y-84667325D01*
X141900043Y-84688056D01*
X141934043Y-84715957D01*
X141961944Y-84749957D01*
X141982675Y-84788742D01*
X141995444Y-84830834D01*
X142000000Y-84877092D01*
X142000000Y-89922908D01*
X141995444Y-89969166D01*
X141982675Y-90011258D01*
X141961944Y-90050043D01*
X141934043Y-90084043D01*
X141900043Y-90111944D01*
X141861258Y-90132675D01*
X141819166Y-90145444D01*
X141772908Y-90150000D01*
X141227092Y-90150000D01*
X141180834Y-90145444D01*
X141138742Y-90132675D01*
X141099957Y-90111944D01*
X141065957Y-90084043D01*
X141038056Y-90050043D01*
X141017325Y-90011258D01*
X141004556Y-89969166D01*
X141000000Y-89922908D01*
X141000000Y-84877092D01*
X141004556Y-84830834D01*
X141017325Y-84788742D01*
X141038056Y-84749957D01*
X141065957Y-84715957D01*
X141099957Y-84688056D01*
X141138742Y-84667325D01*
X141180834Y-84654556D01*
X141227092Y-84650000D01*
X141772908Y-84650000D01*
X141819166Y-84654556D01*
G37*
G36*
X139819166Y-84654556D02*
G01*
X139861258Y-84667325D01*
X139900043Y-84688056D01*
X139934043Y-84715957D01*
X139961944Y-84749957D01*
X139982675Y-84788742D01*
X139995444Y-84830834D01*
X140000000Y-84877092D01*
X140000000Y-89922908D01*
X139995444Y-89969166D01*
X139982675Y-90011258D01*
X139961944Y-90050043D01*
X139934043Y-90084043D01*
X139900043Y-90111944D01*
X139861258Y-90132675D01*
X139819166Y-90145444D01*
X139772908Y-90150000D01*
X139227092Y-90150000D01*
X139180834Y-90145444D01*
X139138742Y-90132675D01*
X139099957Y-90111944D01*
X139065957Y-90084043D01*
X139038056Y-90050043D01*
X139017325Y-90011258D01*
X139004556Y-89969166D01*
X139000000Y-89922908D01*
X139000000Y-84877092D01*
X139004556Y-84830834D01*
X139017325Y-84788742D01*
X139038056Y-84749957D01*
X139065957Y-84715957D01*
X139099957Y-84688056D01*
X139138742Y-84667325D01*
X139180834Y-84654556D01*
X139227092Y-84650000D01*
X139772908Y-84650000D01*
X139819166Y-84654556D01*
G37*
G36*
X162733085Y-77199527D02*
G01*
X162796781Y-77225911D01*
X162854106Y-77264214D01*
X162902857Y-77312965D01*
X162941160Y-77370290D01*
X162967544Y-77433986D01*
X162980994Y-77501605D01*
X162980994Y-77570549D01*
X162967544Y-77638168D01*
X162941160Y-77701864D01*
X162902857Y-77759189D01*
X162854106Y-77807940D01*
X162796781Y-77846243D01*
X162733085Y-77872627D01*
X162665466Y-77886077D01*
X162596522Y-77886077D01*
X162528903Y-77872627D01*
X162465207Y-77846243D01*
X162407882Y-77807940D01*
X162359131Y-77759189D01*
X162320828Y-77701864D01*
X162294444Y-77638168D01*
X162280994Y-77570549D01*
X162280994Y-77501605D01*
X162294444Y-77433986D01*
X162320828Y-77370290D01*
X162359131Y-77312965D01*
X162407882Y-77264214D01*
X162465207Y-77225911D01*
X162528903Y-77199527D01*
X162596522Y-77186077D01*
X162665466Y-77186077D01*
X162733085Y-77199527D01*
G37*
G36*
X112632626Y-77002581D02*
G01*
X112696322Y-77028965D01*
X112753647Y-77067268D01*
X112802398Y-77116019D01*
X112840701Y-77173344D01*
X112867085Y-77237040D01*
X112880535Y-77304659D01*
X112880535Y-77373603D01*
X112867085Y-77441222D01*
X112840701Y-77504918D01*
X112802398Y-77562243D01*
X112753647Y-77610994D01*
X112696322Y-77649297D01*
X112632626Y-77675681D01*
X112565007Y-77689131D01*
X112496063Y-77689131D01*
X112428444Y-77675681D01*
X112364748Y-77649297D01*
X112307423Y-77610994D01*
X112258672Y-77562243D01*
X112220369Y-77504918D01*
X112193985Y-77441222D01*
X112180535Y-77373603D01*
X112180535Y-77304659D01*
X112193985Y-77237040D01*
X112220369Y-77173344D01*
X112258672Y-77116019D01*
X112307423Y-77067268D01*
X112364748Y-77028965D01*
X112428444Y-77002581D01*
X112496063Y-76989131D01*
X112565007Y-76989131D01*
X112632626Y-77002581D01*
G37*
M02*
