G04 #@! TF.GenerationSoftware,KiCad,Pcbnew,(5.1.5)-3*
G04 #@! TF.CreationDate,2021-10-24T21:59:30+02:00*
G04 #@! TF.ProjectId,seg4,73656734-2e6b-4696-9361-645f70636258,1*
G04 #@! TF.SameCoordinates,Original*
G04 #@! TF.FileFunction,Copper,L2,Bot*
G04 #@! TF.FilePolarity,Positive*
%FSLAX46Y46*%
G04 Gerber Fmt 4.6, Leading zero omitted, Abs format (unit mm)*
G04 Created by KiCad (PCBNEW (5.1.5)-3) date 2021-10-24 21:59:30*
%MOMM*%
%LPD*%
G04 APERTURE LIST*
%ADD10C,0.152400*%
%ADD11C,0.700000*%
%ADD12C,0.600000*%
G04 APERTURE END LIST*
G04 #@! TA.AperFunction,SMDPad,CuDef*
D10*
G36*
X144474504Y-89151204D02*
G01*
X144498773Y-89154804D01*
X144522571Y-89160765D01*
X144545671Y-89169030D01*
X144567849Y-89179520D01*
X144588893Y-89192133D01*
X144608598Y-89206747D01*
X144626777Y-89223223D01*
X144643253Y-89241402D01*
X144657867Y-89261107D01*
X144670480Y-89282151D01*
X144680970Y-89304329D01*
X144689235Y-89327429D01*
X144695196Y-89351227D01*
X144698796Y-89375496D01*
X144700000Y-89400000D01*
X144700000Y-91900000D01*
X144698796Y-91924504D01*
X144695196Y-91948773D01*
X144689235Y-91972571D01*
X144680970Y-91995671D01*
X144670480Y-92017849D01*
X144657867Y-92038893D01*
X144643253Y-92058598D01*
X144626777Y-92076777D01*
X144608598Y-92093253D01*
X144588893Y-92107867D01*
X144567849Y-92120480D01*
X144545671Y-92130970D01*
X144522571Y-92139235D01*
X144498773Y-92145196D01*
X144474504Y-92148796D01*
X144450000Y-92150000D01*
X143350000Y-92150000D01*
X143325496Y-92148796D01*
X143301227Y-92145196D01*
X143277429Y-92139235D01*
X143254329Y-92130970D01*
X143232151Y-92120480D01*
X143211107Y-92107867D01*
X143191402Y-92093253D01*
X143173223Y-92076777D01*
X143156747Y-92058598D01*
X143142133Y-92038893D01*
X143129520Y-92017849D01*
X143119030Y-91995671D01*
X143110765Y-91972571D01*
X143104804Y-91948773D01*
X143101204Y-91924504D01*
X143100000Y-91900000D01*
X143100000Y-89400000D01*
X143101204Y-89375496D01*
X143104804Y-89351227D01*
X143110765Y-89327429D01*
X143119030Y-89304329D01*
X143129520Y-89282151D01*
X143142133Y-89261107D01*
X143156747Y-89241402D01*
X143173223Y-89223223D01*
X143191402Y-89206747D01*
X143211107Y-89192133D01*
X143232151Y-89179520D01*
X143254329Y-89169030D01*
X143277429Y-89160765D01*
X143301227Y-89154804D01*
X143325496Y-89151204D01*
X143350000Y-89150000D01*
X144450000Y-89150000D01*
X144474504Y-89151204D01*
G37*
G04 #@! TD.AperFunction*
G04 #@! TA.AperFunction,SMDPad,CuDef*
G36*
X137674504Y-89151204D02*
G01*
X137698773Y-89154804D01*
X137722571Y-89160765D01*
X137745671Y-89169030D01*
X137767849Y-89179520D01*
X137788893Y-89192133D01*
X137808598Y-89206747D01*
X137826777Y-89223223D01*
X137843253Y-89241402D01*
X137857867Y-89261107D01*
X137870480Y-89282151D01*
X137880970Y-89304329D01*
X137889235Y-89327429D01*
X137895196Y-89351227D01*
X137898796Y-89375496D01*
X137900000Y-89400000D01*
X137900000Y-91900000D01*
X137898796Y-91924504D01*
X137895196Y-91948773D01*
X137889235Y-91972571D01*
X137880970Y-91995671D01*
X137870480Y-92017849D01*
X137857867Y-92038893D01*
X137843253Y-92058598D01*
X137826777Y-92076777D01*
X137808598Y-92093253D01*
X137788893Y-92107867D01*
X137767849Y-92120480D01*
X137745671Y-92130970D01*
X137722571Y-92139235D01*
X137698773Y-92145196D01*
X137674504Y-92148796D01*
X137650000Y-92150000D01*
X136550000Y-92150000D01*
X136525496Y-92148796D01*
X136501227Y-92145196D01*
X136477429Y-92139235D01*
X136454329Y-92130970D01*
X136432151Y-92120480D01*
X136411107Y-92107867D01*
X136391402Y-92093253D01*
X136373223Y-92076777D01*
X136356747Y-92058598D01*
X136342133Y-92038893D01*
X136329520Y-92017849D01*
X136319030Y-91995671D01*
X136310765Y-91972571D01*
X136304804Y-91948773D01*
X136301204Y-91924504D01*
X136300000Y-91900000D01*
X136300000Y-89400000D01*
X136301204Y-89375496D01*
X136304804Y-89351227D01*
X136310765Y-89327429D01*
X136319030Y-89304329D01*
X136329520Y-89282151D01*
X136342133Y-89261107D01*
X136356747Y-89241402D01*
X136373223Y-89223223D01*
X136391402Y-89206747D01*
X136411107Y-89192133D01*
X136432151Y-89179520D01*
X136454329Y-89169030D01*
X136477429Y-89160765D01*
X136501227Y-89154804D01*
X136525496Y-89151204D01*
X136550000Y-89150000D01*
X137650000Y-89150000D01*
X137674504Y-89151204D01*
G37*
G04 #@! TD.AperFunction*
G04 #@! TA.AperFunction,SMDPad,CuDef*
G36*
X141774504Y-85651204D02*
G01*
X141798773Y-85654804D01*
X141822571Y-85660765D01*
X141845671Y-85669030D01*
X141867849Y-85679520D01*
X141888893Y-85692133D01*
X141908598Y-85706747D01*
X141926777Y-85723223D01*
X141943253Y-85741402D01*
X141957867Y-85761107D01*
X141970480Y-85782151D01*
X141980970Y-85804329D01*
X141989235Y-85827429D01*
X141995196Y-85851227D01*
X141998796Y-85875496D01*
X142000000Y-85900000D01*
X142000000Y-90900000D01*
X141998796Y-90924504D01*
X141995196Y-90948773D01*
X141989235Y-90972571D01*
X141980970Y-90995671D01*
X141970480Y-91017849D01*
X141957867Y-91038893D01*
X141943253Y-91058598D01*
X141926777Y-91076777D01*
X141908598Y-91093253D01*
X141888893Y-91107867D01*
X141867849Y-91120480D01*
X141845671Y-91130970D01*
X141822571Y-91139235D01*
X141798773Y-91145196D01*
X141774504Y-91148796D01*
X141750000Y-91150000D01*
X141250000Y-91150000D01*
X141225496Y-91148796D01*
X141201227Y-91145196D01*
X141177429Y-91139235D01*
X141154329Y-91130970D01*
X141132151Y-91120480D01*
X141111107Y-91107867D01*
X141091402Y-91093253D01*
X141073223Y-91076777D01*
X141056747Y-91058598D01*
X141042133Y-91038893D01*
X141029520Y-91017849D01*
X141019030Y-90995671D01*
X141010765Y-90972571D01*
X141004804Y-90948773D01*
X141001204Y-90924504D01*
X141000000Y-90900000D01*
X141000000Y-85900000D01*
X141001204Y-85875496D01*
X141004804Y-85851227D01*
X141010765Y-85827429D01*
X141019030Y-85804329D01*
X141029520Y-85782151D01*
X141042133Y-85761107D01*
X141056747Y-85741402D01*
X141073223Y-85723223D01*
X141091402Y-85706747D01*
X141111107Y-85692133D01*
X141132151Y-85679520D01*
X141154329Y-85669030D01*
X141177429Y-85660765D01*
X141201227Y-85654804D01*
X141225496Y-85651204D01*
X141250000Y-85650000D01*
X141750000Y-85650000D01*
X141774504Y-85651204D01*
G37*
G04 #@! TD.AperFunction*
G04 #@! TA.AperFunction,SMDPad,CuDef*
G36*
X139774504Y-85651204D02*
G01*
X139798773Y-85654804D01*
X139822571Y-85660765D01*
X139845671Y-85669030D01*
X139867849Y-85679520D01*
X139888893Y-85692133D01*
X139908598Y-85706747D01*
X139926777Y-85723223D01*
X139943253Y-85741402D01*
X139957867Y-85761107D01*
X139970480Y-85782151D01*
X139980970Y-85804329D01*
X139989235Y-85827429D01*
X139995196Y-85851227D01*
X139998796Y-85875496D01*
X140000000Y-85900000D01*
X140000000Y-90900000D01*
X139998796Y-90924504D01*
X139995196Y-90948773D01*
X139989235Y-90972571D01*
X139980970Y-90995671D01*
X139970480Y-91017849D01*
X139957867Y-91038893D01*
X139943253Y-91058598D01*
X139926777Y-91076777D01*
X139908598Y-91093253D01*
X139888893Y-91107867D01*
X139867849Y-91120480D01*
X139845671Y-91130970D01*
X139822571Y-91139235D01*
X139798773Y-91145196D01*
X139774504Y-91148796D01*
X139750000Y-91150000D01*
X139250000Y-91150000D01*
X139225496Y-91148796D01*
X139201227Y-91145196D01*
X139177429Y-91139235D01*
X139154329Y-91130970D01*
X139132151Y-91120480D01*
X139111107Y-91107867D01*
X139091402Y-91093253D01*
X139073223Y-91076777D01*
X139056747Y-91058598D01*
X139042133Y-91038893D01*
X139029520Y-91017849D01*
X139019030Y-90995671D01*
X139010765Y-90972571D01*
X139004804Y-90948773D01*
X139001204Y-90924504D01*
X139000000Y-90900000D01*
X139000000Y-85900000D01*
X139001204Y-85875496D01*
X139004804Y-85851227D01*
X139010765Y-85827429D01*
X139019030Y-85804329D01*
X139029520Y-85782151D01*
X139042133Y-85761107D01*
X139056747Y-85741402D01*
X139073223Y-85723223D01*
X139091402Y-85706747D01*
X139111107Y-85692133D01*
X139132151Y-85679520D01*
X139154329Y-85669030D01*
X139177429Y-85660765D01*
X139201227Y-85654804D01*
X139225496Y-85651204D01*
X139250000Y-85650000D01*
X139750000Y-85650000D01*
X139774504Y-85651204D01*
G37*
G04 #@! TD.AperFunction*
D11*
X167855555Y-88895998D03*
X113199407Y-88895998D03*
D12*
X167704442Y-88744885D02*
X167855555Y-88895998D01*
X141500000Y-88400000D02*
X167141017Y-88400000D01*
X167141017Y-88400000D02*
X167704442Y-88744885D01*
X113350520Y-88744885D02*
X113199407Y-88895998D01*
X139500000Y-88400000D02*
X113913946Y-88400000D01*
X113913946Y-88400000D02*
X113350520Y-88744885D01*
M02*
