G04 #@! TF.GenerationSoftware,KiCad,Pcbnew,(5.1.5)-3*
G04 #@! TF.CreationDate,2021-10-24T21:59:30+02:00*
G04 #@! TF.ProjectId,seg4,73656734-2e6b-4696-9361-645f70636258,1*
G04 #@! TF.SameCoordinates,Original*
G04 #@! TF.FileFunction,Soldermask,Bot*
G04 #@! TF.FilePolarity,Negative*
%FSLAX46Y46*%
G04 Gerber Fmt 4.6, Leading zero omitted, Abs format (unit mm)*
G04 Created by KiCad (PCBNEW (5.1.5)-3) date 2021-10-24 21:59:30*
%MOMM*%
%LPD*%
G04 APERTURE LIST*
%ADD10C,0.152400*%
G04 APERTURE END LIST*
D10*
G36*
X144526834Y-89154374D02*
G01*
X144567139Y-89166599D01*
X144604275Y-89186449D01*
X144636832Y-89213168D01*
X144663551Y-89245725D01*
X144683401Y-89282861D01*
X144695626Y-89323166D01*
X144700000Y-89367568D01*
X144700000Y-91932432D01*
X144695626Y-91976834D01*
X144683401Y-92017139D01*
X144663551Y-92054275D01*
X144636832Y-92086832D01*
X144604275Y-92113551D01*
X144567139Y-92133401D01*
X144526834Y-92145626D01*
X144482432Y-92150000D01*
X143317568Y-92150000D01*
X143273166Y-92145626D01*
X143232861Y-92133401D01*
X143195725Y-92113551D01*
X143163168Y-92086832D01*
X143136449Y-92054275D01*
X143116599Y-92017139D01*
X143104374Y-91976834D01*
X143100000Y-91932432D01*
X143100000Y-89367568D01*
X143104374Y-89323166D01*
X143116599Y-89282861D01*
X143136449Y-89245725D01*
X143163168Y-89213168D01*
X143195725Y-89186449D01*
X143232861Y-89166599D01*
X143273166Y-89154374D01*
X143317568Y-89150000D01*
X144482432Y-89150000D01*
X144526834Y-89154374D01*
G37*
G36*
X137726834Y-89154374D02*
G01*
X137767139Y-89166599D01*
X137804275Y-89186449D01*
X137836832Y-89213168D01*
X137863551Y-89245725D01*
X137883401Y-89282861D01*
X137895626Y-89323166D01*
X137900000Y-89367568D01*
X137900000Y-91932432D01*
X137895626Y-91976834D01*
X137883401Y-92017139D01*
X137863551Y-92054275D01*
X137836832Y-92086832D01*
X137804275Y-92113551D01*
X137767139Y-92133401D01*
X137726834Y-92145626D01*
X137682432Y-92150000D01*
X136517568Y-92150000D01*
X136473166Y-92145626D01*
X136432861Y-92133401D01*
X136395725Y-92113551D01*
X136363168Y-92086832D01*
X136336449Y-92054275D01*
X136316599Y-92017139D01*
X136304374Y-91976834D01*
X136300000Y-91932432D01*
X136300000Y-89367568D01*
X136304374Y-89323166D01*
X136316599Y-89282861D01*
X136336449Y-89245725D01*
X136363168Y-89213168D01*
X136395725Y-89186449D01*
X136432861Y-89166599D01*
X136473166Y-89154374D01*
X136517568Y-89150000D01*
X137682432Y-89150000D01*
X137726834Y-89154374D01*
G37*
G36*
X141819166Y-85654556D02*
G01*
X141861258Y-85667325D01*
X141900043Y-85688056D01*
X141934043Y-85715957D01*
X141961944Y-85749957D01*
X141982675Y-85788742D01*
X141995444Y-85830834D01*
X142000000Y-85877092D01*
X142000000Y-90922908D01*
X141995444Y-90969166D01*
X141982675Y-91011258D01*
X141961944Y-91050043D01*
X141934043Y-91084043D01*
X141900043Y-91111944D01*
X141861258Y-91132675D01*
X141819166Y-91145444D01*
X141772908Y-91150000D01*
X141227092Y-91150000D01*
X141180834Y-91145444D01*
X141138742Y-91132675D01*
X141099957Y-91111944D01*
X141065957Y-91084043D01*
X141038056Y-91050043D01*
X141017325Y-91011258D01*
X141004556Y-90969166D01*
X141000000Y-90922908D01*
X141000000Y-85877092D01*
X141004556Y-85830834D01*
X141017325Y-85788742D01*
X141038056Y-85749957D01*
X141065957Y-85715957D01*
X141099957Y-85688056D01*
X141138742Y-85667325D01*
X141180834Y-85654556D01*
X141227092Y-85650000D01*
X141772908Y-85650000D01*
X141819166Y-85654556D01*
G37*
G36*
X139819166Y-85654556D02*
G01*
X139861258Y-85667325D01*
X139900043Y-85688056D01*
X139934043Y-85715957D01*
X139961944Y-85749957D01*
X139982675Y-85788742D01*
X139995444Y-85830834D01*
X140000000Y-85877092D01*
X140000000Y-90922908D01*
X139995444Y-90969166D01*
X139982675Y-91011258D01*
X139961944Y-91050043D01*
X139934043Y-91084043D01*
X139900043Y-91111944D01*
X139861258Y-91132675D01*
X139819166Y-91145444D01*
X139772908Y-91150000D01*
X139227092Y-91150000D01*
X139180834Y-91145444D01*
X139138742Y-91132675D01*
X139099957Y-91111944D01*
X139065957Y-91084043D01*
X139038056Y-91050043D01*
X139017325Y-91011258D01*
X139004556Y-90969166D01*
X139000000Y-90922908D01*
X139000000Y-85877092D01*
X139004556Y-85830834D01*
X139017325Y-85788742D01*
X139038056Y-85749957D01*
X139065957Y-85715957D01*
X139099957Y-85688056D01*
X139138742Y-85667325D01*
X139180834Y-85654556D01*
X139227092Y-85650000D01*
X139772908Y-85650000D01*
X139819166Y-85654556D01*
G37*
G36*
X167957646Y-88559448D02*
G01*
X168021342Y-88585832D01*
X168078667Y-88624135D01*
X168127418Y-88672886D01*
X168165721Y-88730211D01*
X168192105Y-88793907D01*
X168205555Y-88861526D01*
X168205555Y-88930470D01*
X168192105Y-88998089D01*
X168165721Y-89061785D01*
X168127418Y-89119110D01*
X168078667Y-89167861D01*
X168021342Y-89206164D01*
X167957646Y-89232548D01*
X167890027Y-89245998D01*
X167821083Y-89245998D01*
X167753464Y-89232548D01*
X167689768Y-89206164D01*
X167632443Y-89167861D01*
X167583692Y-89119110D01*
X167545389Y-89061785D01*
X167519005Y-88998089D01*
X167505555Y-88930470D01*
X167505555Y-88861526D01*
X167519005Y-88793907D01*
X167545389Y-88730211D01*
X167583692Y-88672886D01*
X167632443Y-88624135D01*
X167689768Y-88585832D01*
X167753464Y-88559448D01*
X167821083Y-88545998D01*
X167890027Y-88545998D01*
X167957646Y-88559448D01*
G37*
G36*
X113301498Y-88559448D02*
G01*
X113365194Y-88585832D01*
X113422519Y-88624135D01*
X113471270Y-88672886D01*
X113509573Y-88730211D01*
X113535957Y-88793907D01*
X113549407Y-88861526D01*
X113549407Y-88930470D01*
X113535957Y-88998089D01*
X113509573Y-89061785D01*
X113471270Y-89119110D01*
X113422519Y-89167861D01*
X113365194Y-89206164D01*
X113301498Y-89232548D01*
X113233879Y-89245998D01*
X113164935Y-89245998D01*
X113097316Y-89232548D01*
X113033620Y-89206164D01*
X112976295Y-89167861D01*
X112927544Y-89119110D01*
X112889241Y-89061785D01*
X112862857Y-88998089D01*
X112849407Y-88930470D01*
X112849407Y-88861526D01*
X112862857Y-88793907D01*
X112889241Y-88730211D01*
X112927544Y-88672886D01*
X112976295Y-88624135D01*
X113033620Y-88585832D01*
X113097316Y-88559448D01*
X113164935Y-88545998D01*
X113233879Y-88545998D01*
X113301498Y-88559448D01*
G37*
M02*
