G04 #@! TF.GenerationSoftware,KiCad,Pcbnew,(5.1.5)-3*
G04 #@! TF.CreationDate,2021-10-24T21:59:30+02:00*
G04 #@! TF.ProjectId,seg4,73656734-2e6b-4696-9361-645f70636258,1*
G04 #@! TF.SameCoordinates,Original*
G04 #@! TF.FileFunction,Soldermask,Top*
G04 #@! TF.FilePolarity,Negative*
%FSLAX46Y46*%
G04 Gerber Fmt 4.6, Leading zero omitted, Abs format (unit mm)*
G04 Created by KiCad (PCBNEW (5.1.5)-3) date 2021-10-24 21:59:30*
%MOMM*%
%LPD*%
G04 APERTURE LIST*
%ADD10C,0.152400*%
G04 APERTURE END LIST*
D10*
G36*
X167957646Y-88559448D02*
G01*
X168021342Y-88585832D01*
X168078667Y-88624135D01*
X168127418Y-88672886D01*
X168165721Y-88730211D01*
X168192105Y-88793907D01*
X168205555Y-88861526D01*
X168205555Y-88930470D01*
X168192105Y-88998089D01*
X168165721Y-89061785D01*
X168127418Y-89119110D01*
X168078667Y-89167861D01*
X168021342Y-89206164D01*
X167957646Y-89232548D01*
X167890027Y-89245998D01*
X167821083Y-89245998D01*
X167753464Y-89232548D01*
X167689768Y-89206164D01*
X167632443Y-89167861D01*
X167583692Y-89119110D01*
X167545389Y-89061785D01*
X167519005Y-88998089D01*
X167505555Y-88930470D01*
X167505555Y-88861526D01*
X167519005Y-88793907D01*
X167545389Y-88730211D01*
X167583692Y-88672886D01*
X167632443Y-88624135D01*
X167689768Y-88585832D01*
X167753464Y-88559448D01*
X167821083Y-88545998D01*
X167890027Y-88545998D01*
X167957646Y-88559448D01*
G37*
G36*
X113301498Y-88559448D02*
G01*
X113365194Y-88585832D01*
X113422519Y-88624135D01*
X113471270Y-88672886D01*
X113509573Y-88730211D01*
X113535957Y-88793907D01*
X113549407Y-88861526D01*
X113549407Y-88930470D01*
X113535957Y-88998089D01*
X113509573Y-89061785D01*
X113471270Y-89119110D01*
X113422519Y-89167861D01*
X113365194Y-89206164D01*
X113301498Y-89232548D01*
X113233879Y-89245998D01*
X113164935Y-89245998D01*
X113097316Y-89232548D01*
X113033620Y-89206164D01*
X112976295Y-89167861D01*
X112927544Y-89119110D01*
X112889241Y-89061785D01*
X112862857Y-88998089D01*
X112849407Y-88930470D01*
X112849407Y-88861526D01*
X112862857Y-88793907D01*
X112889241Y-88730211D01*
X112927544Y-88672886D01*
X112976295Y-88624135D01*
X113033620Y-88585832D01*
X113097316Y-88559448D01*
X113164935Y-88545998D01*
X113233879Y-88545998D01*
X113301498Y-88559448D01*
G37*
M02*
