G04 #@! TF.GenerationSoftware,KiCad,Pcbnew,(5.1.5)-3*
G04 #@! TF.CreationDate,2021-10-24T21:59:30+02:00*
G04 #@! TF.ProjectId,seg4,73656734-2e6b-4696-9361-645f70636258,1*
G04 #@! TF.SameCoordinates,Original*
G04 #@! TF.FileFunction,Legend,Bot*
G04 #@! TF.FilePolarity,Positive*
%FSLAX46Y46*%
G04 Gerber Fmt 4.6, Leading zero omitted, Abs format (unit mm)*
G04 Created by KiCad (PCBNEW (5.1.5)-3) date 2021-10-24 21:59:30*
%MOMM*%
%LPD*%
G04 APERTURE LIST*
%ADD10C,0.150000*%
%ADD11C,0.200000*%
%ADD12C,0.120000*%
%ADD13C,0.152400*%
%ADD14C,0.700000*%
G04 APERTURE END LIST*
D10*
X149306428Y-78949571D02*
X149001666Y-78949571D01*
X149192142Y-78682904D02*
X149192142Y-79368619D01*
X149154047Y-79444809D01*
X149077857Y-79482904D01*
X149001666Y-79482904D01*
X148735000Y-79482904D02*
X148735000Y-78682904D01*
X148392142Y-79482904D02*
X148392142Y-79063857D01*
X148430238Y-78987666D01*
X148506428Y-78949571D01*
X148620714Y-78949571D01*
X148696904Y-78987666D01*
X148735000Y-79025761D01*
X147706428Y-79444809D02*
X147782619Y-79482904D01*
X147935000Y-79482904D01*
X148011190Y-79444809D01*
X148049285Y-79368619D01*
X148049285Y-79063857D01*
X148011190Y-78987666D01*
X147935000Y-78949571D01*
X147782619Y-78949571D01*
X147706428Y-78987666D01*
X147668333Y-79063857D01*
X147668333Y-79140047D01*
X148049285Y-79216238D01*
X147325476Y-79482904D02*
X147325476Y-78949571D01*
X147325476Y-79101952D02*
X147287380Y-79025761D01*
X147249285Y-78987666D01*
X147173095Y-78949571D01*
X147096904Y-78949571D01*
X146830238Y-79482904D02*
X146830238Y-78949571D01*
X146830238Y-79025761D02*
X146792142Y-78987666D01*
X146715952Y-78949571D01*
X146601666Y-78949571D01*
X146525476Y-78987666D01*
X146487380Y-79063857D01*
X146487380Y-79482904D01*
X146487380Y-79063857D02*
X146449285Y-78987666D01*
X146373095Y-78949571D01*
X146258809Y-78949571D01*
X146182619Y-78987666D01*
X146144523Y-79063857D01*
X146144523Y-79482904D01*
X145649285Y-79482904D02*
X145725476Y-79444809D01*
X145763571Y-79406714D01*
X145801666Y-79330523D01*
X145801666Y-79101952D01*
X145763571Y-79025761D01*
X145725476Y-78987666D01*
X145649285Y-78949571D01*
X145535000Y-78949571D01*
X145458809Y-78987666D01*
X145420714Y-79025761D01*
X145382619Y-79101952D01*
X145382619Y-79330523D01*
X145420714Y-79406714D01*
X145458809Y-79444809D01*
X145535000Y-79482904D01*
X145649285Y-79482904D01*
X144696904Y-79444809D02*
X144773095Y-79482904D01*
X144925476Y-79482904D01*
X145001666Y-79444809D01*
X145039761Y-79406714D01*
X145077857Y-79330523D01*
X145077857Y-79101952D01*
X145039761Y-79025761D01*
X145001666Y-78987666D01*
X144925476Y-78949571D01*
X144773095Y-78949571D01*
X144696904Y-78987666D01*
X144354047Y-79482904D02*
X144354047Y-78682904D01*
X144011190Y-79482904D02*
X144011190Y-79063857D01*
X144049285Y-78987666D01*
X144125476Y-78949571D01*
X144239761Y-78949571D01*
X144315952Y-78987666D01*
X144354047Y-79025761D01*
X143630238Y-79482904D02*
X143630238Y-78949571D01*
X143630238Y-79101952D02*
X143592142Y-79025761D01*
X143554047Y-78987666D01*
X143477857Y-78949571D01*
X143401666Y-78949571D01*
X143020714Y-79482904D02*
X143096904Y-79444809D01*
X143135000Y-79406714D01*
X143173095Y-79330523D01*
X143173095Y-79101952D01*
X143135000Y-79025761D01*
X143096904Y-78987666D01*
X143020714Y-78949571D01*
X142906428Y-78949571D01*
X142830238Y-78987666D01*
X142792142Y-79025761D01*
X142754047Y-79101952D01*
X142754047Y-79330523D01*
X142792142Y-79406714D01*
X142830238Y-79444809D01*
X142906428Y-79482904D01*
X143020714Y-79482904D01*
X142411190Y-79482904D02*
X142411190Y-78949571D01*
X142411190Y-79025761D02*
X142373095Y-78987666D01*
X142296904Y-78949571D01*
X142182619Y-78949571D01*
X142106428Y-78987666D01*
X142068333Y-79063857D01*
X142068333Y-79482904D01*
X142068333Y-79063857D02*
X142030238Y-78987666D01*
X141954047Y-78949571D01*
X141839761Y-78949571D01*
X141763571Y-78987666D01*
X141725476Y-79063857D01*
X141725476Y-79482904D01*
X141344523Y-79482904D02*
X141344523Y-78949571D01*
X141344523Y-78682904D02*
X141382619Y-78721000D01*
X141344523Y-78759095D01*
X141306428Y-78721000D01*
X141344523Y-78682904D01*
X141344523Y-78759095D01*
X140620714Y-79444809D02*
X140696904Y-79482904D01*
X140849285Y-79482904D01*
X140925476Y-79444809D01*
X140963571Y-79406714D01*
X141001666Y-79330523D01*
X141001666Y-79101952D01*
X140963571Y-79025761D01*
X140925476Y-78987666D01*
X140849285Y-78949571D01*
X140696904Y-78949571D01*
X140620714Y-78987666D01*
X139325476Y-79444809D02*
X139401666Y-79482904D01*
X139554047Y-79482904D01*
X139630238Y-79444809D01*
X139668333Y-79406714D01*
X139706428Y-79330523D01*
X139706428Y-79101952D01*
X139668333Y-79025761D01*
X139630238Y-78987666D01*
X139554047Y-78949571D01*
X139401666Y-78949571D01*
X139325476Y-78987666D01*
X138868333Y-79482904D02*
X138944523Y-79444809D01*
X138982619Y-79368619D01*
X138982619Y-78682904D01*
X138449285Y-79482904D02*
X138525476Y-79444809D01*
X138563571Y-79406714D01*
X138601666Y-79330523D01*
X138601666Y-79101952D01*
X138563571Y-79025761D01*
X138525476Y-78987666D01*
X138449285Y-78949571D01*
X138335000Y-78949571D01*
X138258809Y-78987666D01*
X138220714Y-79025761D01*
X138182619Y-79101952D01*
X138182619Y-79330523D01*
X138220714Y-79406714D01*
X138258809Y-79444809D01*
X138335000Y-79482904D01*
X138449285Y-79482904D01*
X137496904Y-79444809D02*
X137573095Y-79482904D01*
X137725476Y-79482904D01*
X137801666Y-79444809D01*
X137839761Y-79406714D01*
X137877857Y-79330523D01*
X137877857Y-79101952D01*
X137839761Y-79025761D01*
X137801666Y-78987666D01*
X137725476Y-78949571D01*
X137573095Y-78949571D01*
X137496904Y-78987666D01*
X137154047Y-79482904D02*
X137154047Y-78682904D01*
X137077857Y-79178142D02*
X136849285Y-79482904D01*
X136849285Y-78949571D02*
X137154047Y-79254333D01*
X135935000Y-79444809D02*
X135858809Y-79482904D01*
X135706428Y-79482904D01*
X135630238Y-79444809D01*
X135592142Y-79368619D01*
X135592142Y-79330523D01*
X135630238Y-79254333D01*
X135706428Y-79216238D01*
X135820714Y-79216238D01*
X135896904Y-79178142D01*
X135935000Y-79101952D01*
X135935000Y-79063857D01*
X135896904Y-78987666D01*
X135820714Y-78949571D01*
X135706428Y-78949571D01*
X135630238Y-78987666D01*
X134944523Y-79444809D02*
X135020714Y-79482904D01*
X135173095Y-79482904D01*
X135249285Y-79444809D01*
X135287380Y-79368619D01*
X135287380Y-79063857D01*
X135249285Y-78987666D01*
X135173095Y-78949571D01*
X135020714Y-78949571D01*
X134944523Y-78987666D01*
X134906428Y-79063857D01*
X134906428Y-79140047D01*
X135287380Y-79216238D01*
X134220714Y-78949571D02*
X134220714Y-79597190D01*
X134258809Y-79673380D01*
X134296904Y-79711476D01*
X134373095Y-79749571D01*
X134487380Y-79749571D01*
X134563571Y-79711476D01*
X134220714Y-79444809D02*
X134296904Y-79482904D01*
X134449285Y-79482904D01*
X134525476Y-79444809D01*
X134563571Y-79406714D01*
X134601666Y-79330523D01*
X134601666Y-79101952D01*
X134563571Y-79025761D01*
X134525476Y-78987666D01*
X134449285Y-78949571D01*
X134296904Y-78949571D01*
X134220714Y-78987666D01*
X133496904Y-78949571D02*
X133496904Y-79482904D01*
X133687380Y-78644809D02*
X133877857Y-79216238D01*
X133382619Y-79216238D01*
X132544523Y-78949571D02*
X132354047Y-79482904D01*
X132163571Y-78949571D01*
X131439761Y-79482904D02*
X131896904Y-79482904D01*
X131668333Y-79482904D02*
X131668333Y-78682904D01*
X131744523Y-78797190D01*
X131820714Y-78873380D01*
X131896904Y-78911476D01*
D11*
X161756325Y-90654200D02*
X161859902Y-87422698D01*
X156262776Y-87243298D02*
X156159200Y-90474800D01*
X158905974Y-92180251D02*
X161756325Y-90654200D01*
X121941837Y-85717247D02*
X124792188Y-87243298D01*
X119195063Y-87422698D02*
X121941837Y-85717247D01*
X161859902Y-87422698D02*
X159113128Y-85717247D01*
X124895765Y-90474800D02*
X122148991Y-92180251D01*
X124792188Y-87243298D02*
X124895765Y-90474800D01*
X122148991Y-92180251D02*
X119298640Y-90654200D01*
X159113128Y-85717247D02*
X156262776Y-87243298D01*
X119298640Y-90654200D02*
X119195063Y-87422698D01*
X156159200Y-90474800D02*
X158905974Y-92180251D01*
D12*
X144585000Y-93260000D02*
X144585000Y-92410000D01*
X136415000Y-93260000D02*
X144585000Y-93260000D01*
X136415000Y-92410000D02*
X136415000Y-93260000D01*
X144585000Y-88040000D02*
X142260000Y-88040000D01*
X144585000Y-88890000D02*
X144585000Y-88040000D01*
X138740000Y-88040000D02*
X138740000Y-85650000D01*
X136415000Y-88040000D02*
X138740000Y-88040000D01*
X136415000Y-88890000D02*
X136415000Y-88040000D01*
D10*
X140833333Y-93802380D02*
X140833333Y-94516666D01*
X140880952Y-94659523D01*
X140976190Y-94754761D01*
X141119047Y-94802380D01*
X141214285Y-94802380D01*
X139833333Y-94802380D02*
X140404761Y-94802380D01*
X140119047Y-94802380D02*
X140119047Y-93802380D01*
X140214285Y-93945238D01*
X140309523Y-94040476D01*
X140404761Y-94088095D01*
%LPC*%
D13*
G36*
X144474504Y-89151204D02*
G01*
X144498773Y-89154804D01*
X144522571Y-89160765D01*
X144545671Y-89169030D01*
X144567849Y-89179520D01*
X144588893Y-89192133D01*
X144608598Y-89206747D01*
X144626777Y-89223223D01*
X144643253Y-89241402D01*
X144657867Y-89261107D01*
X144670480Y-89282151D01*
X144680970Y-89304329D01*
X144689235Y-89327429D01*
X144695196Y-89351227D01*
X144698796Y-89375496D01*
X144700000Y-89400000D01*
X144700000Y-91900000D01*
X144698796Y-91924504D01*
X144695196Y-91948773D01*
X144689235Y-91972571D01*
X144680970Y-91995671D01*
X144670480Y-92017849D01*
X144657867Y-92038893D01*
X144643253Y-92058598D01*
X144626777Y-92076777D01*
X144608598Y-92093253D01*
X144588893Y-92107867D01*
X144567849Y-92120480D01*
X144545671Y-92130970D01*
X144522571Y-92139235D01*
X144498773Y-92145196D01*
X144474504Y-92148796D01*
X144450000Y-92150000D01*
X143350000Y-92150000D01*
X143325496Y-92148796D01*
X143301227Y-92145196D01*
X143277429Y-92139235D01*
X143254329Y-92130970D01*
X143232151Y-92120480D01*
X143211107Y-92107867D01*
X143191402Y-92093253D01*
X143173223Y-92076777D01*
X143156747Y-92058598D01*
X143142133Y-92038893D01*
X143129520Y-92017849D01*
X143119030Y-91995671D01*
X143110765Y-91972571D01*
X143104804Y-91948773D01*
X143101204Y-91924504D01*
X143100000Y-91900000D01*
X143100000Y-89400000D01*
X143101204Y-89375496D01*
X143104804Y-89351227D01*
X143110765Y-89327429D01*
X143119030Y-89304329D01*
X143129520Y-89282151D01*
X143142133Y-89261107D01*
X143156747Y-89241402D01*
X143173223Y-89223223D01*
X143191402Y-89206747D01*
X143211107Y-89192133D01*
X143232151Y-89179520D01*
X143254329Y-89169030D01*
X143277429Y-89160765D01*
X143301227Y-89154804D01*
X143325496Y-89151204D01*
X143350000Y-89150000D01*
X144450000Y-89150000D01*
X144474504Y-89151204D01*
G37*
G36*
X137674504Y-89151204D02*
G01*
X137698773Y-89154804D01*
X137722571Y-89160765D01*
X137745671Y-89169030D01*
X137767849Y-89179520D01*
X137788893Y-89192133D01*
X137808598Y-89206747D01*
X137826777Y-89223223D01*
X137843253Y-89241402D01*
X137857867Y-89261107D01*
X137870480Y-89282151D01*
X137880970Y-89304329D01*
X137889235Y-89327429D01*
X137895196Y-89351227D01*
X137898796Y-89375496D01*
X137900000Y-89400000D01*
X137900000Y-91900000D01*
X137898796Y-91924504D01*
X137895196Y-91948773D01*
X137889235Y-91972571D01*
X137880970Y-91995671D01*
X137870480Y-92017849D01*
X137857867Y-92038893D01*
X137843253Y-92058598D01*
X137826777Y-92076777D01*
X137808598Y-92093253D01*
X137788893Y-92107867D01*
X137767849Y-92120480D01*
X137745671Y-92130970D01*
X137722571Y-92139235D01*
X137698773Y-92145196D01*
X137674504Y-92148796D01*
X137650000Y-92150000D01*
X136550000Y-92150000D01*
X136525496Y-92148796D01*
X136501227Y-92145196D01*
X136477429Y-92139235D01*
X136454329Y-92130970D01*
X136432151Y-92120480D01*
X136411107Y-92107867D01*
X136391402Y-92093253D01*
X136373223Y-92076777D01*
X136356747Y-92058598D01*
X136342133Y-92038893D01*
X136329520Y-92017849D01*
X136319030Y-91995671D01*
X136310765Y-91972571D01*
X136304804Y-91948773D01*
X136301204Y-91924504D01*
X136300000Y-91900000D01*
X136300000Y-89400000D01*
X136301204Y-89375496D01*
X136304804Y-89351227D01*
X136310765Y-89327429D01*
X136319030Y-89304329D01*
X136329520Y-89282151D01*
X136342133Y-89261107D01*
X136356747Y-89241402D01*
X136373223Y-89223223D01*
X136391402Y-89206747D01*
X136411107Y-89192133D01*
X136432151Y-89179520D01*
X136454329Y-89169030D01*
X136477429Y-89160765D01*
X136501227Y-89154804D01*
X136525496Y-89151204D01*
X136550000Y-89150000D01*
X137650000Y-89150000D01*
X137674504Y-89151204D01*
G37*
G36*
X141774504Y-85651204D02*
G01*
X141798773Y-85654804D01*
X141822571Y-85660765D01*
X141845671Y-85669030D01*
X141867849Y-85679520D01*
X141888893Y-85692133D01*
X141908598Y-85706747D01*
X141926777Y-85723223D01*
X141943253Y-85741402D01*
X141957867Y-85761107D01*
X141970480Y-85782151D01*
X141980970Y-85804329D01*
X141989235Y-85827429D01*
X141995196Y-85851227D01*
X141998796Y-85875496D01*
X142000000Y-85900000D01*
X142000000Y-90900000D01*
X141998796Y-90924504D01*
X141995196Y-90948773D01*
X141989235Y-90972571D01*
X141980970Y-90995671D01*
X141970480Y-91017849D01*
X141957867Y-91038893D01*
X141943253Y-91058598D01*
X141926777Y-91076777D01*
X141908598Y-91093253D01*
X141888893Y-91107867D01*
X141867849Y-91120480D01*
X141845671Y-91130970D01*
X141822571Y-91139235D01*
X141798773Y-91145196D01*
X141774504Y-91148796D01*
X141750000Y-91150000D01*
X141250000Y-91150000D01*
X141225496Y-91148796D01*
X141201227Y-91145196D01*
X141177429Y-91139235D01*
X141154329Y-91130970D01*
X141132151Y-91120480D01*
X141111107Y-91107867D01*
X141091402Y-91093253D01*
X141073223Y-91076777D01*
X141056747Y-91058598D01*
X141042133Y-91038893D01*
X141029520Y-91017849D01*
X141019030Y-90995671D01*
X141010765Y-90972571D01*
X141004804Y-90948773D01*
X141001204Y-90924504D01*
X141000000Y-90900000D01*
X141000000Y-85900000D01*
X141001204Y-85875496D01*
X141004804Y-85851227D01*
X141010765Y-85827429D01*
X141019030Y-85804329D01*
X141029520Y-85782151D01*
X141042133Y-85761107D01*
X141056747Y-85741402D01*
X141073223Y-85723223D01*
X141091402Y-85706747D01*
X141111107Y-85692133D01*
X141132151Y-85679520D01*
X141154329Y-85669030D01*
X141177429Y-85660765D01*
X141201227Y-85654804D01*
X141225496Y-85651204D01*
X141250000Y-85650000D01*
X141750000Y-85650000D01*
X141774504Y-85651204D01*
G37*
G36*
X139774504Y-85651204D02*
G01*
X139798773Y-85654804D01*
X139822571Y-85660765D01*
X139845671Y-85669030D01*
X139867849Y-85679520D01*
X139888893Y-85692133D01*
X139908598Y-85706747D01*
X139926777Y-85723223D01*
X139943253Y-85741402D01*
X139957867Y-85761107D01*
X139970480Y-85782151D01*
X139980970Y-85804329D01*
X139989235Y-85827429D01*
X139995196Y-85851227D01*
X139998796Y-85875496D01*
X140000000Y-85900000D01*
X140000000Y-90900000D01*
X139998796Y-90924504D01*
X139995196Y-90948773D01*
X139989235Y-90972571D01*
X139980970Y-90995671D01*
X139970480Y-91017849D01*
X139957867Y-91038893D01*
X139943253Y-91058598D01*
X139926777Y-91076777D01*
X139908598Y-91093253D01*
X139888893Y-91107867D01*
X139867849Y-91120480D01*
X139845671Y-91130970D01*
X139822571Y-91139235D01*
X139798773Y-91145196D01*
X139774504Y-91148796D01*
X139750000Y-91150000D01*
X139250000Y-91150000D01*
X139225496Y-91148796D01*
X139201227Y-91145196D01*
X139177429Y-91139235D01*
X139154329Y-91130970D01*
X139132151Y-91120480D01*
X139111107Y-91107867D01*
X139091402Y-91093253D01*
X139073223Y-91076777D01*
X139056747Y-91058598D01*
X139042133Y-91038893D01*
X139029520Y-91017849D01*
X139019030Y-90995671D01*
X139010765Y-90972571D01*
X139004804Y-90948773D01*
X139001204Y-90924504D01*
X139000000Y-90900000D01*
X139000000Y-85900000D01*
X139001204Y-85875496D01*
X139004804Y-85851227D01*
X139010765Y-85827429D01*
X139019030Y-85804329D01*
X139029520Y-85782151D01*
X139042133Y-85761107D01*
X139056747Y-85741402D01*
X139073223Y-85723223D01*
X139091402Y-85706747D01*
X139111107Y-85692133D01*
X139132151Y-85679520D01*
X139154329Y-85669030D01*
X139177429Y-85660765D01*
X139201227Y-85654804D01*
X139225496Y-85651204D01*
X139250000Y-85650000D01*
X139750000Y-85650000D01*
X139774504Y-85651204D01*
G37*
D14*
X167855555Y-88895998D03*
X113199407Y-88895998D03*
M02*
