  0
SECTION
  2
HEADER
  9
$ACADVER
  1
AC1014
  9
$HANDSEED
  5
FFFF
  9
$MEASUREMENT
 70
     1
  0
ENDSEC
  0
SECTION
  2
TABLES
  0
TABLE
  2
VPORT
  5
8
330
0
100
AcDbSymbolTable
 70
     4
  0
VPORT
  5
2E
330
8
100
AcDbSymbolTableRecord
100
AcDbViewportTableRecord
  2
*ACTIVE
 70
     0
 10
0.0
 20
0.0
 11
1.0
 21
1.0
 12
210.0
 22
148.5
 13
0.0
 23
0.0
 14
10.0
 24
10.0
 15
10.0
 25
10.0
 16
0.0
 26
0.0
 36
1.0
 17
0.0
 27
0.0
 37
0.0
 40
341.0
 41
1.24
 42
50.0
 43
0.0
 44
0.0
 50
0.0
 51
0.0
 71
     0
 72
   100
 73
     1
 74
     3
 75
     0
 76
     0
 77
     0
 78
     0
  0
ENDTAB
  0
TABLE
  2
LTYPE
  5
5
330
0
100
AcDbSymbolTable
 70
     1
  0
LTYPE
  5
14
330
5
100
AcDbSymbolTableRecord
100
AcDbLinetypeTableRecord
  2
BYBLOCK
 70
     0
  3

 72
    65
 73
     0
 40
0.0
  0
LTYPE
  5
15
330
5
100
AcDbSymbolTableRecord
100
AcDbLinetypeTableRecord
  2
BYLAYER
 70
     0
  3

 72
    65
 73
     0
 40
0.0
  0
LTYPE
  5
16
330
5
100
AcDbSymbolTableRecord
100
AcDbLinetypeTableRecord
  2
CONTINUOUS
 70
     0
  3
Solid line
 72
    65
 73
     0
 40
0.0
  0
ENDTAB
  0
TABLE
  2
LAYER
  5
2
100
AcDbSymbolTable
 70
2
  0
LAYER
  5
50
100
AcDbSymbolTableRecord
100
AcDbLayerTableRecord
  2
0
 70
0
  6
CONTINUOUS
  0
LAYER
  5
51
100
AcDbSymbolTableRecord
100
AcDbLayerTableRecord
  2
seg1
 70
0
  6
CONTINUOUS
  0
ENDTAB
  0
TABLE
  2
STYLE
  5
3
330
0
100
AcDbSymbolTable
 70
     1
  0
STYLE
  5
11
330
3
100
AcDbSymbolTableRecord
100
AcDbTextStyleTableRecord
  2
STANDARD
 70
     0
 40
0.0
 41
1.0
 50
0.0
 71
     0
 42
2.5
  3
txt
  4

  0
ENDTAB
  0
TABLE
  2
VIEW
  5
6
330
0
100
AcDbSymbolTable
 70
     0
  0
ENDTAB
  0
TABLE
  2
UCS
  5
7
330
0
100
AcDbSymbolTable
 70
     0
  0
ENDTAB
  0
TABLE
  2
APPID
  5
9
330
0
100
AcDbSymbolTable
 70
     2
  0
APPID
  5
12
330
9
100
AcDbSymbolTableRecord
100
AcDbRegAppTableRecord
  2
ACAD
 70
     0
  0
ENDTAB
  0
TABLE
  2
DIMSTYLE
  5
A
330
0
100
AcDbSymbolTable
 70
     1
  0
DIMSTYLE
105
27
330
A
100
AcDbSymbolTableRecord
100
AcDbDimStyleTableRecord
  2
ISO-25
 70
     0
  3

  4

  5

  6

  7

 40
1.0
 41
2.5
 42
0.625
 43
3.75
 44
1.25
 45
0.0
 46
0.0
 47
0.0
 48
0.0
140
2.5
141
2.5
142
0.0
143
0.03937007874016
144
1.0
145
0.0
146
1.0
147
0.625
 71
     0
 72
     0
 73
     0
 74
     0
 75
     0
 76
     0
 77
     1
 78
     8
170
     0
171
     3
172
     1
173
     0
174
     0
175
     0
176
     0
177
     0
178
     0
270
     2
271
     2
272
     2
273
     2
274
     3
340
11
275
     0
280
     0
281
     0
282
     0
283
     0
284
     8
285
     0
286
     0
287
     3
288
     0
  0
ENDTAB
  0
TABLE
  2
BLOCK_RECORD
  5
1
330
0
100
AcDbSymbolTable
 70
     1
  0
BLOCK_RECORD
  5
1F
330
1
100
AcDbSymbolTableRecord
100
AcDbBlockTableRecord
  2
*MODEL_SPACE
  0
BLOCK_RECORD
  5
1B
330
1
100
AcDbSymbolTableRecord
100
AcDbBlockTableRecord
  2
*PAPER_SPACE
  0
ENDTAB
  0
ENDSEC
  0
SECTION
  2
BLOCKS
  0
BLOCK
  5
20
330
1F
100
AcDbEntity
  8
0
100
AcDbBlockBegin
  2
*MODEL_SPACE
 70
     0
 10
0.0
 20
0.0
 30
0.0
  3
*MODEL_SPACE
  1

  0
ENDBLK
  5
21
330
1F
100
AcDbEntity
  8
0
100
AcDbBlockEnd
  0
BLOCK
  5
1C
330
1B
100
AcDbEntity
 67
     1
  8
0
100
AcDbBlockBegin
  2
*PAPER_SPACE
  1

  0
ENDBLK
  5
1D
330
1B
100
AcDbEntity
 67
     1
  8
0
100
AcDbBlockEnd
  0
ENDSEC
  0
SECTION
  2
ENTITIES
  0
LWPOLYLINE
  5
100
100
AcDbEntity
  8
seg1
 62
7
100
AcDbPolyline
 90
4
 70
1
 10
-27.184879
 20
226.471898
 30
0.0
 10
531.615121
 20
226.471898
 30
0.0
 10
531.615121
 20
-205.328102
 30
0.0
 10
-27.184879
 20
-205.328102
 30
0.0
  0
LWPOLYLINE
  5
101
100
AcDbEntity
  8
seg1
 62
7
100
AcDbPolyline
 90
2
 70
0
 10
144.356661
 20
103.208659
 30
0.0
 10
134.958664
 20
103.208659
 30
0.0
  0
LWPOLYLINE
  5
102
100
AcDbEntity
  8
seg1
 62
7
100
AcDbPolyline
 90
2
 70
0
 10
144.356661
 20
111.717659
 30
0.0
 10
144.356661
 20
103.208659
 30
0.0
  0
LWPOLYLINE
  5
103
100
AcDbEntity
  8
seg1
 62
7
100
AcDbPolyline
 90
2
 70
0
 10
134.958664
 20
111.717659
 30
0.0
 10
144.356661
 20
111.717659
 30
0.0
  0
LWPOLYLINE
  5
104
100
AcDbEntity
  8
seg1
 62
7
100
AcDbPolyline
 90
2
 70
0
 10
134.958664
 20
103.208659
 30
0.0
 10
134.958664
 20
111.717659
 30
0.0
  0
LWPOLYLINE
  5
105
100
AcDbEntity
  8
seg1
 62
7
100
AcDbPolyline
 90
2
 70
0
 10
156.506339
 20
113.241661
 30
0.0
 10
154.939995
 20
116.035661
 30
0.0
  0
LWPOLYLINE
  5
106
100
AcDbEntity
  8
seg1
 62
7
100
AcDbPolyline
 90
2
 70
0
 10
143.721669
 20
103.589659
 30
0.0
 10
143.721669
 20
104.436328
 30
0.0
  0
LWPOLYLINE
  5
107
100
AcDbEntity
  8
seg1
 62
7
100
AcDbPolyline
 90
2
 70
0
 10
143.721669
 20
108.796664
 30
0.0
 10
141.393339
 20
108.796664
 30
0.0
  0
LWPOLYLINE
  5
108
100
AcDbEntity
  8
seg1
 62
7
100
AcDbPolyline
 90
2
 70
0
 10
143.721669
 20
107.949995
 30
0.0
 10
143.721669
 20
108.796664
 30
0.0
  0
LWPOLYLINE
  5
109
100
AcDbEntity
  8
seg1
 62
7
100
AcDbPolyline
 90
2
 70
0
 10
159.766008
 20
113.199328
 30
0.0
 10
156.506339
 20
113.241661
 30
0.0
  0
LWPOLYLINE
  5
10a
100
AcDbEntity
  8
seg1
 62
7
100
AcDbPolyline
 90
2
 70
0
 10
161.417005
 20
115.950992
 30
0.0
 10
159.766008
 20
113.199328
 30
0.0
  0
LWPOLYLINE
  5
10b
100
AcDbEntity
  8
seg1
 62
7
100
AcDbPolyline
 90
2
 70
0
 10
159.808333
 20
118.787325
 30
0.0
 10
161.417005
 20
115.950992
 30
0.0
  0
LWPOLYLINE
  5
10c
100
AcDbEntity
  8
seg1
 62
7
100
AcDbPolyline
 90
2
 70
0
 10
156.591008
 20
118.829661
 30
0.0
 10
159.808333
 20
118.787325
 30
0.0
  0
LWPOLYLINE
  5
10d
100
AcDbEntity
  8
seg1
 62
7
100
AcDbPolyline
 90
2
 70
0
 10
154.939995
 20
116.035661
 30
0.0
 10
156.591008
 20
118.829661
 30
0.0
  0
LWPOLYLINE
  5
10e
100
AcDbEntity
  8
seg1
 62
7
100
AcDbPolyline
 90
2
 70
0
 10
117.983003
 20
115.950992
 30
0.0
 10
119.634000
 20
113.199328
 30
0.0
  0
LWPOLYLINE
  5
10f
100
AcDbEntity
  8
seg1
 62
7
100
AcDbPolyline
 90
3
 70
0
 10
122.809000
 20
118.829661
 30
0.0
 10
119.549333
 20
118.787325
 30
0.0
 10
117.983003
 20
115.950992
 30
0.0
  0
LWPOLYLINE
  5
110
100
AcDbEntity
  8
seg1
 62
7
100
AcDbPolyline
 90
2
 70
0
 10
124.459997
 20
116.035661
 30
0.0
 10
122.809000
 20
118.829661
 30
0.0
  0
LWPOLYLINE
  5
111
100
AcDbEntity
  8
seg1
 62
7
100
AcDbPolyline
 90
3
 70
0
 10
119.634000
 20
113.199328
 30
0.0
 10
122.851336
 20
113.241661
 30
0.0
 10
124.459997
 20
116.035661
 30
0.0
  0
LWPOLYLINE
  5
112
100
AcDbEntity
  8
seg1
 62
7
100
AcDbPolyline
 90
2
 70
0
 10
135.551336
 20
103.589659
 30
0.0
 10
143.721669
 20
103.589659
 30
0.0
  0
LWPOLYLINE
  5
113
100
AcDbEntity
  8
seg1
 62
7
100
AcDbPolyline
 90
2
 70
0
 10
135.551336
 20
104.436328
 30
0.0
 10
135.551336
 20
103.589659
 30
0.0
  0
LWPOLYLINE
  5
114
100
AcDbEntity
  8
seg1
 62
7
100
AcDbPolyline
 90
2
 70
0
 10
137.879667
 20
108.796664
 30
0.0
 10
137.879667
 20
111.209664
 30
0.0
  0
LWPOLYLINE
  5
115
100
AcDbEntity
  8
seg1
 62
7
100
AcDbPolyline
 90
2
 70
0
 10
135.551336
 20
108.796664
 30
0.0
 10
137.879667
 20
108.796664
 30
0.0
  0
LWPOLYLINE
  5
116
100
AcDbEntity
  8
seg1
 62
7
100
AcDbPolyline
 90
2
 70
0
 10
135.551336
 20
107.949995
 30
0.0
 10
135.551336
 20
108.796664
 30
0.0
  0
LWPOLYLINE
  5
117
100
AcDbEntity
  8
seg1
 62
7
100
AcDbPolyline
 90
6
 70
0
 10
139.954005
 20
103.039328
 30
0.0
 10
139.954005
 20
102.319661
 30
0.0
 10
140.038675
 20
102.192659
 30
0.0
 10
140.123328
 20
102.107997
 30
0.0
 10
140.250339
 20
102.065664
 30
0.0
 10
140.335005
 20
102.065664
 30
0.0
  0
LWPOLYLINE
  5
118
100
AcDbEntity
  8
seg1
 62
7
100
AcDbPolyline
 90
2
 70
0
 10
138.980341
 20
102.065664
 30
0.0
 10
139.530661
 20
102.065664
 30
0.0
  0
SPLINE
  5
119
100
AcDbEntity
  8
seg1
 62
7
100
AcDbSpline
 70
8
 71
3
 72
8
 73
4
 74
0
 40
0
 40
0
 40
0
 40
0
 40
1
 40
1
 40
1
 40
1
 10
160.655003
 20
120.649995
 30
0.0
 10
157.988000
 20
121.665995
 30
0.0
 10
154.982336
 20
121.919992
 30
0.0
 10
151.976672
 20
122.173997
 30
0.0
  0
LWPOLYLINE
  5
11a
100
AcDbEntity
  8
seg1
 62
7
100
AcDbPolyline
 90
4
 70
0
 10
139.276672
 20
102.065664
 30
0.0
 10
139.276672
 20
103.039328
 30
0.0
 10
139.361325
 20
102.912325
 30
0.0
 10
139.530661
 20
102.742997
 30
0.0
  0
SPLINE
  5
11b
100
AcDbEntity
  8
seg1
 62
7
100
AcDbSpline
 70
8
 71
3
 72
8
 73
4
 74
0
 40
0
 40
0
 40
0
 40
0
 40
1
 40
1
 40
1
 40
1
 10
168.190331
 20
115.993325
 30
0.0
 10
165.777333
 20
117.771328
 30
0.0
 10
163.364333
 20
119.591661
 30
0.0
 10
160.655003
 20
120.649995
 30
0.0
  0
LWPOLYLINE
  5
11c
100
AcDbEntity
  8
seg1
 62
7
100
AcDbPolyline
 90
2
 70
0
 10
135.085667
 20
93.725992
 30
0.0
 10
144.314333
 20
93.725992
 30
0.0
  0
LWPOLYLINE
  5
11d
100
AcDbEntity
  8
seg1
 62
7
100
AcDbPolyline
 90
2
 70
0
 10
111.209669
 20
115.993325
 30
0.0
 10
135.085667
 20
93.725992
 30
0.0
  0
SPLINE
  5
11e
100
AcDbEntity
  8
seg1
 62
7
100
AcDbSpline
 70
8
 71
3
 72
8
 73
4
 74
0
 40
0
 40
0
 40
0
 40
0
 40
1
 40
1
 40
1
 40
1
 10
118.744997
 20
120.649995
 30
0.0
 10
116.035667
 20
119.591661
 30
0.0
 10
113.622667
 20
117.771328
 30
0.0
 10
111.209669
 20
115.993325
 30
0.0
  0
LWPOLYLINE
  5
11f
100
AcDbEntity
  8
seg1
 62
7
100
AcDbPolyline
 90
2
 70
0
 10
144.314333
 20
93.725992
 30
0.0
 10
168.190331
 20
115.993325
 30
0.0
  0
SPLINE
  5
120
100
AcDbEntity
  8
seg1
 62
7
100
AcDbSpline
 70
8
 71
3
 72
8
 73
4
 74
0
 40
0
 40
0
 40
0
 40
0
 40
1
 40
1
 40
1
 40
1
 10
127.423336
 20
122.173997
 30
0.0
 10
124.417664
 20
121.919992
 30
0.0
 10
121.412000
 20
121.665995
 30
0.0
 10
118.744997
 20
120.649995
 30
0.0
  0
LWPOLYLINE
  5
121
100
AcDbEntity
  8
seg1
 62
7
100
AcDbPolyline
 90
2
 70
0
 10
151.976672
 20
122.173997
 30
0.0
 10
127.423336
 20
122.173997
 30
0.0
  0
ENDSEC
  0
SECTION
  2
OBJECTS
  0
DICTIONARY
  5
C
330
0
100
AcDbDictionary
  3
ACAD_GROUP
350
D
  3
ACAD_MLINESTYLE
350
17
  0
DICTIONARY
  5
D
330
C
100
AcDbDictionary
  0
DICTIONARY
  5
1A
330
C
100
AcDbDictionary
  0
DICTIONARY
  5
17
330
C
100
AcDbDictionary
  3
STANDARD
350
18
  0
DICTIONARY
  5
19
330
C
100
AcDbDictionary
  0
ENDSEC
  0
EOF
