  0
SECTION
  2
HEADER
  9
$ANGBASE
  50
0.0
  9
$ANGDIR
  70
1
  9
$MEASUREMENT
  70
0
  0
ENDSEC
  0
SECTION
  2
TABLES
  0
TABLE
  2
LTYPE
  70
4
  0
LTYPE
  5
40F
  2
CONTINUOUS
  70
0
  3
Solid line
  72
65
  73
0
  40
0.0
  0
LTYPE
  5
410
  2
DASHDOT
 70
0
  3
Dash Dot ____ _ ____ _
 72
65
 73
4
 40
2.0
 49
1.25
 49
-0.25
 49
0.25
 49
-0.25
  0
LTYPE
  5
411
  2
DASHED
 70
0
  3
Dashed __ __ __ __ __
 72
65
 73
2
 40
0.75
 49
0.5
 49
-0.25
  0
LTYPE
  5
43B
  2
DOTTED
 70
0
  3
Dotted .  .  .  .
 72
65
 73
2
 40
0.2
 49
0.0
 49
-0.2
  0
ENDTAB
  0
TABLE
  2
STYLE
  70
4
  0
STYLE
  2
KICAD
  70
0
  40
0
  41
1
  42
1
  50
0
  71
0
  3
isocp.shx
  0
STYLE
  2
KICADB
  70
0
  40
0
  41
1
  42
1
  50
0
  71
0
  3
isocp.shx
  0
STYLE
  2
KICADI
  70
0
  40
0
  41
1
  42
1
  50
15
  71
0
  3
isocp.shx
  0
STYLE
  2
KICADBI
  70
0
  40
0
  41
1
  42
1
  50
15
  71
0
  3
isocp.shx
  0
ENDTAB
  0
TABLE
  2
LAYER
  70
1
  0
LAYER
  2
BLACK
  70
0
  62
7
  6
CONTINUOUS
  0
ENDTAB
  0
ENDSEC
  0
SECTION
  2
ENTITIES
0
LINE
8
BLACK
6
CONTINUOUS
10
5.71658
20
-3.31201
11
5.71658
21
-3.31201
0
LINE
8
BLACK
6
CONTINUOUS
10
5.71658
20
-3.31201
11
5.71673
21
-3.31202
0
LINE
8
BLACK
6
CONTINUOUS
10
5.71673
20
-3.31202
11
5.71691
21
-3.31208
0
LINE
8
BLACK
6
CONTINUOUS
10
5.71691
20
-3.31208
11
5.71708
21
-3.31217
0
LINE
8
BLACK
6
CONTINUOUS
10
5.71708
20
-3.31217
11
5.71723
21
-3.31229
0
LINE
8
BLACK
6
CONTINUOUS
10
5.71723
20
-3.31229
11
5.71736
21
-3.31244
0
LINE
8
BLACK
6
CONTINUOUS
10
5.71736
20
-3.31244
11
5.71745
21
-3.31261
0
LINE
8
BLACK
6
CONTINUOUS
10
5.71745
20
-3.31261
11
5.71751
21
-3.3128
0
LINE
8
BLACK
6
CONTINUOUS
10
5.71751
20
-3.3128
11
5.71752
21
-3.31299
0
LINE
8
BLACK
6
CONTINUOUS
10
5.71752
20
-3.31299
11
5.71752
21
-3.31304
0
LINE
8
BLACK
6
CONTINUOUS
10
5.71752
20
-3.31304
11
5.71752
21
-3.64759
0
LINE
8
BLACK
6
CONTINUOUS
10
5.71752
20
-3.64759
11
5.71752
21
-3.64764
0
LINE
8
BLACK
6
CONTINUOUS
10
5.71752
20
-3.64764
11
5.71752
21
-3.64769
0
LINE
8
BLACK
6
CONTINUOUS
10
5.71752
20
-3.64769
11
5.71752
21
-3.64769
0
LINE
8
BLACK
6
CONTINUOUS
10
5.71752
20
-3.64769
11
5.71751
21
-3.64783
0
LINE
8
BLACK
6
CONTINUOUS
10
5.71751
20
-3.64783
11
5.71745
21
-3.64802
0
LINE
8
BLACK
6
CONTINUOUS
10
5.71745
20
-3.64802
11
5.71736
21
-3.64819
0
LINE
8
BLACK
6
CONTINUOUS
10
5.71736
20
-3.64819
11
5.71723
21
-3.64834
0
LINE
8
BLACK
6
CONTINUOUS
10
5.71723
20
-3.64834
11
5.71708
21
-3.64846
0
LINE
8
BLACK
6
CONTINUOUS
10
5.71708
20
-3.64846
11
5.71691
21
-3.64855
0
LINE
8
BLACK
6
CONTINUOUS
10
5.71691
20
-3.64855
11
5.71673
21
-3.64861
0
LINE
8
BLACK
6
CONTINUOUS
10
5.71673
20
-3.64861
11
5.71654
21
-3.64863
0
LINE
8
BLACK
6
CONTINUOUS
10
5.71654
20
-3.64863
11
5.71649
21
-3.64862
0
LINE
8
BLACK
6
CONTINUOUS
10
5.71649
20
-3.64862
11
5.3465
21
-3.64862
0
LINE
8
BLACK
6
CONTINUOUS
10
5.3465
20
-3.64862
11
5.34646
21
-3.64863
0
LINE
8
BLACK
6
CONTINUOUS
10
5.34646
20
-3.64863
11
5.34626
21
-3.64861
0
LINE
8
BLACK
6
CONTINUOUS
10
5.34626
20
-3.64861
11
5.34608
21
-3.64855
0
LINE
8
BLACK
6
CONTINUOUS
10
5.34608
20
-3.64855
11
5.34591
21
-3.64846
0
LINE
8
BLACK
6
CONTINUOUS
10
5.34591
20
-3.64846
11
5.34576
21
-3.64834
0
LINE
8
BLACK
6
CONTINUOUS
10
5.34576
20
-3.64834
11
5.34563
21
-3.64819
0
LINE
8
BLACK
6
CONTINUOUS
10
5.34563
20
-3.64819
11
5.34554
21
-3.64802
0
LINE
8
BLACK
6
CONTINUOUS
10
5.34554
20
-3.64802
11
5.34549
21
-3.64783
0
LINE
8
BLACK
6
CONTINUOUS
10
5.34549
20
-3.64783
11
5.34547
21
-3.64764
0
LINE
8
BLACK
6
CONTINUOUS
10
5.34547
20
-3.64764
11
5.34547
21
-3.64759
0
LINE
8
BLACK
6
CONTINUOUS
10
5.34547
20
-3.64759
11
5.34547
21
-3.31304
0
LINE
8
BLACK
6
CONTINUOUS
10
5.34547
20
-3.31304
11
5.34547
21
-3.31299
0
LINE
8
BLACK
6
CONTINUOUS
10
5.34547
20
-3.31299
11
5.34549
21
-3.3128
0
LINE
8
BLACK
6
CONTINUOUS
10
5.34549
20
-3.3128
11
5.34554
21
-3.31261
0
LINE
8
BLACK
6
CONTINUOUS
10
5.34554
20
-3.31261
11
5.34563
21
-3.31244
0
LINE
8
BLACK
6
CONTINUOUS
10
5.34563
20
-3.31244
11
5.34576
21
-3.31229
0
LINE
8
BLACK
6
CONTINUOUS
10
5.34576
20
-3.31229
11
5.34591
21
-3.31217
0
LINE
8
BLACK
6
CONTINUOUS
10
5.34591
20
-3.31217
11
5.34608
21
-3.31208
0
LINE
8
BLACK
6
CONTINUOUS
10
5.34608
20
-3.31208
11
5.34626
21
-3.31202
0
LINE
8
BLACK
6
CONTINUOUS
10
5.34626
20
-3.31202
11
5.34641
21
-3.31201
0
LINE
8
BLACK
6
CONTINUOUS
10
5.34641
20
-3.31201
11
5.34641
21
-3.31201
0
LINE
8
BLACK
6
CONTINUOUS
10
5.34641
20
-3.31201
11
5.34646
21
-3.312
0
LINE
8
BLACK
6
CONTINUOUS
10
5.34646
20
-3.312
11
5.3465
21
-3.31201
0
LINE
8
BLACK
6
CONTINUOUS
10
5.3465
20
-3.31201
11
5.71649
21
-3.31201
0
LINE
8
BLACK
6
CONTINUOUS
10
5.71649
20
-3.31201
11
5.71654
21
-3.312
0
LINE
8
BLACK
6
CONTINUOUS
10
5.71654
20
-3.312
11
5.71658
21
-3.31201
0
LINE
8
BLACK
6
CONTINUOUS
10
5.34744
20
-3.31398
11
5.34744
21
-3.64665
0
LINE
8
BLACK
6
CONTINUOUS
10
5.34744
20
-3.64665
11
5.71555
21
-3.64665
0
LINE
8
BLACK
6
CONTINUOUS
10
5.71555
20
-3.64665
11
5.71555
21
-3.31398
0
LINE
8
BLACK
6
CONTINUOUS
10
5.71555
20
-3.31398
11
5.34744
21
-3.31398
  0
ENDSEC
  0
EOF
