  0
SECTION
  2
HEADER
  9
$ANGBASE
  50
0.0
  9
$ANGDIR
  70
1
  9
$MEASUREMENT
  70
0
  0
ENDSEC
  0
SECTION
  2
TABLES
  0
TABLE
  2
LTYPE
  70
4
  0
LTYPE
  5
40F
  2
CONTINUOUS
  70
0
  3
Solid line
  72
65
  73
0
  40
0.0
  0
LTYPE
  5
410
  2
DASHDOT
 70
0
  3
Dash Dot ____ _ ____ _
 72
65
 73
4
 40
2.0
 49
1.25
 49
-0.25
 49
0.25
 49
-0.25
  0
LTYPE
  5
411
  2
DASHED
 70
0
  3
Dashed __ __ __ __ __
 72
65
 73
2
 40
0.75
 49
0.5
 49
-0.25
  0
LTYPE
  5
43B
  2
DOTTED
 70
0
  3
Dotted .  .  .  .
 72
65
 73
2
 40
0.2
 49
0.0
 49
-0.2
  0
ENDTAB
  0
TABLE
  2
STYLE
  70
4
  0
STYLE
  2
KICAD
  70
0
  40
0
  41
1
  42
1
  50
0
  71
0
  3
isocp.shx
  0
STYLE
  2
KICADB
  70
0
  40
0
  41
1
  42
1
  50
0
  71
0
  3
isocp.shx
  0
STYLE
  2
KICADI
  70
0
  40
0
  41
1
  42
1
  50
15
  71
0
  3
isocp.shx
  0
STYLE
  2
KICADBI
  70
0
  40
0
  41
1
  42
1
  50
15
  71
0
  3
isocp.shx
  0
ENDTAB
  0
TABLE
  2
LAYER
  70
1
  0
LAYER
  2
BLACK
  70
0
  62
7
  6
CONTINUOUS
  0
ENDTAB
  0
ENDSEC
  0
SECTION
  2
ENTITIES
0
LINE
8
BLACK
6
CONTINUOUS
10
6.01801
20
-2.89608
11
6.02679
21
-2.89685
0
LINE
8
BLACK
6
CONTINUOUS
10
6.02679
20
-2.89685
11
6.02679
21
-2.89685
0
LINE
8
BLACK
6
CONTINUOUS
10
6.02679
20
-2.89685
11
6.02679
21
-2.89685
0
LINE
8
BLACK
6
CONTINUOUS
10
6.02679
20
-2.89685
11
6.03524
21
-2.89759
0
LINE
8
BLACK
6
CONTINUOUS
10
6.03524
20
-2.89759
11
6.03524
21
-2.89759
0
LINE
8
BLACK
6
CONTINUOUS
10
6.03524
20
-2.89759
11
6.03524
21
-2.89759
0
LINE
8
BLACK
6
CONTINUOUS
10
6.03524
20
-2.89759
11
6.04248
21
-2.89823
0
LINE
8
BLACK
6
CONTINUOUS
10
6.04248
20
-2.89823
11
6.04248
21
-2.89823
0
LINE
8
BLACK
6
CONTINUOUS
10
6.04248
20
-2.89823
11
6.04248
21
-2.89823
0
LINE
8
BLACK
6
CONTINUOUS
10
6.04248
20
-2.89823
11
6.05144
21
-2.89902
0
LINE
8
BLACK
6
CONTINUOUS
10
6.05144
20
-2.89902
11
6.05145
21
-2.89902
0
LINE
8
BLACK
6
CONTINUOUS
10
6.05145
20
-2.89902
11
6.05145
21
-2.89902
0
LINE
8
BLACK
6
CONTINUOUS
10
6.05145
20
-2.89902
11
6.05989
21
-2.89979
0
LINE
8
BLACK
6
CONTINUOUS
10
6.05989
20
-2.89979
11
6.05989
21
-2.89979
0
LINE
8
BLACK
6
CONTINUOUS
10
6.05989
20
-2.89979
11
6.05989
21
-2.89979
0
LINE
8
BLACK
6
CONTINUOUS
10
6.05989
20
-2.89979
11
6.06721
21
-2.90046
0
LINE
8
BLACK
6
CONTINUOUS
10
6.06721
20
-2.90046
11
6.06722
21
-2.90046
0
LINE
8
BLACK
6
CONTINUOUS
10
6.06722
20
-2.90046
11
6.06722
21
-2.90046
0
LINE
8
BLACK
6
CONTINUOUS
10
6.06722
20
-2.90046
11
6.07487
21
-2.90117
0
LINE
8
BLACK
6
CONTINUOUS
10
6.07487
20
-2.90117
11
6.07488
21
-2.90117
0
LINE
8
BLACK
6
CONTINUOUS
10
6.07488
20
-2.90117
11
6.07488
21
-2.90117
0
LINE
8
BLACK
6
CONTINUOUS
10
6.07488
20
-2.90117
11
6.08262
21
-2.90191
0
LINE
8
BLACK
6
CONTINUOUS
10
6.08262
20
-2.90191
11
6.08263
21
-2.90191
0
LINE
8
BLACK
6
CONTINUOUS
10
6.08263
20
-2.90191
11
6.08263
21
-2.90191
0
LINE
8
BLACK
6
CONTINUOUS
10
6.08263
20
-2.90191
11
6.09019
21
-2.90265
0
LINE
8
BLACK
6
CONTINUOUS
10
6.09019
20
-2.90265
11
6.09019
21
-2.90265
0
LINE
8
BLACK
6
CONTINUOUS
10
6.09019
20
-2.90265
11
6.0902
21
-2.90265
0
LINE
8
BLACK
6
CONTINUOUS
10
6.0902
20
-2.90265
11
6.09758
21
-2.90339
0
LINE
8
BLACK
6
CONTINUOUS
10
6.09758
20
-2.90339
11
6.09759
21
-2.90339
0
LINE
8
BLACK
6
CONTINUOUS
10
6.09759
20
-2.90339
11
6.09759
21
-2.90339
0
LINE
8
BLACK
6
CONTINUOUS
10
6.09759
20
-2.90339
11
6.10496
21
-2.90414
0
LINE
8
BLACK
6
CONTINUOUS
10
6.10496
20
-2.90414
11
6.10497
21
-2.90414
0
LINE
8
BLACK
6
CONTINUOUS
10
6.10497
20
-2.90414
11
6.10497
21
-2.90414
0
LINE
8
BLACK
6
CONTINUOUS
10
6.10497
20
-2.90414
11
6.11225
21
-2.90491
0
LINE
8
BLACK
6
CONTINUOUS
10
6.11225
20
-2.90491
11
6.11226
21
-2.90491
0
LINE
8
BLACK
6
CONTINUOUS
10
6.11226
20
-2.90491
11
6.11226
21
-2.90491
0
LINE
8
BLACK
6
CONTINUOUS
10
6.11226
20
-2.90491
11
6.11971
21
-2.90571
0
LINE
8
BLACK
6
CONTINUOUS
10
6.11971
20
-2.90571
11
6.11972
21
-2.90571
0
LINE
8
BLACK
6
CONTINUOUS
10
6.11972
20
-2.90571
11
6.11972
21
-2.90571
0
LINE
8
BLACK
6
CONTINUOUS
10
6.11972
20
-2.90571
11
6.1269
21
-2.90651
0
LINE
8
BLACK
6
CONTINUOUS
10
6.1269
20
-2.90651
11
6.12691
21
-2.90651
0
LINE
8
BLACK
6
CONTINUOUS
10
6.12691
20
-2.90651
11
6.12691
21
-2.90651
0
LINE
8
BLACK
6
CONTINUOUS
10
6.12691
20
-2.90651
11
6.13408
21
-2.90734
0
LINE
8
BLACK
6
CONTINUOUS
10
6.13408
20
-2.90734
11
6.1341
21
-2.90734
0
LINE
8
BLACK
6
CONTINUOUS
10
6.1341
20
-2.90734
11
6.1341
21
-2.90734
0
LINE
8
BLACK
6
CONTINUOUS
10
6.1341
20
-2.90734
11
6.14126
21
-2.90819
0
LINE
8
BLACK
6
CONTINUOUS
10
6.14126
20
-2.90819
11
6.14127
21
-2.90819
0
LINE
8
BLACK
6
CONTINUOUS
10
6.14127
20
-2.90819
11
6.14127
21
-2.90819
0
LINE
8
BLACK
6
CONTINUOUS
10
6.14127
20
-2.90819
11
6.14876
21
-2.9091
0
LINE
8
BLACK
6
CONTINUOUS
10
6.14876
20
-2.9091
11
6.14878
21
-2.90911
0
LINE
8
BLACK
6
CONTINUOUS
10
6.14878
20
-2.90911
11
6.14878
21
-2.90911
0
LINE
8
BLACK
6
CONTINUOUS
10
6.14878
20
-2.90911
11
6.15592
21
-2.91001
0
LINE
8
BLACK
6
CONTINUOUS
10
6.15592
20
-2.91001
11
6.15593
21
-2.91001
0
LINE
8
BLACK
6
CONTINUOUS
10
6.15593
20
-2.91001
11
6.15593
21
-2.91001
0
LINE
8
BLACK
6
CONTINUOUS
10
6.15593
20
-2.91001
11
6.16306
21
-2.91095
0
LINE
8
BLACK
6
CONTINUOUS
10
6.16306
20
-2.91095
11
6.16308
21
-2.91095
0
LINE
8
BLACK
6
CONTINUOUS
10
6.16308
20
-2.91095
11
6.16308
21
-2.91095
0
LINE
8
BLACK
6
CONTINUOUS
10
6.16308
20
-2.91095
11
6.17053
21
-2.91196
0
LINE
8
BLACK
6
CONTINUOUS
10
6.17053
20
-2.91196
11
6.17055
21
-2.91197
0
LINE
8
BLACK
6
CONTINUOUS
10
6.17055
20
-2.91197
11
6.17055
21
-2.91197
0
LINE
8
BLACK
6
CONTINUOUS
10
6.17055
20
-2.91197
11
6.17778
21
-2.91299
0
LINE
8
BLACK
6
CONTINUOUS
10
6.17778
20
-2.91299
11
6.1778
21
-2.91299
0
LINE
8
BLACK
6
CONTINUOUS
10
6.1778
20
-2.91299
11
6.1778
21
-2.91299
0
LINE
8
BLACK
6
CONTINUOUS
10
6.1778
20
-2.91299
11
6.18489
21
-2.91403
0
LINE
8
BLACK
6
CONTINUOUS
10
6.18489
20
-2.91403
11
6.18491
21
-2.91403
0
LINE
8
BLACK
6
CONTINUOUS
10
6.18491
20
-2.91403
11
6.18491
21
-2.91403
0
LINE
8
BLACK
6
CONTINUOUS
10
6.18491
20
-2.91403
11
6.19177
21
-2.91507
0
LINE
8
BLACK
6
CONTINUOUS
10
6.19177
20
-2.91507
11
6.19179
21
-2.91507
0
LINE
8
BLACK
6
CONTINUOUS
10
6.19179
20
-2.91507
11
6.19179
21
-2.91507
0
LINE
8
BLACK
6
CONTINUOUS
10
6.19179
20
-2.91507
11
6.1986
21
-2.91614
0
LINE
8
BLACK
6
CONTINUOUS
10
6.1986
20
-2.91614
11
6.19862
21
-2.91615
0
LINE
8
BLACK
6
CONTINUOUS
10
6.19862
20
-2.91615
11
6.19862
21
-2.91615
0
LINE
8
BLACK
6
CONTINUOUS
10
6.19862
20
-2.91615
11
6.20567
21
-2.91729
0
LINE
8
BLACK
6
CONTINUOUS
10
6.20567
20
-2.91729
11
6.20569
21
-2.9173
0
LINE
8
BLACK
6
CONTINUOUS
10
6.20569
20
-2.9173
11
6.20569
21
-2.9173
0
LINE
8
BLACK
6
CONTINUOUS
10
6.20569
20
-2.9173
11
6.21272
21
-2.91849
0
LINE
8
BLACK
6
CONTINUOUS
10
6.21272
20
-2.91849
11
6.21274
21
-2.91849
0
LINE
8
BLACK
6
CONTINUOUS
10
6.21274
20
-2.91849
11
6.21274
21
-2.91849
0
LINE
8
BLACK
6
CONTINUOUS
10
6.21274
20
-2.91849
11
6.21976
21
-2.91972
0
LINE
8
BLACK
6
CONTINUOUS
10
6.21976
20
-2.91972
11
6.21978
21
-2.91973
0
LINE
8
BLACK
6
CONTINUOUS
10
6.21978
20
-2.91973
11
6.21978
21
-2.91973
0
LINE
8
BLACK
6
CONTINUOUS
10
6.21978
20
-2.91973
11
6.22674
21
-2.92099
0
LINE
8
BLACK
6
CONTINUOUS
10
6.22674
20
-2.92099
11
6.22676
21
-2.921
0
LINE
8
BLACK
6
CONTINUOUS
10
6.22676
20
-2.921
11
6.22676
21
-2.921
0
LINE
8
BLACK
6
CONTINUOUS
10
6.22676
20
-2.921
11
6.23353
21
-2.92228
0
LINE
8
BLACK
6
CONTINUOUS
10
6.23353
20
-2.92228
11
6.23356
21
-2.92229
0
LINE
8
BLACK
6
CONTINUOUS
10
6.23356
20
-2.92229
11
6.23356
21
-2.92229
0
LINE
8
BLACK
6
CONTINUOUS
10
6.23356
20
-2.92229
11
6.24069
21
-2.92369
0
LINE
8
BLACK
6
CONTINUOUS
10
6.24069
20
-2.92369
11
6.24071
21
-2.92369
0
LINE
8
BLACK
6
CONTINUOUS
10
6.24071
20
-2.92369
11
6.24071
21
-2.92369
0
LINE
8
BLACK
6
CONTINUOUS
10
6.24071
20
-2.92369
11
6.24741
21
-2.92506
0
LINE
8
BLACK
6
CONTINUOUS
10
6.24741
20
-2.92506
11
6.24743
21
-2.92506
0
LINE
8
BLACK
6
CONTINUOUS
10
6.24743
20
-2.92506
11
6.24744
21
-2.92506
0
LINE
8
BLACK
6
CONTINUOUS
10
6.24744
20
-2.92506
11
6.25403
21
-2.92646
0
LINE
8
BLACK
6
CONTINUOUS
10
6.25403
20
-2.92646
11
6.25406
21
-2.92646
0
LINE
8
BLACK
6
CONTINUOUS
10
6.25406
20
-2.92646
11
6.25406
21
-2.92646
0
LINE
8
BLACK
6
CONTINUOUS
10
6.25406
20
-2.92646
11
6.26063
21
-2.92791
0
LINE
8
BLACK
6
CONTINUOUS
10
6.26063
20
-2.92791
11
6.26066
21
-2.92791
0
LINE
8
BLACK
6
CONTINUOUS
10
6.26066
20
-2.92791
11
6.26066
21
-2.92791
0
LINE
8
BLACK
6
CONTINUOUS
10
6.26066
20
-2.92791
11
6.26722
21
-2.9294
0
LINE
8
BLACK
6
CONTINUOUS
10
6.26722
20
-2.9294
11
6.26725
21
-2.92941
0
LINE
8
BLACK
6
CONTINUOUS
10
6.26725
20
-2.92941
11
6.26725
21
-2.92941
0
LINE
8
BLACK
6
CONTINUOUS
10
6.26725
20
-2.92941
11
6.27379
21
-2.93095
0
LINE
8
BLACK
6
CONTINUOUS
10
6.27379
20
-2.93095
11
6.27382
21
-2.93096
0
LINE
8
BLACK
6
CONTINUOUS
10
6.27382
20
-2.93096
11
6.27382
21
-2.93096
0
LINE
8
BLACK
6
CONTINUOUS
10
6.27382
20
-2.93096
11
6.28042
21
-2.93257
0
LINE
8
BLACK
6
CONTINUOUS
10
6.28042
20
-2.93257
11
6.28045
21
-2.93258
0
LINE
8
BLACK
6
CONTINUOUS
10
6.28045
20
-2.93258
11
6.28045
21
-2.93258
0
LINE
8
BLACK
6
CONTINUOUS
10
6.28045
20
-2.93258
11
6.28687
21
-2.9342
0
LINE
8
BLACK
6
CONTINUOUS
10
6.28687
20
-2.9342
11
6.2869
21
-2.93421
0
LINE
8
BLACK
6
CONTINUOUS
10
6.2869
20
-2.93421
11
6.2869
21
-2.93421
0
LINE
8
BLACK
6
CONTINUOUS
10
6.2869
20
-2.93421
11
6.29338
21
-2.93591
0
LINE
8
BLACK
6
CONTINUOUS
10
6.29338
20
-2.93591
11
6.29341
21
-2.93591
0
LINE
8
BLACK
6
CONTINUOUS
10
6.29341
20
-2.93591
11
6.29341
21
-2.93591
0
LINE
8
BLACK
6
CONTINUOUS
10
6.29341
20
-2.93591
11
6.29987
21
-2.93767
0
LINE
8
BLACK
6
CONTINUOUS
10
6.29987
20
-2.93767
11
6.2999
21
-2.93768
0
LINE
8
BLACK
6
CONTINUOUS
10
6.2999
20
-2.93768
11
6.2999
21
-2.93768
0
LINE
8
BLACK
6
CONTINUOUS
10
6.2999
20
-2.93768
11
6.30626
21
-2.93946
0
LINE
8
BLACK
6
CONTINUOUS
10
6.30626
20
-2.93946
11
6.30629
21
-2.93947
0
LINE
8
BLACK
6
CONTINUOUS
10
6.30629
20
-2.93947
11
6.30629
21
-2.93947
0
LINE
8
BLACK
6
CONTINUOUS
10
6.30629
20
-2.93947
11
6.31246
21
-2.94127
0
LINE
8
BLACK
6
CONTINUOUS
10
6.31246
20
-2.94127
11
6.3125
21
-2.94128
0
LINE
8
BLACK
6
CONTINUOUS
10
6.3125
20
-2.94128
11
6.3125
21
-2.94128
0
LINE
8
BLACK
6
CONTINUOUS
10
6.3125
20
-2.94128
11
6.31901
21
-2.94324
0
LINE
8
BLACK
6
CONTINUOUS
10
6.31901
20
-2.94324
11
6.31904
21
-2.94325
0
LINE
8
BLACK
6
CONTINUOUS
10
6.31904
20
-2.94325
11
6.31905
21
-2.94325
0
LINE
8
BLACK
6
CONTINUOUS
10
6.31905
20
-2.94325
11
6.32506
21
-2.94512
0
LINE
8
BLACK
6
CONTINUOUS
10
6.32506
20
-2.94512
11
6.32509
21
-2.94513
0
LINE
8
BLACK
6
CONTINUOUS
10
6.32509
20
-2.94513
11
6.32509
21
-2.94513
0
LINE
8
BLACK
6
CONTINUOUS
10
6.32509
20
-2.94513
11
6.33112
21
-2.94707
0
LINE
8
BLACK
6
CONTINUOUS
10
6.33112
20
-2.94707
11
6.33115
21
-2.94708
0
LINE
8
BLACK
6
CONTINUOUS
10
6.33115
20
-2.94708
11
6.33115
21
-2.94708
0
LINE
8
BLACK
6
CONTINUOUS
10
6.33115
20
-2.94708
11
6.33708
21
-2.94905
0
LINE
8
BLACK
6
CONTINUOUS
10
6.33708
20
-2.94905
11
6.33712
21
-2.94907
0
LINE
8
BLACK
6
CONTINUOUS
10
6.33712
20
-2.94907
11
6.33712
21
-2.94907
0
LINE
8
BLACK
6
CONTINUOUS
10
6.33712
20
-2.94907
11
6.34298
21
-2.95108
0
LINE
8
BLACK
6
CONTINUOUS
10
6.34298
20
-2.95108
11
6.34302
21
-2.95109
0
LINE
8
BLACK
6
CONTINUOUS
10
6.34302
20
-2.95109
11
6.34302
21
-2.95109
0
LINE
8
BLACK
6
CONTINUOUS
10
6.34302
20
-2.95109
11
6.34887
21
-2.95316
0
LINE
8
BLACK
6
CONTINUOUS
10
6.34887
20
-2.95316
11
6.3489
21
-2.95318
0
LINE
8
BLACK
6
CONTINUOUS
10
6.3489
20
-2.95318
11
6.3489
21
-2.95318
0
LINE
8
BLACK
6
CONTINUOUS
10
6.3489
20
-2.95318
11
6.35469
21
-2.95529
0
LINE
8
BLACK
6
CONTINUOUS
10
6.35469
20
-2.95529
11
6.35472
21
-2.9553
0
LINE
8
BLACK
6
CONTINUOUS
10
6.35472
20
-2.9553
11
6.35472
21
-2.9553
0
LINE
8
BLACK
6
CONTINUOUS
10
6.35472
20
-2.9553
11
6.36056
21
-2.95751
0
LINE
8
BLACK
6
CONTINUOUS
10
6.36056
20
-2.95751
11
6.36059
21
-2.95752
0
LINE
8
BLACK
6
CONTINUOUS
10
6.36059
20
-2.95752
11
6.36059
21
-2.95752
0
LINE
8
BLACK
6
CONTINUOUS
10
6.36059
20
-2.95752
11
6.36242
21
-2.95822
0
LINE
8
BLACK
6
CONTINUOUS
10
6.36242
20
-2.95822
11
6.36244
21
-2.95823
0
LINE
8
BLACK
6
CONTINUOUS
10
6.36244
20
-2.95823
11
6.36244
21
-2.95823
0
LINE
8
BLACK
6
CONTINUOUS
10
6.36244
20
-2.95823
11
6.36824
21
-2.96051
0
LINE
8
BLACK
6
CONTINUOUS
10
6.36824
20
-2.96051
11
6.36827
21
-2.96052
0
LINE
8
BLACK
6
CONTINUOUS
10
6.36827
20
-2.96052
11
6.36827
21
-2.96052
0
LINE
8
BLACK
6
CONTINUOUS
10
6.36827
20
-2.96052
11
6.37404
21
-2.96285
0
LINE
8
BLACK
6
CONTINUOUS
10
6.37404
20
-2.96285
11
6.37408
21
-2.96287
0
LINE
8
BLACK
6
CONTINUOUS
10
6.37408
20
-2.96287
11
6.37408
21
-2.96287
0
LINE
8
BLACK
6
CONTINUOUS
10
6.37408
20
-2.96287
11
6.37967
21
-2.9652
0
LINE
8
BLACK
6
CONTINUOUS
10
6.37967
20
-2.9652
11
6.3797
21
-2.96521
0
LINE
8
BLACK
6
CONTINUOUS
10
6.3797
20
-2.96521
11
6.37971
21
-2.96521
0
LINE
8
BLACK
6
CONTINUOUS
10
6.37971
20
-2.96521
11
6.38524
21
-2.96758
0
LINE
8
BLACK
6
CONTINUOUS
10
6.38524
20
-2.96758
11
6.38527
21
-2.96759
0
LINE
8
BLACK
6
CONTINUOUS
10
6.38527
20
-2.96759
11
6.38527
21
-2.96759
0
LINE
8
BLACK
6
CONTINUOUS
10
6.38527
20
-2.96759
11
6.39079
21
-2.97001
0
LINE
8
BLACK
6
CONTINUOUS
10
6.39079
20
-2.97001
11
6.39082
21
-2.97002
0
LINE
8
BLACK
6
CONTINUOUS
10
6.39082
20
-2.97002
11
6.39082
21
-2.97002
0
LINE
8
BLACK
6
CONTINUOUS
10
6.39082
20
-2.97002
11
6.39635
21
-2.97251
0
LINE
8
BLACK
6
CONTINUOUS
10
6.39635
20
-2.97251
11
6.39638
21
-2.97252
0
LINE
8
BLACK
6
CONTINUOUS
10
6.39638
20
-2.97252
11
6.39638
21
-2.97252
0
LINE
8
BLACK
6
CONTINUOUS
10
6.39638
20
-2.97252
11
6.40197
21
-2.9751
0
LINE
8
BLACK
6
CONTINUOUS
10
6.40197
20
-2.9751
11
6.402
21
-2.97511
0
LINE
8
BLACK
6
CONTINUOUS
10
6.402
20
-2.97511
11
6.402
21
-2.97511
0
LINE
8
BLACK
6
CONTINUOUS
10
6.402
20
-2.97511
11
6.40738
21
-2.97764
0
LINE
8
BLACK
6
CONTINUOUS
10
6.40738
20
-2.97764
11
6.40741
21
-2.97766
0
LINE
8
BLACK
6
CONTINUOUS
10
6.40741
20
-2.97766
11
6.40741
21
-2.97766
0
LINE
8
BLACK
6
CONTINUOUS
10
6.40741
20
-2.97766
11
6.41323
21
-2.98046
0
LINE
8
BLACK
6
CONTINUOUS
10
6.41323
20
-2.98046
11
6.41326
21
-2.98047
0
LINE
8
BLACK
6
CONTINUOUS
10
6.41326
20
-2.98047
11
6.41326
21
-2.98047
0
LINE
8
BLACK
6
CONTINUOUS
10
6.41326
20
-2.98047
11
6.41856
21
-2.98309
0
LINE
8
BLACK
6
CONTINUOUS
10
6.41856
20
-2.98309
11
6.41859
21
-2.9831
0
LINE
8
BLACK
6
CONTINUOUS
10
6.41859
20
-2.9831
11
6.41859
21
-2.9831
0
LINE
8
BLACK
6
CONTINUOUS
10
6.41859
20
-2.9831
11
6.42395
21
-2.98579
0
LINE
8
BLACK
6
CONTINUOUS
10
6.42395
20
-2.98579
11
6.42398
21
-2.98581
0
LINE
8
BLACK
6
CONTINUOUS
10
6.42398
20
-2.98581
11
6.42398
21
-2.98581
0
LINE
8
BLACK
6
CONTINUOUS
10
6.42398
20
-2.98581
11
6.42921
21
-2.98849
0
LINE
8
BLACK
6
CONTINUOUS
10
6.42921
20
-2.98849
11
6.42924
21
-2.9885
0
LINE
8
BLACK
6
CONTINUOUS
10
6.42924
20
-2.9885
11
6.42924
21
-2.9885
0
LINE
8
BLACK
6
CONTINUOUS
10
6.42924
20
-2.9885
11
6.43461
21
-2.9913
0
LINE
8
BLACK
6
CONTINUOUS
10
6.43461
20
-2.9913
11
6.43463
21
-2.99132
0
LINE
8
BLACK
6
CONTINUOUS
10
6.43463
20
-2.99132
11
6.43463
21
-2.99132
0
LINE
8
BLACK
6
CONTINUOUS
10
6.43463
20
-2.99132
11
6.43983
21
-2.99408
0
LINE
8
BLACK
6
CONTINUOUS
10
6.43983
20
-2.99408
11
6.43986
21
-2.9941
0
LINE
8
BLACK
6
CONTINUOUS
10
6.43986
20
-2.9941
11
6.43986
21
-2.9941
0
LINE
8
BLACK
6
CONTINUOUS
10
6.43986
20
-2.9941
11
6.44504
21
-2.9969
0
LINE
8
BLACK
6
CONTINUOUS
10
6.44504
20
-2.9969
11
6.44507
21
-2.99691
0
LINE
8
BLACK
6
CONTINUOUS
10
6.44507
20
-2.99691
11
6.44507
21
-2.99691
0
LINE
8
BLACK
6
CONTINUOUS
10
6.44507
20
-2.99691
11
6.45031
21
-2.9998
0
LINE
8
BLACK
6
CONTINUOUS
10
6.45031
20
-2.9998
11
6.45034
21
-2.99981
0
LINE
8
BLACK
6
CONTINUOUS
10
6.45034
20
-2.99981
11
6.45034
21
-2.99981
0
LINE
8
BLACK
6
CONTINUOUS
10
6.45034
20
-2.99981
11
6.45568
21
-3.0028
0
LINE
8
BLACK
6
CONTINUOUS
10
6.45568
20
-3.0028
11
6.4557
21
-3.00281
0
LINE
8
BLACK
6
CONTINUOUS
10
6.4557
20
-3.00281
11
6.4557
21
-3.00281
0
LINE
8
BLACK
6
CONTINUOUS
10
6.4557
20
-3.00281
11
6.46073
21
-3.00567
0
LINE
8
BLACK
6
CONTINUOUS
10
6.46073
20
-3.00567
11
6.46075
21
-3.00568
0
LINE
8
BLACK
6
CONTINUOUS
10
6.46075
20
-3.00568
11
6.46075
21
-3.00568
0
LINE
8
BLACK
6
CONTINUOUS
10
6.46075
20
-3.00568
11
6.46584
21
-3.00862
0
LINE
8
BLACK
6
CONTINUOUS
10
6.46584
20
-3.00862
11
6.46586
21
-3.00863
0
LINE
8
BLACK
6
CONTINUOUS
10
6.46586
20
-3.00863
11
6.46586
21
-3.00863
0
LINE
8
BLACK
6
CONTINUOUS
10
6.46586
20
-3.00863
11
6.47087
21
-3.01156
0
LINE
8
BLACK
6
CONTINUOUS
10
6.47087
20
-3.01156
11
6.47089
21
-3.01157
0
LINE
8
BLACK
6
CONTINUOUS
10
6.47089
20
-3.01157
11
6.47089
21
-3.01157
0
LINE
8
BLACK
6
CONTINUOUS
10
6.47089
20
-3.01157
11
6.47592
21
-3.01455
0
LINE
8
BLACK
6
CONTINUOUS
10
6.47592
20
-3.01455
11
6.47594
21
-3.01457
0
LINE
8
BLACK
6
CONTINUOUS
10
6.47594
20
-3.01457
11
6.47594
21
-3.01457
0
LINE
8
BLACK
6
CONTINUOUS
10
6.47594
20
-3.01457
11
6.48095
21
-3.01758
0
LINE
8
BLACK
6
CONTINUOUS
10
6.48095
20
-3.01758
11
6.48097
21
-3.01759
0
LINE
8
BLACK
6
CONTINUOUS
10
6.48097
20
-3.01759
11
6.48097
21
-3.01759
0
LINE
8
BLACK
6
CONTINUOUS
10
6.48097
20
-3.01759
11
6.48612
21
-3.02073
0
LINE
8
BLACK
6
CONTINUOUS
10
6.48612
20
-3.02073
11
6.48614
21
-3.02074
0
LINE
8
BLACK
6
CONTINUOUS
10
6.48614
20
-3.02074
11
6.48614
21
-3.02074
0
LINE
8
BLACK
6
CONTINUOUS
10
6.48614
20
-3.02074
11
6.49106
21
-3.02377
0
LINE
8
BLACK
6
CONTINUOUS
10
6.49106
20
-3.02377
11
6.49108
21
-3.02379
0
LINE
8
BLACK
6
CONTINUOUS
10
6.49108
20
-3.02379
11
6.49108
21
-3.02379
0
LINE
8
BLACK
6
CONTINUOUS
10
6.49108
20
-3.02379
11
6.49599
21
-3.02685
0
LINE
8
BLACK
6
CONTINUOUS
10
6.49599
20
-3.02685
11
6.496
21
-3.02686
0
LINE
8
BLACK
6
CONTINUOUS
10
6.496
20
-3.02686
11
6.496
21
-3.02686
0
LINE
8
BLACK
6
CONTINUOUS
10
6.496
20
-3.02686
11
6.5009
21
-3.02995
0
LINE
8
BLACK
6
CONTINUOUS
10
6.5009
20
-3.02995
11
6.50091
21
-3.02996
0
LINE
8
BLACK
6
CONTINUOUS
10
6.50091
20
-3.02996
11
6.50092
21
-3.02996
0
LINE
8
BLACK
6
CONTINUOUS
10
6.50092
20
-3.02996
11
6.50587
21
-3.03313
0
LINE
8
BLACK
6
CONTINUOUS
10
6.50587
20
-3.03313
11
6.50589
21
-3.03314
0
LINE
8
BLACK
6
CONTINUOUS
10
6.50589
20
-3.03314
11
6.50589
21
-3.03314
0
LINE
8
BLACK
6
CONTINUOUS
10
6.50589
20
-3.03314
11
6.51077
21
-3.03628
0
LINE
8
BLACK
6
CONTINUOUS
10
6.51077
20
-3.03628
11
6.51078
21
-3.03629
0
LINE
8
BLACK
6
CONTINUOUS
10
6.51078
20
-3.03629
11
6.51078
21
-3.03629
0
LINE
8
BLACK
6
CONTINUOUS
10
6.51078
20
-3.03629
11
6.51586
21
-3.03961
0
LINE
8
BLACK
6
CONTINUOUS
10
6.51586
20
-3.03961
11
6.51588
21
-3.03962
0
LINE
8
BLACK
6
CONTINUOUS
10
6.51588
20
-3.03962
11
6.51588
21
-3.03962
0
LINE
8
BLACK
6
CONTINUOUS
10
6.51588
20
-3.03962
11
6.52081
21
-3.04286
0
LINE
8
BLACK
6
CONTINUOUS
10
6.52081
20
-3.04286
11
6.52082
21
-3.04287
0
LINE
8
BLACK
6
CONTINUOUS
10
6.52082
20
-3.04287
11
6.52082
21
-3.04287
0
LINE
8
BLACK
6
CONTINUOUS
10
6.52082
20
-3.04287
11
6.5256
21
-3.04605
0
LINE
8
BLACK
6
CONTINUOUS
10
6.5256
20
-3.04605
11
6.52561
21
-3.04605
0
LINE
8
BLACK
6
CONTINUOUS
10
6.52561
20
-3.04605
11
6.52561
21
-3.04605
0
LINE
8
BLACK
6
CONTINUOUS
10
6.52561
20
-3.04605
11
6.53045
21
-3.0493
0
LINE
8
BLACK
6
CONTINUOUS
10
6.53045
20
-3.0493
11
6.53046
21
-3.04931
0
LINE
8
BLACK
6
CONTINUOUS
10
6.53046
20
-3.04931
11
6.53046
21
-3.04931
0
LINE
8
BLACK
6
CONTINUOUS
10
6.53046
20
-3.04931
11
6.53525
21
-3.05255
0
LINE
8
BLACK
6
CONTINUOUS
10
6.53525
20
-3.05255
11
6.53527
21
-3.05256
0
LINE
8
BLACK
6
CONTINUOUS
10
6.53527
20
-3.05256
11
6.53527
21
-3.05256
0
LINE
8
BLACK
6
CONTINUOUS
10
6.53527
20
-3.05256
11
6.54019
21
-3.05592
0
LINE
8
BLACK
6
CONTINUOUS
10
6.54019
20
-3.05592
11
6.54021
21
-3.05593
0
LINE
8
BLACK
6
CONTINUOUS
10
6.54021
20
-3.05593
11
6.54021
21
-3.05593
0
LINE
8
BLACK
6
CONTINUOUS
10
6.54021
20
-3.05593
11
6.54495
21
-3.05919
0
LINE
8
BLACK
6
CONTINUOUS
10
6.54495
20
-3.05919
11
6.54496
21
-3.0592
0
LINE
8
BLACK
6
CONTINUOUS
10
6.54496
20
-3.0592
11
6.54496
21
-3.0592
0
LINE
8
BLACK
6
CONTINUOUS
10
6.54496
20
-3.0592
11
6.55005
21
-3.06273
0
LINE
8
BLACK
6
CONTINUOUS
10
6.55005
20
-3.06273
11
6.55006
21
-3.06273
0
LINE
8
BLACK
6
CONTINUOUS
10
6.55006
20
-3.06273
11
6.55006
21
-3.06273
0
LINE
8
BLACK
6
CONTINUOUS
10
6.55006
20
-3.06273
11
6.55486
21
-3.06608
0
LINE
8
BLACK
6
CONTINUOUS
10
6.55486
20
-3.06608
11
6.55487
21
-3.06609
0
LINE
8
BLACK
6
CONTINUOUS
10
6.55487
20
-3.06609
11
6.55487
21
-3.06609
0
LINE
8
BLACK
6
CONTINUOUS
10
6.55487
20
-3.06609
11
6.55966
21
-3.06946
0
LINE
8
BLACK
6
CONTINUOUS
10
6.55966
20
-3.06946
11
6.55967
21
-3.06947
0
LINE
8
BLACK
6
CONTINUOUS
10
6.55967
20
-3.06947
11
6.55967
21
-3.06947
0
LINE
8
BLACK
6
CONTINUOUS
10
6.55967
20
-3.06947
11
6.56473
21
-3.07305
0
LINE
8
BLACK
6
CONTINUOUS
10
6.56473
20
-3.07305
11
6.56474
21
-3.07306
0
LINE
8
BLACK
6
CONTINUOUS
10
6.56474
20
-3.07306
11
6.56474
21
-3.07306
0
LINE
8
BLACK
6
CONTINUOUS
10
6.56474
20
-3.07306
11
6.56959
21
-3.07651
0
LINE
8
BLACK
6
CONTINUOUS
10
6.56959
20
-3.07651
11
6.5696
21
-3.07652
0
LINE
8
BLACK
6
CONTINUOUS
10
6.5696
20
-3.07652
11
6.5696
21
-3.07652
0
LINE
8
BLACK
6
CONTINUOUS
10
6.5696
20
-3.07652
11
6.5743
21
-3.07989
0
LINE
8
BLACK
6
CONTINUOUS
10
6.5743
20
-3.07989
11
6.57431
21
-3.07989
0
LINE
8
BLACK
6
CONTINUOUS
10
6.57431
20
-3.07989
11
6.57431
21
-3.07989
0
LINE
8
BLACK
6
CONTINUOUS
10
6.57431
20
-3.07989
11
6.57908
21
-3.08333
0
LINE
8
BLACK
6
CONTINUOUS
10
6.57908
20
-3.08333
11
6.57908
21
-3.08333
0
LINE
8
BLACK
6
CONTINUOUS
10
6.57908
20
-3.08333
11
6.57908
21
-3.08333
0
LINE
8
BLACK
6
CONTINUOUS
10
6.57908
20
-3.08333
11
6.5837
21
-3.08668
0
LINE
8
BLACK
6
CONTINUOUS
10
6.5837
20
-3.08668
11
6.58371
21
-3.08668
0
LINE
8
BLACK
6
CONTINUOUS
10
6.58371
20
-3.08668
11
6.58371
21
-3.08668
0
LINE
8
BLACK
6
CONTINUOUS
10
6.58371
20
-3.08668
11
6.58875
21
-3.09035
0
LINE
8
BLACK
6
CONTINUOUS
10
6.58875
20
-3.09035
11
6.58875
21
-3.09035
0
LINE
8
BLACK
6
CONTINUOUS
10
6.58875
20
-3.09035
11
6.58875
21
-3.09035
0
LINE
8
BLACK
6
CONTINUOUS
10
6.58875
20
-3.09035
11
6.59378
21
-3.09403
0
LINE
8
BLACK
6
CONTINUOUS
10
6.59378
20
-3.09403
11
6.59379
21
-3.09403
0
LINE
8
BLACK
6
CONTINUOUS
10
6.59379
20
-3.09403
11
6.59379
21
-3.09403
0
LINE
8
BLACK
6
CONTINUOUS
10
6.59379
20
-3.09403
11
6.5984
21
-3.09742
0
LINE
8
BLACK
6
CONTINUOUS
10
6.5984
20
-3.09742
11
6.5984
21
-3.09742
0
LINE
8
BLACK
6
CONTINUOUS
10
6.5984
20
-3.09742
11
6.5984
21
-3.09742
0
LINE
8
BLACK
6
CONTINUOUS
10
6.5984
20
-3.09742
11
6.60315
21
-3.10091
0
LINE
8
BLACK
6
CONTINUOUS
10
6.60315
20
-3.10091
11
6.60315
21
-3.10092
0
LINE
8
BLACK
6
CONTINUOUS
10
6.60315
20
-3.10092
11
6.60315
21
-3.10092
0
LINE
8
BLACK
6
CONTINUOUS
10
6.60315
20
-3.10092
11
6.60775
21
-3.10432
0
LINE
8
BLACK
6
CONTINUOUS
10
6.60775
20
-3.10432
11
6.60775
21
-3.10432
0
LINE
8
BLACK
6
CONTINUOUS
10
6.60775
20
-3.10432
11
6.60775
21
-3.10432
0
LINE
8
BLACK
6
CONTINUOUS
10
6.60775
20
-3.10432
11
6.61263
21
-3.10794
0
LINE
8
BLACK
6
CONTINUOUS
10
6.61263
20
-3.10794
11
6.61263
21
-3.10794
0
LINE
8
BLACK
6
CONTINUOUS
10
6.61263
20
-3.10794
11
6.61263
21
-3.10794
0
LINE
8
BLACK
6
CONTINUOUS
10
6.61263
20
-3.10794
11
6.61737
21
-3.11146
0
LINE
8
BLACK
6
CONTINUOUS
10
6.61737
20
-3.11146
11
6.61737
21
-3.11147
0
LINE
8
BLACK
6
CONTINUOUS
10
6.61737
20
-3.11147
11
6.61737
21
-3.11147
0
LINE
8
BLACK
6
CONTINUOUS
10
6.61737
20
-3.11147
11
6.62224
21
-3.1151
0
LINE
8
BLACK
6
CONTINUOUS
10
6.62224
20
-3.1151
11
6.62224
21
-3.1151
0
LINE
8
BLACK
6
CONTINUOUS
10
6.62224
20
-3.1151
11
6.62224
21
-3.1151
0
LINE
8
BLACK
6
CONTINUOUS
10
6.62224
20
-3.1151
11
6.62711
21
-3.11874
0
LINE
8
BLACK
6
CONTINUOUS
10
6.62711
20
-3.11874
11
6.62711
21
-3.11874
0
LINE
8
BLACK
6
CONTINUOUS
10
6.62711
20
-3.11874
11
6.6317
21
-3.12218
0
LINE
8
BLACK
6
CONTINUOUS
10
6.6317
20
-3.12218
11
6.6317
21
-3.12218
0
LINE
8
BLACK
6
CONTINUOUS
10
6.6317
20
-3.12218
11
6.63663
21
-3.12588
0
LINE
8
BLACK
6
CONTINUOUS
10
6.63663
20
-3.12588
11
6.63663
21
-3.12589
0
LINE
8
BLACK
6
CONTINUOUS
10
6.63663
20
-3.12589
11
6.63663
21
-3.12589
0
LINE
8
BLACK
6
CONTINUOUS
10
6.63663
20
-3.12589
11
6.64253
21
-3.13032
0
LINE
8
BLACK
6
CONTINUOUS
10
6.64253
20
-3.13032
11
6.64254
21
-3.13032
0
LINE
8
BLACK
6
CONTINUOUS
10
6.64254
20
-3.13032
11
6.64719
21
-3.13382
0
LINE
8
BLACK
6
CONTINUOUS
10
6.64719
20
-3.13382
11
6.64719
21
-3.13382
0
LINE
8
BLACK
6
CONTINUOUS
10
6.64719
20
-3.13382
11
6.64719
21
-3.13382
0
LINE
8
BLACK
6
CONTINUOUS
10
6.64719
20
-3.13382
11
6.65253
21
-3.13785
0
LINE
8
BLACK
6
CONTINUOUS
10
6.65253
20
-3.13785
11
6.65253
21
-3.13785
0
LINE
8
BLACK
6
CONTINUOUS
10
6.65253
20
-3.13785
11
6.65734
21
-3.14147
0
LINE
8
BLACK
6
CONTINUOUS
10
6.65734
20
-3.14147
11
6.65747
21
-3.14155
0
LINE
8
BLACK
6
CONTINUOUS
10
6.65747
20
-3.14155
11
6.65805
21
-3.14206
0
LINE
8
BLACK
6
CONTINUOUS
10
6.65805
20
-3.14206
11
6.65852
21
-3.14268
0
LINE
8
BLACK
6
CONTINUOUS
10
6.65852
20
-3.14268
11
6.65887
21
-3.14337
0
LINE
8
BLACK
6
CONTINUOUS
10
6.65887
20
-3.14337
11
6.65907
21
-3.14412
0
LINE
8
BLACK
6
CONTINUOUS
10
6.65907
20
-3.14412
11
6.65911
21
-3.14489
0
LINE
8
BLACK
6
CONTINUOUS
10
6.65911
20
-3.14489
11
6.65901
21
-3.14566
0
LINE
8
BLACK
6
CONTINUOUS
10
6.65901
20
-3.14566
11
6.65876
21
-3.1464
0
LINE
8
BLACK
6
CONTINUOUS
10
6.65876
20
-3.1464
11
6.65837
21
-3.14707
0
LINE
8
BLACK
6
CONTINUOUS
10
6.65837
20
-3.14707
11
6.65799
21
-3.14751
0
LINE
8
BLACK
6
CONTINUOUS
10
6.65799
20
-3.14751
11
5.71885
21
-4.02404
0
LINE
8
BLACK
6
CONTINUOUS
10
5.71885
20
-4.02404
11
5.71877
21
-4.02413
0
LINE
8
BLACK
6
CONTINUOUS
10
5.71877
20
-4.02413
11
5.71857
21
-4.0243
0
LINE
8
BLACK
6
CONTINUOUS
10
5.71857
20
-4.0243
11
5.71852
21
-4.02435
0
LINE
8
BLACK
6
CONTINUOUS
10
5.71852
20
-4.02435
11
5.71842
21
-4.02442
0
LINE
8
BLACK
6
CONTINUOUS
10
5.71842
20
-4.02442
11
5.71817
21
-4.02463
0
LINE
8
BLACK
6
CONTINUOUS
10
5.71817
20
-4.02463
11
5.71811
21
-4.02466
0
LINE
8
BLACK
6
CONTINUOUS
10
5.71811
20
-4.02466
11
5.71805
21
-4.0247
0
LINE
8
BLACK
6
CONTINUOUS
10
5.71805
20
-4.0247
11
5.71777
21
-4.02484
0
LINE
8
BLACK
6
CONTINUOUS
10
5.71777
20
-4.02484
11
5.71748
21
-4.02499
0
LINE
8
BLACK
6
CONTINUOUS
10
5.71748
20
-4.02499
11
5.71742
21
-4.02501
0
LINE
8
BLACK
6
CONTINUOUS
10
5.71742
20
-4.02501
11
5.71736
21
-4.02504
0
LINE
8
BLACK
6
CONTINUOUS
10
5.71736
20
-4.02504
11
5.71705
21
-4.02512
0
LINE
8
BLACK
6
CONTINUOUS
10
5.71705
20
-4.02512
11
5.71674
21
-4.02522
0
LINE
8
BLACK
6
CONTINUOUS
10
5.71674
20
-4.02522
11
5.71667
21
-4.02522
0
LINE
8
BLACK
6
CONTINUOUS
10
5.71667
20
-4.02522
11
5.71661
21
-4.02524
0
LINE
8
BLACK
6
CONTINUOUS
10
5.71661
20
-4.02524
11
5.71629
21
-4.02526
0
LINE
8
BLACK
6
CONTINUOUS
10
5.71629
20
-4.02526
11
5.71616
21
-4.02527
0
LINE
8
BLACK
6
CONTINUOUS
10
5.71616
20
-4.02527
11
5.7161
21
-4.02527
0
LINE
8
BLACK
6
CONTINUOUS
10
5.7161
20
-4.02527
11
5.71583
21
-4.02529
0
LINE
8
BLACK
6
CONTINUOUS
10
5.71583
20
-4.02529
11
5.71571
21
-4.02527
0
LINE
8
BLACK
6
CONTINUOUS
10
5.71571
20
-4.02527
11
5.35194
21
-4.02527
0
LINE
8
BLACK
6
CONTINUOUS
10
5.35194
20
-4.02527
11
5.35182
21
-4.02529
0
LINE
8
BLACK
6
CONTINUOUS
10
5.35182
20
-4.02529
11
5.35155
21
-4.02527
0
LINE
8
BLACK
6
CONTINUOUS
10
5.35155
20
-4.02527
11
5.35149
21
-4.02527
0
LINE
8
BLACK
6
CONTINUOUS
10
5.35149
20
-4.02527
11
5.35136
21
-4.02526
0
LINE
8
BLACK
6
CONTINUOUS
10
5.35136
20
-4.02526
11
5.35104
21
-4.02524
0
LINE
8
BLACK
6
CONTINUOUS
10
5.35104
20
-4.02524
11
5.35098
21
-4.02522
0
LINE
8
BLACK
6
CONTINUOUS
10
5.35098
20
-4.02522
11
5.35091
21
-4.02522
0
LINE
8
BLACK
6
CONTINUOUS
10
5.35091
20
-4.02522
11
5.3506
21
-4.02512
0
LINE
8
BLACK
6
CONTINUOUS
10
5.3506
20
-4.02512
11
5.35029
21
-4.02504
0
LINE
8
BLACK
6
CONTINUOUS
10
5.35029
20
-4.02504
11
5.35023
21
-4.02501
0
LINE
8
BLACK
6
CONTINUOUS
10
5.35023
20
-4.02501
11
5.35017
21
-4.02499
0
LINE
8
BLACK
6
CONTINUOUS
10
5.35017
20
-4.02499
11
5.34988
21
-4.02484
0
LINE
8
BLACK
6
CONTINUOUS
10
5.34988
20
-4.02484
11
5.3496
21
-4.0247
0
LINE
8
BLACK
6
CONTINUOUS
10
5.3496
20
-4.0247
11
5.34954
21
-4.02466
0
LINE
8
BLACK
6
CONTINUOUS
10
5.34954
20
-4.02466
11
5.34948
21
-4.02463
0
LINE
8
BLACK
6
CONTINUOUS
10
5.34948
20
-4.02463
11
5.34923
21
-4.02442
0
LINE
8
BLACK
6
CONTINUOUS
10
5.34923
20
-4.02442
11
5.34913
21
-4.02435
0
LINE
8
BLACK
6
CONTINUOUS
10
5.34913
20
-4.02435
11
5.34908
21
-4.0243
0
LINE
8
BLACK
6
CONTINUOUS
10
5.34908
20
-4.0243
11
5.34888
21
-4.02413
0
LINE
8
BLACK
6
CONTINUOUS
10
5.34888
20
-4.02413
11
5.3488
21
-4.02404
0
LINE
8
BLACK
6
CONTINUOUS
10
5.3488
20
-4.02404
11
4.40966
21
-3.14751
0
LINE
8
BLACK
6
CONTINUOUS
10
4.40966
20
-3.14751
11
4.40928
21
-3.14707
0
LINE
8
BLACK
6
CONTINUOUS
10
4.40928
20
-3.14707
11
4.40889
21
-3.1464
0
LINE
8
BLACK
6
CONTINUOUS
10
4.40889
20
-3.1464
11
4.40864
21
-3.14566
0
LINE
8
BLACK
6
CONTINUOUS
10
4.40864
20
-3.14566
11
4.40854
21
-3.14489
0
LINE
8
BLACK
6
CONTINUOUS
10
4.40854
20
-3.14489
11
4.40858
21
-3.14412
0
LINE
8
BLACK
6
CONTINUOUS
10
4.40858
20
-3.14412
11
4.40878
21
-3.14337
0
LINE
8
BLACK
6
CONTINUOUS
10
4.40878
20
-3.14337
11
4.40913
21
-3.14268
0
LINE
8
BLACK
6
CONTINUOUS
10
4.40913
20
-3.14268
11
4.4096
21
-3.14206
0
LINE
8
BLACK
6
CONTINUOUS
10
4.4096
20
-3.14206
11
4.41018
21
-3.14155
0
LINE
8
BLACK
6
CONTINUOUS
10
4.41018
20
-3.14155
11
4.41031
21
-3.14147
0
LINE
8
BLACK
6
CONTINUOUS
10
4.41031
20
-3.14147
11
4.41394
21
-3.13874
0
LINE
8
BLACK
6
CONTINUOUS
10
4.41394
20
-3.13874
11
4.41394
21
-3.13874
0
LINE
8
BLACK
6
CONTINUOUS
10
4.41394
20
-3.13874
11
4.41845
21
-3.13534
0
LINE
8
BLACK
6
CONTINUOUS
10
4.41845
20
-3.13534
11
4.41845
21
-3.13534
0
LINE
8
BLACK
6
CONTINUOUS
10
4.41845
20
-3.13534
11
4.41845
21
-3.13534
0
LINE
8
BLACK
6
CONTINUOUS
10
4.41845
20
-3.13534
11
4.42428
21
-3.13095
0
LINE
8
BLACK
6
CONTINUOUS
10
4.42428
20
-3.13095
11
4.42428
21
-3.13095
0
LINE
8
BLACK
6
CONTINUOUS
10
4.42428
20
-3.13095
11
4.42428
21
-3.13095
0
LINE
8
BLACK
6
CONTINUOUS
10
4.42428
20
-3.13095
11
4.42928
21
-3.12719
0
LINE
8
BLACK
6
CONTINUOUS
10
4.42928
20
-3.12719
11
4.42928
21
-3.12719
0
LINE
8
BLACK
6
CONTINUOUS
10
4.42928
20
-3.12719
11
4.42928
21
-3.12719
0
LINE
8
BLACK
6
CONTINUOUS
10
4.42928
20
-3.12719
11
4.43428
21
-3.12343
0
LINE
8
BLACK
6
CONTINUOUS
10
4.43428
20
-3.12343
11
4.43428
21
-3.12343
0
LINE
8
BLACK
6
CONTINUOUS
10
4.43428
20
-3.12343
11
4.43429
21
-3.12343
0
LINE
8
BLACK
6
CONTINUOUS
10
4.43429
20
-3.12343
11
4.43929
21
-3.11968
0
LINE
8
BLACK
6
CONTINUOUS
10
4.43929
20
-3.11968
11
4.43929
21
-3.11968
0
LINE
8
BLACK
6
CONTINUOUS
10
4.43929
20
-3.11968
11
4.44388
21
-3.11625
0
LINE
8
BLACK
6
CONTINUOUS
10
4.44388
20
-3.11625
11
4.44388
21
-3.11624
0
LINE
8
BLACK
6
CONTINUOUS
10
4.44388
20
-3.11624
11
4.44388
21
-3.11624
0
LINE
8
BLACK
6
CONTINUOUS
10
4.44388
20
-3.11624
11
4.44861
21
-3.11271
0
LINE
8
BLACK
6
CONTINUOUS
10
4.44861
20
-3.11271
11
4.44861
21
-3.11271
0
LINE
8
BLACK
6
CONTINUOUS
10
4.44861
20
-3.11271
11
4.4532
21
-3.10929
0
LINE
8
BLACK
6
CONTINUOUS
10
4.4532
20
-3.10929
11
4.45321
21
-3.10929
0
LINE
8
BLACK
6
CONTINUOUS
10
4.45321
20
-3.10929
11
4.45321
21
-3.10929
0
LINE
8
BLACK
6
CONTINUOUS
10
4.45321
20
-3.10929
11
4.45822
21
-3.10556
0
LINE
8
BLACK
6
CONTINUOUS
10
4.45822
20
-3.10556
11
4.45823
21
-3.10556
0
LINE
8
BLACK
6
CONTINUOUS
10
4.45823
20
-3.10556
11
4.45823
21
-3.10556
0
LINE
8
BLACK
6
CONTINUOUS
10
4.45823
20
-3.10556
11
4.46324
21
-3.10185
0
LINE
8
BLACK
6
CONTINUOUS
10
4.46324
20
-3.10185
11
4.46325
21
-3.10184
0
LINE
8
BLACK
6
CONTINUOUS
10
4.46325
20
-3.10184
11
4.46325
21
-3.10184
0
LINE
8
BLACK
6
CONTINUOUS
10
4.46325
20
-3.10184
11
4.46813
21
-3.09824
0
LINE
8
BLACK
6
CONTINUOUS
10
4.46813
20
-3.09824
11
4.46813
21
-3.09824
0
LINE
8
BLACK
6
CONTINUOUS
10
4.46813
20
-3.09824
11
4.46813
21
-3.09824
0
LINE
8
BLACK
6
CONTINUOUS
10
4.46813
20
-3.09824
11
4.47274
21
-3.09485
0
LINE
8
BLACK
6
CONTINUOUS
10
4.47274
20
-3.09485
11
4.47275
21
-3.09485
0
LINE
8
BLACK
6
CONTINUOUS
10
4.47275
20
-3.09485
11
4.47275
21
-3.09485
0
LINE
8
BLACK
6
CONTINUOUS
10
4.47275
20
-3.09485
11
4.47757
21
-3.09132
0
LINE
8
BLACK
6
CONTINUOUS
10
4.47757
20
-3.09132
11
4.47757
21
-3.09132
0
LINE
8
BLACK
6
CONTINUOUS
10
4.47757
20
-3.09132
11
4.47757
21
-3.09132
0
LINE
8
BLACK
6
CONTINUOUS
10
4.47757
20
-3.09132
11
4.48226
21
-3.0879
0
LINE
8
BLACK
6
CONTINUOUS
10
4.48226
20
-3.0879
11
4.48226
21
-3.0879
0
LINE
8
BLACK
6
CONTINUOUS
10
4.48226
20
-3.0879
11
4.48226
21
-3.0879
0
LINE
8
BLACK
6
CONTINUOUS
10
4.48226
20
-3.0879
11
4.4873
21
-3.08424
0
LINE
8
BLACK
6
CONTINUOUS
10
4.4873
20
-3.08424
11
4.48731
21
-3.08424
0
LINE
8
BLACK
6
CONTINUOUS
10
4.48731
20
-3.08424
11
4.48731
21
-3.08424
0
LINE
8
BLACK
6
CONTINUOUS
10
4.48731
20
-3.08424
11
4.49222
21
-3.0807
0
LINE
8
BLACK
6
CONTINUOUS
10
4.49222
20
-3.0807
11
4.49222
21
-3.08069
0
LINE
8
BLACK
6
CONTINUOUS
10
4.49222
20
-3.08069
11
4.49222
21
-3.08069
0
LINE
8
BLACK
6
CONTINUOUS
10
4.49222
20
-3.08069
11
4.49728
21
-3.07707
0
LINE
8
BLACK
6
CONTINUOUS
10
4.49728
20
-3.07707
11
4.49728
21
-3.07707
0
LINE
8
BLACK
6
CONTINUOUS
10
4.49728
20
-3.07707
11
4.49728
21
-3.07706
0
LINE
8
BLACK
6
CONTINUOUS
10
4.49728
20
-3.07706
11
4.50206
21
-3.07366
0
LINE
8
BLACK
6
CONTINUOUS
10
4.50206
20
-3.07366
11
4.50207
21
-3.07365
0
LINE
8
BLACK
6
CONTINUOUS
10
4.50207
20
-3.07365
11
4.50207
21
-3.07365
0
LINE
8
BLACK
6
CONTINUOUS
10
4.50207
20
-3.07365
11
4.50685
21
-3.07026
0
LINE
8
BLACK
6
CONTINUOUS
10
4.50685
20
-3.07026
11
4.50686
21
-3.07026
0
LINE
8
BLACK
6
CONTINUOUS
10
4.50686
20
-3.07026
11
4.50686
21
-3.07026
0
LINE
8
BLACK
6
CONTINUOUS
10
4.50686
20
-3.07026
11
4.51165
21
-3.06688
0
LINE
8
BLACK
6
CONTINUOUS
10
4.51165
20
-3.06688
11
4.51166
21
-3.06688
0
LINE
8
BLACK
6
CONTINUOUS
10
4.51166
20
-3.06688
11
4.51166
21
-3.06688
0
LINE
8
BLACK
6
CONTINUOUS
10
4.51166
20
-3.06688
11
4.51646
21
-3.06352
0
LINE
8
BLACK
6
CONTINUOUS
10
4.51646
20
-3.06352
11
4.51647
21
-3.06352
0
LINE
8
BLACK
6
CONTINUOUS
10
4.51647
20
-3.06352
11
4.51647
21
-3.06351
0
LINE
8
BLACK
6
CONTINUOUS
10
4.51647
20
-3.06351
11
4.52184
21
-3.05979
0
LINE
8
BLACK
6
CONTINUOUS
10
4.52184
20
-3.05979
11
4.52185
21
-3.05978
0
LINE
8
BLACK
6
CONTINUOUS
10
4.52185
20
-3.05978
11
4.52185
21
-3.05978
0
LINE
8
BLACK
6
CONTINUOUS
10
4.52185
20
-3.05978
11
4.52666
21
-3.05647
0
LINE
8
BLACK
6
CONTINUOUS
10
4.52666
20
-3.05647
11
4.52667
21
-3.05646
0
LINE
8
BLACK
6
CONTINUOUS
10
4.52667
20
-3.05646
11
4.52667
21
-3.05646
0
LINE
8
BLACK
6
CONTINUOUS
10
4.52667
20
-3.05646
11
4.53157
21
-3.05312
0
LINE
8
BLACK
6
CONTINUOUS
10
4.53157
20
-3.05312
11
4.53158
21
-3.05311
0
LINE
8
BLACK
6
CONTINUOUS
10
4.53158
20
-3.05311
11
4.53158
21
-3.05311
0
LINE
8
BLACK
6
CONTINUOUS
10
4.53158
20
-3.05311
11
4.53633
21
-3.04988
0
LINE
8
BLACK
6
CONTINUOUS
10
4.53633
20
-3.04988
11
4.53635
21
-3.04988
0
LINE
8
BLACK
6
CONTINUOUS
10
4.53635
20
-3.04988
11
4.53635
21
-3.04988
0
LINE
8
BLACK
6
CONTINUOUS
10
4.53635
20
-3.04988
11
4.54147
21
-3.04644
0
LINE
8
BLACK
6
CONTINUOUS
10
4.54147
20
-3.04644
11
4.54148
21
-3.04643
0
LINE
8
BLACK
6
CONTINUOUS
10
4.54148
20
-3.04643
11
4.54148
21
-3.04643
0
LINE
8
BLACK
6
CONTINUOUS
10
4.54148
20
-3.04643
11
4.54633
21
-3.0432
0
LINE
8
BLACK
6
CONTINUOUS
10
4.54633
20
-3.0432
11
4.54634
21
-3.04319
0
LINE
8
BLACK
6
CONTINUOUS
10
4.54634
20
-3.04319
11
4.54634
21
-3.04319
0
LINE
8
BLACK
6
CONTINUOUS
10
4.54634
20
-3.04319
11
4.5512
21
-3.03999
0
LINE
8
BLACK
6
CONTINUOUS
10
4.5512
20
-3.03999
11
4.55121
21
-3.03998
0
LINE
8
BLACK
6
CONTINUOUS
10
4.55121
20
-3.03998
11
4.55121
21
-3.03998
0
LINE
8
BLACK
6
CONTINUOUS
10
4.55121
20
-3.03998
11
4.55608
21
-3.03681
0
LINE
8
BLACK
6
CONTINUOUS
10
4.55608
20
-3.03681
11
4.55609
21
-3.0368
0
LINE
8
BLACK
6
CONTINUOUS
10
4.55609
20
-3.0368
11
4.55609
21
-3.0368
0
LINE
8
BLACK
6
CONTINUOUS
10
4.55609
20
-3.0368
11
4.56097
21
-3.03365
0
LINE
8
BLACK
6
CONTINUOUS
10
4.56097
20
-3.03365
11
4.56098
21
-3.03364
0
LINE
8
BLACK
6
CONTINUOUS
10
4.56098
20
-3.03364
11
4.56098
21
-3.03364
0
LINE
8
BLACK
6
CONTINUOUS
10
4.56098
20
-3.03364
11
4.56587
21
-3.03051
0
LINE
8
BLACK
6
CONTINUOUS
10
4.56587
20
-3.03051
11
4.56588
21
-3.0305
0
LINE
8
BLACK
6
CONTINUOUS
10
4.56588
20
-3.0305
11
4.56589
21
-3.0305
0
LINE
8
BLACK
6
CONTINUOUS
10
4.56589
20
-3.0305
11
4.57161
21
-3.02688
0
LINE
8
BLACK
6
CONTINUOUS
10
4.57161
20
-3.02688
11
4.57163
21
-3.02687
0
LINE
8
BLACK
6
CONTINUOUS
10
4.57163
20
-3.02687
11
4.57163
21
-3.02687
0
LINE
8
BLACK
6
CONTINUOUS
10
4.57163
20
-3.02687
11
4.57657
21
-3.02379
0
LINE
8
BLACK
6
CONTINUOUS
10
4.57657
20
-3.02379
11
4.57659
21
-3.02378
0
LINE
8
BLACK
6
CONTINUOUS
10
4.57659
20
-3.02378
11
4.57659
21
-3.02377
0
LINE
8
BLACK
6
CONTINUOUS
10
4.57659
20
-3.02377
11
4.58151
21
-3.02074
0
LINE
8
BLACK
6
CONTINUOUS
10
4.58151
20
-3.02074
11
4.58153
21
-3.02073
0
LINE
8
BLACK
6
CONTINUOUS
10
4.58153
20
-3.02073
11
4.58153
21
-3.02073
0
LINE
8
BLACK
6
CONTINUOUS
10
4.58153
20
-3.02073
11
4.58675
21
-3.01755
0
LINE
8
BLACK
6
CONTINUOUS
10
4.58675
20
-3.01755
11
4.58677
21
-3.01754
0
LINE
8
BLACK
6
CONTINUOUS
10
4.58677
20
-3.01754
11
4.58677
21
-3.01754
0
LINE
8
BLACK
6
CONTINUOUS
10
4.58677
20
-3.01754
11
4.59178
21
-3.01452
0
LINE
8
BLACK
6
CONTINUOUS
10
4.59178
20
-3.01452
11
4.5918
21
-3.01451
0
LINE
8
BLACK
6
CONTINUOUS
10
4.5918
20
-3.01451
11
4.5918
21
-3.01451
0
LINE
8
BLACK
6
CONTINUOUS
10
4.5918
20
-3.01451
11
4.59698
21
-3.01144
0
LINE
8
BLACK
6
CONTINUOUS
10
4.59698
20
-3.01144
11
4.597
21
-3.01143
0
LINE
8
BLACK
6
CONTINUOUS
10
4.597
20
-3.01143
11
4.597
21
-3.01143
0
LINE
8
BLACK
6
CONTINUOUS
10
4.597
20
-3.01143
11
4.60226
21
-3.00836
0
LINE
8
BLACK
6
CONTINUOUS
10
4.60226
20
-3.00836
11
4.60228
21
-3.00834
0
LINE
8
BLACK
6
CONTINUOUS
10
4.60228
20
-3.00834
11
4.60228
21
-3.00834
0
LINE
8
BLACK
6
CONTINUOUS
10
4.60228
20
-3.00834
11
4.60749
21
-3.00535
0
LINE
8
BLACK
6
CONTINUOUS
10
4.60749
20
-3.00535
11
4.60751
21
-3.00534
0
LINE
8
BLACK
6
CONTINUOUS
10
4.60751
20
-3.00534
11
4.60751
21
-3.00533
0
LINE
8
BLACK
6
CONTINUOUS
10
4.60751
20
-3.00533
11
4.61254
21
-3.00248
0
LINE
8
BLACK
6
CONTINUOUS
10
4.61254
20
-3.00248
11
4.61256
21
-3.00247
0
LINE
8
BLACK
6
CONTINUOUS
10
4.61256
20
-3.00247
11
4.61256
21
-3.00247
0
LINE
8
BLACK
6
CONTINUOUS
10
4.61256
20
-3.00247
11
4.61768
21
-2.99961
0
LINE
8
BLACK
6
CONTINUOUS
10
4.61768
20
-2.99961
11
4.61771
21
-2.9996
0
LINE
8
BLACK
6
CONTINUOUS
10
4.61771
20
-2.9996
11
4.61771
21
-2.99959
0
LINE
8
BLACK
6
CONTINUOUS
10
4.61771
20
-2.99959
11
4.62288
21
-2.99675
0
LINE
8
BLACK
6
CONTINUOUS
10
4.62288
20
-2.99675
11
4.6229
21
-2.99674
0
LINE
8
BLACK
6
CONTINUOUS
10
4.6229
20
-2.99674
11
4.6229
21
-2.99674
0
LINE
8
BLACK
6
CONTINUOUS
10
4.6229
20
-2.99674
11
4.62802
21
-2.99398
0
LINE
8
BLACK
6
CONTINUOUS
10
4.62802
20
-2.99398
11
4.62804
21
-2.99396
0
LINE
8
BLACK
6
CONTINUOUS
10
4.62804
20
-2.99396
11
4.62804
21
-2.99396
0
LINE
8
BLACK
6
CONTINUOUS
10
4.62804
20
-2.99396
11
4.63332
21
-2.99116
0
LINE
8
BLACK
6
CONTINUOUS
10
4.63332
20
-2.99116
11
4.63334
21
-2.99115
0
LINE
8
BLACK
6
CONTINUOUS
10
4.63334
20
-2.99115
11
4.63334
21
-2.99115
0
LINE
8
BLACK
6
CONTINUOUS
10
4.63334
20
-2.99115
11
4.63856
21
-2.98843
0
LINE
8
BLACK
6
CONTINUOUS
10
4.63856
20
-2.98843
11
4.63859
21
-2.98841
0
LINE
8
BLACK
6
CONTINUOUS
10
4.63859
20
-2.98841
11
4.63859
21
-2.98841
0
LINE
8
BLACK
6
CONTINUOUS
10
4.63859
20
-2.98841
11
4.6439
21
-2.98569
0
LINE
8
BLACK
6
CONTINUOUS
10
4.6439
20
-2.98569
11
4.64392
21
-2.98568
0
LINE
8
BLACK
6
CONTINUOUS
10
4.64392
20
-2.98568
11
4.64392
21
-2.98568
0
LINE
8
BLACK
6
CONTINUOUS
10
4.64392
20
-2.98568
11
4.64932
21
-2.98297
0
LINE
8
BLACK
6
CONTINUOUS
10
4.64932
20
-2.98297
11
4.64935
21
-2.98295
0
LINE
8
BLACK
6
CONTINUOUS
10
4.64935
20
-2.98295
11
4.64935
21
-2.98295
0
LINE
8
BLACK
6
CONTINUOUS
10
4.64935
20
-2.98295
11
4.65507
21
-2.98014
0
LINE
8
BLACK
6
CONTINUOUS
10
4.65507
20
-2.98014
11
4.6551
21
-2.98013
0
LINE
8
BLACK
6
CONTINUOUS
10
4.6551
20
-2.98013
11
4.6551
21
-2.98013
0
LINE
8
BLACK
6
CONTINUOUS
10
4.6551
20
-2.98013
11
4.66054
21
-2.97751
0
LINE
8
BLACK
6
CONTINUOUS
10
4.66054
20
-2.97751
11
4.66057
21
-2.9775
0
LINE
8
BLACK
6
CONTINUOUS
10
4.66057
20
-2.9775
11
4.66057
21
-2.9775
0
LINE
8
BLACK
6
CONTINUOUS
10
4.66057
20
-2.9775
11
4.66633
21
-2.97479
0
LINE
8
BLACK
6
CONTINUOUS
10
4.66633
20
-2.97479
11
4.66636
21
-2.97478
0
LINE
8
BLACK
6
CONTINUOUS
10
4.66636
20
-2.97478
11
4.66637
21
-2.97478
0
LINE
8
BLACK
6
CONTINUOUS
10
4.66637
20
-2.97478
11
4.67177
21
-2.9723
0
LINE
8
BLACK
6
CONTINUOUS
10
4.67177
20
-2.9723
11
4.6718
21
-2.97228
0
LINE
8
BLACK
6
CONTINUOUS
10
4.6718
20
-2.97228
11
4.6718
21
-2.97228
0
LINE
8
BLACK
6
CONTINUOUS
10
4.6718
20
-2.97228
11
4.67737
21
-2.96978
0
LINE
8
BLACK
6
CONTINUOUS
10
4.67737
20
-2.96978
11
4.6774
21
-2.96977
0
LINE
8
BLACK
6
CONTINUOUS
10
4.6774
20
-2.96977
11
4.6774
21
-2.96977
0
LINE
8
BLACK
6
CONTINUOUS
10
4.6774
20
-2.96977
11
4.68299
21
-2.96732
0
LINE
8
BLACK
6
CONTINUOUS
10
4.68299
20
-2.96732
11
4.68303
21
-2.96731
0
LINE
8
BLACK
6
CONTINUOUS
10
4.68303
20
-2.96731
11
4.68303
21
-2.96731
0
LINE
8
BLACK
6
CONTINUOUS
10
4.68303
20
-2.96731
11
4.68887
21
-2.96482
0
LINE
8
BLACK
6
CONTINUOUS
10
4.68887
20
-2.96482
11
4.68891
21
-2.9648
0
LINE
8
BLACK
6
CONTINUOUS
10
4.68891
20
-2.9648
11
4.68891
21
-2.9648
0
LINE
8
BLACK
6
CONTINUOUS
10
4.68891
20
-2.9648
11
4.69509
21
-2.96225
0
LINE
8
BLACK
6
CONTINUOUS
10
4.69509
20
-2.96225
11
4.69512
21
-2.96223
0
LINE
8
BLACK
6
CONTINUOUS
10
4.69512
20
-2.96223
11
4.69513
21
-2.96223
0
LINE
8
BLACK
6
CONTINUOUS
10
4.69513
20
-2.96223
11
4.70094
21
-2.9599
0
LINE
8
BLACK
6
CONTINUOUS
10
4.70094
20
-2.9599
11
4.70098
21
-2.95988
0
LINE
8
BLACK
6
CONTINUOUS
10
4.70098
20
-2.95988
11
4.70098
21
-2.95988
0
LINE
8
BLACK
6
CONTINUOUS
10
4.70098
20
-2.95988
11
4.70705
21
-2.95752
0
LINE
8
BLACK
6
CONTINUOUS
10
4.70705
20
-2.95752
11
4.70707
21
-2.95751
0
LINE
8
BLACK
6
CONTINUOUS
10
4.70707
20
-2.95751
11
4.70707
21
-2.95751
0
LINE
8
BLACK
6
CONTINUOUS
10
4.70707
20
-2.95751
11
4.70792
21
-2.95719
0
LINE
8
BLACK
6
CONTINUOUS
10
4.70792
20
-2.95719
11
4.70795
21
-2.95718
0
LINE
8
BLACK
6
CONTINUOUS
10
4.70795
20
-2.95718
11
4.70795
21
-2.95718
0
LINE
8
BLACK
6
CONTINUOUS
10
4.70795
20
-2.95718
11
4.71402
21
-2.9549
0
LINE
8
BLACK
6
CONTINUOUS
10
4.71402
20
-2.9549
11
4.71406
21
-2.95488
0
LINE
8
BLACK
6
CONTINUOUS
10
4.71406
20
-2.95488
11
4.71406
21
-2.95488
0
LINE
8
BLACK
6
CONTINUOUS
10
4.71406
20
-2.95488
11
4.71985
21
-2.95278
0
LINE
8
BLACK
6
CONTINUOUS
10
4.71985
20
-2.95278
11
4.71989
21
-2.95277
0
LINE
8
BLACK
6
CONTINUOUS
10
4.71989
20
-2.95277
11
4.71989
21
-2.95277
0
LINE
8
BLACK
6
CONTINUOUS
10
4.71989
20
-2.95277
11
4.72578
21
-2.95069
0
LINE
8
BLACK
6
CONTINUOUS
10
4.72578
20
-2.95069
11
4.72581
21
-2.95068
0
LINE
8
BLACK
6
CONTINUOUS
10
4.72581
20
-2.95068
11
4.72581
21
-2.95068
0
LINE
8
BLACK
6
CONTINUOUS
10
4.72581
20
-2.95068
11
4.73172
21
-2.94867
0
LINE
8
BLACK
6
CONTINUOUS
10
4.73172
20
-2.94867
11
4.73176
21
-2.94865
0
LINE
8
BLACK
6
CONTINUOUS
10
4.73176
20
-2.94865
11
4.73176
21
-2.94865
0
LINE
8
BLACK
6
CONTINUOUS
10
4.73176
20
-2.94865
11
4.73777
21
-2.94667
0
LINE
8
BLACK
6
CONTINUOUS
10
4.73777
20
-2.94667
11
4.7378
21
-2.94666
0
LINE
8
BLACK
6
CONTINUOUS
10
4.7378
20
-2.94666
11
4.73781
21
-2.94666
0
LINE
8
BLACK
6
CONTINUOUS
10
4.73781
20
-2.94666
11
4.74392
21
-2.9447
0
LINE
8
BLACK
6
CONTINUOUS
10
4.74392
20
-2.9447
11
4.74395
21
-2.94469
0
LINE
8
BLACK
6
CONTINUOUS
10
4.74395
20
-2.94469
11
4.74395
21
-2.94469
0
LINE
8
BLACK
6
CONTINUOUS
10
4.74395
20
-2.94469
11
4.75041
21
-2.9427
0
LINE
8
BLACK
6
CONTINUOUS
10
4.75041
20
-2.9427
11
4.75044
21
-2.94269
0
LINE
8
BLACK
6
CONTINUOUS
10
4.75044
20
-2.94269
11
4.75044
21
-2.94269
0
LINE
8
BLACK
6
CONTINUOUS
10
4.75044
20
-2.94269
11
4.75652
21
-2.94087
0
LINE
8
BLACK
6
CONTINUOUS
10
4.75652
20
-2.94087
11
4.75655
21
-2.94086
0
LINE
8
BLACK
6
CONTINUOUS
10
4.75655
20
-2.94086
11
4.75656
21
-2.94086
0
LINE
8
BLACK
6
CONTINUOUS
10
4.75656
20
-2.94086
11
4.76289
21
-2.93904
0
LINE
8
BLACK
6
CONTINUOUS
10
4.76289
20
-2.93904
11
4.76293
21
-2.93903
0
LINE
8
BLACK
6
CONTINUOUS
10
4.76293
20
-2.93903
11
4.76293
21
-2.93903
0
LINE
8
BLACK
6
CONTINUOUS
10
4.76293
20
-2.93903
11
4.76937
21
-2.93723
0
LINE
8
BLACK
6
CONTINUOUS
10
4.76937
20
-2.93723
11
4.7694
21
-2.93722
0
LINE
8
BLACK
6
CONTINUOUS
10
4.7694
20
-2.93722
11
4.7694
21
-2.93722
0
LINE
8
BLACK
6
CONTINUOUS
10
4.7694
20
-2.93722
11
4.77562
21
-2.93555
0
LINE
8
BLACK
6
CONTINUOUS
10
4.77562
20
-2.93555
11
4.77565
21
-2.93554
0
LINE
8
BLACK
6
CONTINUOUS
10
4.77565
20
-2.93554
11
4.77565
21
-2.93554
0
LINE
8
BLACK
6
CONTINUOUS
10
4.77565
20
-2.93554
11
4.78197
21
-2.93389
0
LINE
8
BLACK
6
CONTINUOUS
10
4.78197
20
-2.93389
11
4.782
21
-2.93389
0
LINE
8
BLACK
6
CONTINUOUS
10
4.782
20
-2.93389
11
4.782
21
-2.93389
0
LINE
8
BLACK
6
CONTINUOUS
10
4.782
20
-2.93389
11
4.78834
21
-2.93229
0
LINE
8
BLACK
6
CONTINUOUS
10
4.78834
20
-2.93229
11
4.78837
21
-2.93228
0
LINE
8
BLACK
6
CONTINUOUS
10
4.78837
20
-2.93228
11
4.78838
21
-2.93228
0
LINE
8
BLACK
6
CONTINUOUS
10
4.78838
20
-2.93228
11
4.79482
21
-2.93072
0
LINE
8
BLACK
6
CONTINUOUS
10
4.79482
20
-2.93072
11
4.79485
21
-2.93071
0
LINE
8
BLACK
6
CONTINUOUS
10
4.79485
20
-2.93071
11
4.79485
21
-2.93071
0
LINE
8
BLACK
6
CONTINUOUS
10
4.79485
20
-2.93071
11
4.8018
21
-2.92909
0
LINE
8
BLACK
6
CONTINUOUS
10
4.8018
20
-2.92909
11
4.80183
21
-2.92908
0
LINE
8
BLACK
6
CONTINUOUS
10
4.80183
20
-2.92908
11
4.80183
21
-2.92908
0
LINE
8
BLACK
6
CONTINUOUS
10
4.80183
20
-2.92908
11
4.80827
21
-2.92763
0
LINE
8
BLACK
6
CONTINUOUS
10
4.80827
20
-2.92763
11
4.80829
21
-2.92762
0
LINE
8
BLACK
6
CONTINUOUS
10
4.80829
20
-2.92762
11
4.8083
21
-2.92762
0
LINE
8
BLACK
6
CONTINUOUS
10
4.8083
20
-2.92762
11
4.81525
21
-2.92611
0
LINE
8
BLACK
6
CONTINUOUS
10
4.81525
20
-2.92611
11
4.81527
21
-2.9261
0
LINE
8
BLACK
6
CONTINUOUS
10
4.81527
20
-2.9261
11
4.81527
21
-2.9261
0
LINE
8
BLACK
6
CONTINUOUS
10
4.81527
20
-2.9261
11
4.82187
21
-2.92472
0
LINE
8
BLACK
6
CONTINUOUS
10
4.82187
20
-2.92472
11
4.8219
21
-2.92471
0
LINE
8
BLACK
6
CONTINUOUS
10
4.8219
20
-2.92471
11
4.8219
21
-2.92471
0
LINE
8
BLACK
6
CONTINUOUS
10
4.8219
20
-2.92471
11
4.82876
21
-2.92333
0
LINE
8
BLACK
6
CONTINUOUS
10
4.82876
20
-2.92333
11
4.82879
21
-2.92332
0
LINE
8
BLACK
6
CONTINUOUS
10
4.82879
20
-2.92332
11
4.82879
21
-2.92332
0
LINE
8
BLACK
6
CONTINUOUS
10
4.82879
20
-2.92332
11
4.83551
21
-2.92201
0
LINE
8
BLACK
6
CONTINUOUS
10
4.83551
20
-2.92201
11
4.83553
21
-2.92201
0
LINE
8
BLACK
6
CONTINUOUS
10
4.83553
20
-2.92201
11
4.83553
21
-2.92201
0
LINE
8
BLACK
6
CONTINUOUS
10
4.83553
20
-2.92201
11
4.84218
21
-2.92076
0
LINE
8
BLACK
6
CONTINUOUS
10
4.84218
20
-2.92076
11
4.84221
21
-2.92075
0
LINE
8
BLACK
6
CONTINUOUS
10
4.84221
20
-2.92075
11
4.84221
21
-2.92075
0
LINE
8
BLACK
6
CONTINUOUS
10
4.84221
20
-2.92075
11
4.84912
21
-2.9195
0
LINE
8
BLACK
6
CONTINUOUS
10
4.84912
20
-2.9195
11
4.84915
21
-2.9195
0
LINE
8
BLACK
6
CONTINUOUS
10
4.84915
20
-2.9195
11
4.84915
21
-2.9195
0
LINE
8
BLACK
6
CONTINUOUS
10
4.84915
20
-2.9195
11
4.856
21
-2.9183
0
LINE
8
BLACK
6
CONTINUOUS
10
4.856
20
-2.9183
11
4.85602
21
-2.9183
0
LINE
8
BLACK
6
CONTINUOUS
10
4.85602
20
-2.9183
11
4.85602
21
-2.9183
0
LINE
8
BLACK
6
CONTINUOUS
10
4.85602
20
-2.9183
11
4.86297
21
-2.91713
0
LINE
8
BLACK
6
CONTINUOUS
10
4.86297
20
-2.91713
11
4.86299
21
-2.91713
0
LINE
8
BLACK
6
CONTINUOUS
10
4.86299
20
-2.91713
11
4.86299
21
-2.91713
0
LINE
8
BLACK
6
CONTINUOUS
10
4.86299
20
-2.91713
11
4.86996
21
-2.916
0
LINE
8
BLACK
6
CONTINUOUS
10
4.86996
20
-2.916
11
4.86998
21
-2.91599
0
LINE
8
BLACK
6
CONTINUOUS
10
4.86998
20
-2.91599
11
4.86998
21
-2.91599
0
LINE
8
BLACK
6
CONTINUOUS
10
4.86998
20
-2.91599
11
4.87679
21
-2.91493
0
LINE
8
BLACK
6
CONTINUOUS
10
4.87679
20
-2.91493
11
4.87681
21
-2.91493
0
LINE
8
BLACK
6
CONTINUOUS
10
4.87681
20
-2.91493
11
4.87681
21
-2.91493
0
LINE
8
BLACK
6
CONTINUOUS
10
4.87681
20
-2.91493
11
4.88388
21
-2.91386
0
LINE
8
BLACK
6
CONTINUOUS
10
4.88388
20
-2.91386
11
4.8839
21
-2.91386
0
LINE
8
BLACK
6
CONTINUOUS
10
4.8839
20
-2.91386
11
4.88391
21
-2.91386
0
LINE
8
BLACK
6
CONTINUOUS
10
4.88391
20
-2.91386
11
4.89133
21
-2.91278
0
LINE
8
BLACK
6
CONTINUOUS
10
4.89133
20
-2.91278
11
4.89135
21
-2.91277
0
LINE
8
BLACK
6
CONTINUOUS
10
4.89135
20
-2.91277
11
4.89135
21
-2.91277
0
LINE
8
BLACK
6
CONTINUOUS
10
4.89135
20
-2.91277
11
4.8988
21
-2.91173
0
LINE
8
BLACK
6
CONTINUOUS
10
4.8988
20
-2.91173
11
4.89881
21
-2.91173
0
LINE
8
BLACK
6
CONTINUOUS
10
4.89881
20
-2.91173
11
4.89882
21
-2.91173
0
LINE
8
BLACK
6
CONTINUOUS
10
4.89882
20
-2.91173
11
4.90661
21
-2.91068
0
LINE
8
BLACK
6
CONTINUOUS
10
4.90661
20
-2.91068
11
4.90663
21
-2.91068
0
LINE
8
BLACK
6
CONTINUOUS
10
4.90663
20
-2.91068
11
4.90663
21
-2.91068
0
LINE
8
BLACK
6
CONTINUOUS
10
4.90663
20
-2.91068
11
4.91376
21
-2.90975
0
LINE
8
BLACK
6
CONTINUOUS
10
4.91376
20
-2.90975
11
4.91378
21
-2.90975
0
LINE
8
BLACK
6
CONTINUOUS
10
4.91378
20
-2.90975
11
4.91378
21
-2.90975
0
LINE
8
BLACK
6
CONTINUOUS
10
4.91378
20
-2.90975
11
4.92134
21
-2.9088
0
LINE
8
BLACK
6
CONTINUOUS
10
4.92134
20
-2.9088
11
4.92136
21
-2.9088
0
LINE
8
BLACK
6
CONTINUOUS
10
4.92136
20
-2.9088
11
4.92136
21
-2.9088
0
LINE
8
BLACK
6
CONTINUOUS
10
4.92136
20
-2.9088
11
4.92843
21
-2.90794
0
LINE
8
BLACK
6
CONTINUOUS
10
4.92843
20
-2.90794
11
4.92844
21
-2.90794
0
LINE
8
BLACK
6
CONTINUOUS
10
4.92844
20
-2.90794
11
4.92844
21
-2.90794
0
LINE
8
BLACK
6
CONTINUOUS
10
4.92844
20
-2.90794
11
4.9356
21
-2.9071
0
LINE
8
BLACK
6
CONTINUOUS
10
4.9356
20
-2.9071
11
4.93562
21
-2.9071
0
LINE
8
BLACK
6
CONTINUOUS
10
4.93562
20
-2.9071
11
4.93562
21
-2.9071
0
LINE
8
BLACK
6
CONTINUOUS
10
4.93562
20
-2.9071
11
4.94313
21
-2.90624
0
LINE
8
BLACK
6
CONTINUOUS
10
4.94313
20
-2.90624
11
4.94315
21
-2.90624
0
LINE
8
BLACK
6
CONTINUOUS
10
4.94315
20
-2.90624
11
4.94315
21
-2.90624
0
LINE
8
BLACK
6
CONTINUOUS
10
4.94315
20
-2.90624
11
4.95101
21
-2.90538
0
LINE
8
BLACK
6
CONTINUOUS
10
4.95101
20
-2.90538
11
4.95103
21
-2.90538
0
LINE
8
BLACK
6
CONTINUOUS
10
4.95103
20
-2.90538
11
4.95103
21
-2.90538
0
LINE
8
BLACK
6
CONTINUOUS
10
4.95103
20
-2.90538
11
4.95834
21
-2.90459
0
LINE
8
BLACK
6
CONTINUOUS
10
4.95834
20
-2.90459
11
4.95836
21
-2.90459
0
LINE
8
BLACK
6
CONTINUOUS
10
4.95836
20
-2.90459
11
4.95836
21
-2.90459
0
LINE
8
BLACK
6
CONTINUOUS
10
4.95836
20
-2.90459
11
4.96585
21
-2.90381
0
LINE
8
BLACK
6
CONTINUOUS
10
4.96585
20
-2.90381
11
4.96586
21
-2.90381
0
LINE
8
BLACK
6
CONTINUOUS
10
4.96586
20
-2.90381
11
4.96587
21
-2.90381
0
LINE
8
BLACK
6
CONTINUOUS
10
4.96587
20
-2.90381
11
4.97307
21
-2.90308
0
LINE
8
BLACK
6
CONTINUOUS
10
4.97307
20
-2.90308
11
4.97308
21
-2.90308
0
LINE
8
BLACK
6
CONTINUOUS
10
4.97308
20
-2.90308
11
4.97308
21
-2.90308
0
LINE
8
BLACK
6
CONTINUOUS
10
4.97308
20
-2.90308
11
4.98038
21
-2.90236
0
LINE
8
BLACK
6
CONTINUOUS
10
4.98038
20
-2.90236
11
4.98039
21
-2.90236
0
LINE
8
BLACK
6
CONTINUOUS
10
4.98039
20
-2.90236
11
4.98039
21
-2.90236
0
LINE
8
BLACK
6
CONTINUOUS
10
4.98039
20
-2.90236
11
4.98821
21
-2.90161
0
LINE
8
BLACK
6
CONTINUOUS
10
4.98821
20
-2.90161
11
4.98821
21
-2.90161
0
LINE
8
BLACK
6
CONTINUOUS
10
4.98821
20
-2.90161
11
4.98821
21
-2.90161
0
LINE
8
BLACK
6
CONTINUOUS
10
4.98821
20
-2.90161
11
4.99565
21
-2.9009
0
LINE
8
BLACK
6
CONTINUOUS
10
4.99565
20
-2.9009
11
4.99566
21
-2.9009
0
LINE
8
BLACK
6
CONTINUOUS
10
4.99566
20
-2.9009
11
4.99566
21
-2.9009
0
LINE
8
BLACK
6
CONTINUOUS
10
4.99566
20
-2.9009
11
5.0031
21
-2.90021
0
LINE
8
BLACK
6
CONTINUOUS
10
5.0031
20
-2.90021
11
5.00311
21
-2.90021
0
LINE
8
BLACK
6
CONTINUOUS
10
5.00311
20
-2.90021
11
5.00311
21
-2.90021
0
LINE
8
BLACK
6
CONTINUOUS
10
5.00311
20
-2.90021
11
5.01086
21
-2.89951
0
LINE
8
BLACK
6
CONTINUOUS
10
5.01086
20
-2.89951
11
5.01086
21
-2.89951
0
LINE
8
BLACK
6
CONTINUOUS
10
5.01086
20
-2.89951
11
5.01086
21
-2.89951
0
LINE
8
BLACK
6
CONTINUOUS
10
5.01086
20
-2.89951
11
5.01827
21
-2.89884
0
LINE
8
BLACK
6
CONTINUOUS
10
5.01827
20
-2.89884
11
5.01827
21
-2.89884
0
LINE
8
BLACK
6
CONTINUOUS
10
5.01827
20
-2.89884
11
5.01827
21
-2.89884
0
LINE
8
BLACK
6
CONTINUOUS
10
5.01827
20
-2.89884
11
5.02577
21
-2.89817
0
LINE
8
BLACK
6
CONTINUOUS
10
5.02577
20
-2.89817
11
5.02577
21
-2.89817
0
LINE
8
BLACK
6
CONTINUOUS
10
5.02577
20
-2.89817
11
5.02577
21
-2.89817
0
LINE
8
BLACK
6
CONTINUOUS
10
5.02577
20
-2.89817
11
5.03345
21
-2.8975
0
LINE
8
BLACK
6
CONTINUOUS
10
5.03345
20
-2.8975
11
5.03345
21
-2.8975
0
LINE
8
BLACK
6
CONTINUOUS
10
5.03345
20
-2.8975
11
5.04103
21
-2.89683
0
LINE
8
BLACK
6
CONTINUOUS
10
5.04103
20
-2.89683
11
5.04104
21
-2.89683
0
LINE
8
BLACK
6
CONTINUOUS
10
5.04104
20
-2.89683
11
5.04104
21
-2.89683
0
LINE
8
BLACK
6
CONTINUOUS
10
5.04104
20
-2.89683
11
5.04964
21
-2.89608
0
LINE
8
BLACK
6
CONTINUOUS
10
5.04964
20
-2.89608
11
5.04981
21
-2.89606
0
LINE
8
BLACK
6
CONTINUOUS
10
5.04981
20
-2.89606
11
6.01784
21
-2.89606
0
LINE
8
BLACK
6
CONTINUOUS
10
6.01784
20
-2.89606
11
6.01801
21
-2.89608
0
LINE
8
BLACK
6
CONTINUOUS
10
5.05017
20
-2.90394
11
5.04172
21
-2.90468
0
LINE
8
BLACK
6
CONTINUOUS
10
5.04172
20
-2.90468
11
5.04172
21
-2.90468
0
LINE
8
BLACK
6
CONTINUOUS
10
5.04172
20
-2.90468
11
5.03414
21
-2.90534
0
LINE
8
BLACK
6
CONTINUOUS
10
5.03414
20
-2.90534
11
5.03414
21
-2.90534
0
LINE
8
BLACK
6
CONTINUOUS
10
5.03414
20
-2.90534
11
5.02647
21
-2.90602
0
LINE
8
BLACK
6
CONTINUOUS
10
5.02647
20
-2.90602
11
5.01897
21
-2.90668
0
LINE
8
BLACK
6
CONTINUOUS
10
5.01897
20
-2.90668
11
5.01897
21
-2.90668
0
LINE
8
BLACK
6
CONTINUOUS
10
5.01897
20
-2.90668
11
5.01157
21
-2.90735
0
LINE
8
BLACK
6
CONTINUOUS
10
5.01157
20
-2.90735
11
5.01157
21
-2.90735
0
LINE
8
BLACK
6
CONTINUOUS
10
5.01157
20
-2.90735
11
5.00382
21
-2.90805
0
LINE
8
BLACK
6
CONTINUOUS
10
5.00382
20
-2.90805
11
5.00382
21
-2.90805
0
LINE
8
BLACK
6
CONTINUOUS
10
5.00382
20
-2.90805
11
4.99639
21
-2.90874
0
LINE
8
BLACK
6
CONTINUOUS
10
4.99639
20
-2.90874
11
4.98896
21
-2.90945
0
LINE
8
BLACK
6
CONTINUOUS
10
4.98896
20
-2.90945
11
4.98114
21
-2.9102
0
LINE
8
BLACK
6
CONTINUOUS
10
4.98114
20
-2.9102
11
4.98114
21
-2.9102
0
LINE
8
BLACK
6
CONTINUOUS
10
4.98114
20
-2.9102
11
4.97385
21
-2.91092
0
LINE
8
BLACK
6
CONTINUOUS
10
4.97385
20
-2.91092
11
4.96667
21
-2.91165
0
LINE
8
BLACK
6
CONTINUOUS
10
4.96667
20
-2.91165
11
4.95918
21
-2.91242
0
LINE
8
BLACK
6
CONTINUOUS
10
4.95918
20
-2.91242
11
4.95918
21
-2.91242
0
LINE
8
BLACK
6
CONTINUOUS
10
4.95918
20
-2.91242
11
4.95187
21
-2.9132
0
LINE
8
BLACK
6
CONTINUOUS
10
4.95187
20
-2.9132
11
4.94401
21
-2.91407
0
LINE
8
BLACK
6
CONTINUOUS
10
4.94401
20
-2.91407
11
4.93651
21
-2.91492
0
LINE
8
BLACK
6
CONTINUOUS
10
4.93651
20
-2.91492
11
4.92937
21
-2.91576
0
LINE
8
BLACK
6
CONTINUOUS
10
4.92937
20
-2.91576
11
4.92231
21
-2.91661
0
LINE
8
BLACK
6
CONTINUOUS
10
4.92231
20
-2.91661
11
4.91476
21
-2.91756
0
LINE
8
BLACK
6
CONTINUOUS
10
4.91476
20
-2.91756
11
4.90765
21
-2.91848
0
LINE
8
BLACK
6
CONTINUOUS
10
4.90765
20
-2.91848
11
4.89988
21
-2.91953
0
LINE
8
BLACK
6
CONTINUOUS
10
4.89988
20
-2.91953
11
4.89245
21
-2.92057
0
LINE
8
BLACK
6
CONTINUOUS
10
4.89245
20
-2.92057
11
4.88505
21
-2.92165
0
LINE
8
BLACK
6
CONTINUOUS
10
4.88505
20
-2.92165
11
4.87799
21
-2.92271
0
LINE
8
BLACK
6
CONTINUOUS
10
4.87799
20
-2.92271
11
4.8712
21
-2.92377
0
LINE
8
BLACK
6
CONTINUOUS
10
4.8712
20
-2.92377
11
4.86427
21
-2.9249
0
LINE
8
BLACK
6
CONTINUOUS
10
4.86427
20
-2.9249
11
4.85734
21
-2.92606
0
LINE
8
BLACK
6
CONTINUOUS
10
4.85734
20
-2.92606
11
4.85051
21
-2.92725
0
LINE
8
BLACK
6
CONTINUOUS
10
4.85051
20
-2.92725
11
4.84363
21
-2.9285
0
LINE
8
BLACK
6
CONTINUOUS
10
4.84363
20
-2.9285
11
4.837
21
-2.92974
0
LINE
8
BLACK
6
CONTINUOUS
10
4.837
20
-2.92974
11
4.83031
21
-2.93105
0
LINE
8
BLACK
6
CONTINUOUS
10
4.83031
20
-2.93105
11
4.82347
21
-2.93243
0
LINE
8
BLACK
6
CONTINUOUS
10
4.82347
20
-2.93243
11
4.8169
21
-2.93381
0
LINE
8
BLACK
6
CONTINUOUS
10
4.8169
20
-2.93381
11
4.80999
21
-2.93531
0
LINE
8
BLACK
6
CONTINUOUS
10
4.80999
20
-2.93531
11
4.80358
21
-2.93676
0
LINE
8
BLACK
6
CONTINUOUS
10
4.80358
20
-2.93676
11
4.79666
21
-2.93838
0
LINE
8
BLACK
6
CONTINUOUS
10
4.79666
20
-2.93838
11
4.79025
21
-2.93993
0
LINE
8
BLACK
6
CONTINUOUS
10
4.79025
20
-2.93993
11
4.78394
21
-2.94152
0
LINE
8
BLACK
6
CONTINUOUS
10
4.78394
20
-2.94152
11
4.77765
21
-2.94315
0
LINE
8
BLACK
6
CONTINUOUS
10
4.77765
20
-2.94315
11
4.77146
21
-2.94482
0
LINE
8
BLACK
6
CONTINUOUS
10
4.77146
20
-2.94482
11
4.76506
21
-2.9466
0
LINE
8
BLACK
6
CONTINUOUS
10
4.76506
20
-2.9466
11
4.75876
21
-2.94842
0
LINE
8
BLACK
6
CONTINUOUS
10
4.75876
20
-2.94842
11
4.75271
21
-2.95023
0
LINE
8
BLACK
6
CONTINUOUS
10
4.75271
20
-2.95023
11
4.7463
21
-2.95221
0
LINE
8
BLACK
6
CONTINUOUS
10
4.7463
20
-2.95221
11
4.74022
21
-2.95415
0
LINE
8
BLACK
6
CONTINUOUS
10
4.74022
20
-2.95415
11
4.73425
21
-2.95612
0
LINE
8
BLACK
6
CONTINUOUS
10
4.73425
20
-2.95612
11
4.72837
21
-2.95813
0
LINE
8
BLACK
6
CONTINUOUS
10
4.72837
20
-2.95813
11
4.72252
21
-2.96019
0
LINE
8
BLACK
6
CONTINUOUS
10
4.72252
20
-2.96019
11
4.71677
21
-2.96228
0
LINE
8
BLACK
6
CONTINUOUS
10
4.71677
20
-2.96228
11
4.71073
21
-2.96454
0
LINE
8
BLACK
6
CONTINUOUS
10
4.71073
20
-2.96454
11
4.70989
21
-2.96486
0
LINE
8
BLACK
6
CONTINUOUS
10
4.70989
20
-2.96486
11
4.70385
21
-2.96721
0
LINE
8
BLACK
6
CONTINUOUS
10
4.70385
20
-2.96721
11
4.69808
21
-2.96953
0
LINE
8
BLACK
6
CONTINUOUS
10
4.69808
20
-2.96953
11
4.69194
21
-2.97207
0
LINE
8
BLACK
6
CONTINUOUS
10
4.69194
20
-2.97207
11
4.68613
21
-2.97455
0
LINE
8
BLACK
6
CONTINUOUS
10
4.68613
20
-2.97455
11
4.68058
21
-2.97698
0
LINE
8
BLACK
6
CONTINUOUS
10
4.68058
20
-2.97698
11
4.67503
21
-2.97946
0
LINE
8
BLACK
6
CONTINUOUS
10
4.67503
20
-2.97946
11
4.66966
21
-2.98193
0
LINE
8
BLACK
6
CONTINUOUS
10
4.66966
20
-2.98193
11
4.66394
21
-2.98462
0
LINE
8
BLACK
6
CONTINUOUS
10
4.66394
20
-2.98462
11
4.65853
21
-2.98722
0
LINE
8
BLACK
6
CONTINUOUS
10
4.65853
20
-2.98722
11
4.65284
21
-2.99001
0
LINE
8
BLACK
6
CONTINUOUS
10
4.65284
20
-2.99001
11
4.64747
21
-2.99271
0
LINE
8
BLACK
6
CONTINUOUS
10
4.64747
20
-2.99271
11
4.64219
21
-2.99541
0
LINE
8
BLACK
6
CONTINUOUS
10
4.64219
20
-2.99541
11
4.637
21
-2.99812
0
LINE
8
BLACK
6
CONTINUOUS
10
4.637
20
-2.99812
11
4.63175
21
-3.00091
0
LINE
8
BLACK
6
CONTINUOUS
10
4.63175
20
-3.00091
11
4.62666
21
-3.00366
0
LINE
8
BLACK
6
CONTINUOUS
10
4.62666
20
-3.00366
11
4.62151
21
-3.00649
0
LINE
8
BLACK
6
CONTINUOUS
10
4.62151
20
-3.00649
11
4.61642
21
-3.00933
0
LINE
8
BLACK
6
CONTINUOUS
10
4.61642
20
-3.00933
11
4.6114
21
-3.01218
0
LINE
8
BLACK
6
CONTINUOUS
10
4.6114
20
-3.01218
11
4.60623
21
-3.01516
0
LINE
8
BLACK
6
CONTINUOUS
10
4.60623
20
-3.01516
11
4.60098
21
-3.01822
0
LINE
8
BLACK
6
CONTINUOUS
10
4.60098
20
-3.01822
11
4.59583
21
-3.02128
0
LINE
8
BLACK
6
CONTINUOUS
10
4.59583
20
-3.02128
11
4.59083
21
-3.02428
0
LINE
8
BLACK
6
CONTINUOUS
10
4.59083
20
-3.02428
11
4.58563
21
-3.02745
0
LINE
8
BLACK
6
CONTINUOUS
10
4.58563
20
-3.02745
11
4.58073
21
-3.03047
0
LINE
8
BLACK
6
CONTINUOUS
10
4.58073
20
-3.03047
11
4.5758
21
-3.03355
0
LINE
8
BLACK
6
CONTINUOUS
10
4.5758
20
-3.03355
11
4.5701
21
-3.03715
0
LINE
8
BLACK
6
CONTINUOUS
10
4.5701
20
-3.03715
11
4.56524
21
-3.04026
0
LINE
8
BLACK
6
CONTINUOUS
10
4.56524
20
-3.04026
11
4.56038
21
-3.0434
0
LINE
8
BLACK
6
CONTINUOUS
10
4.56038
20
-3.0434
11
4.55553
21
-3.04657
0
LINE
8
BLACK
6
CONTINUOUS
10
4.55553
20
-3.04657
11
4.55068
21
-3.04976
0
LINE
8
BLACK
6
CONTINUOUS
10
4.55068
20
-3.04976
11
4.54585
21
-3.05298
0
LINE
8
BLACK
6
CONTINUOUS
10
4.54585
20
-3.05298
11
4.54075
21
-3.05641
0
LINE
8
BLACK
6
CONTINUOUS
10
4.54075
20
-3.05641
11
4.536
21
-3.05962
0
LINE
8
BLACK
6
CONTINUOUS
10
4.536
20
-3.05962
11
4.53112
21
-3.06296
0
LINE
8
BLACK
6
CONTINUOUS
10
4.53112
20
-3.06296
11
4.52632
21
-3.06626
0
LINE
8
BLACK
6
CONTINUOUS
10
4.52632
20
-3.06626
11
4.52097
21
-3.06998
0
LINE
8
BLACK
6
CONTINUOUS
10
4.52097
20
-3.06998
11
4.51617
21
-3.07333
0
LINE
8
BLACK
6
CONTINUOUS
10
4.51617
20
-3.07333
11
4.5114
21
-3.07669
0
LINE
8
BLACK
6
CONTINUOUS
10
4.5114
20
-3.07669
11
4.50663
21
-3.08007
0
LINE
8
BLACK
6
CONTINUOUS
10
4.50663
20
-3.08007
11
4.50663
21
-3.08007
0
LINE
8
BLACK
6
CONTINUOUS
10
4.50663
20
-3.08007
11
4.50186
21
-3.08347
0
LINE
8
BLACK
6
CONTINUOUS
10
4.50186
20
-3.08347
11
4.49682
21
-3.08709
0
LINE
8
BLACK
6
CONTINUOUS
10
4.49682
20
-3.08709
11
4.49193
21
-3.09062
0
LINE
8
BLACK
6
CONTINUOUS
10
4.49193
20
-3.09062
11
4.48689
21
-3.09427
0
LINE
8
BLACK
6
CONTINUOUS
10
4.48689
20
-3.09427
11
4.48688
21
-3.09427
0
LINE
8
BLACK
6
CONTINUOUS
10
4.48688
20
-3.09427
11
4.48221
21
-3.09768
0
LINE
8
BLACK
6
CONTINUOUS
10
4.48221
20
-3.09768
11
4.4774
21
-3.1012
0
LINE
8
BLACK
6
CONTINUOUS
10
4.4774
20
-3.1012
11
4.4728
21
-3.10458
0
LINE
8
BLACK
6
CONTINUOUS
10
4.4728
20
-3.10458
11
4.46792
21
-3.10818
0
LINE
8
BLACK
6
CONTINUOUS
10
4.46792
20
-3.10818
11
4.46292
21
-3.11188
0
LINE
8
BLACK
6
CONTINUOUS
10
4.46292
20
-3.11188
11
4.4579
21
-3.11561
0
LINE
8
BLACK
6
CONTINUOUS
10
4.4579
20
-3.11561
11
4.4579
21
-3.11561
0
LINE
8
BLACK
6
CONTINUOUS
10
4.4579
20
-3.11561
11
4.45332
21
-3.11902
0
LINE
8
BLACK
6
CONTINUOUS
10
4.45332
20
-3.11902
11
4.44859
21
-3.12255
0
LINE
8
BLACK
6
CONTINUOUS
10
4.44859
20
-3.12255
11
4.44859
21
-3.12255
0
LINE
8
BLACK
6
CONTINUOUS
10
4.44859
20
-3.12255
11
4.44401
21
-3.12598
0
LINE
8
BLACK
6
CONTINUOUS
10
4.44401
20
-3.12598
11
4.44401
21
-3.12598
0
LINE
8
BLACK
6
CONTINUOUS
10
4.44401
20
-3.12598
11
4.43901
21
-3.12973
0
LINE
8
BLACK
6
CONTINUOUS
10
4.43901
20
-3.12973
11
4.43401
21
-3.13348
0
LINE
8
BLACK
6
CONTINUOUS
10
4.43401
20
-3.13348
11
4.43401
21
-3.13348
0
LINE
8
BLACK
6
CONTINUOUS
10
4.43401
20
-3.13348
11
4.42901
21
-3.13724
0
LINE
8
BLACK
6
CONTINUOUS
10
4.42901
20
-3.13724
11
4.42901
21
-3.13724
0
LINE
8
BLACK
6
CONTINUOUS
10
4.42901
20
-3.13724
11
4.42319
21
-3.14163
0
LINE
8
BLACK
6
CONTINUOUS
10
4.42319
20
-3.14163
11
4.42319
21
-3.14163
0
LINE
8
BLACK
6
CONTINUOUS
10
4.42319
20
-3.14163
11
4.41868
21
-3.14503
0
LINE
8
BLACK
6
CONTINUOUS
10
4.41868
20
-3.14503
11
4.41868
21
-3.14503
0
LINE
8
BLACK
6
CONTINUOUS
10
4.41868
20
-3.14503
11
4.4186
21
-3.14508
0
LINE
8
BLACK
6
CONTINUOUS
10
4.4186
20
-3.14508
11
5.35323
21
-4.0174
0
LINE
8
BLACK
6
CONTINUOUS
10
5.35323
20
-4.0174
11
5.71442
21
-4.0174
0
LINE
8
BLACK
6
CONTINUOUS
10
5.71442
20
-4.0174
11
6.64905
21
-3.14508
0
LINE
8
BLACK
6
CONTINUOUS
10
6.64905
20
-3.14508
11
6.6478
21
-3.14414
0
LINE
8
BLACK
6
CONTINUOUS
10
6.6478
20
-3.14414
11
6.6478
21
-3.14414
0
LINE
8
BLACK
6
CONTINUOUS
10
6.6478
20
-3.14414
11
6.64245
21
-3.14011
0
LINE
8
BLACK
6
CONTINUOUS
10
6.64245
20
-3.14011
11
6.64245
21
-3.14011
0
LINE
8
BLACK
6
CONTINUOUS
10
6.64245
20
-3.14011
11
6.6378
21
-3.13662
0
LINE
8
BLACK
6
CONTINUOUS
10
6.6378
20
-3.13662
11
6.6378
21
-3.13662
0
LINE
8
BLACK
6
CONTINUOUS
10
6.6378
20
-3.13662
11
6.6319
21
-3.13218
0
LINE
8
BLACK
6
CONTINUOUS
10
6.6319
20
-3.13218
11
6.6319
21
-3.13218
0
LINE
8
BLACK
6
CONTINUOUS
10
6.6319
20
-3.13218
11
6.62697
21
-3.12848
0
LINE
8
BLACK
6
CONTINUOUS
10
6.62697
20
-3.12848
11
6.62697
21
-3.12848
0
LINE
8
BLACK
6
CONTINUOUS
10
6.62697
20
-3.12848
11
6.62239
21
-3.12505
0
LINE
8
BLACK
6
CONTINUOUS
10
6.62239
20
-3.12505
11
6.62239
21
-3.12505
0
LINE
8
BLACK
6
CONTINUOUS
10
6.62239
20
-3.12505
11
6.61753
21
-3.12141
0
LINE
8
BLACK
6
CONTINUOUS
10
6.61753
20
-3.12141
11
6.61753
21
-3.12141
0
LINE
8
BLACK
6
CONTINUOUS
10
6.61753
20
-3.12141
11
6.61267
21
-3.11778
0
LINE
8
BLACK
6
CONTINUOUS
10
6.61267
20
-3.11778
11
6.61267
21
-3.11778
0
LINE
8
BLACK
6
CONTINUOUS
10
6.61267
20
-3.11778
11
6.60793
21
-3.11426
0
LINE
8
BLACK
6
CONTINUOUS
10
6.60793
20
-3.11426
11
6.60307
21
-3.11065
0
LINE
8
BLACK
6
CONTINUOUS
10
6.60307
20
-3.11065
11
6.59847
21
-3.10725
0
LINE
8
BLACK
6
CONTINUOUS
10
6.59847
20
-3.10725
11
6.59847
21
-3.10725
0
LINE
8
BLACK
6
CONTINUOUS
10
6.59847
20
-3.10725
11
6.59374
21
-3.10376
0
LINE
8
BLACK
6
CONTINUOUS
10
6.59374
20
-3.10376
11
6.59374
21
-3.10376
0
LINE
8
BLACK
6
CONTINUOUS
10
6.59374
20
-3.10376
11
6.58913
21
-3.10038
0
LINE
8
BLACK
6
CONTINUOUS
10
6.58913
20
-3.10038
11
6.58913
21
-3.10038
0
LINE
8
BLACK
6
CONTINUOUS
10
6.58913
20
-3.10038
11
6.58411
21
-3.09671
0
LINE
8
BLACK
6
CONTINUOUS
10
6.58411
20
-3.09671
11
6.57908
21
-3.09305
0
LINE
8
BLACK
6
CONTINUOUS
10
6.57908
20
-3.09305
11
6.57447
21
-3.08971
0
LINE
8
BLACK
6
CONTINUOUS
10
6.57447
20
-3.08971
11
6.56971
21
-3.08628
0
LINE
8
BLACK
6
CONTINUOUS
10
6.56971
20
-3.08628
11
6.56502
21
-3.08293
0
LINE
8
BLACK
6
CONTINUOUS
10
6.56502
20
-3.08293
11
6.56018
21
-3.07947
0
LINE
8
BLACK
6
CONTINUOUS
10
6.56018
20
-3.07947
11
6.55512
21
-3.0759
0
LINE
8
BLACK
6
CONTINUOUS
10
6.55512
20
-3.0759
11
6.55034
21
-3.07254
0
LINE
8
BLACK
6
CONTINUOUS
10
6.55034
20
-3.07254
11
6.54556
21
-3.06919
0
LINE
8
BLACK
6
CONTINUOUS
10
6.54556
20
-3.06919
11
6.54049
21
-3.06568
0
LINE
8
BLACK
6
CONTINUOUS
10
6.54049
20
-3.06568
11
6.53574
21
-3.06242
0
LINE
8
BLACK
6
CONTINUOUS
10
6.53574
20
-3.06242
11
6.53084
21
-3.05907
0
LINE
8
BLACK
6
CONTINUOUS
10
6.53084
20
-3.05907
11
6.52605
21
-3.05583
0
LINE
8
BLACK
6
CONTINUOUS
10
6.52605
20
-3.05583
11
6.52124
21
-3.0526
0
LINE
8
BLACK
6
CONTINUOUS
10
6.52124
20
-3.0526
11
6.51646
21
-3.04943
0
LINE
8
BLACK
6
CONTINUOUS
10
6.51646
20
-3.04943
11
6.51155
21
-3.0462
0
LINE
8
BLACK
6
CONTINUOUS
10
6.51155
20
-3.0462
11
6.50649
21
-3.0429
0
LINE
8
BLACK
6
CONTINUOUS
10
6.50649
20
-3.0429
11
6.50163
21
-3.03976
0
LINE
8
BLACK
6
CONTINUOUS
10
6.50163
20
-3.03976
11
6.49668
21
-3.0366
0
LINE
8
BLACK
6
CONTINUOUS
10
6.49668
20
-3.0366
11
6.49181
21
-3.03352
0
LINE
8
BLACK
6
CONTINUOUS
10
6.49181
20
-3.03352
11
6.48692
21
-3.03047
0
LINE
8
BLACK
6
CONTINUOUS
10
6.48692
20
-3.03047
11
6.48202
21
-3.02745
0
LINE
8
BLACK
6
CONTINUOUS
10
6.48202
20
-3.02745
11
6.47689
21
-3.02432
0
LINE
8
BLACK
6
CONTINUOUS
10
6.47689
20
-3.02432
11
6.47189
21
-3.02132
0
LINE
8
BLACK
6
CONTINUOUS
10
6.47189
20
-3.02132
11
6.46688
21
-3.01835
0
LINE
8
BLACK
6
CONTINUOUS
10
6.46688
20
-3.01835
11
6.4619
21
-3.01544
0
LINE
8
BLACK
6
CONTINUOUS
10
6.4619
20
-3.01544
11
6.45683
21
-3.01251
0
LINE
8
BLACK
6
CONTINUOUS
10
6.45683
20
-3.01251
11
6.45182
21
-3.00966
0
LINE
8
BLACK
6
CONTINUOUS
10
6.45182
20
-3.00966
11
6.4465
21
-3.00669
0
LINE
8
BLACK
6
CONTINUOUS
10
6.4465
20
-3.00669
11
6.44129
21
-3.00382
0
LINE
8
BLACK
6
CONTINUOUS
10
6.44129
20
-3.00382
11
6.43612
21
-3.00103
0
LINE
8
BLACK
6
CONTINUOUS
10
6.43612
20
-3.00103
11
6.43095
21
-2.99828
0
LINE
8
BLACK
6
CONTINUOUS
10
6.43095
20
-2.99828
11
6.42561
21
-2.99549
0
LINE
8
BLACK
6
CONTINUOUS
10
6.42561
20
-2.99549
11
6.4204
21
-2.99282
0
LINE
8
BLACK
6
CONTINUOUS
10
6.4204
20
-2.99282
11
6.41507
21
-2.99014
0
LINE
8
BLACK
6
CONTINUOUS
10
6.41507
20
-2.99014
11
6.40979
21
-2.98755
0
LINE
8
BLACK
6
CONTINUOUS
10
6.40979
20
-2.98755
11
6.40401
21
-2.98476
0
LINE
8
BLACK
6
CONTINUOUS
10
6.40401
20
-2.98476
11
6.39866
21
-2.98224
0
LINE
8
BLACK
6
CONTINUOUS
10
6.39866
20
-2.98224
11
6.39311
21
-2.97968
0
LINE
8
BLACK
6
CONTINUOUS
10
6.39311
20
-2.97968
11
6.38761
21
-2.97721
0
LINE
8
BLACK
6
CONTINUOUS
10
6.38761
20
-2.97721
11
6.38213
21
-2.97481
0
LINE
8
BLACK
6
CONTINUOUS
10
6.38213
20
-2.97481
11
6.37663
21
-2.97246
0
LINE
8
BLACK
6
CONTINUOUS
10
6.37663
20
-2.97246
11
6.37107
21
-2.97015
0
LINE
8
BLACK
6
CONTINUOUS
10
6.37107
20
-2.97015
11
6.36534
21
-2.96783
0
LINE
8
BLACK
6
CONTINUOUS
10
6.36534
20
-2.96783
11
6.35958
21
-2.96557
0
LINE
8
BLACK
6
CONTINUOUS
10
6.35958
20
-2.96557
11
6.35777
21
-2.96487
0
LINE
8
BLACK
6
CONTINUOUS
10
6.35777
20
-2.96487
11
6.35196
21
-2.96268
0
LINE
8
BLACK
6
CONTINUOUS
10
6.35196
20
-2.96268
11
6.34622
21
-2.96058
0
LINE
8
BLACK
6
CONTINUOUS
10
6.34622
20
-2.96058
11
6.34041
21
-2.95852
0
LINE
8
BLACK
6
CONTINUOUS
10
6.34041
20
-2.95852
11
6.33458
21
-2.95652
0
LINE
8
BLACK
6
CONTINUOUS
10
6.33458
20
-2.95652
11
6.32869
21
-2.95456
0
LINE
8
BLACK
6
CONTINUOUS
10
6.32869
20
-2.95456
11
6.32269
21
-2.95263
0
LINE
8
BLACK
6
CONTINUOUS
10
6.32269
20
-2.95263
11
6.31672
21
-2.95077
0
LINE
8
BLACK
6
CONTINUOUS
10
6.31672
20
-2.95077
11
6.31025
21
-2.94882
0
LINE
8
BLACK
6
CONTINUOUS
10
6.31025
20
-2.94882
11
6.30411
21
-2.94704
0
LINE
8
BLACK
6
CONTINUOUS
10
6.30411
20
-2.94704
11
6.29779
21
-2.94526
0
LINE
8
BLACK
6
CONTINUOUS
10
6.29779
20
-2.94526
11
6.29137
21
-2.94352
0
LINE
8
BLACK
6
CONTINUOUS
10
6.29137
20
-2.94352
11
6.28492
21
-2.94183
0
LINE
8
BLACK
6
CONTINUOUS
10
6.28492
20
-2.94183
11
6.27854
21
-2.94021
0
LINE
8
BLACK
6
CONTINUOUS
10
6.27854
20
-2.94021
11
6.27196
21
-2.93861
0
LINE
8
BLACK
6
CONTINUOUS
10
6.27196
20
-2.93861
11
6.26546
21
-2.93708
0
LINE
8
BLACK
6
CONTINUOUS
10
6.26546
20
-2.93708
11
6.25893
21
-2.93559
0
LINE
8
BLACK
6
CONTINUOUS
10
6.25893
20
-2.93559
11
6.25239
21
-2.93416
0
LINE
8
BLACK
6
CONTINUOUS
10
6.25239
20
-2.93416
11
6.24582
21
-2.93277
0
LINE
8
BLACK
6
CONTINUOUS
10
6.24582
20
-2.93277
11
6.23915
21
-2.93141
0
LINE
8
BLACK
6
CONTINUOUS
10
6.23915
20
-2.93141
11
6.23205
21
-2.93001
0
LINE
8
BLACK
6
CONTINUOUS
10
6.23205
20
-2.93001
11
6.22531
21
-2.92874
0
LINE
8
BLACK
6
CONTINUOUS
10
6.22531
20
-2.92874
11
6.21838
21
-2.92747
0
LINE
8
BLACK
6
CONTINUOUS
10
6.21838
20
-2.92747
11
6.21139
21
-2.92625
0
LINE
8
BLACK
6
CONTINUOUS
10
6.21139
20
-2.92625
11
6.20438
21
-2.92506
0
LINE
8
BLACK
6
CONTINUOUS
10
6.20438
20
-2.92506
11
6.19737
21
-2.92392
0
LINE
8
BLACK
6
CONTINUOUS
10
6.19737
20
-2.92392
11
6.19058
21
-2.92285
0
LINE
8
BLACK
6
CONTINUOUS
10
6.19058
20
-2.92285
11
6.18373
21
-2.92181
0
LINE
8
BLACK
6
CONTINUOUS
10
6.18373
20
-2.92181
11
6.17667
21
-2.92078
0
LINE
8
BLACK
6
CONTINUOUS
10
6.17667
20
-2.92078
11
6.16947
21
-2.91977
0
LINE
8
BLACK
6
CONTINUOUS
10
6.16947
20
-2.91977
11
6.16203
21
-2.91875
0
LINE
8
BLACK
6
CONTINUOUS
10
6.16203
20
-2.91875
11
6.15492
21
-2.91782
0
LINE
8
BLACK
6
CONTINUOUS
10
6.15492
20
-2.91782
11
6.1478
21
-2.91692
0
LINE
8
BLACK
6
CONTINUOUS
10
6.1478
20
-2.91692
11
6.14032
21
-2.916
0
LINE
8
BLACK
6
CONTINUOUS
10
6.14032
20
-2.916
11
6.13318
21
-2.91516
0
LINE
8
BLACK
6
CONTINUOUS
10
6.13318
20
-2.91516
11
6.12602
21
-2.91434
0
LINE
8
BLACK
6
CONTINUOUS
10
6.12602
20
-2.91434
11
6.11885
21
-2.91354
0
LINE
8
BLACK
6
CONTINUOUS
10
6.11885
20
-2.91354
11
6.11143
21
-2.91274
0
LINE
8
BLACK
6
CONTINUOUS
10
6.11143
20
-2.91274
11
6.10415
21
-2.91197
0
LINE
8
BLACK
6
CONTINUOUS
10
6.10415
20
-2.91197
11
6.0968
21
-2.91122
0
LINE
8
BLACK
6
CONTINUOUS
10
6.0968
20
-2.91122
11
6.0968
21
-2.91122
0
LINE
8
BLACK
6
CONTINUOUS
10
6.0968
20
-2.91122
11
6.08941
21
-2.91048
0
LINE
8
BLACK
6
CONTINUOUS
10
6.08941
20
-2.91048
11
6.08941
21
-2.91048
0
LINE
8
BLACK
6
CONTINUOUS
10
6.08941
20
-2.91048
11
6.08187
21
-2.90975
0
LINE
8
BLACK
6
CONTINUOUS
10
6.08187
20
-2.90975
11
6.08187
21
-2.90975
0
LINE
8
BLACK
6
CONTINUOUS
10
6.08187
20
-2.90975
11
6.07413
21
-2.90901
0
LINE
8
BLACK
6
CONTINUOUS
10
6.07413
20
-2.90901
11
6.07413
21
-2.90901
0
LINE
8
BLACK
6
CONTINUOUS
10
6.07413
20
-2.90901
11
6.06649
21
-2.9083
0
LINE
8
BLACK
6
CONTINUOUS
10
6.06649
20
-2.9083
11
6.06649
21
-2.9083
0
LINE
8
BLACK
6
CONTINUOUS
10
6.06649
20
-2.9083
11
6.05918
21
-2.90763
0
LINE
8
BLACK
6
CONTINUOUS
10
6.05918
20
-2.90763
11
6.05917
21
-2.90763
0
LINE
8
BLACK
6
CONTINUOUS
10
6.05917
20
-2.90763
11
6.05075
21
-2.90687
0
LINE
8
BLACK
6
CONTINUOUS
10
6.05075
20
-2.90687
11
6.04179
21
-2.90607
0
LINE
8
BLACK
6
CONTINUOUS
10
6.04179
20
-2.90607
11
6.04179
21
-2.90607
0
LINE
8
BLACK
6
CONTINUOUS
10
6.04179
20
-2.90607
11
6.03455
21
-2.90543
0
LINE
8
BLACK
6
CONTINUOUS
10
6.03455
20
-2.90543
11
6.03455
21
-2.90543
0
LINE
8
BLACK
6
CONTINUOUS
10
6.03455
20
-2.90543
11
6.0261
21
-2.90469
0
LINE
8
BLACK
6
CONTINUOUS
10
6.0261
20
-2.90469
11
6.0261
21
-2.90469
0
LINE
8
BLACK
6
CONTINUOUS
10
6.0261
20
-2.90469
11
6.01748
21
-2.90394
0
LINE
8
BLACK
6
CONTINUOUS
10
6.01748
20
-2.90394
11
5.05017
21
-2.90394
  0
ENDSEC
  0
EOF
