  0
SECTION
  2
HEADER
  9
$ANGBASE
  50
0.0
  9
$ANGDIR
  70
1
  9
$MEASUREMENT
  70
0
  0
ENDSEC
  0
SECTION
  2
TABLES
  0
TABLE
  2
LTYPE
  70
4
  0
LTYPE
  5
40F
  2
CONTINUOUS
  70
0
  3
Solid line
  72
65
  73
0
  40
0.0
  0
LTYPE
  5
410
  2
DASHDOT
 70
0
  3
Dash Dot ____ _ ____ _
 72
65
 73
4
 40
2.0
 49
1.25
 49
-0.25
 49
0.25
 49
-0.25
  0
LTYPE
  5
411
  2
DASHED
 70
0
  3
Dashed __ __ __ __ __
 72
65
 73
2
 40
0.75
 49
0.5
 49
-0.25
  0
LTYPE
  5
43B
  2
DOTTED
 70
0
  3
Dotted .  .  .  .
 72
65
 73
2
 40
0.2
 49
0.0
 49
-0.2
  0
ENDTAB
  0
TABLE
  2
STYLE
  70
4
  0
STYLE
  2
KICAD
  70
0
  40
0
  41
1
  42
1
  50
0
  71
0
  3
isocp.shx
  0
STYLE
  2
KICADB
  70
0
  40
0
  41
1
  42
1
  50
0
  71
0
  3
isocp.shx
  0
STYLE
  2
KICADI
  70
0
  40
0
  41
1
  42
1
  50
15
  71
0
  3
isocp.shx
  0
STYLE
  2
KICADBI
  70
0
  40
0
  41
1
  42
1
  50
15
  71
0
  3
isocp.shx
  0
ENDTAB
  0
TABLE
  2
LAYER
  70
1
  0
LAYER
  2
BLACK
  70
0
  62
7
  6
CONTINUOUS
  0
ENDTAB
  0
ENDSEC
  0
SECTION
  2
ENTITIES
0
LINE
8
BLACK
6
CONTINUOUS
10
5.51652
20
-3.65068
11
5.51652
21
-3.65068
0
LINE
8
BLACK
6
CONTINUOUS
10
5.51652
20
-3.65068
11
5.5168
21
-3.65071
0
LINE
8
BLACK
6
CONTINUOUS
10
5.5168
20
-3.65071
11
5.51709
21
-3.65074
0
LINE
8
BLACK
6
CONTINUOUS
10
5.51709
20
-3.65074
11
5.51709
21
-3.65074
0
LINE
8
BLACK
6
CONTINUOUS
10
5.51709
20
-3.65074
11
5.51709
21
-3.65074
0
LINE
8
BLACK
6
CONTINUOUS
10
5.51709
20
-3.65074
11
5.51737
21
-3.65083
0
LINE
8
BLACK
6
CONTINUOUS
10
5.51737
20
-3.65083
11
5.51764
21
-3.65091
0
LINE
8
BLACK
6
CONTINUOUS
10
5.51764
20
-3.65091
11
5.51764
21
-3.65091
0
LINE
8
BLACK
6
CONTINUOUS
10
5.51764
20
-3.65091
11
5.51764
21
-3.65091
0
LINE
8
BLACK
6
CONTINUOUS
10
5.51764
20
-3.65091
11
5.5179
21
-3.65106
0
LINE
8
BLACK
6
CONTINUOUS
10
5.5179
20
-3.65106
11
5.51815
21
-3.65119
0
LINE
8
BLACK
6
CONTINUOUS
10
5.51815
20
-3.65119
11
5.51815
21
-3.65119
0
LINE
8
BLACK
6
CONTINUOUS
10
5.51815
20
-3.65119
11
5.51815
21
-3.65119
0
LINE
8
BLACK
6
CONTINUOUS
10
5.51815
20
-3.65119
11
5.51837
21
-3.65137
0
LINE
8
BLACK
6
CONTINUOUS
10
5.51837
20
-3.65137
11
5.51859
21
-3.65155
0
LINE
8
BLACK
6
CONTINUOUS
10
5.51859
20
-3.65155
11
5.51859
21
-3.65155
0
LINE
8
BLACK
6
CONTINUOUS
10
5.51859
20
-3.65155
11
5.51859
21
-3.65156
0
LINE
8
BLACK
6
CONTINUOUS
10
5.51859
20
-3.65156
11
5.51877
21
-3.65177
0
LINE
8
BLACK
6
CONTINUOUS
10
5.51877
20
-3.65177
11
5.51895
21
-3.652
0
LINE
8
BLACK
6
CONTINUOUS
10
5.51895
20
-3.652
11
5.52254
21
-3.65738
0
LINE
8
BLACK
6
CONTINUOUS
10
5.52254
20
-3.65738
11
5.52575
21
-3.66058
0
LINE
8
BLACK
6
CONTINUOUS
10
5.52575
20
-3.66058
11
5.52907
21
-3.66224
0
LINE
8
BLACK
6
CONTINUOUS
10
5.52907
20
-3.66224
11
5.5291
21
-3.66226
0
LINE
8
BLACK
6
CONTINUOUS
10
5.5291
20
-3.66226
11
5.52959
21
-3.66258
0
LINE
8
BLACK
6
CONTINUOUS
10
5.52959
20
-3.66258
11
5.53
21
-3.66298
0
LINE
8
BLACK
6
CONTINUOUS
10
5.53
20
-3.66298
11
5.53033
21
-3.66345
0
LINE
8
BLACK
6
CONTINUOUS
10
5.53033
20
-3.66345
11
5.53056
21
-3.66398
0
LINE
8
BLACK
6
CONTINUOUS
10
5.53056
20
-3.66398
11
5.53068
21
-3.66454
0
LINE
8
BLACK
6
CONTINUOUS
10
5.53068
20
-3.66454
11
5.53069
21
-3.66512
0
LINE
8
BLACK
6
CONTINUOUS
10
5.53069
20
-3.66512
11
5.53059
21
-3.66569
0
LINE
8
BLACK
6
CONTINUOUS
10
5.53059
20
-3.66569
11
5.53038
21
-3.66622
0
LINE
8
BLACK
6
CONTINUOUS
10
5.53038
20
-3.66622
11
5.53007
21
-3.66671
0
LINE
8
BLACK
6
CONTINUOUS
10
5.53007
20
-3.66671
11
5.52967
21
-3.66713
0
LINE
8
BLACK
6
CONTINUOUS
10
5.52967
20
-3.66713
11
5.5292
21
-3.66746
0
LINE
8
BLACK
6
CONTINUOUS
10
5.5292
20
-3.66746
11
5.52867
21
-3.66769
0
LINE
8
BLACK
6
CONTINUOUS
10
5.52867
20
-3.66769
11
5.52811
21
-3.66782
0
LINE
8
BLACK
6
CONTINUOUS
10
5.52811
20
-3.66782
11
5.52753
21
-3.66783
0
LINE
8
BLACK
6
CONTINUOUS
10
5.52753
20
-3.66783
11
5.52696
21
-3.66773
0
LINE
8
BLACK
6
CONTINUOUS
10
5.52696
20
-3.66773
11
5.52643
21
-3.66753
0
LINE
8
BLACK
6
CONTINUOUS
10
5.52643
20
-3.66753
11
5.52268
21
-3.66565
0
LINE
8
BLACK
6
CONTINUOUS
10
5.52268
20
-3.66565
11
5.52264
21
-3.66563
0
LINE
8
BLACK
6
CONTINUOUS
10
5.52264
20
-3.66563
11
5.5225
21
-3.66554
0
LINE
8
BLACK
6
CONTINUOUS
10
5.5225
20
-3.66554
11
5.52235
21
-3.66546
0
LINE
8
BLACK
6
CONTINUOUS
10
5.52235
20
-3.66546
11
5.52226
21
-3.66539
0
LINE
8
BLACK
6
CONTINUOUS
10
5.52226
20
-3.66539
11
5.52216
21
-3.66532
0
LINE
8
BLACK
6
CONTINUOUS
10
5.52216
20
-3.66532
11
5.52204
21
-3.6652
0
LINE
8
BLACK
6
CONTINUOUS
10
5.52204
20
-3.6652
11
5.52191
21
-3.6651
0
LINE
8
BLACK
6
CONTINUOUS
10
5.52191
20
-3.6651
11
5.51945
21
-3.66264
0
LINE
8
BLACK
6
CONTINUOUS
10
5.51945
20
-3.66264
11
5.51945
21
-3.69005
0
LINE
8
BLACK
6
CONTINUOUS
10
5.51945
20
-3.69005
11
5.52775
21
-3.69005
0
LINE
8
BLACK
6
CONTINUOUS
10
5.52775
20
-3.69005
11
5.52779
21
-3.69005
0
LINE
8
BLACK
6
CONTINUOUS
10
5.52779
20
-3.69005
11
5.52836
21
-3.69012
0
LINE
8
BLACK
6
CONTINUOUS
10
5.52836
20
-3.69012
11
5.52891
21
-3.69029
0
LINE
8
BLACK
6
CONTINUOUS
10
5.52891
20
-3.69029
11
5.52941
21
-3.69057
0
LINE
8
BLACK
6
CONTINUOUS
10
5.52941
20
-3.69057
11
5.52986
21
-3.69094
0
LINE
8
BLACK
6
CONTINUOUS
10
5.52986
20
-3.69094
11
5.53022
21
-3.69139
0
LINE
8
BLACK
6
CONTINUOUS
10
5.53022
20
-3.69139
11
5.53048
21
-3.6919
0
LINE
8
BLACK
6
CONTINUOUS
10
5.53048
20
-3.6919
11
5.53065
21
-3.69245
0
LINE
8
BLACK
6
CONTINUOUS
10
5.53065
20
-3.69245
11
5.5307
21
-3.69303
0
LINE
8
BLACK
6
CONTINUOUS
10
5.5307
20
-3.69303
11
5.53064
21
-3.6936
0
LINE
8
BLACK
6
CONTINUOUS
10
5.53064
20
-3.6936
11
5.53047
21
-3.69415
0
LINE
8
BLACK
6
CONTINUOUS
10
5.53047
20
-3.69415
11
5.53019
21
-3.69466
0
LINE
8
BLACK
6
CONTINUOUS
10
5.53019
20
-3.69466
11
5.52983
21
-3.6951
0
LINE
8
BLACK
6
CONTINUOUS
10
5.52983
20
-3.6951
11
5.52938
21
-3.69547
0
LINE
8
BLACK
6
CONTINUOUS
10
5.52938
20
-3.69547
11
5.52887
21
-3.69574
0
LINE
8
BLACK
6
CONTINUOUS
10
5.52887
20
-3.69574
11
5.52832
21
-3.6959
0
LINE
8
BLACK
6
CONTINUOUS
10
5.52832
20
-3.6959
11
5.52775
21
-3.69596
0
LINE
8
BLACK
6
CONTINUOUS
10
5.52775
20
-3.69596
11
5.50525
21
-3.69596
0
LINE
8
BLACK
6
CONTINUOUS
10
5.50525
20
-3.69596
11
5.50521
21
-3.69596
0
LINE
8
BLACK
6
CONTINUOUS
10
5.50521
20
-3.69596
11
5.50464
21
-3.6959
0
LINE
8
BLACK
6
CONTINUOUS
10
5.50464
20
-3.6959
11
5.50409
21
-3.69572
0
LINE
8
BLACK
6
CONTINUOUS
10
5.50409
20
-3.69572
11
5.50358
21
-3.69544
0
LINE
8
BLACK
6
CONTINUOUS
10
5.50358
20
-3.69544
11
5.50314
21
-3.69507
0
LINE
8
BLACK
6
CONTINUOUS
10
5.50314
20
-3.69507
11
5.50278
21
-3.69462
0
LINE
8
BLACK
6
CONTINUOUS
10
5.50278
20
-3.69462
11
5.50251
21
-3.69411
0
LINE
8
BLACK
6
CONTINUOUS
10
5.50251
20
-3.69411
11
5.50235
21
-3.69356
0
LINE
8
BLACK
6
CONTINUOUS
10
5.50235
20
-3.69356
11
5.5023
21
-3.69299
0
LINE
8
BLACK
6
CONTINUOUS
10
5.5023
20
-3.69299
11
5.50236
21
-3.69241
0
LINE
8
BLACK
6
CONTINUOUS
10
5.50236
20
-3.69241
11
5.50253
21
-3.69186
0
LINE
8
BLACK
6
CONTINUOUS
10
5.50253
20
-3.69186
11
5.5028
21
-3.69136
0
LINE
8
BLACK
6
CONTINUOUS
10
5.5028
20
-3.69136
11
5.50317
21
-3.69091
0
LINE
8
BLACK
6
CONTINUOUS
10
5.50317
20
-3.69091
11
5.50362
21
-3.69055
0
LINE
8
BLACK
6
CONTINUOUS
10
5.50362
20
-3.69055
11
5.50412
21
-3.69028
0
LINE
8
BLACK
6
CONTINUOUS
10
5.50412
20
-3.69028
11
5.50468
21
-3.69011
0
LINE
8
BLACK
6
CONTINUOUS
10
5.50468
20
-3.69011
11
5.50525
21
-3.69005
0
LINE
8
BLACK
6
CONTINUOUS
10
5.50525
20
-3.69005
11
5.51355
21
-3.69005
0
LINE
8
BLACK
6
CONTINUOUS
10
5.51355
20
-3.69005
11
5.51355
21
-3.65364
0
LINE
8
BLACK
6
CONTINUOUS
10
5.51355
20
-3.65364
11
5.51355
21
-3.6536
0
LINE
8
BLACK
6
CONTINUOUS
10
5.51355
20
-3.6536
11
5.51355
21
-3.6536
0
LINE
8
BLACK
6
CONTINUOUS
10
5.51355
20
-3.6536
11
5.51355
21
-3.6536
0
LINE
8
BLACK
6
CONTINUOUS
10
5.51355
20
-3.6536
11
5.51355
21
-3.6536
0
LINE
8
BLACK
6
CONTINUOUS
10
5.51355
20
-3.6536
11
5.51358
21
-3.65331
0
LINE
8
BLACK
6
CONTINUOUS
10
5.51358
20
-3.65331
11
5.51361
21
-3.65303
0
LINE
8
BLACK
6
CONTINUOUS
10
5.51361
20
-3.65303
11
5.51361
21
-3.65303
0
LINE
8
BLACK
6
CONTINUOUS
10
5.51361
20
-3.65303
11
5.51361
21
-3.65302
0
LINE
8
BLACK
6
CONTINUOUS
10
5.51361
20
-3.65302
11
5.5137
21
-3.65274
0
LINE
8
BLACK
6
CONTINUOUS
10
5.5137
20
-3.65274
11
5.51378
21
-3.65248
0
LINE
8
BLACK
6
CONTINUOUS
10
5.51378
20
-3.65248
11
5.51378
21
-3.65248
0
LINE
8
BLACK
6
CONTINUOUS
10
5.51378
20
-3.65248
11
5.51378
21
-3.65247
0
LINE
8
BLACK
6
CONTINUOUS
10
5.51378
20
-3.65247
11
5.51393
21
-3.65221
0
LINE
8
BLACK
6
CONTINUOUS
10
5.51393
20
-3.65221
11
5.51406
21
-3.65197
0
LINE
8
BLACK
6
CONTINUOUS
10
5.51406
20
-3.65197
11
5.51406
21
-3.65197
0
LINE
8
BLACK
6
CONTINUOUS
10
5.51406
20
-3.65197
11
5.51406
21
-3.65197
0
LINE
8
BLACK
6
CONTINUOUS
10
5.51406
20
-3.65197
11
5.51425
21
-3.65175
0
LINE
8
BLACK
6
CONTINUOUS
10
5.51425
20
-3.65175
11
5.51443
21
-3.65153
0
LINE
8
BLACK
6
CONTINUOUS
10
5.51443
20
-3.65153
11
5.51443
21
-3.65153
0
LINE
8
BLACK
6
CONTINUOUS
10
5.51443
20
-3.65153
11
5.51443
21
-3.65153
0
LINE
8
BLACK
6
CONTINUOUS
10
5.51443
20
-3.65153
11
5.51465
21
-3.65135
0
LINE
8
BLACK
6
CONTINUOUS
10
5.51465
20
-3.65135
11
5.51488
21
-3.65117
0
LINE
8
BLACK
6
CONTINUOUS
10
5.51488
20
-3.65117
11
5.51488
21
-3.65117
0
LINE
8
BLACK
6
CONTINUOUS
10
5.51488
20
-3.65117
11
5.51488
21
-3.65117
0
LINE
8
BLACK
6
CONTINUOUS
10
5.51488
20
-3.65117
11
5.51513
21
-3.65104
0
LINE
8
BLACK
6
CONTINUOUS
10
5.51513
20
-3.65104
11
5.51539
21
-3.6509
0
LINE
8
BLACK
6
CONTINUOUS
10
5.51539
20
-3.6509
11
5.51539
21
-3.6509
0
LINE
8
BLACK
6
CONTINUOUS
10
5.51539
20
-3.6509
11
5.51539
21
-3.6509
0
LINE
8
BLACK
6
CONTINUOUS
10
5.51539
20
-3.6509
11
5.51566
21
-3.65082
0
LINE
8
BLACK
6
CONTINUOUS
10
5.51566
20
-3.65082
11
5.51594
21
-3.65074
0
LINE
8
BLACK
6
CONTINUOUS
10
5.51594
20
-3.65074
11
5.51594
21
-3.65074
0
LINE
8
BLACK
6
CONTINUOUS
10
5.51594
20
-3.65074
11
5.51594
21
-3.65074
0
LINE
8
BLACK
6
CONTINUOUS
10
5.51594
20
-3.65074
11
5.51622
21
-3.65071
0
LINE
8
BLACK
6
CONTINUOUS
10
5.51622
20
-3.65071
11
5.51651
21
-3.65068
0
LINE
8
BLACK
6
CONTINUOUS
10
5.51651
20
-3.65068
11
5.51652
21
-3.65068
0
LINE
8
BLACK
6
CONTINUOUS
10
5.54521
20
-3.65074
11
5.54576
21
-3.65091
0
LINE
8
BLACK
6
CONTINUOUS
10
5.54576
20
-3.65091
11
5.54627
21
-3.65119
0
LINE
8
BLACK
6
CONTINUOUS
10
5.54627
20
-3.65119
11
5.54671
21
-3.65156
0
LINE
8
BLACK
6
CONTINUOUS
10
5.54671
20
-3.65156
11
5.54708
21
-3.652
0
LINE
8
BLACK
6
CONTINUOUS
10
5.54708
20
-3.652
11
5.54735
21
-3.65251
0
LINE
8
BLACK
6
CONTINUOUS
10
5.54735
20
-3.65251
11
5.54752
21
-3.65306
0
LINE
8
BLACK
6
CONTINUOUS
10
5.54752
20
-3.65306
11
5.54757
21
-3.65364
0
LINE
8
BLACK
6
CONTINUOUS
10
5.54757
20
-3.65364
11
5.54757
21
-3.68128
0
LINE
8
BLACK
6
CONTINUOUS
10
5.54757
20
-3.68128
11
5.54907
21
-3.68579
0
LINE
8
BLACK
6
CONTINUOUS
10
5.54907
20
-3.68579
11
5.55184
21
-3.68855
0
LINE
8
BLACK
6
CONTINUOUS
10
5.55184
20
-3.68855
11
5.55635
21
-3.69005
0
LINE
8
BLACK
6
CONTINUOUS
10
5.55635
20
-3.69005
11
5.55962
21
-3.69005
0
LINE
8
BLACK
6
CONTINUOUS
10
5.55962
20
-3.69005
11
5.55966
21
-3.69005
0
LINE
8
BLACK
6
CONTINUOUS
10
5.55966
20
-3.69005
11
5.56023
21
-3.69012
0
LINE
8
BLACK
6
CONTINUOUS
10
5.56023
20
-3.69012
11
5.56078
21
-3.69029
0
LINE
8
BLACK
6
CONTINUOUS
10
5.56078
20
-3.69029
11
5.56129
21
-3.69057
0
LINE
8
BLACK
6
CONTINUOUS
10
5.56129
20
-3.69057
11
5.56173
21
-3.69094
0
LINE
8
BLACK
6
CONTINUOUS
10
5.56173
20
-3.69094
11
5.56209
21
-3.69139
0
LINE
8
BLACK
6
CONTINUOUS
10
5.56209
20
-3.69139
11
5.56236
21
-3.6919
0
LINE
8
BLACK
6
CONTINUOUS
10
5.56236
20
-3.6919
11
5.56252
21
-3.69245
0
LINE
8
BLACK
6
CONTINUOUS
10
5.56252
20
-3.69245
11
5.56257
21
-3.69303
0
LINE
8
BLACK
6
CONTINUOUS
10
5.56257
20
-3.69303
11
5.56251
21
-3.6936
0
LINE
8
BLACK
6
CONTINUOUS
10
5.56251
20
-3.6936
11
5.56234
21
-3.69415
0
LINE
8
BLACK
6
CONTINUOUS
10
5.56234
20
-3.69415
11
5.56207
21
-3.69466
0
LINE
8
BLACK
6
CONTINUOUS
10
5.56207
20
-3.69466
11
5.5617
21
-3.6951
0
LINE
8
BLACK
6
CONTINUOUS
10
5.5617
20
-3.6951
11
5.56125
21
-3.69547
0
LINE
8
BLACK
6
CONTINUOUS
10
5.56125
20
-3.69547
11
5.56074
21
-3.69574
0
LINE
8
BLACK
6
CONTINUOUS
10
5.56074
20
-3.69574
11
5.56019
21
-3.6959
0
LINE
8
BLACK
6
CONTINUOUS
10
5.56019
20
-3.6959
11
5.55962
21
-3.69596
0
LINE
8
BLACK
6
CONTINUOUS
10
5.55962
20
-3.69596
11
5.55587
21
-3.69596
0
LINE
8
BLACK
6
CONTINUOUS
10
5.55587
20
-3.69596
11
5.55583
21
-3.69596
0
LINE
8
BLACK
6
CONTINUOUS
10
5.55583
20
-3.69596
11
5.55566
21
-3.69594
0
LINE
8
BLACK
6
CONTINUOUS
10
5.55566
20
-3.69594
11
5.5555
21
-3.69594
0
LINE
8
BLACK
6
CONTINUOUS
10
5.5555
20
-3.69594
11
5.55538
21
-3.69591
0
LINE
8
BLACK
6
CONTINUOUS
10
5.55538
20
-3.69591
11
5.55525
21
-3.6959
0
LINE
8
BLACK
6
CONTINUOUS
10
5.55525
20
-3.6959
11
5.5551
21
-3.69585
0
LINE
8
BLACK
6
CONTINUOUS
10
5.5551
20
-3.69585
11
5.55493
21
-3.69581
0
LINE
8
BLACK
6
CONTINUOUS
10
5.55493
20
-3.69581
11
5.54931
21
-3.69393
0
LINE
8
BLACK
6
CONTINUOUS
10
5.54931
20
-3.69393
11
5.54927
21
-3.69392
0
LINE
8
BLACK
6
CONTINUOUS
10
5.54927
20
-3.69392
11
5.54919
21
-3.69388
0
LINE
8
BLACK
6
CONTINUOUS
10
5.54919
20
-3.69388
11
5.54911
21
-3.69386
0
LINE
8
BLACK
6
CONTINUOUS
10
5.54911
20
-3.69386
11
5.54893
21
-3.69376
0
LINE
8
BLACK
6
CONTINUOUS
10
5.54893
20
-3.69376
11
5.54875
21
-3.69368
0
LINE
8
BLACK
6
CONTINUOUS
10
5.54875
20
-3.69368
11
5.54868
21
-3.69363
0
LINE
8
BLACK
6
CONTINUOUS
10
5.54868
20
-3.69363
11
5.5486
21
-3.69359
0
LINE
8
BLACK
6
CONTINUOUS
10
5.5486
20
-3.69359
11
5.54845
21
-3.69346
0
LINE
8
BLACK
6
CONTINUOUS
10
5.54845
20
-3.69346
11
5.54828
21
-3.69334
0
LINE
8
BLACK
6
CONTINUOUS
10
5.54828
20
-3.69334
11
5.54822
21
-3.69328
0
LINE
8
BLACK
6
CONTINUOUS
10
5.54822
20
-3.69328
11
5.54816
21
-3.69322
0
LINE
8
BLACK
6
CONTINUOUS
10
5.54816
20
-3.69322
11
5.54441
21
-3.68947
0
LINE
8
BLACK
6
CONTINUOUS
10
5.54441
20
-3.68947
11
5.54438
21
-3.68944
0
LINE
8
BLACK
6
CONTINUOUS
10
5.54438
20
-3.68944
11
5.54432
21
-3.68937
0
LINE
8
BLACK
6
CONTINUOUS
10
5.54432
20
-3.68937
11
5.54426
21
-3.68931
0
LINE
8
BLACK
6
CONTINUOUS
10
5.54426
20
-3.68931
11
5.54414
21
-3.68915
0
LINE
8
BLACK
6
CONTINUOUS
10
5.54414
20
-3.68915
11
5.54402
21
-3.68899
0
LINE
8
BLACK
6
CONTINUOUS
10
5.54402
20
-3.68899
11
5.54398
21
-3.68891
0
LINE
8
BLACK
6
CONTINUOUS
10
5.54398
20
-3.68891
11
5.54393
21
-3.68884
0
LINE
8
BLACK
6
CONTINUOUS
10
5.54393
20
-3.68884
11
5.54385
21
-3.68866
0
LINE
8
BLACK
6
CONTINUOUS
10
5.54385
20
-3.68866
11
5.54375
21
-3.68848
0
LINE
8
BLACK
6
CONTINUOUS
10
5.54375
20
-3.68848
11
5.54373
21
-3.6884
0
LINE
8
BLACK
6
CONTINUOUS
10
5.54373
20
-3.6884
11
5.54369
21
-3.68832
0
LINE
8
BLACK
6
CONTINUOUS
10
5.54369
20
-3.68832
11
5.54182
21
-3.68269
0
LINE
8
BLACK
6
CONTINUOUS
10
5.54182
20
-3.68269
11
5.54181
21
-3.68265
0
LINE
8
BLACK
6
CONTINUOUS
10
5.54181
20
-3.68265
11
5.54177
21
-3.68249
0
LINE
8
BLACK
6
CONTINUOUS
10
5.54177
20
-3.68249
11
5.54172
21
-3.68233
0
LINE
8
BLACK
6
CONTINUOUS
10
5.54172
20
-3.68233
11
5.54171
21
-3.68221
0
LINE
8
BLACK
6
CONTINUOUS
10
5.54171
20
-3.68221
11
5.54169
21
-3.68209
0
LINE
8
BLACK
6
CONTINUOUS
10
5.54169
20
-3.68209
11
5.54168
21
-3.68192
0
LINE
8
BLACK
6
CONTINUOUS
10
5.54168
20
-3.68192
11
5.54167
21
-3.68176
0
LINE
8
BLACK
6
CONTINUOUS
10
5.54167
20
-3.68176
11
5.54167
21
-3.65364
0
LINE
8
BLACK
6
CONTINUOUS
10
5.54167
20
-3.65364
11
5.54167
21
-3.6536
0
LINE
8
BLACK
6
CONTINUOUS
10
5.54167
20
-3.6536
11
5.54173
21
-3.65302
0
LINE
8
BLACK
6
CONTINUOUS
10
5.54173
20
-3.65302
11
5.54191
21
-3.65247
0
LINE
8
BLACK
6
CONTINUOUS
10
5.54191
20
-3.65247
11
5.54218
21
-3.65197
0
LINE
8
BLACK
6
CONTINUOUS
10
5.54218
20
-3.65197
11
5.54255
21
-3.65153
0
LINE
8
BLACK
6
CONTINUOUS
10
5.54255
20
-3.65153
11
5.543
21
-3.65117
0
LINE
8
BLACK
6
CONTINUOUS
10
5.543
20
-3.65117
11
5.54351
21
-3.6509
0
LINE
8
BLACK
6
CONTINUOUS
10
5.54351
20
-3.6509
11
5.54407
21
-3.65074
0
LINE
8
BLACK
6
CONTINUOUS
10
5.54407
20
-3.65074
11
5.54464
21
-3.65068
0
LINE
8
BLACK
6
CONTINUOUS
10
5.54464
20
-3.65068
11
5.54521
21
-3.65074
0
LINE
8
BLACK
6
CONTINUOUS
10
5.69279
20
-3.59649
11
5.69323
21
-3.59663
0
LINE
8
BLACK
6
CONTINUOUS
10
5.69323
20
-3.59663
11
5.69364
21
-3.59685
0
LINE
8
BLACK
6
CONTINUOUS
10
5.69364
20
-3.59685
11
5.694
21
-3.59714
0
LINE
8
BLACK
6
CONTINUOUS
10
5.694
20
-3.59714
11
5.6943
21
-3.5975
0
LINE
8
BLACK
6
CONTINUOUS
10
5.6943
20
-3.5975
11
5.69452
21
-3.59791
0
LINE
8
BLACK
6
CONTINUOUS
10
5.69452
20
-3.59791
11
5.69465
21
-3.59836
0
LINE
8
BLACK
6
CONTINUOUS
10
5.69465
20
-3.59836
11
5.69469
21
-3.5987
0
LINE
8
BLACK
6
CONTINUOUS
10
5.69469
20
-3.5987
11
5.69469
21
-3.63217
0
LINE
8
BLACK
6
CONTINUOUS
10
5.69469
20
-3.63217
11
5.6947
21
-3.63228
0
LINE
8
BLACK
6
CONTINUOUS
10
5.6947
20
-3.63228
11
5.69465
21
-3.63275
0
LINE
8
BLACK
6
CONTINUOUS
10
5.69465
20
-3.63275
11
5.69452
21
-3.63319
0
LINE
8
BLACK
6
CONTINUOUS
10
5.69452
20
-3.63319
11
5.6943
21
-3.6336
0
LINE
8
BLACK
6
CONTINUOUS
10
5.6943
20
-3.6336
11
5.694
21
-3.63396
0
LINE
8
BLACK
6
CONTINUOUS
10
5.694
20
-3.63396
11
5.69364
21
-3.63426
0
LINE
8
BLACK
6
CONTINUOUS
10
5.69364
20
-3.63426
11
5.69323
21
-3.63448
0
LINE
8
BLACK
6
CONTINUOUS
10
5.69323
20
-3.63448
11
5.69279
21
-3.63461
0
LINE
8
BLACK
6
CONTINUOUS
10
5.69279
20
-3.63461
11
5.69244
21
-3.63465
0
LINE
8
BLACK
6
CONTINUOUS
10
5.69244
20
-3.63465
11
5.69244
21
-3.63465
0
LINE
8
BLACK
6
CONTINUOUS
10
5.69244
20
-3.63465
11
5.69232
21
-3.63466
0
LINE
8
BLACK
6
CONTINUOUS
10
5.69232
20
-3.63466
11
5.69221
21
-3.63465
0
LINE
8
BLACK
6
CONTINUOUS
10
5.69221
20
-3.63465
11
5.37079
21
-3.63465
0
LINE
8
BLACK
6
CONTINUOUS
10
5.37079
20
-3.63465
11
5.37067
21
-3.63466
0
LINE
8
BLACK
6
CONTINUOUS
10
5.37067
20
-3.63466
11
5.37055
21
-3.63465
0
LINE
8
BLACK
6
CONTINUOUS
10
5.37055
20
-3.63465
11
5.37055
21
-3.63465
0
LINE
8
BLACK
6
CONTINUOUS
10
5.37055
20
-3.63465
11
5.37021
21
-3.63461
0
LINE
8
BLACK
6
CONTINUOUS
10
5.37021
20
-3.63461
11
5.36976
21
-3.63448
0
LINE
8
BLACK
6
CONTINUOUS
10
5.36976
20
-3.63448
11
5.36935
21
-3.63426
0
LINE
8
BLACK
6
CONTINUOUS
10
5.36935
20
-3.63426
11
5.36899
21
-3.63396
0
LINE
8
BLACK
6
CONTINUOUS
10
5.36899
20
-3.63396
11
5.3687
21
-3.6336
0
LINE
8
BLACK
6
CONTINUOUS
10
5.3687
20
-3.6336
11
5.36848
21
-3.63319
0
LINE
8
BLACK
6
CONTINUOUS
10
5.36848
20
-3.63319
11
5.36834
21
-3.63275
0
LINE
8
BLACK
6
CONTINUOUS
10
5.36834
20
-3.63275
11
5.3683
21
-3.63228
0
LINE
8
BLACK
6
CONTINUOUS
10
5.3683
20
-3.63228
11
5.36831
21
-3.63217
0
LINE
8
BLACK
6
CONTINUOUS
10
5.36831
20
-3.63217
11
5.36831
21
-3.5987
0
LINE
8
BLACK
6
CONTINUOUS
10
5.36831
20
-3.5987
11
5.36834
21
-3.59836
0
LINE
8
BLACK
6
CONTINUOUS
10
5.36834
20
-3.59836
11
5.36848
21
-3.59791
0
LINE
8
BLACK
6
CONTINUOUS
10
5.36848
20
-3.59791
11
5.3687
21
-3.5975
0
LINE
8
BLACK
6
CONTINUOUS
10
5.3687
20
-3.5975
11
5.36899
21
-3.59714
0
LINE
8
BLACK
6
CONTINUOUS
10
5.36899
20
-3.59714
11
5.36935
21
-3.59685
0
LINE
8
BLACK
6
CONTINUOUS
10
5.36935
20
-3.59685
11
5.36976
21
-3.59663
0
LINE
8
BLACK
6
CONTINUOUS
10
5.36976
20
-3.59663
11
5.37021
21
-3.59649
0
LINE
8
BLACK
6
CONTINUOUS
10
5.37021
20
-3.59649
11
5.37067
21
-3.59645
0
LINE
8
BLACK
6
CONTINUOUS
10
5.37067
20
-3.59645
11
5.37113
21
-3.59649
0
LINE
8
BLACK
6
CONTINUOUS
10
5.37113
20
-3.59649
11
5.37158
21
-3.59663
0
LINE
8
BLACK
6
CONTINUOUS
10
5.37158
20
-3.59663
11
5.37199
21
-3.59685
0
LINE
8
BLACK
6
CONTINUOUS
10
5.37199
20
-3.59685
11
5.37235
21
-3.59714
0
LINE
8
BLACK
6
CONTINUOUS
10
5.37235
20
-3.59714
11
5.37264
21
-3.5975
0
LINE
8
BLACK
6
CONTINUOUS
10
5.37264
20
-3.5975
11
5.37286
21
-3.59791
0
LINE
8
BLACK
6
CONTINUOUS
10
5.37286
20
-3.59791
11
5.373
21
-3.59836
0
LINE
8
BLACK
6
CONTINUOUS
10
5.373
20
-3.59836
11
5.37303
21
-3.5987
0
LINE
8
BLACK
6
CONTINUOUS
10
5.37303
20
-3.5987
11
5.37303
21
-3.62992
0
LINE
8
BLACK
6
CONTINUOUS
10
5.37303
20
-3.62992
11
5.68996
21
-3.62992
0
LINE
8
BLACK
6
CONTINUOUS
10
5.68996
20
-3.62992
11
5.68996
21
-3.5987
0
LINE
8
BLACK
6
CONTINUOUS
10
5.68996
20
-3.5987
11
5.68999
21
-3.59836
0
LINE
8
BLACK
6
CONTINUOUS
10
5.68999
20
-3.59836
11
5.69013
21
-3.59791
0
LINE
8
BLACK
6
CONTINUOUS
10
5.69013
20
-3.59791
11
5.69035
21
-3.5975
0
LINE
8
BLACK
6
CONTINUOUS
10
5.69035
20
-3.5975
11
5.69064
21
-3.59714
0
LINE
8
BLACK
6
CONTINUOUS
10
5.69064
20
-3.59714
11
5.691
21
-3.59685
0
LINE
8
BLACK
6
CONTINUOUS
10
5.691
20
-3.59685
11
5.69141
21
-3.59663
0
LINE
8
BLACK
6
CONTINUOUS
10
5.69141
20
-3.59663
11
5.69186
21
-3.59649
0
LINE
8
BLACK
6
CONTINUOUS
10
5.69186
20
-3.59649
11
5.69232
21
-3.59645
0
LINE
8
BLACK
6
CONTINUOUS
10
5.69232
20
-3.59645
11
5.69279
21
-3.59649
0
LINE
8
BLACK
6
CONTINUOUS
10
5.69244
20
-3.42441
11
5.69279
21
-3.42444
0
LINE
8
BLACK
6
CONTINUOUS
10
5.69279
20
-3.42444
11
5.69323
21
-3.42458
0
LINE
8
BLACK
6
CONTINUOUS
10
5.69323
20
-3.42458
11
5.69364
21
-3.4248
0
LINE
8
BLACK
6
CONTINUOUS
10
5.69364
20
-3.4248
11
5.694
21
-3.42509
0
LINE
8
BLACK
6
CONTINUOUS
10
5.694
20
-3.42509
11
5.6943
21
-3.42545
0
LINE
8
BLACK
6
CONTINUOUS
10
5.6943
20
-3.42545
11
5.69452
21
-3.42586
0
LINE
8
BLACK
6
CONTINUOUS
10
5.69452
20
-3.42586
11
5.69465
21
-3.42631
0
LINE
8
BLACK
6
CONTINUOUS
10
5.69465
20
-3.42631
11
5.6947
21
-3.42677
0
LINE
8
BLACK
6
CONTINUOUS
10
5.6947
20
-3.42677
11
5.69469
21
-3.42689
0
LINE
8
BLACK
6
CONTINUOUS
10
5.69469
20
-3.42689
11
5.69469
21
-3.46035
0
LINE
8
BLACK
6
CONTINUOUS
10
5.69469
20
-3.46035
11
5.69465
21
-3.4607
0
LINE
8
BLACK
6
CONTINUOUS
10
5.69465
20
-3.4607
11
5.69452
21
-3.46114
0
LINE
8
BLACK
6
CONTINUOUS
10
5.69452
20
-3.46114
11
5.6943
21
-3.46155
0
LINE
8
BLACK
6
CONTINUOUS
10
5.6943
20
-3.46155
11
5.694
21
-3.46191
0
LINE
8
BLACK
6
CONTINUOUS
10
5.694
20
-3.46191
11
5.69364
21
-3.46221
0
LINE
8
BLACK
6
CONTINUOUS
10
5.69364
20
-3.46221
11
5.69323
21
-3.46243
0
LINE
8
BLACK
6
CONTINUOUS
10
5.69323
20
-3.46243
11
5.69279
21
-3.46256
0
LINE
8
BLACK
6
CONTINUOUS
10
5.69279
20
-3.46256
11
5.69232
21
-3.46261
0
LINE
8
BLACK
6
CONTINUOUS
10
5.69232
20
-3.46261
11
5.69186
21
-3.46256
0
LINE
8
BLACK
6
CONTINUOUS
10
5.69186
20
-3.46256
11
5.69141
21
-3.46243
0
LINE
8
BLACK
6
CONTINUOUS
10
5.69141
20
-3.46243
11
5.691
21
-3.46221
0
LINE
8
BLACK
6
CONTINUOUS
10
5.691
20
-3.46221
11
5.69064
21
-3.46191
0
LINE
8
BLACK
6
CONTINUOUS
10
5.69064
20
-3.46191
11
5.69035
21
-3.46155
0
LINE
8
BLACK
6
CONTINUOUS
10
5.69035
20
-3.46155
11
5.69013
21
-3.46114
0
LINE
8
BLACK
6
CONTINUOUS
10
5.69013
20
-3.46114
11
5.68999
21
-3.4607
0
LINE
8
BLACK
6
CONTINUOUS
10
5.68999
20
-3.4607
11
5.68996
21
-3.46035
0
LINE
8
BLACK
6
CONTINUOUS
10
5.68996
20
-3.46035
11
5.68996
21
-3.42913
0
LINE
8
BLACK
6
CONTINUOUS
10
5.68996
20
-3.42913
11
5.60067
21
-3.42913
0
LINE
8
BLACK
6
CONTINUOUS
10
5.60067
20
-3.42913
11
5.60032
21
-3.4291
0
LINE
8
BLACK
6
CONTINUOUS
10
5.60032
20
-3.4291
11
5.59988
21
-3.42896
0
LINE
8
BLACK
6
CONTINUOUS
10
5.59988
20
-3.42896
11
5.59947
21
-3.42875
0
LINE
8
BLACK
6
CONTINUOUS
10
5.59947
20
-3.42875
11
5.59911
21
-3.42845
0
LINE
8
BLACK
6
CONTINUOUS
10
5.59911
20
-3.42845
11
5.59881
21
-3.42809
0
LINE
8
BLACK
6
CONTINUOUS
10
5.59881
20
-3.42809
11
5.59859
21
-3.42768
0
LINE
8
BLACK
6
CONTINUOUS
10
5.59859
20
-3.42768
11
5.59846
21
-3.42723
0
LINE
8
BLACK
6
CONTINUOUS
10
5.59846
20
-3.42723
11
5.59841
21
-3.42677
0
LINE
8
BLACK
6
CONTINUOUS
10
5.59841
20
-3.42677
11
5.59846
21
-3.42631
0
LINE
8
BLACK
6
CONTINUOUS
10
5.59846
20
-3.42631
11
5.59859
21
-3.42586
0
LINE
8
BLACK
6
CONTINUOUS
10
5.59859
20
-3.42586
11
5.59881
21
-3.42545
0
LINE
8
BLACK
6
CONTINUOUS
10
5.59881
20
-3.42545
11
5.59911
21
-3.42509
0
LINE
8
BLACK
6
CONTINUOUS
10
5.59911
20
-3.42509
11
5.59947
21
-3.4248
0
LINE
8
BLACK
6
CONTINUOUS
10
5.59947
20
-3.4248
11
5.59988
21
-3.42458
0
LINE
8
BLACK
6
CONTINUOUS
10
5.59988
20
-3.42458
11
5.60032
21
-3.42444
0
LINE
8
BLACK
6
CONTINUOUS
10
5.60032
20
-3.42444
11
5.60067
21
-3.42441
0
LINE
8
BLACK
6
CONTINUOUS
10
5.60067
20
-3.42441
11
5.69221
21
-3.42441
0
LINE
8
BLACK
6
CONTINUOUS
10
5.69221
20
-3.42441
11
5.69232
21
-3.4244
0
LINE
8
BLACK
6
CONTINUOUS
10
5.69232
20
-3.4244
11
5.69244
21
-3.42441
0
LINE
8
BLACK
6
CONTINUOUS
10
5.46267
20
-3.33035
11
5.46311
21
-3.33048
0
LINE
8
BLACK
6
CONTINUOUS
10
5.46311
20
-3.33048
11
5.46352
21
-3.3307
0
LINE
8
BLACK
6
CONTINUOUS
10
5.46352
20
-3.3307
11
5.46388
21
-3.331
0
LINE
8
BLACK
6
CONTINUOUS
10
5.46388
20
-3.331
11
5.46418
21
-3.33136
0
LINE
8
BLACK
6
CONTINUOUS
10
5.46418
20
-3.33136
11
5.4644
21
-3.33177
0
LINE
8
BLACK
6
CONTINUOUS
10
5.4644
20
-3.33177
11
5.46453
21
-3.33221
0
LINE
8
BLACK
6
CONTINUOUS
10
5.46453
20
-3.33221
11
5.46457
21
-3.33256
0
LINE
8
BLACK
6
CONTINUOUS
10
5.46457
20
-3.33256
11
5.46457
21
-3.42666
0
LINE
8
BLACK
6
CONTINUOUS
10
5.46457
20
-3.42666
11
5.46458
21
-3.42677
0
LINE
8
BLACK
6
CONTINUOUS
10
5.46458
20
-3.42677
11
5.46453
21
-3.42723
0
LINE
8
BLACK
6
CONTINUOUS
10
5.46453
20
-3.42723
11
5.4644
21
-3.42768
0
LINE
8
BLACK
6
CONTINUOUS
10
5.4644
20
-3.42768
11
5.46418
21
-3.42809
0
LINE
8
BLACK
6
CONTINUOUS
10
5.46418
20
-3.42809
11
5.46388
21
-3.42845
0
LINE
8
BLACK
6
CONTINUOUS
10
5.46388
20
-3.42845
11
5.46352
21
-3.42875
0
LINE
8
BLACK
6
CONTINUOUS
10
5.46352
20
-3.42875
11
5.46311
21
-3.42896
0
LINE
8
BLACK
6
CONTINUOUS
10
5.46311
20
-3.42896
11
5.46267
21
-3.4291
0
LINE
8
BLACK
6
CONTINUOUS
10
5.46267
20
-3.4291
11
5.46232
21
-3.42913
0
LINE
8
BLACK
6
CONTINUOUS
10
5.46232
20
-3.42913
11
5.46232
21
-3.42913
0
LINE
8
BLACK
6
CONTINUOUS
10
5.46232
20
-3.42913
11
5.4622
21
-3.42915
0
LINE
8
BLACK
6
CONTINUOUS
10
5.4622
20
-3.42915
11
5.46209
21
-3.42913
0
LINE
8
BLACK
6
CONTINUOUS
10
5.46209
20
-3.42913
11
5.37303
21
-3.42913
0
LINE
8
BLACK
6
CONTINUOUS
10
5.37303
20
-3.42913
11
5.37303
21
-3.46035
0
LINE
8
BLACK
6
CONTINUOUS
10
5.37303
20
-3.46035
11
5.373
21
-3.4607
0
LINE
8
BLACK
6
CONTINUOUS
10
5.373
20
-3.4607
11
5.37286
21
-3.46114
0
LINE
8
BLACK
6
CONTINUOUS
10
5.37286
20
-3.46114
11
5.37264
21
-3.46155
0
LINE
8
BLACK
6
CONTINUOUS
10
5.37264
20
-3.46155
11
5.37235
21
-3.46191
0
LINE
8
BLACK
6
CONTINUOUS
10
5.37235
20
-3.46191
11
5.37199
21
-3.46221
0
LINE
8
BLACK
6
CONTINUOUS
10
5.37199
20
-3.46221
11
5.37158
21
-3.46243
0
LINE
8
BLACK
6
CONTINUOUS
10
5.37158
20
-3.46243
11
5.37113
21
-3.46256
0
LINE
8
BLACK
6
CONTINUOUS
10
5.37113
20
-3.46256
11
5.37067
21
-3.46261
0
LINE
8
BLACK
6
CONTINUOUS
10
5.37067
20
-3.46261
11
5.37021
21
-3.46256
0
LINE
8
BLACK
6
CONTINUOUS
10
5.37021
20
-3.46256
11
5.36976
21
-3.46243
0
LINE
8
BLACK
6
CONTINUOUS
10
5.36976
20
-3.46243
11
5.36935
21
-3.46221
0
LINE
8
BLACK
6
CONTINUOUS
10
5.36935
20
-3.46221
11
5.36899
21
-3.46191
0
LINE
8
BLACK
6
CONTINUOUS
10
5.36899
20
-3.46191
11
5.3687
21
-3.46155
0
LINE
8
BLACK
6
CONTINUOUS
10
5.3687
20
-3.46155
11
5.36848
21
-3.46114
0
LINE
8
BLACK
6
CONTINUOUS
10
5.36848
20
-3.46114
11
5.36834
21
-3.4607
0
LINE
8
BLACK
6
CONTINUOUS
10
5.36834
20
-3.4607
11
5.36831
21
-3.46035
0
LINE
8
BLACK
6
CONTINUOUS
10
5.36831
20
-3.46035
11
5.36831
21
-3.42689
0
LINE
8
BLACK
6
CONTINUOUS
10
5.36831
20
-3.42689
11
5.3683
21
-3.42677
0
LINE
8
BLACK
6
CONTINUOUS
10
5.3683
20
-3.42677
11
5.36834
21
-3.42631
0
LINE
8
BLACK
6
CONTINUOUS
10
5.36834
20
-3.42631
11
5.36848
21
-3.42586
0
LINE
8
BLACK
6
CONTINUOUS
10
5.36848
20
-3.42586
11
5.3687
21
-3.42545
0
LINE
8
BLACK
6
CONTINUOUS
10
5.3687
20
-3.42545
11
5.36899
21
-3.42509
0
LINE
8
BLACK
6
CONTINUOUS
10
5.36899
20
-3.42509
11
5.36935
21
-3.4248
0
LINE
8
BLACK
6
CONTINUOUS
10
5.36935
20
-3.4248
11
5.36976
21
-3.42458
0
LINE
8
BLACK
6
CONTINUOUS
10
5.36976
20
-3.42458
11
5.37021
21
-3.42444
0
LINE
8
BLACK
6
CONTINUOUS
10
5.37021
20
-3.42444
11
5.37055
21
-3.42441
0
LINE
8
BLACK
6
CONTINUOUS
10
5.37055
20
-3.42441
11
5.37055
21
-3.42441
0
LINE
8
BLACK
6
CONTINUOUS
10
5.37055
20
-3.42441
11
5.37067
21
-3.4244
0
LINE
8
BLACK
6
CONTINUOUS
10
5.37067
20
-3.4244
11
5.37079
21
-3.42441
0
LINE
8
BLACK
6
CONTINUOUS
10
5.37079
20
-3.42441
11
5.45984
21
-3.42441
0
LINE
8
BLACK
6
CONTINUOUS
10
5.45984
20
-3.42441
11
5.45984
21
-3.33256
0
LINE
8
BLACK
6
CONTINUOUS
10
5.45984
20
-3.33256
11
5.45988
21
-3.33221
0
LINE
8
BLACK
6
CONTINUOUS
10
5.45988
20
-3.33221
11
5.46001
21
-3.33177
0
LINE
8
BLACK
6
CONTINUOUS
10
5.46001
20
-3.33177
11
5.46023
21
-3.33136
0
LINE
8
BLACK
6
CONTINUOUS
10
5.46023
20
-3.33136
11
5.46053
21
-3.331
0
LINE
8
BLACK
6
CONTINUOUS
10
5.46053
20
-3.331
11
5.46089
21
-3.3307
0
LINE
8
BLACK
6
CONTINUOUS
10
5.46089
20
-3.3307
11
5.4613
21
-3.33048
0
LINE
8
BLACK
6
CONTINUOUS
10
5.4613
20
-3.33048
11
5.46174
21
-3.33035
0
LINE
8
BLACK
6
CONTINUOUS
10
5.46174
20
-3.33035
11
5.4622
21
-3.3303
0
LINE
8
BLACK
6
CONTINUOUS
10
5.4622
20
-3.3303
11
5.46267
21
-3.33035
0
LINE
8
BLACK
6
CONTINUOUS
10
6.19911
20
-3.02861
11
6.32626
21
-3.03027
0
LINE
8
BLACK
6
CONTINUOUS
10
6.32626
20
-3.03027
11
6.32658
21
-3.03027
0
LINE
8
BLACK
6
CONTINUOUS
10
6.32658
20
-3.03027
11
6.32684
21
-3.03031
0
LINE
8
BLACK
6
CONTINUOUS
10
6.32684
20
-3.03031
11
6.32709
21
-3.03034
0
LINE
8
BLACK
6
CONTINUOUS
10
6.32709
20
-3.03034
11
6.32722
21
-3.03038
0
LINE
8
BLACK
6
CONTINUOUS
10
6.32722
20
-3.03038
11
6.32734
21
-3.0304
0
LINE
8
BLACK
6
CONTINUOUS
10
6.32734
20
-3.0304
11
6.32758
21
-3.0305
0
LINE
8
BLACK
6
CONTINUOUS
10
6.32758
20
-3.0305
11
6.32783
21
-3.03058
0
LINE
8
BLACK
6
CONTINUOUS
10
6.32783
20
-3.03058
11
6.32795
21
-3.03064
0
LINE
8
BLACK
6
CONTINUOUS
10
6.32795
20
-3.03064
11
6.32807
21
-3.03069
0
LINE
8
BLACK
6
CONTINUOUS
10
6.32807
20
-3.03069
11
6.32828
21
-3.03083
0
LINE
8
BLACK
6
CONTINUOUS
10
6.32828
20
-3.03083
11
6.32851
21
-3.03095
0
LINE
8
BLACK
6
CONTINUOUS
10
6.32851
20
-3.03095
11
6.32861
21
-3.03103
0
LINE
8
BLACK
6
CONTINUOUS
10
6.32861
20
-3.03103
11
6.32872
21
-3.0311
0
LINE
8
BLACK
6
CONTINUOUS
10
6.32872
20
-3.0311
11
6.32891
21
-3.03128
0
LINE
8
BLACK
6
CONTINUOUS
10
6.32891
20
-3.03128
11
6.3291
21
-3.03145
0
LINE
8
BLACK
6
CONTINUOUS
10
6.3291
20
-3.03145
11
6.32918
21
-3.03155
0
LINE
8
BLACK
6
CONTINUOUS
10
6.32918
20
-3.03155
11
6.32928
21
-3.03164
0
LINE
8
BLACK
6
CONTINUOUS
10
6.32928
20
-3.03164
11
6.32943
21
-3.03185
0
LINE
8
BLACK
6
CONTINUOUS
10
6.32943
20
-3.03185
11
6.32959
21
-3.03206
0
LINE
8
BLACK
6
CONTINUOUS
10
6.32959
20
-3.03206
11
6.32974
21
-3.03234
0
LINE
8
BLACK
6
CONTINUOUS
10
6.32974
20
-3.03234
11
6.39187
21
-3.14329
0
LINE
8
BLACK
6
CONTINUOUS
10
6.39187
20
-3.14329
11
6.39204
21
-3.14357
0
LINE
8
BLACK
6
CONTINUOUS
10
6.39204
20
-3.14357
11
6.39213
21
-3.14381
0
LINE
8
BLACK
6
CONTINUOUS
10
6.39213
20
-3.14381
11
6.39223
21
-3.14405
0
LINE
8
BLACK
6
CONTINUOUS
10
6.39223
20
-3.14405
11
6.39226
21
-3.14417
0
LINE
8
BLACK
6
CONTINUOUS
10
6.39226
20
-3.14417
11
6.3923
21
-3.1443
0
LINE
8
BLACK
6
CONTINUOUS
10
6.3923
20
-3.1443
11
6.39234
21
-3.14455
0
LINE
8
BLACK
6
CONTINUOUS
10
6.39234
20
-3.14455
11
6.3924
21
-3.1448
0
LINE
8
BLACK
6
CONTINUOUS
10
6.3924
20
-3.1448
11
6.3924
21
-3.14493
0
LINE
8
BLACK
6
CONTINUOUS
10
6.3924
20
-3.14493
11
6.39242
21
-3.14506
0
LINE
8
BLACK
6
CONTINUOUS
10
6.39242
20
-3.14506
11
6.39241
21
-3.14532
0
LINE
8
BLACK
6
CONTINUOUS
10
6.39241
20
-3.14532
11
6.39241
21
-3.14558
0
LINE
8
BLACK
6
CONTINUOUS
10
6.39241
20
-3.14558
11
6.39239
21
-3.14571
0
LINE
8
BLACK
6
CONTINUOUS
10
6.39239
20
-3.14571
11
6.39238
21
-3.14584
0
LINE
8
BLACK
6
CONTINUOUS
10
6.39238
20
-3.14584
11
6.39232
21
-3.14609
0
LINE
8
BLACK
6
CONTINUOUS
10
6.39232
20
-3.14609
11
6.39228
21
-3.14634
0
LINE
8
BLACK
6
CONTINUOUS
10
6.39228
20
-3.14634
11
6.39223
21
-3.14646
0
LINE
8
BLACK
6
CONTINUOUS
10
6.39223
20
-3.14646
11
6.3922
21
-3.14659
0
LINE
8
BLACK
6
CONTINUOUS
10
6.3922
20
-3.14659
11
6.39209
21
-3.14682
0
LINE
8
BLACK
6
CONTINUOUS
10
6.39209
20
-3.14682
11
6.39199
21
-3.14707
0
LINE
8
BLACK
6
CONTINUOUS
10
6.39199
20
-3.14707
11
6.39182
21
-3.14734
0
LINE
8
BLACK
6
CONTINUOUS
10
6.39182
20
-3.14734
11
6.3268
21
-3.25662
0
LINE
8
BLACK
6
CONTINUOUS
10
6.3268
20
-3.25662
11
6.32665
21
-3.2569
0
LINE
8
BLACK
6
CONTINUOUS
10
6.32665
20
-3.2569
11
6.32648
21
-3.2571
0
LINE
8
BLACK
6
CONTINUOUS
10
6.32648
20
-3.2571
11
6.32633
21
-3.25731
0
LINE
8
BLACK
6
CONTINUOUS
10
6.32633
20
-3.25731
11
6.32623
21
-3.2574
0
LINE
8
BLACK
6
CONTINUOUS
10
6.32623
20
-3.2574
11
6.32615
21
-3.2575
0
LINE
8
BLACK
6
CONTINUOUS
10
6.32615
20
-3.2575
11
6.32595
21
-3.25766
0
LINE
8
BLACK
6
CONTINUOUS
10
6.32595
20
-3.25766
11
6.32575
21
-3.25783
0
LINE
8
BLACK
6
CONTINUOUS
10
6.32575
20
-3.25783
11
6.32564
21
-3.2579
0
LINE
8
BLACK
6
CONTINUOUS
10
6.32564
20
-3.2579
11
6.32554
21
-3.25798
0
LINE
8
BLACK
6
CONTINUOUS
10
6.32554
20
-3.25798
11
6.32531
21
-3.2581
0
LINE
8
BLACK
6
CONTINUOUS
10
6.32531
20
-3.2581
11
6.32509
21
-3.25823
0
LINE
8
BLACK
6
CONTINUOUS
10
6.32509
20
-3.25823
11
6.32497
21
-3.25828
0
LINE
8
BLACK
6
CONTINUOUS
10
6.32497
20
-3.25828
11
6.32485
21
-3.25834
0
LINE
8
BLACK
6
CONTINUOUS
10
6.32485
20
-3.25834
11
6.3246
21
-3.25841
0
LINE
8
BLACK
6
CONTINUOUS
10
6.3246
20
-3.25841
11
6.32436
21
-3.2585
0
LINE
8
BLACK
6
CONTINUOUS
10
6.32436
20
-3.2585
11
6.32423
21
-3.25852
0
LINE
8
BLACK
6
CONTINUOUS
10
6.32423
20
-3.25852
11
6.32411
21
-3.25855
0
LINE
8
BLACK
6
CONTINUOUS
10
6.32411
20
-3.25855
11
6.32385
21
-3.25858
0
LINE
8
BLACK
6
CONTINUOUS
10
6.32385
20
-3.25858
11
6.32359
21
-3.25861
0
LINE
8
BLACK
6
CONTINUOUS
10
6.32359
20
-3.25861
11
6.32327
21
-3.2586
0
LINE
8
BLACK
6
CONTINUOUS
10
6.32327
20
-3.2586
11
6.19612
21
-3.25694
0
LINE
8
BLACK
6
CONTINUOUS
10
6.19612
20
-3.25694
11
6.1958
21
-3.25694
0
LINE
8
BLACK
6
CONTINUOUS
10
6.1958
20
-3.25694
11
6.19554
21
-3.2569
0
LINE
8
BLACK
6
CONTINUOUS
10
6.19554
20
-3.2569
11
6.19529
21
-3.25687
0
LINE
8
BLACK
6
CONTINUOUS
10
6.19529
20
-3.25687
11
6.19516
21
-3.25683
0
LINE
8
BLACK
6
CONTINUOUS
10
6.19516
20
-3.25683
11
6.19503
21
-3.25681
0
LINE
8
BLACK
6
CONTINUOUS
10
6.19503
20
-3.25681
11
6.19479
21
-3.25671
0
LINE
8
BLACK
6
CONTINUOUS
10
6.19479
20
-3.25671
11
6.19455
21
-3.25663
0
LINE
8
BLACK
6
CONTINUOUS
10
6.19455
20
-3.25663
11
6.19443
21
-3.25657
0
LINE
8
BLACK
6
CONTINUOUS
10
6.19443
20
-3.25657
11
6.19431
21
-3.25652
0
LINE
8
BLACK
6
CONTINUOUS
10
6.19431
20
-3.25652
11
6.19409
21
-3.25639
0
LINE
8
BLACK
6
CONTINUOUS
10
6.19409
20
-3.25639
11
6.19387
21
-3.25626
0
LINE
8
BLACK
6
CONTINUOUS
10
6.19387
20
-3.25626
11
6.19377
21
-3.25618
0
LINE
8
BLACK
6
CONTINUOUS
10
6.19377
20
-3.25618
11
6.19366
21
-3.25611
0
LINE
8
BLACK
6
CONTINUOUS
10
6.19366
20
-3.25611
11
6.19347
21
-3.25593
0
LINE
8
BLACK
6
CONTINUOUS
10
6.19347
20
-3.25593
11
6.19327
21
-3.25576
0
LINE
8
BLACK
6
CONTINUOUS
10
6.19327
20
-3.25576
11
6.19319
21
-3.25566
0
LINE
8
BLACK
6
CONTINUOUS
10
6.19319
20
-3.25566
11
6.1931
21
-3.25557
0
LINE
8
BLACK
6
CONTINUOUS
10
6.1931
20
-3.25557
11
6.19295
21
-3.25536
0
LINE
8
BLACK
6
CONTINUOUS
10
6.19295
20
-3.25536
11
6.19279
21
-3.25515
0
LINE
8
BLACK
6
CONTINUOUS
10
6.19279
20
-3.25515
11
6.19264
21
-3.25487
0
LINE
8
BLACK
6
CONTINUOUS
10
6.19264
20
-3.25487
11
6.13051
21
-3.14392
0
LINE
8
BLACK
6
CONTINUOUS
10
6.13051
20
-3.14392
11
6.13034
21
-3.14364
0
LINE
8
BLACK
6
CONTINUOUS
10
6.13034
20
-3.14364
11
6.13025
21
-3.1434
0
LINE
8
BLACK
6
CONTINUOUS
10
6.13025
20
-3.1434
11
6.13015
21
-3.14316
0
LINE
8
BLACK
6
CONTINUOUS
10
6.13015
20
-3.14316
11
6.13012
21
-3.14304
0
LINE
8
BLACK
6
CONTINUOUS
10
6.13012
20
-3.14304
11
6.13008
21
-3.14291
0
LINE
8
BLACK
6
CONTINUOUS
10
6.13008
20
-3.14291
11
6.13004
21
-3.14266
0
LINE
8
BLACK
6
CONTINUOUS
10
6.13004
20
-3.14266
11
6.12998
21
-3.14241
0
LINE
8
BLACK
6
CONTINUOUS
10
6.12998
20
-3.14241
11
6.12998
21
-3.14228
0
LINE
8
BLACK
6
CONTINUOUS
10
6.12998
20
-3.14228
11
6.12996
21
-3.14215
0
LINE
8
BLACK
6
CONTINUOUS
10
6.12996
20
-3.14215
11
6.12997
21
-3.14189
0
LINE
8
BLACK
6
CONTINUOUS
10
6.12997
20
-3.14189
11
6.12997
21
-3.14163
0
LINE
8
BLACK
6
CONTINUOUS
10
6.12997
20
-3.14163
11
6.12999
21
-3.1415
0
LINE
8
BLACK
6
CONTINUOUS
10
6.12999
20
-3.1415
11
6.13
21
-3.14137
0
LINE
8
BLACK
6
CONTINUOUS
10
6.13
20
-3.14137
11
6.13006
21
-3.14112
0
LINE
8
BLACK
6
CONTINUOUS
10
6.13006
20
-3.14112
11
6.1301
21
-3.14087
0
LINE
8
BLACK
6
CONTINUOUS
10
6.1301
20
-3.14087
11
6.13015
21
-3.14075
0
LINE
8
BLACK
6
CONTINUOUS
10
6.13015
20
-3.14075
11
6.13018
21
-3.14062
0
LINE
8
BLACK
6
CONTINUOUS
10
6.13018
20
-3.14062
11
6.13029
21
-3.14039
0
LINE
8
BLACK
6
CONTINUOUS
10
6.13029
20
-3.14039
11
6.13039
21
-3.14015
0
LINE
8
BLACK
6
CONTINUOUS
10
6.13039
20
-3.14015
11
6.13056
21
-3.13987
0
LINE
8
BLACK
6
CONTINUOUS
10
6.13056
20
-3.13987
11
6.19558
21
-3.03059
0
LINE
8
BLACK
6
CONTINUOUS
10
6.19558
20
-3.03059
11
6.19573
21
-3.03031
0
LINE
8
BLACK
6
CONTINUOUS
10
6.19573
20
-3.03031
11
6.1959
21
-3.03011
0
LINE
8
BLACK
6
CONTINUOUS
10
6.1959
20
-3.03011
11
6.19605
21
-3.0299
0
LINE
8
BLACK
6
CONTINUOUS
10
6.19605
20
-3.0299
11
6.19615
21
-3.02981
0
LINE
8
BLACK
6
CONTINUOUS
10
6.19615
20
-3.02981
11
6.19623
21
-3.02971
0
LINE
8
BLACK
6
CONTINUOUS
10
6.19623
20
-3.02971
11
6.19643
21
-3.02955
0
LINE
8
BLACK
6
CONTINUOUS
10
6.19643
20
-3.02955
11
6.19662
21
-3.02938
0
LINE
8
BLACK
6
CONTINUOUS
10
6.19662
20
-3.02938
11
6.19674
21
-3.02931
0
LINE
8
BLACK
6
CONTINUOUS
10
6.19674
20
-3.02931
11
6.19684
21
-3.02923
0
LINE
8
BLACK
6
CONTINUOUS
10
6.19684
20
-3.02923
11
6.19707
21
-3.02911
0
LINE
8
BLACK
6
CONTINUOUS
10
6.19707
20
-3.02911
11
6.19729
21
-3.02898
0
LINE
8
BLACK
6
CONTINUOUS
10
6.19729
20
-3.02898
11
6.19741
21
-3.02893
0
LINE
8
BLACK
6
CONTINUOUS
10
6.19741
20
-3.02893
11
6.19753
21
-3.02887
0
LINE
8
BLACK
6
CONTINUOUS
10
6.19753
20
-3.02887
11
6.19777
21
-3.0288
0
LINE
8
BLACK
6
CONTINUOUS
10
6.19777
20
-3.0288
11
6.19802
21
-3.02871
0
LINE
8
BLACK
6
CONTINUOUS
10
6.19802
20
-3.02871
11
6.19815
21
-3.02869
0
LINE
8
BLACK
6
CONTINUOUS
10
6.19815
20
-3.02869
11
6.19827
21
-3.02866
0
LINE
8
BLACK
6
CONTINUOUS
10
6.19827
20
-3.02866
11
6.19853
21
-3.02863
0
LINE
8
BLACK
6
CONTINUOUS
10
6.19853
20
-3.02863
11
6.19878
21
-3.0286
0
LINE
8
BLACK
6
CONTINUOUS
10
6.19878
20
-3.0286
11
6.19911
21
-3.02861
0
LINE
8
BLACK
6
CONTINUOUS
10
6.13846
20
-3.142
11
6.19843
21
-3.24909
0
LINE
8
BLACK
6
CONTINUOUS
10
6.19843
20
-3.24909
11
6.32117
21
-3.2507
0
LINE
8
BLACK
6
CONTINUOUS
10
6.32117
20
-3.2507
11
6.38392
21
-3.14521
0
LINE
8
BLACK
6
CONTINUOUS
10
6.38392
20
-3.14521
11
6.32395
21
-3.03812
0
LINE
8
BLACK
6
CONTINUOUS
10
6.32395
20
-3.03812
11
6.20121
21
-3.03651
0
LINE
8
BLACK
6
CONTINUOUS
10
6.20121
20
-3.03651
11
6.13846
21
-3.142
0
LINE
8
BLACK
6
CONTINUOUS
10
4.86858
20
-3.02863
11
4.86884
21
-3.02866
0
LINE
8
BLACK
6
CONTINUOUS
10
4.86884
20
-3.02866
11
4.86896
21
-3.02869
0
LINE
8
BLACK
6
CONTINUOUS
10
4.86896
20
-3.02869
11
4.86909
21
-3.02871
0
LINE
8
BLACK
6
CONTINUOUS
10
4.86909
20
-3.02871
11
4.86933
21
-3.0288
0
LINE
8
BLACK
6
CONTINUOUS
10
4.86933
20
-3.0288
11
4.86958
21
-3.02887
0
LINE
8
BLACK
6
CONTINUOUS
10
4.86958
20
-3.02887
11
4.8697
21
-3.02893
0
LINE
8
BLACK
6
CONTINUOUS
10
4.8697
20
-3.02893
11
4.86982
21
-3.02898
0
LINE
8
BLACK
6
CONTINUOUS
10
4.86982
20
-3.02898
11
4.87004
21
-3.02911
0
LINE
8
BLACK
6
CONTINUOUS
10
4.87004
20
-3.02911
11
4.87027
21
-3.02923
0
LINE
8
BLACK
6
CONTINUOUS
10
4.87027
20
-3.02923
11
4.87037
21
-3.02931
0
LINE
8
BLACK
6
CONTINUOUS
10
4.87037
20
-3.02931
11
4.87048
21
-3.02938
0
LINE
8
BLACK
6
CONTINUOUS
10
4.87048
20
-3.02938
11
4.87068
21
-3.02955
0
LINE
8
BLACK
6
CONTINUOUS
10
4.87068
20
-3.02955
11
4.87088
21
-3.02971
0
LINE
8
BLACK
6
CONTINUOUS
10
4.87088
20
-3.02971
11
4.87096
21
-3.02981
0
LINE
8
BLACK
6
CONTINUOUS
10
4.87096
20
-3.02981
11
4.87106
21
-3.0299
0
LINE
8
BLACK
6
CONTINUOUS
10
4.87106
20
-3.0299
11
4.87121
21
-3.03011
0
LINE
8
BLACK
6
CONTINUOUS
10
4.87121
20
-3.03011
11
4.87138
21
-3.03031
0
LINE
8
BLACK
6
CONTINUOUS
10
4.87138
20
-3.03031
11
4.87153
21
-3.03059
0
LINE
8
BLACK
6
CONTINUOUS
10
4.87153
20
-3.03059
11
4.93655
21
-3.13987
0
LINE
8
BLACK
6
CONTINUOUS
10
4.93655
20
-3.13987
11
4.93672
21
-3.14015
0
LINE
8
BLACK
6
CONTINUOUS
10
4.93672
20
-3.14015
11
4.93682
21
-3.14039
0
LINE
8
BLACK
6
CONTINUOUS
10
4.93682
20
-3.14039
11
4.93693
21
-3.14062
0
LINE
8
BLACK
6
CONTINUOUS
10
4.93693
20
-3.14062
11
4.93696
21
-3.14075
0
LINE
8
BLACK
6
CONTINUOUS
10
4.93696
20
-3.14075
11
4.93701
21
-3.14087
0
LINE
8
BLACK
6
CONTINUOUS
10
4.93701
20
-3.14087
11
4.93705
21
-3.14112
0
LINE
8
BLACK
6
CONTINUOUS
10
4.93705
20
-3.14112
11
4.93711
21
-3.14137
0
LINE
8
BLACK
6
CONTINUOUS
10
4.93711
20
-3.14137
11
4.93712
21
-3.1415
0
LINE
8
BLACK
6
CONTINUOUS
10
4.93712
20
-3.1415
11
4.93714
21
-3.14163
0
LINE
8
BLACK
6
CONTINUOUS
10
4.93714
20
-3.14163
11
4.93714
21
-3.14189
0
LINE
8
BLACK
6
CONTINUOUS
10
4.93714
20
-3.14189
11
4.93715
21
-3.14215
0
LINE
8
BLACK
6
CONTINUOUS
10
4.93715
20
-3.14215
11
4.93713
21
-3.14228
0
LINE
8
BLACK
6
CONTINUOUS
10
4.93713
20
-3.14228
11
4.93713
21
-3.14241
0
LINE
8
BLACK
6
CONTINUOUS
10
4.93713
20
-3.14241
11
4.93707
21
-3.14266
0
LINE
8
BLACK
6
CONTINUOUS
10
4.93707
20
-3.14266
11
4.93703
21
-3.14291
0
LINE
8
BLACK
6
CONTINUOUS
10
4.93703
20
-3.14291
11
4.93699
21
-3.14304
0
LINE
8
BLACK
6
CONTINUOUS
10
4.93699
20
-3.14304
11
4.93696
21
-3.14316
0
LINE
8
BLACK
6
CONTINUOUS
10
4.93696
20
-3.14316
11
4.93686
21
-3.1434
0
LINE
8
BLACK
6
CONTINUOUS
10
4.93686
20
-3.1434
11
4.93677
21
-3.14364
0
LINE
8
BLACK
6
CONTINUOUS
10
4.93677
20
-3.14364
11
4.9366
21
-3.14392
0
LINE
8
BLACK
6
CONTINUOUS
10
4.9366
20
-3.14392
11
4.87447
21
-3.25487
0
LINE
8
BLACK
6
CONTINUOUS
10
4.87447
20
-3.25487
11
4.87432
21
-3.25515
0
LINE
8
BLACK
6
CONTINUOUS
10
4.87432
20
-3.25515
11
4.87416
21
-3.25536
0
LINE
8
BLACK
6
CONTINUOUS
10
4.87416
20
-3.25536
11
4.87401
21
-3.25557
0
LINE
8
BLACK
6
CONTINUOUS
10
4.87401
20
-3.25557
11
4.87391
21
-3.25566
0
LINE
8
BLACK
6
CONTINUOUS
10
4.87391
20
-3.25566
11
4.87383
21
-3.25576
0
LINE
8
BLACK
6
CONTINUOUS
10
4.87383
20
-3.25576
11
4.87364
21
-3.25593
0
LINE
8
BLACK
6
CONTINUOUS
10
4.87364
20
-3.25593
11
4.87345
21
-3.25611
0
LINE
8
BLACK
6
CONTINUOUS
10
4.87345
20
-3.25611
11
4.87334
21
-3.25618
0
LINE
8
BLACK
6
CONTINUOUS
10
4.87334
20
-3.25618
11
4.87324
21
-3.25626
0
LINE
8
BLACK
6
CONTINUOUS
10
4.87324
20
-3.25626
11
4.87301
21
-3.25639
0
LINE
8
BLACK
6
CONTINUOUS
10
4.87301
20
-3.25639
11
4.8728
21
-3.25652
0
LINE
8
BLACK
6
CONTINUOUS
10
4.8728
20
-3.25652
11
4.87268
21
-3.25657
0
LINE
8
BLACK
6
CONTINUOUS
10
4.87268
20
-3.25657
11
4.87256
21
-3.25663
0
LINE
8
BLACK
6
CONTINUOUS
10
4.87256
20
-3.25663
11
4.87231
21
-3.25671
0
LINE
8
BLACK
6
CONTINUOUS
10
4.87231
20
-3.25671
11
4.87207
21
-3.25681
0
LINE
8
BLACK
6
CONTINUOUS
10
4.87207
20
-3.25681
11
4.87195
21
-3.25683
0
LINE
8
BLACK
6
CONTINUOUS
10
4.87195
20
-3.25683
11
4.87182
21
-3.25687
0
LINE
8
BLACK
6
CONTINUOUS
10
4.87182
20
-3.25687
11
4.87157
21
-3.2569
0
LINE
8
BLACK
6
CONTINUOUS
10
4.87157
20
-3.2569
11
4.87131
21
-3.25694
0
LINE
8
BLACK
6
CONTINUOUS
10
4.87131
20
-3.25694
11
4.87099
21
-3.25694
0
LINE
8
BLACK
6
CONTINUOUS
10
4.87099
20
-3.25694
11
4.74383
21
-3.2586
0
LINE
8
BLACK
6
CONTINUOUS
10
4.74383
20
-3.2586
11
4.74351
21
-3.25861
0
LINE
8
BLACK
6
CONTINUOUS
10
4.74351
20
-3.25861
11
4.74326
21
-3.25858
0
LINE
8
BLACK
6
CONTINUOUS
10
4.74326
20
-3.25858
11
4.743
21
-3.25855
0
LINE
8
BLACK
6
CONTINUOUS
10
4.743
20
-3.25855
11
4.74288
21
-3.25852
0
LINE
8
BLACK
6
CONTINUOUS
10
4.74288
20
-3.25852
11
4.74275
21
-3.2585
0
LINE
8
BLACK
6
CONTINUOUS
10
4.74275
20
-3.2585
11
4.7425
21
-3.25841
0
LINE
8
BLACK
6
CONTINUOUS
10
4.7425
20
-3.25841
11
4.74226
21
-3.25834
0
LINE
8
BLACK
6
CONTINUOUS
10
4.74226
20
-3.25834
11
4.74214
21
-3.25828
0
LINE
8
BLACK
6
CONTINUOUS
10
4.74214
20
-3.25828
11
4.74202
21
-3.25823
0
LINE
8
BLACK
6
CONTINUOUS
10
4.74202
20
-3.25823
11
4.7418
21
-3.2581
0
LINE
8
BLACK
6
CONTINUOUS
10
4.7418
20
-3.2581
11
4.74157
21
-3.25798
0
LINE
8
BLACK
6
CONTINUOUS
10
4.74157
20
-3.25798
11
4.74147
21
-3.2579
0
LINE
8
BLACK
6
CONTINUOUS
10
4.74147
20
-3.2579
11
4.74135
21
-3.25783
0
LINE
8
BLACK
6
CONTINUOUS
10
4.74135
20
-3.25783
11
4.74116
21
-3.25766
0
LINE
8
BLACK
6
CONTINUOUS
10
4.74116
20
-3.25766
11
4.74096
21
-3.2575
0
LINE
8
BLACK
6
CONTINUOUS
10
4.74096
20
-3.2575
11
4.74088
21
-3.2574
0
LINE
8
BLACK
6
CONTINUOUS
10
4.74088
20
-3.2574
11
4.74078
21
-3.25731
0
LINE
8
BLACK
6
CONTINUOUS
10
4.74078
20
-3.25731
11
4.74063
21
-3.2571
0
LINE
8
BLACK
6
CONTINUOUS
10
4.74063
20
-3.2571
11
4.74046
21
-3.2569
0
LINE
8
BLACK
6
CONTINUOUS
10
4.74046
20
-3.2569
11
4.74031
21
-3.25662
0
LINE
8
BLACK
6
CONTINUOUS
10
4.74031
20
-3.25662
11
4.67529
21
-3.14734
0
LINE
8
BLACK
6
CONTINUOUS
10
4.67529
20
-3.14734
11
4.67512
21
-3.14707
0
LINE
8
BLACK
6
CONTINUOUS
10
4.67512
20
-3.14707
11
4.67502
21
-3.14682
0
LINE
8
BLACK
6
CONTINUOUS
10
4.67502
20
-3.14682
11
4.67491
21
-3.14659
0
LINE
8
BLACK
6
CONTINUOUS
10
4.67491
20
-3.14659
11
4.67488
21
-3.14646
0
LINE
8
BLACK
6
CONTINUOUS
10
4.67488
20
-3.14646
11
4.67483
21
-3.14634
0
LINE
8
BLACK
6
CONTINUOUS
10
4.67483
20
-3.14634
11
4.67479
21
-3.14609
0
LINE
8
BLACK
6
CONTINUOUS
10
4.67479
20
-3.14609
11
4.67473
21
-3.14584
0
LINE
8
BLACK
6
CONTINUOUS
10
4.67473
20
-3.14584
11
4.67472
21
-3.14571
0
LINE
8
BLACK
6
CONTINUOUS
10
4.67472
20
-3.14571
11
4.6747
21
-3.14558
0
LINE
8
BLACK
6
CONTINUOUS
10
4.6747
20
-3.14558
11
4.6747
21
-3.14532
0
LINE
8
BLACK
6
CONTINUOUS
10
4.6747
20
-3.14532
11
4.67469
21
-3.14506
0
LINE
8
BLACK
6
CONTINUOUS
10
4.67469
20
-3.14506
11
4.67471
21
-3.14493
0
LINE
8
BLACK
6
CONTINUOUS
10
4.67471
20
-3.14493
11
4.67471
21
-3.1448
0
LINE
8
BLACK
6
CONTINUOUS
10
4.67471
20
-3.1448
11
4.67477
21
-3.14455
0
LINE
8
BLACK
6
CONTINUOUS
10
4.67477
20
-3.14455
11
4.67481
21
-3.1443
0
LINE
8
BLACK
6
CONTINUOUS
10
4.67481
20
-3.1443
11
4.67485
21
-3.14417
0
LINE
8
BLACK
6
CONTINUOUS
10
4.67485
20
-3.14417
11
4.67488
21
-3.14405
0
LINE
8
BLACK
6
CONTINUOUS
10
4.67488
20
-3.14405
11
4.67498
21
-3.14381
0
LINE
8
BLACK
6
CONTINUOUS
10
4.67498
20
-3.14381
11
4.67507
21
-3.14357
0
LINE
8
BLACK
6
CONTINUOUS
10
4.67507
20
-3.14357
11
4.67524
21
-3.14329
0
LINE
8
BLACK
6
CONTINUOUS
10
4.67524
20
-3.14329
11
4.73737
21
-3.03234
0
LINE
8
BLACK
6
CONTINUOUS
10
4.73737
20
-3.03234
11
4.73752
21
-3.03206
0
LINE
8
BLACK
6
CONTINUOUS
10
4.73752
20
-3.03206
11
4.73768
21
-3.03185
0
LINE
8
BLACK
6
CONTINUOUS
10
4.73768
20
-3.03185
11
4.73783
21
-3.03164
0
LINE
8
BLACK
6
CONTINUOUS
10
4.73783
20
-3.03164
11
4.73792
21
-3.03155
0
LINE
8
BLACK
6
CONTINUOUS
10
4.73792
20
-3.03155
11
4.738
21
-3.03145
0
LINE
8
BLACK
6
CONTINUOUS
10
4.738
20
-3.03145
11
4.7382
21
-3.03128
0
LINE
8
BLACK
6
CONTINUOUS
10
4.7382
20
-3.03128
11
4.73839
21
-3.0311
0
LINE
8
BLACK
6
CONTINUOUS
10
4.73839
20
-3.0311
11
4.7385
21
-3.03103
0
LINE
8
BLACK
6
CONTINUOUS
10
4.7385
20
-3.03103
11
4.7386
21
-3.03095
0
LINE
8
BLACK
6
CONTINUOUS
10
4.7386
20
-3.03095
11
4.73882
21
-3.03083
0
LINE
8
BLACK
6
CONTINUOUS
10
4.73882
20
-3.03083
11
4.73904
21
-3.03069
0
LINE
8
BLACK
6
CONTINUOUS
10
4.73904
20
-3.03069
11
4.73916
21
-3.03064
0
LINE
8
BLACK
6
CONTINUOUS
10
4.73916
20
-3.03064
11
4.73928
21
-3.03058
0
LINE
8
BLACK
6
CONTINUOUS
10
4.73928
20
-3.03058
11
4.73952
21
-3.0305
0
LINE
8
BLACK
6
CONTINUOUS
10
4.73952
20
-3.0305
11
4.73976
21
-3.0304
0
LINE
8
BLACK
6
CONTINUOUS
10
4.73976
20
-3.0304
11
4.73989
21
-3.03038
0
LINE
8
BLACK
6
CONTINUOUS
10
4.73989
20
-3.03038
11
4.74002
21
-3.03034
0
LINE
8
BLACK
6
CONTINUOUS
10
4.74002
20
-3.03034
11
4.74027
21
-3.03031
0
LINE
8
BLACK
6
CONTINUOUS
10
4.74027
20
-3.03031
11
4.74053
21
-3.03027
0
LINE
8
BLACK
6
CONTINUOUS
10
4.74053
20
-3.03027
11
4.74085
21
-3.03027
0
LINE
8
BLACK
6
CONTINUOUS
10
4.74085
20
-3.03027
11
4.868
21
-3.02861
0
LINE
8
BLACK
6
CONTINUOUS
10
4.868
20
-3.02861
11
4.86832
21
-3.0286
0
LINE
8
BLACK
6
CONTINUOUS
10
4.86832
20
-3.0286
11
4.86858
21
-3.02863
0
LINE
8
BLACK
6
CONTINUOUS
10
4.74316
20
-3.03812
11
4.68319
21
-3.14521
0
LINE
8
BLACK
6
CONTINUOUS
10
4.68319
20
-3.14521
11
4.74594
21
-3.2507
0
LINE
8
BLACK
6
CONTINUOUS
10
4.74594
20
-3.2507
11
4.86868
21
-3.24909
0
LINE
8
BLACK
6
CONTINUOUS
10
4.86868
20
-3.24909
11
4.92865
21
-3.142
0
LINE
8
BLACK
6
CONTINUOUS
10
4.92865
20
-3.142
11
4.8659
21
-3.03651
0
LINE
8
BLACK
6
CONTINUOUS
10
4.8659
20
-3.03651
11
4.74316
21
-3.03812
  0
ENDSEC
  0
EOF
