<?xml version="1.0" standalone="no"?>
 <!DOCTYPE svg PUBLIC "-//W3C//DTD SVG 1.1//EN" 
 "http://www.w3.org/Graphics/SVG/1.1/DTD/svg11.dtd"> 
<svg xmlns="http://www.w3.org/2000/svg" version="1.1" 
    width="27.94cm" height="21.59cm" viewBox="0 0 110000 85000 ">
<title>SVG Picture created as seg1-brd.svg date 2021/10/21 21:19:07 </title>
  <desc>Picture generated by PCBNEW </desc>
<g style="fill:#000000; fill-opacity:1;stroke:#000000; stroke-opacity:1;
stroke-linecap:round; stroke-linejoin:round; "
 transform="translate(0 0) scale(1 1)">
</g>
<g style="fill:#000000; fill-opacity:0.0; 
stroke:#000000; stroke-width:-0.000393701; stroke-opacity:1; 
stroke-linecap:round; stroke-linejoin:round;">
</g>
<g style="fill:#000000; fill-opacity:0.0; 
stroke:#000000; stroke-width:39.3701; stroke-opacity:1; 
stroke-linecap:round; stroke-linejoin:round;">
</g>
<g style="fill:#000000; fill-opacity:0.0; 
stroke:#000000; stroke-width:59.0551; stroke-opacity:1; 
stroke-linecap:round; stroke-linejoin:round;">
<rect x="62755.9" y="67677.2" width="42519.7" height="12598.4" rx="0" />
</g>
<g style="fill:#000000; fill-opacity:0.0; 
stroke:#000000; stroke-width:39.3701; stroke-opacity:1; 
stroke-linecap:round; stroke-linejoin:round;">
</g>
<g style="fill:#000000; fill-opacity:0.0; 
stroke:#000000; stroke-width:59.0551; stroke-opacity:1; 
stroke-linecap:round; stroke-linejoin:round;">
<rect x="3937.01" y="3937.01" width="102126" height="77126" rx="0" />
</g>
<g style="fill:#000000; fill-opacity:0.0; 
stroke:#000000; stroke-width:39.3701; stroke-opacity:1; 
stroke-linecap:round; stroke-linejoin:round;">
</g>
<g style="fill:#000000; fill-opacity:0.0; 
stroke:#000000; stroke-width:59.0551; stroke-opacity:1; 
stroke-linecap:round; stroke-linejoin:round;">
<rect x="4724.41" y="4724.41" width="100551" height="75551.2" rx="0" />
</g>
<g style="fill:#000000; fill-opacity:0.0; 
stroke:#000000; stroke-width:39.3701; stroke-opacity:1; 
stroke-linecap:round; stroke-linejoin:round;">
</g>
<g style="fill:#000000; fill-opacity:0.0; 
stroke:#000000; stroke-width:59.0551; stroke-opacity:1; 
stroke-linecap:round; stroke-linejoin:round;">
<path d="M23622 4724
L23622 3937
" />
</g>
<g style="fill:#000000; fill-opacity:0.0; 
stroke:#000000; stroke-width:39.3701; stroke-opacity:1; 
stroke-linecap:round; stroke-linejoin:round;">
</g>
<g style="fill:#000000; fill-opacity:0.0; 
stroke:#000000; stroke-width:59.0551; stroke-opacity:1; 
stroke-linecap:round; stroke-linejoin:round;">
<path d="M43307 4724
L43307 3937
" />
</g>
<g style="fill:#000000; fill-opacity:0.0; 
stroke:#000000; stroke-width:39.3701; stroke-opacity:1; 
stroke-linecap:round; stroke-linejoin:round;">
</g>
<g style="fill:#000000; fill-opacity:0.0; 
stroke:#000000; stroke-width:59.0551; stroke-opacity:1; 
stroke-linecap:round; stroke-linejoin:round;">
<path d="M62992 4724
L62992 3937
" />
</g>
<g style="fill:#000000; fill-opacity:0.0; 
stroke:#000000; stroke-width:39.3701; stroke-opacity:1; 
stroke-linecap:round; stroke-linejoin:round;">
</g>
<g style="fill:#000000; fill-opacity:0.0; 
stroke:#000000; stroke-width:59.0551; stroke-opacity:1; 
stroke-linecap:round; stroke-linejoin:round;">
<path d="M82677 4724
L82677 3937
" />
</g>
<g style="fill:#000000; fill-opacity:0.0; 
stroke:#000000; stroke-width:39.3701; stroke-opacity:1; 
stroke-linecap:round; stroke-linejoin:round;">
</g>
<g style="fill:#000000; fill-opacity:0.0; 
stroke:#000000; stroke-width:59.0551; stroke-opacity:1; 
stroke-linecap:round; stroke-linejoin:round;">
<path d="M102362 4724
L102362 3937
" />
</g>
<g style="fill:#000000; fill-opacity:0.0; 
stroke:#000000; stroke-width:39.3701; stroke-opacity:1; 
stroke-linecap:round; stroke-linejoin:round;">
</g>
<g style="fill:#000000; fill-opacity:0.0; 
stroke:#000000; stroke-width:59.0551; stroke-opacity:1; 
stroke-linecap:round; stroke-linejoin:round;">
<text x="13779.5" y="4586.61"
textLength="487.439" font-size="682.415" lengthAdjust="spacingAndGlyphs"
text-anchor="start" opacity="0">1</text>
<path d="M14199 4562
L13906 4562
" />
<path d="M14052 4562
L14052 4050
L14004 4123
L13955 4172
L13906 4196
" />
</g>
<g style="fill:#000000; fill-opacity:0.0; 
stroke:#000000; stroke-width:39.3701; stroke-opacity:1; 
stroke-linecap:round; stroke-linejoin:round;">
</g>
<g style="fill:#000000; fill-opacity:0.0; 
stroke:#000000; stroke-width:59.0551; stroke-opacity:1; 
stroke-linecap:round; stroke-linejoin:round;">
<text x="33464.6" y="4586.61"
textLength="546.494" font-size="682.415" lengthAdjust="spacingAndGlyphs"
text-anchor="start" opacity="0">2</text>
<path d="M33591 4099
L33615 4074
L33664 4050
L33786 4050
L33835 4074
L33859 4099
L33884 4147
L33884 4196
L33859 4269
L33567 4562
L33884 4562
" />
</g>
<g style="fill:#000000; fill-opacity:0.0; 
stroke:#000000; stroke-width:39.3701; stroke-opacity:1; 
stroke-linecap:round; stroke-linejoin:round;">
</g>
<g style="fill:#000000; fill-opacity:0.0; 
stroke:#000000; stroke-width:59.0551; stroke-opacity:1; 
stroke-linecap:round; stroke-linejoin:round;">
<text x="53149.6" y="4586.61"
textLength="546.494" font-size="682.415" lengthAdjust="spacingAndGlyphs"
text-anchor="start" opacity="0">3</text>
<path d="M53252 4050
L53569 4050
L53398 4245
L53471 4245
L53520 4269
L53544 4294
L53569 4342
L53569 4464
L53544 4513
L53520 4537
L53471 4562
L53325 4562
L53276 4537
L53252 4513
" />
</g>
<g style="fill:#000000; fill-opacity:0.0; 
stroke:#000000; stroke-width:39.3701; stroke-opacity:1; 
stroke-linecap:round; stroke-linejoin:round;">
</g>
<g style="fill:#000000; fill-opacity:0.0; 
stroke:#000000; stroke-width:59.0551; stroke-opacity:1; 
stroke-linecap:round; stroke-linejoin:round;">
<text x="72834.6" y="4586.61"
textLength="546.494" font-size="682.415" lengthAdjust="spacingAndGlyphs"
text-anchor="start" opacity="0">4</text>
<path d="M73205 4221
L73205 4562
" />
<path d="M73083 4026
L72961 4391
L73278 4391
" />
</g>
<g style="fill:#000000; fill-opacity:0.0; 
stroke:#000000; stroke-width:39.3701; stroke-opacity:1; 
stroke-linecap:round; stroke-linejoin:round;">
</g>
<g style="fill:#000000; fill-opacity:0.0; 
stroke:#000000; stroke-width:59.0551; stroke-opacity:1; 
stroke-linecap:round; stroke-linejoin:round;">
<text x="92519.7" y="4586.61"
textLength="546.494" font-size="682.415" lengthAdjust="spacingAndGlyphs"
text-anchor="start" opacity="0">5</text>
<path d="M92914 4050
L92671 4050
L92646 4294
L92671 4269
L92719 4245
L92841 4245
L92890 4269
L92914 4294
L92939 4342
L92939 4464
L92914 4513
L92890 4537
L92841 4562
L92719 4562
L92671 4537
L92646 4513
" />
</g>
<g style="fill:#000000; fill-opacity:0.0; 
stroke:#000000; stroke-width:39.3701; stroke-opacity:1; 
stroke-linecap:round; stroke-linejoin:round;">
</g>
<g style="fill:#000000; fill-opacity:0.0; 
stroke:#000000; stroke-width:59.0551; stroke-opacity:1; 
stroke-linecap:round; stroke-linejoin:round;">
<path d="M23622 80275
L23622 81062
" />
</g>
<g style="fill:#000000; fill-opacity:0.0; 
stroke:#000000; stroke-width:39.3701; stroke-opacity:1; 
stroke-linecap:round; stroke-linejoin:round;">
</g>
<g style="fill:#000000; fill-opacity:0.0; 
stroke:#000000; stroke-width:59.0551; stroke-opacity:1; 
stroke-linecap:round; stroke-linejoin:round;">
<path d="M43307 80275
L43307 81062
" />
</g>
<g style="fill:#000000; fill-opacity:0.0; 
stroke:#000000; stroke-width:39.3701; stroke-opacity:1; 
stroke-linecap:round; stroke-linejoin:round;">
</g>
<g style="fill:#000000; fill-opacity:0.0; 
stroke:#000000; stroke-width:59.0551; stroke-opacity:1; 
stroke-linecap:round; stroke-linejoin:round;">
<path d="M62992 80275
L62992 81062
" />
</g>
<g style="fill:#000000; fill-opacity:0.0; 
stroke:#000000; stroke-width:39.3701; stroke-opacity:1; 
stroke-linecap:round; stroke-linejoin:round;">
</g>
<g style="fill:#000000; fill-opacity:0.0; 
stroke:#000000; stroke-width:59.0551; stroke-opacity:1; 
stroke-linecap:round; stroke-linejoin:round;">
<path d="M82677 80275
L82677 81062
" />
</g>
<g style="fill:#000000; fill-opacity:0.0; 
stroke:#000000; stroke-width:39.3701; stroke-opacity:1; 
stroke-linecap:round; stroke-linejoin:round;">
</g>
<g style="fill:#000000; fill-opacity:0.0; 
stroke:#000000; stroke-width:59.0551; stroke-opacity:1; 
stroke-linecap:round; stroke-linejoin:round;">
<path d="M102362 80275
L102362 81062
" />
</g>
<g style="fill:#000000; fill-opacity:0.0; 
stroke:#000000; stroke-width:39.3701; stroke-opacity:1; 
stroke-linecap:round; stroke-linejoin:round;">
</g>
<g style="fill:#000000; fill-opacity:0.0; 
stroke:#000000; stroke-width:59.0551; stroke-opacity:1; 
stroke-linecap:round; stroke-linejoin:round;">
<text x="13779.5" y="80925.2"
textLength="546.494" font-size="682.415" lengthAdjust="spacingAndGlyphs"
text-anchor="start" opacity="0">1</text>
<path d="M14199 80900
L13906 80900
" />
<path d="M14052 80900
L14052 80389
L14004 80462
L13955 80510
L13906 80535
" />
</g>
<g style="fill:#000000; fill-opacity:0.0; 
stroke:#000000; stroke-width:39.3701; stroke-opacity:1; 
stroke-linecap:round; stroke-linejoin:round;">
</g>
<g style="fill:#000000; fill-opacity:0.0; 
stroke:#000000; stroke-width:59.0551; stroke-opacity:1; 
stroke-linecap:round; stroke-linejoin:round;">
<text x="33464.6" y="80925.2"
textLength="546.494" font-size="682.415" lengthAdjust="spacingAndGlyphs"
text-anchor="start" opacity="0">2</text>
<path d="M33591 80437
L33615 80413
L33664 80389
L33786 80389
L33835 80413
L33859 80437
L33884 80486
L33884 80535
L33859 80608
L33567 80900
L33884 80900
" />
</g>
<g style="fill:#000000; fill-opacity:0.0; 
stroke:#000000; stroke-width:39.3701; stroke-opacity:1; 
stroke-linecap:round; stroke-linejoin:round;">
</g>
<g style="fill:#000000; fill-opacity:0.0; 
stroke:#000000; stroke-width:59.0551; stroke-opacity:1; 
stroke-linecap:round; stroke-linejoin:round;">
<text x="53149.6" y="80925.2"
textLength="546.494" font-size="682.415" lengthAdjust="spacingAndGlyphs"
text-anchor="start" opacity="0">3</text>
<path d="M53252 80389
L53569 80389
L53398 80583
L53471 80583
L53520 80608
L53544 80632
L53569 80681
L53569 80803
L53544 80852
L53520 80876
L53471 80900
L53325 80900
L53276 80876
L53252 80852
" />
</g>
<g style="fill:#000000; fill-opacity:0.0; 
stroke:#000000; stroke-width:39.3701; stroke-opacity:1; 
stroke-linecap:round; stroke-linejoin:round;">
</g>
<g style="fill:#000000; fill-opacity:0.0; 
stroke:#000000; stroke-width:59.0551; stroke-opacity:1; 
stroke-linecap:round; stroke-linejoin:round;">
<text x="72834.6" y="80925.2"
textLength="546.494" font-size="682.415" lengthAdjust="spacingAndGlyphs"
text-anchor="start" opacity="0">4</text>
<path d="M73205 80559
L73205 80900
" />
<path d="M73083 80364
L72961 80730
L73278 80730
" />
</g>
<g style="fill:#000000; fill-opacity:0.0; 
stroke:#000000; stroke-width:39.3701; stroke-opacity:1; 
stroke-linecap:round; stroke-linejoin:round;">
</g>
<g style="fill:#000000; fill-opacity:0.0; 
stroke:#000000; stroke-width:59.0551; stroke-opacity:1; 
stroke-linecap:round; stroke-linejoin:round;">
<text x="92519.7" y="80925.2"
textLength="546.494" font-size="682.415" lengthAdjust="spacingAndGlyphs"
text-anchor="start" opacity="0">5</text>
<path d="M92914 80389
L92671 80389
L92646 80632
L92671 80608
L92719 80583
L92841 80583
L92890 80608
L92914 80632
L92939 80681
L92939 80803
L92914 80852
L92890 80876
L92841 80900
L92719 80900
L92671 80876
L92646 80852
" />
</g>
<g style="fill:#000000; fill-opacity:0.0; 
stroke:#000000; stroke-width:39.3701; stroke-opacity:1; 
stroke-linecap:round; stroke-linejoin:round;">
</g>
<g style="fill:#000000; fill-opacity:0.0; 
stroke:#000000; stroke-width:59.0551; stroke-opacity:1; 
stroke-linecap:round; stroke-linejoin:round;">
<path d="M3937 23622
L4724 23622
" />
</g>
<g style="fill:#000000; fill-opacity:0.0; 
stroke:#000000; stroke-width:39.3701; stroke-opacity:1; 
stroke-linecap:round; stroke-linejoin:round;">
</g>
<g style="fill:#000000; fill-opacity:0.0; 
stroke:#000000; stroke-width:59.0551; stroke-opacity:1; 
stroke-linecap:round; stroke-linejoin:round;">
<path d="M3937 43307
L4724 43307
" />
</g>
<g style="fill:#000000; fill-opacity:0.0; 
stroke:#000000; stroke-width:39.3701; stroke-opacity:1; 
stroke-linecap:round; stroke-linejoin:round;">
</g>
<g style="fill:#000000; fill-opacity:0.0; 
stroke:#000000; stroke-width:59.0551; stroke-opacity:1; 
stroke-linecap:round; stroke-linejoin:round;">
<path d="M3937 62992
L4724 62992
" />
</g>
<g style="fill:#000000; fill-opacity:0.0; 
stroke:#000000; stroke-width:39.3701; stroke-opacity:1; 
stroke-linecap:round; stroke-linejoin:round;">
</g>
<g style="fill:#000000; fill-opacity:0.0; 
stroke:#000000; stroke-width:59.0551; stroke-opacity:1; 
stroke-linecap:round; stroke-linejoin:round;">
<text x="4330.71" y="14035.4"
textLength="497.75" font-size="682.415" lengthAdjust="spacingAndGlyphs"
text-anchor="middle" opacity="0">A</text>
<path d="M4208 13864
L4452 13864
" />
<path d="M4160 14011
L4330 13499
L4501 14011
" />
</g>
<g style="fill:#000000; fill-opacity:0.0; 
stroke:#000000; stroke-width:39.3701; stroke-opacity:1; 
stroke-linecap:round; stroke-linejoin:round;">
</g>
<g style="fill:#000000; fill-opacity:0.0; 
stroke:#000000; stroke-width:59.0551; stroke-opacity:1; 
stroke-linecap:round; stroke-linejoin:round;">
<text x="4330.71" y="33720.5"
textLength="570.866" font-size="682.415" lengthAdjust="spacingAndGlyphs"
text-anchor="middle" opacity="0">B</text>
<path d="M4367 33428
L4440 33452
L4464 33476
L4489 33525
L4489 33598
L4464 33647
L4440 33671
L4391 33696
L4196 33696
L4196 33184
L4367 33184
L4416 33208
L4440 33233
L4464 33281
L4464 33330
L4440 33379
L4416 33403
L4367 33428
L4196 33428
" />
</g>
<g style="fill:#000000; fill-opacity:0.0; 
stroke:#000000; stroke-width:39.3701; stroke-opacity:1; 
stroke-linecap:round; stroke-linejoin:round;">
</g>
<g style="fill:#000000; fill-opacity:0.0; 
stroke:#000000; stroke-width:59.0551; stroke-opacity:1; 
stroke-linecap:round; stroke-linejoin:round;">
<text x="4330.71" y="53405.5"
textLength="570.866" font-size="682.415" lengthAdjust="spacingAndGlyphs"
text-anchor="middle" opacity="0">C</text>
<path d="M4489 53332
L4464 53356
L4391 53381
L4342 53381
L4269 53356
L4221 53308
L4196 53259
L4172 53161
L4172 53088
L4196 52991
L4221 52942
L4269 52893
L4342 52869
L4391 52869
L4464 52893
L4489 52918
" />
</g>
<g style="fill:#000000; fill-opacity:0.0; 
stroke:#000000; stroke-width:39.3701; stroke-opacity:1; 
stroke-linecap:round; stroke-linejoin:round;">
</g>
<g style="fill:#000000; fill-opacity:0.0; 
stroke:#000000; stroke-width:59.0551; stroke-opacity:1; 
stroke-linecap:round; stroke-linejoin:round;">
<text x="4330.71" y="73090.6"
textLength="570.866" font-size="682.415" lengthAdjust="spacingAndGlyphs"
text-anchor="middle" opacity="0">D</text>
<path d="M4196 73066
L4196 72554
L4318 72554
L4391 72578
L4440 72627
L4464 72676
L4489 72773
L4489 72846
L4464 72944
L4440 72993
L4391 73041
L4318 73066
L4196 73066
" />
</g>
<g style="fill:#000000; fill-opacity:0.0; 
stroke:#000000; stroke-width:39.3701; stroke-opacity:1; 
stroke-linecap:round; stroke-linejoin:round;">
</g>
<g style="fill:#000000; fill-opacity:0.0; 
stroke:#000000; stroke-width:59.0551; stroke-opacity:1; 
stroke-linecap:round; stroke-linejoin:round;">
<path d="M106062 23622
L105275 23622
" />
</g>
<g style="fill:#000000; fill-opacity:0.0; 
stroke:#000000; stroke-width:39.3701; stroke-opacity:1; 
stroke-linecap:round; stroke-linejoin:round;">
</g>
<g style="fill:#000000; fill-opacity:0.0; 
stroke:#000000; stroke-width:59.0551; stroke-opacity:1; 
stroke-linecap:round; stroke-linejoin:round;">
<path d="M106062 43307
L105275 43307
" />
</g>
<g style="fill:#000000; fill-opacity:0.0; 
stroke:#000000; stroke-width:39.3701; stroke-opacity:1; 
stroke-linecap:round; stroke-linejoin:round;">
</g>
<g style="fill:#000000; fill-opacity:0.0; 
stroke:#000000; stroke-width:59.0551; stroke-opacity:1; 
stroke-linecap:round; stroke-linejoin:round;">
<path d="M106062 62992
L105275 62992
" />
</g>
<g style="fill:#000000; fill-opacity:0.0; 
stroke:#000000; stroke-width:39.3701; stroke-opacity:1; 
stroke-linecap:round; stroke-linejoin:round;">
</g>
<g style="fill:#000000; fill-opacity:0.0; 
stroke:#000000; stroke-width:59.0551; stroke-opacity:1; 
stroke-linecap:round; stroke-linejoin:round;">
<text x="105669" y="14035.4"
textLength="497.75" font-size="682.415" lengthAdjust="spacingAndGlyphs"
text-anchor="middle" opacity="0">A</text>
<path d="M105547 13864
L105791 13864
" />
<path d="M105498 14011
L105669 13499
L105839 14011
" />
</g>
<g style="fill:#000000; fill-opacity:0.0; 
stroke:#000000; stroke-width:39.3701; stroke-opacity:1; 
stroke-linecap:round; stroke-linejoin:round;">
</g>
<g style="fill:#000000; fill-opacity:0.0; 
stroke:#000000; stroke-width:59.0551; stroke-opacity:1; 
stroke-linecap:round; stroke-linejoin:round;">
<text x="105669" y="33720.5"
textLength="570.866" font-size="682.415" lengthAdjust="spacingAndGlyphs"
text-anchor="middle" opacity="0">B</text>
<path d="M105705 33428
L105778 33452
L105803 33476
L105827 33525
L105827 33598
L105803 33647
L105778 33671
L105730 33696
L105535 33696
L105535 33184
L105705 33184
L105754 33208
L105778 33233
L105803 33281
L105803 33330
L105778 33379
L105754 33403
L105705 33428
L105535 33428
" />
</g>
<g style="fill:#000000; fill-opacity:0.0; 
stroke:#000000; stroke-width:39.3701; stroke-opacity:1; 
stroke-linecap:round; stroke-linejoin:round;">
</g>
<g style="fill:#000000; fill-opacity:0.0; 
stroke:#000000; stroke-width:59.0551; stroke-opacity:1; 
stroke-linecap:round; stroke-linejoin:round;">
<text x="105669" y="53405.5"
textLength="570.866" font-size="682.415" lengthAdjust="spacingAndGlyphs"
text-anchor="middle" opacity="0">C</text>
<path d="M105827 53332
L105803 53356
L105730 53381
L105681 53381
L105608 53356
L105559 53308
L105535 53259
L105510 53161
L105510 53088
L105535 52991
L105559 52942
L105608 52893
L105681 52869
L105730 52869
L105803 52893
L105827 52918
" />
</g>
<g style="fill:#000000; fill-opacity:0.0; 
stroke:#000000; stroke-width:39.3701; stroke-opacity:1; 
stroke-linecap:round; stroke-linejoin:round;">
</g>
<g style="fill:#000000; fill-opacity:0.0; 
stroke:#000000; stroke-width:59.0551; stroke-opacity:1; 
stroke-linecap:round; stroke-linejoin:round;">
<text x="105669" y="73090.6"
textLength="570.866" font-size="682.415" lengthAdjust="spacingAndGlyphs"
text-anchor="middle" opacity="0">D</text>
<path d="M105535 73066
L105535 72554
L105657 72554
L105730 72578
L105778 72627
L105803 72676
L105827 72773
L105827 72846
L105803 72944
L105778 72993
L105730 73041
L105657 73066
L105535 73066
" />
</g>
<g style="fill:#000000; fill-opacity:0.0; 
stroke:#000000; stroke-width:39.3701; stroke-opacity:1; 
stroke-linecap:round; stroke-linejoin:round;">
</g>
<g style="fill:#000000; fill-opacity:0.0; 
stroke:#000000; stroke-width:59.0551; stroke-opacity:1; 
stroke-linecap:round; stroke-linejoin:round;">
<text x="71811" y="78641.7"
textLength="2758.72" font-size="787.402" lengthAdjust="spacingAndGlyphs"
text-anchor="start" opacity="0">Date: </text>
<path d="M71981 78613
L71981 78023
L72121 78023
L72206 78051
L72262 78107
L72290 78163
L72318 78276
L72318 78360
L72290 78473
L72262 78529
L72206 78585
L72121 78613
L71981 78613
" />
<path d="M72824 78613
L72824 78304
L72796 78248
L72740 78219
L72627 78219
L72571 78248
" />
<path d="M72824 78585
L72768 78613
L72627 78613
L72571 78585
L72543 78529
L72543 78473
L72571 78416
L72627 78388
L72768 78388
L72824 78360
" />
<path d="M73021 78219
L73246 78219
" />
<path d="M73106 78023
L73106 78529
L73134 78585
L73190 78613
L73246 78613
" />
<path d="M73668 78585
L73612 78613
L73499 78613
L73443 78585
L73415 78529
L73415 78304
L73443 78248
L73499 78219
L73612 78219
L73668 78248
L73696 78304
L73696 78360
L73415 78416
" />
<path d="M73949 78557
L73977 78585
L73949 78613
L73921 78585
L73949 78557
L73949 78613
" />
<path d="M73949 78248
L73977 78276
L73949 78304
L73921 78276
L73949 78248
L73949 78304
" />
</g>
<g style="fill:#000000; fill-opacity:0.0; 
stroke:#000000; stroke-width:39.3701; stroke-opacity:1; 
stroke-linecap:round; stroke-linejoin:round;">
</g>
<g style="fill:#000000; fill-opacity:0.0; 
stroke:#000000; stroke-width:59.0551; stroke-opacity:1; 
stroke-linecap:round; stroke-linejoin:round;">
<path d="M62755 78897
L105275 78897
" />
</g>
<g style="fill:#000000; fill-opacity:0.0; 
stroke:#000000; stroke-width:39.3701; stroke-opacity:1; 
stroke-linecap:round; stroke-linejoin:round;">
</g>
<g style="fill:#000000; fill-opacity:0.0; 
stroke:#000000; stroke-width:59.0551; stroke-opacity:1; 
stroke-linecap:round; stroke-linejoin:round;">
<text x="63149.6" y="79744.1"
textLength="13529.2" font-size="787.402" lengthAdjust="spacingAndGlyphs"
text-anchor="start" opacity="0">KiCad E.D.A.  kicad (5.1.5)-3</text>
<path d="M63319 79715
L63319 79125
" />
<path d="M63657 79715
L63404 79378
" />
<path d="M63657 79125
L63319 79462
" />
<path d="M63910 79715
L63910 79322
" />
<path d="M63910 79125
L63882 79153
L63910 79181
L63938 79153
L63910 79125
L63910 79181
" />
<path d="M64528 79659
L64500 79687
L64416 79715
L64360 79715
L64275 79687
L64219 79631
L64191 79575
L64163 79462
L64163 79378
L64191 79266
L64219 79209
L64275 79153
L64360 79125
L64416 79125
L64500 79153
L64528 79181
" />
<path d="M65035 79715
L65035 79406
L65007 79350
L64950 79322
L64838 79322
L64782 79350
" />
<path d="M65035 79687
L64978 79715
L64838 79715
L64782 79687
L64753 79631
L64753 79575
L64782 79519
L64838 79491
L64978 79491
L65035 79462
" />
<path d="M65569 79715
L65569 79125
" />
<path d="M65569 79687
L65513 79715
L65400 79715
L65344 79687
L65316 79659
L65288 79603
L65288 79434
L65316 79378
L65344 79350
L65400 79322
L65513 79322
L65569 79350
" />
<path d="M66300 79406
L66497 79406
" />
<path d="M66581 79715
L66300 79715
L66300 79125
L66581 79125
" />
<path d="M66834 79659
L66863 79687
L66834 79715
L66806 79687
L66834 79659
L66834 79715
" />
<path d="M67116 79715
L67116 79125
L67256 79125
L67341 79153
L67397 79209
L67425 79266
L67453 79378
L67453 79462
L67425 79575
L67397 79631
L67341 79687
L67256 79715
L67116 79715
" />
<path d="M67706 79659
L67734 79687
L67706 79715
L67678 79687
L67706 79659
L67706 79715
" />
<path d="M67959 79547
L68241 79547
" />
<path d="M67903 79715
L68100 79125
L68297 79715
" />
<path d="M68494 79659
L68522 79687
L68494 79715
L68465 79687
L68494 79659
L68494 79715
" />
<path d="M69675 79715
L69675 79125
" />
<path d="M69731 79491
L69900 79715
" />
<path d="M69900 79322
L69675 79547
" />
<path d="M70153 79715
L70153 79322
" />
<path d="M70153 79125
L70125 79153
L70153 79181
L70181 79153
L70153 79125
L70153 79181
" />
<path d="M70687 79687
L70631 79715
L70518 79715
L70462 79687
L70434 79659
L70406 79603
L70406 79434
L70434 79378
L70462 79350
L70518 79322
L70631 79322
L70687 79350
" />
<path d="M71193 79715
L71193 79406
L71165 79350
L71109 79322
L70996 79322
L70940 79350
" />
<path d="M71193 79687
L71137 79715
L70996 79715
L70940 79687
L70912 79631
L70912 79575
L70940 79519
L70996 79491
L71137 79491
L71193 79462
" />
<path d="M71728 79715
L71728 79125
" />
<path d="M71728 79687
L71671 79715
L71559 79715
L71503 79687
L71474 79659
L71446 79603
L71446 79434
L71474 79378
L71503 79350
L71559 79322
L71671 79322
L71728 79350
" />
<path d="M72627 79940
L72599 79912
L72543 79828
L72515 79772
L72487 79687
L72459 79547
L72459 79434
L72487 79294
L72515 79209
L72543 79153
L72599 79069
L72627 79041
" />
<path d="M73134 79125
L72852 79125
L72824 79406
L72852 79378
L72909 79350
L73049 79350
L73106 79378
L73134 79406
L73162 79462
L73162 79603
L73134 79659
L73106 79687
L73049 79715
L72909 79715
L72852 79687
L72824 79659
" />
<path d="M73415 79659
L73443 79687
L73415 79715
L73387 79687
L73415 79659
L73415 79715
" />
<path d="M74005 79715
L73668 79715
" />
<path d="M73837 79715
L73837 79125
L73780 79209
L73724 79266
L73668 79294
" />
<path d="M74258 79659
L74287 79687
L74258 79715
L74230 79687
L74258 79659
L74258 79715
" />
<path d="M74821 79125
L74540 79125
L74512 79406
L74540 79378
L74596 79350
L74737 79350
L74793 79378
L74821 79406
L74849 79462
L74849 79603
L74821 79659
L74793 79687
L74737 79715
L74596 79715
L74540 79687
L74512 79659
" />
<path d="M75046 79940
L75074 79912
L75130 79828
L75158 79772
L75187 79687
L75215 79547
L75215 79434
L75187 79294
L75158 79209
L75130 79153
L75074 79069
L75046 79041
" />
<path d="M75496 79491
L75946 79491
" />
<path d="M76171 79125
L76536 79125
L76339 79350
L76424 79350
L76480 79378
L76508 79406
L76536 79462
L76536 79603
L76508 79659
L76480 79687
L76424 79715
L76255 79715
L76199 79687
L76171 79659
" />
</g>
<g style="fill:#000000; fill-opacity:0.0; 
stroke:#000000; stroke-width:39.3701; stroke-opacity:1; 
stroke-linecap:round; stroke-linejoin:round;">
</g>
<g style="fill:#000000; fill-opacity:0.0; 
stroke:#000000; stroke-width:59.0551; stroke-opacity:1; 
stroke-linecap:round; stroke-linejoin:round;">
<path d="M62755 77716
L105275 77716
" />
</g>
<g style="fill:#000000; fill-opacity:0.0; 
stroke:#000000; stroke-width:39.3701; stroke-opacity:1; 
stroke-linecap:round; stroke-linejoin:round;">
</g>
<g style="fill:#000000; fill-opacity:0.0; 
stroke:#000000; stroke-width:118.11; stroke-opacity:1; 
stroke-linecap:round; stroke-linejoin:round;">
<text x="96614.2" y="78641.7"
textLength="2899.33" font-size="787.402" lengthAdjust="spacingAndGlyphs"
text-anchor="start" opacity="0">Rev: 1</text>
<path d="M97169 78613
L96972 78332
" />
<path d="M96831 78613
L96831 78023
L97056 78023
L97112 78051
L97140 78079
L97169 78135
L97169 78219
L97140 78276
L97112 78304
L97056 78332
L96831 78332
" />
<path d="M97647 78585
L97590 78613
L97478 78613
L97422 78585
L97393 78529
L97393 78304
L97422 78248
L97478 78219
L97590 78219
L97647 78248
L97675 78304
L97675 78360
L97393 78416
" />
<path d="M97872 78219
L98012 78613
L98153 78219
" />
<path d="M98378 78557
L98406 78585
L98378 78613
L98350 78585
L98378 78557
L98378 78613
" />
<path d="M98378 78248
L98406 78276
L98378 78304
L98350 78276
L98378 78248
L98378 78304
" />
<path d="M99418 78613
L99081 78613
" />
<path d="M99250 78613
L99250 78023
L99193 78107
L99137 78163
L99081 78191
" />
</g>
<g style="fill:#000000; fill-opacity:0.0; 
stroke:#000000; stroke-width:39.3701; stroke-opacity:1; 
stroke-linecap:round; stroke-linejoin:round;">
</g>
<g style="fill:#000000; fill-opacity:0.0; 
stroke:#000000; stroke-width:59.0551; stroke-opacity:1; 
stroke-linecap:round; stroke-linejoin:round;">
<text x="63149.6" y="78641.7"
textLength="6424.63" font-size="787.402" lengthAdjust="spacingAndGlyphs"
text-anchor="start" opacity="0">Size: USLetter</text>
<path d="M63291 78585
L63375 78613
L63516 78613
L63572 78585
L63600 78557
L63629 78501
L63629 78444
L63600 78388
L63572 78360
L63516 78332
L63404 78304
L63347 78276
L63319 78248
L63291 78191
L63291 78135
L63319 78079
L63347 78051
L63404 78023
L63544 78023
L63629 78051
" />
<path d="M63882 78613
L63882 78219
" />
<path d="M63882 78023
L63854 78051
L63882 78079
L63910 78051
L63882 78023
L63882 78079
" />
<path d="M64107 78219
L64416 78219
L64107 78613
L64416 78613
" />
<path d="M64866 78585
L64810 78613
L64697 78613
L64641 78585
L64613 78529
L64613 78304
L64641 78248
L64697 78219
L64810 78219
L64866 78248
L64894 78304
L64894 78360
L64613 78416
" />
<path d="M65147 78557
L65175 78585
L65147 78613
L65119 78585
L65147 78557
L65147 78613
" />
<path d="M65147 78248
L65175 78276
L65147 78304
L65119 78276
L65147 78248
L65147 78304
" />
<path d="M65878 78023
L65878 78501
L65906 78557
L65935 78585
L65991 78613
L66103 78613
L66160 78585
L66188 78557
L66216 78501
L66216 78023
" />
<path d="M66469 78585
L66553 78613
L66694 78613
L66750 78585
L66778 78557
L66806 78501
L66806 78444
L66778 78388
L66750 78360
L66694 78332
L66581 78304
L66525 78276
L66497 78248
L66469 78191
L66469 78135
L66497 78079
L66525 78051
L66581 78023
L66722 78023
L66806 78051
" />
<path d="M67341 78613
L67059 78613
L67059 78023
" />
<path d="M67762 78585
L67706 78613
L67594 78613
L67537 78585
L67509 78529
L67509 78304
L67537 78248
L67594 78219
L67706 78219
L67762 78248
L67791 78304
L67791 78360
L67509 78416
" />
<path d="M67959 78219
L68184 78219
" />
<path d="M68044 78023
L68044 78529
L68072 78585
L68128 78613
L68184 78613
" />
<path d="M68297 78219
L68522 78219
" />
<path d="M68381 78023
L68381 78529
L68409 78585
L68465 78613
L68522 78613
" />
<path d="M68944 78585
L68887 78613
L68775 78613
L68719 78585
L68690 78529
L68690 78304
L68719 78248
L68775 78219
L68887 78219
L68944 78248
L68972 78304
L68972 78360
L68690 78416
" />
<path d="M69225 78613
L69225 78219
" />
<path d="M69225 78332
L69253 78276
L69281 78248
L69337 78219
L69393 78219
" />
</g>
<g style="fill:#000000; fill-opacity:0.0; 
stroke:#000000; stroke-width:39.3701; stroke-opacity:1; 
stroke-linecap:round; stroke-linejoin:round;">
</g>
<g style="fill:#000000; fill-opacity:0.0; 
stroke:#000000; stroke-width:59.0551; stroke-opacity:1; 
stroke-linecap:round; stroke-linejoin:round;">
<text x="96614.2" y="79744.1"
textLength="3349.27" font-size="787.402" lengthAdjust="spacingAndGlyphs"
text-anchor="start" opacity="0">Id: 1/1</text>
<path d="M96784 79715
L96784 79125
" />
<path d="M97318 79715
L97318 79125
" />
<path d="M97318 79687
L97262 79715
L97149 79715
L97093 79687
L97065 79659
L97037 79603
L97037 79434
L97065 79378
L97093 79350
L97149 79322
L97262 79322
L97318 79350
" />
<path d="M97599 79659
L97627 79687
L97599 79715
L97571 79687
L97599 79659
L97599 79715
" />
<path d="M97599 79350
L97627 79378
L97599 79406
L97571 79378
L97599 79350
L97599 79406
" />
<path d="M98640 79715
L98302 79715
" />
<path d="M98471 79715
L98471 79125
L98415 79209
L98359 79266
L98302 79294
" />
<path d="M99315 79097
L98809 79856
" />
<path d="M99821 79715
L99483 79715
" />
<path d="M99652 79715
L99652 79125
L99596 79209
L99540 79266
L99483 79294
" />
</g>
<g style="fill:#000000; fill-opacity:0.0; 
stroke:#000000; stroke-width:39.3701; stroke-opacity:1; 
stroke-linecap:round; stroke-linejoin:round;">
</g>
<g style="fill:#000000; fill-opacity:0.0; 
stroke:#000000; stroke-width:59.0551; stroke-opacity:1; 
stroke-linecap:round; stroke-linejoin:round;">
<path d="M62755 76141
L105275 76141
" />
</g>
<g style="fill:#000000; fill-opacity:0.0; 
stroke:#000000; stroke-width:39.3701; stroke-opacity:1; 
stroke-linecap:round; stroke-linejoin:round;">
</g>
<g style="fill:#000000; fill-opacity:0.0; 
stroke:#000000; stroke-width:157.48; stroke-opacity:1; 
stroke-linecap:round; stroke-linejoin:round;">
<text x="63149.6" y="77244.1"
textLength="3701.14" font-size="1049.87" lengthAdjust="spacingAndGlyphs"
text-anchor="start" opacity="0">Title: </text>
<path d="M63430 76419
L63880 76419
" />
<path d="M63556 77206
L63655 76419
" />
<path d="M64044 77206
L64109 76681
" />
<path d="M64142 76419
L64100 76456
L64133 76494
L64175 76456
L64142 76419
L64133 76494
" />
<path d="M64372 76681
L64672 76681
" />
<path d="M64517 76419
L64433 77094
L64461 77169
L64531 77206
L64606 77206
" />
<path d="M64981 77206
L64911 77169
L64883 77094
L64967 76419
" />
<path d="M65586 77169
L65506 77206
L65356 77206
L65286 77169
L65257 77094
L65295 76794
L65342 76719
L65422 76681
L65571 76681
L65642 76719
L65670 76794
L65661 76869
L65276 76944
" />
<path d="M65965 77131
L65998 77169
L65956 77206
L65923 77169
L65965 77131
L65956 77206
" />
<path d="M66017 76719
L66050 76756
L66007 76794
L65975 76756
L66017 76719
L66007 76794
" />
</g>
<g style="fill:#000000; fill-opacity:0.0; 
stroke:#000000; stroke-width:39.3701; stroke-opacity:1; 
stroke-linecap:round; stroke-linejoin:round;">
</g>
<g style="fill:#000000; fill-opacity:0.0; 
stroke:#000000; stroke-width:59.0551; stroke-opacity:1; 
stroke-linecap:round; stroke-linejoin:round;">
<text x="63149.6" y="75728.3"
textLength="9259.84" font-size="787.402" lengthAdjust="spacingAndGlyphs"
text-anchor="start" opacity="0">File: seg1.kicad_pcb</text>
<path d="M63516 75390
L63319 75390
" />
<path d="M63319 75700
L63319 75109
L63600 75109
" />
<path d="M63825 75700
L63825 75306
" />
<path d="M63825 75109
L63797 75137
L63825 75165
L63854 75137
L63825 75109
L63825 75165
" />
<path d="M64191 75700
L64135 75672
L64107 75615
L64107 75109
" />
<path d="M64641 75672
L64585 75700
L64472 75700
L64416 75672
L64388 75615
L64388 75390
L64416 75334
L64472 75306
L64585 75306
L64641 75334
L64669 75390
L64669 75447
L64388 75503
" />
<path d="M64922 75643
L64950 75672
L64922 75700
L64894 75672
L64922 75643
L64922 75700
" />
<path d="M64922 75334
L64950 75362
L64922 75390
L64894 75362
L64922 75334
L64922 75390
" />
<path d="M65625 75672
L65681 75700
L65794 75700
L65850 75672
L65878 75615
L65878 75587
L65850 75531
L65794 75503
L65710 75503
L65653 75475
L65625 75419
L65625 75390
L65653 75334
L65710 75306
L65794 75306
L65850 75334
" />
<path d="M66356 75672
L66300 75700
L66188 75700
L66131 75672
L66103 75615
L66103 75390
L66131 75334
L66188 75306
L66300 75306
L66356 75334
L66384 75390
L66384 75447
L66103 75503
" />
<path d="M66891 75306
L66891 75784
L66863 75840
L66834 75868
L66778 75897
L66694 75897
L66638 75868
" />
<path d="M66891 75672
L66834 75700
L66722 75700
L66666 75672
L66638 75643
L66609 75587
L66609 75419
L66638 75362
L66666 75334
L66722 75306
L66834 75306
L66891 75334
" />
<path d="M67481 75700
L67144 75700
" />
<path d="M67312 75700
L67312 75109
L67256 75194
L67200 75250
L67144 75278
" />
<path d="M67734 75643
L67762 75672
L67734 75700
L67706 75672
L67734 75643
L67734 75700
" />
<path d="M68016 75700
L68016 75109
" />
<path d="M68072 75475
L68241 75700
" />
<path d="M68241 75306
L68016 75531
" />
<path d="M68494 75700
L68494 75306
" />
<path d="M68494 75109
L68465 75137
L68494 75165
L68522 75137
L68494 75109
L68494 75165
" />
<path d="M69028 75672
L68972 75700
L68859 75700
L68803 75672
L68775 75643
L68747 75587
L68747 75419
L68775 75362
L68803 75334
L68859 75306
L68972 75306
L69028 75334
" />
<path d="M69534 75700
L69534 75390
L69506 75334
L69450 75306
L69337 75306
L69281 75334
" />
<path d="M69534 75672
L69478 75700
L69337 75700
L69281 75672
L69253 75615
L69253 75559
L69281 75503
L69337 75475
L69478 75475
L69534 75447
" />
<path d="M70068 75700
L70068 75109
" />
<path d="M70068 75672
L70012 75700
L69900 75700
L69843 75672
L69815 75643
L69787 75587
L69787 75419
L69815 75362
L69843 75334
L69900 75306
L70012 75306
L70068 75334
" />
<path d="M70209 75756
L70659 75756
" />
<path d="M70800 75306
L70800 75897
" />
<path d="M70800 75334
L70856 75306
L70968 75306
L71025 75334
L71053 75362
L71081 75419
L71081 75587
L71053 75643
L71025 75672
L70968 75700
L70856 75700
L70800 75672
" />
<path d="M71587 75672
L71531 75700
L71418 75700
L71362 75672
L71334 75643
L71306 75587
L71306 75419
L71334 75362
L71362 75334
L71418 75306
L71531 75306
L71587 75334
" />
<path d="M71840 75700
L71840 75109
" />
<path d="M71840 75334
L71896 75306
L72009 75306
L72065 75334
L72093 75362
L72121 75419
L72121 75587
L72093 75643
L72065 75672
L72009 75700
L71896 75700
L71840 75672
" />
</g>
<g style="fill:#000000; fill-opacity:0.0; 
stroke:#000000; stroke-width:39.3701; stroke-opacity:1; 
stroke-linecap:round; stroke-linejoin:round;">
</g>
<g style="fill:#000000; fill-opacity:0.0; 
stroke:#000000; stroke-width:59.0551; stroke-opacity:1; 
stroke-linecap:round; stroke-linejoin:round;">
<path d="M62755 73779
L105275 73779
" />
</g>
<g style="fill:#000000; fill-opacity:0.0; 
stroke:#000000; stroke-width:39.3701; stroke-opacity:1; 
stroke-linecap:round; stroke-linejoin:round;">
</g>
<g style="fill:#000000; fill-opacity:0.0; 
stroke:#000000; stroke-width:59.0551; stroke-opacity:1; 
stroke-linecap:round; stroke-linejoin:round;">
<text x="63149.6" y="74665.4"
textLength="3236.78" font-size="787.402" lengthAdjust="spacingAndGlyphs"
text-anchor="start" opacity="0">Sheet: </text>
<path d="M63291 74609
L63375 74637
L63516 74637
L63572 74609
L63600 74580
L63629 74524
L63629 74468
L63600 74412
L63572 74384
L63516 74356
L63404 74327
L63347 74299
L63319 74271
L63291 74215
L63291 74159
L63319 74102
L63347 74074
L63404 74046
L63544 74046
L63629 74074
" />
<path d="M63882 74637
L63882 74046
" />
<path d="M64135 74637
L64135 74327
L64107 74271
L64050 74243
L63966 74243
L63910 74271
L63882 74299
" />
<path d="M64641 74609
L64585 74637
L64472 74637
L64416 74609
L64388 74552
L64388 74327
L64416 74271
L64472 74243
L64585 74243
L64641 74271
L64669 74327
L64669 74384
L64388 74440
" />
<path d="M65147 74609
L65091 74637
L64978 74637
L64922 74609
L64894 74552
L64894 74327
L64922 74271
L64978 74243
L65091 74243
L65147 74271
L65175 74327
L65175 74384
L64894 74440
" />
<path d="M65344 74243
L65569 74243
" />
<path d="M65428 74046
L65428 74552
L65456 74609
L65513 74637
L65569 74637
" />
<path d="M65766 74580
L65794 74609
L65766 74637
L65738 74609
L65766 74580
L65766 74637
" />
<path d="M65766 74271
L65794 74299
L65766 74327
L65738 74299
L65766 74271
L65766 74327
" />
</g>
<g style="fill:#000000; fill-opacity:0.0; 
stroke:#000000; stroke-width:39.3701; stroke-opacity:1; 
stroke-linecap:round; stroke-linejoin:round;">
</g>
<g style="fill:#000000; fill-opacity:0.0; 
stroke:#000000; stroke-width:59.0551; stroke-opacity:1; 
stroke-linecap:round; stroke-linejoin:round;">
<path d="M70629 77716
L70629 78897
" />
</g>
<g style="fill:#000000; fill-opacity:0.0; 
stroke:#000000; stroke-width:39.3701; stroke-opacity:1; 
stroke-linecap:round; stroke-linejoin:round;">
</g>
<g style="fill:#000000; fill-opacity:0.0; 
stroke:#000000; stroke-width:59.0551; stroke-opacity:1; 
stroke-linecap:round; stroke-linejoin:round;">
<path d="M95826 77716
L95826 80275
" />
</g>
<g style="fill:#000000; fill-opacity:0.0; 
stroke:#000000; stroke-width:39.3701; stroke-opacity:1; 
stroke-linecap:round; stroke-linejoin:round;">
<rect x="48933.1" y="64944.7" width="12683.3" height="13333.3" rx="0" />
</g>
<g style="fill:#848484; fill-opacity:0.0; 
stroke:#848484; stroke-width:39.3701; stroke-opacity:1; 
stroke-linecap:round; stroke-linejoin:round;">
</g>
<g style="fill:#848484; fill-opacity:0.0; 
stroke:#848484; stroke-width:19.685; stroke-opacity:1; 
stroke-linecap:round; stroke-linejoin:round;">
<path d="M57165 36476
L53464 36476
" />
<path d="M57165 33129
L57165 36476
" />
<path d="M53464 33129
L57165 33129
" />
<path d="M53464 36476
L53464 33129
" />
<g >
</g>
<g >
</g>
</g>
<g style="fill:#000000; fill-opacity:0.0; 
stroke:#000000; stroke-width:19.685; stroke-opacity:1; 
stroke-linecap:round; stroke-linejoin:round;">
</g>
<g style="fill:#840084; fill-opacity:0.0; 
stroke:#840084; stroke-width:19.685; stroke-opacity:1; 
stroke-linecap:round; stroke-linejoin:round;">
</g>
<g style="fill:#840084; fill-opacity:0.0; 
stroke:#840084; stroke-width:78.7402; stroke-opacity:1; 
stroke-linecap:round; stroke-linejoin:round;">
<path d="M46786 31452
L47437 32546
" />
<path d="M61961 32530
L61339 31419
" />
<path d="M63233 32546
L61961 32530
" />
<path d="M63884 31452
L63233 32546
" />
<path d="M63262 30342
L63884 31452
" />
<path d="M61989 30325
L63262 30342
" />
<path d="M61339 31419
L61989 30325
" />
<path d="M48681 30325
L47408 30342
" />
<path d="M47408 30342
L46786 31452
" />
<path d="M49331 31419
L48681 30325
" />
<path d="M47437 32546
L48710 32530
" />
<path d="M48710 32530
L49331 31419
" />
</g>
<g style="fill:#840084; fill-opacity:0.0; 
stroke:#840084; stroke-width:47.2441; stroke-opacity:1; 
stroke-linecap:round; stroke-linejoin:round;">
<path d="M56923 36322
L56923 35988
" />
<path d="M53706 36322
L56923 36322
" />
<path d="M53706 35988
L53706 36322
" />
<path d="M56923 34267
L56007 34267
" />
<path d="M56923 34602
L56923 34267
" />
<path d="M54622 34267
L54622 33326
" />
<path d="M53706 34267
L54622 34267
" />
<path d="M53706 34602
L53706 34267
" />
</g>
<g style="fill:#840084; fill-opacity:0.0; 
stroke:#840084; stroke-width:59.0551; stroke-opacity:1; 
stroke-linecap:round; stroke-linejoin:round;">
<text x="55315" y="36948.8"
textLength="-615.861" font-size="-524.934" lengthAdjust="spacingAndGlyphs"
text-anchor="middle" opacity="0">J1</text>
<path d="M55446 36536
L55446 36817
L55464 36873
L55502 36911
L55558 36930
L55596 36930
" />
<path d="M55052 36930
L55277 36930
" />
<path d="M55164 36930
L55164 36536
L55202 36592
L55239 36630
L55277 36648
" />
<g >
</g>
</g>
<g style="fill:#000000; fill-opacity:0.0; 
stroke:#000000; stroke-width:59.0551; stroke-opacity:1; 
stroke-linecap:round; stroke-linejoin:round;">
</g>
<g style="fill:#C2C200; fill-opacity:0.0; 
stroke:#C2C200; stroke-width:59.0551; stroke-opacity:1; 
stroke-linecap:round; stroke-linejoin:round;">
</g>
<g style="fill:#C2C200; fill-opacity:0.0; 
stroke:#C2C200; stroke-width:78.7402; stroke-opacity:1; 
stroke-linecap:round; stroke-linejoin:round;">
<path d="M63591 29611
L63533 29589
" />
<path d="M63533 29589
L63475 29568
" />
<path d="M63475 29568
L63417 29548
" />
<path d="M63417 29548
L63358 29527
" />
<path d="M63358 29527
L63299 29508
" />
<path d="M63299 29508
L63238 29488
" />
<path d="M63238 29488
L63178 29470
" />
<path d="M63178 29470
L63113 29450
" />
<path d="M63113 29450
L63051 29432
" />
<path d="M63051 29432
L62988 29414
" />
<path d="M62988 29414
L62923 29397
" />
<path d="M62923 29397
L62859 29380
" />
<path d="M62859 29380
L62794 29363
" />
<path d="M62794 29363
L62728 29347
" />
<path d="M62728 29347
L62663 29332
" />
<path d="M62663 29332
L62597 29317
" />
<path d="M62597 29317
L62532 29303
" />
<path d="M62532 29303
L62466 29289
" />
<path d="M62466 29289
L62399 29275
" />
<path d="M62399 29275
L62328 29261
" />
<path d="M62328 29261
L62260 29248
" />
<path d="M62260 29248
L62190 29235
" />
<path d="M62190 29235
L62120 29223
" />
<path d="M62120 29223
L62050 29211
" />
<path d="M62050 29211
L61979 29200
" />
<path d="M61979 29200
L61911 29189
" />
<path d="M61911 29189
L61843 29179
" />
<path d="M61843 29179
L61772 29168
" />
<path d="M61772 29168
L61700 29158
" />
<path d="M61700 29158
L61625 29148
" />
<path d="M61625 29148
L61554 29139
" />
<path d="M61554 29139
L61482 29130
" />
<path d="M61482 29130
L61407 29120
" />
<path d="M61407 29120
L61336 29112
" />
<path d="M61336 29112
L61264 29104
" />
<path d="M61264 29104
L61192 29096
" />
<path d="M61192 29096
L61118 29088
" />
<path d="M61118 29088
L61045 29080
" />
<path d="M61045 29080
L60971 29073
" />
<path d="M60971 29073
L60898 29065
" />
<path d="M60898 29065
L60822 29058
" />
<path d="M60822 29058
L60745 29050
" />
<path d="M60745 29050
L60668 29043
" />
<path d="M60668 29043
L60595 29037
" />
<path d="M60595 29037
L60510 29029
" />
<path d="M60510 29029
L60421 29021
" />
<path d="M60421 29021
L60348 29015
" />
<path d="M60348 29015
L60264 29007
" />
<path d="M60264 29007
L60176 29000
" />
<path d="M53516 40213
L57159 40213
" />
<path d="M66551 31447
L66501 31409
" />
<path d="M66501 31409
L66448 31369
" />
<path d="M66448 31369
L66401 31334
" />
<path d="M66401 31334
L66342 31290
" />
<path d="M66342 31290
L66293 31253
" />
<path d="M66293 31253
L66247 31218
" />
<path d="M66247 31218
L66198 31182
" />
<path d="M66198 31182
L66150 31146
" />
<path d="M66150 31146
L66102 31111
" />
<path d="M66102 31111
L66054 31074
" />
<path d="M66054 31074
L66008 31040
" />
<path d="M66008 31040
L65960 31005
" />
<path d="M65960 31005
L65914 30972
" />
<path d="M65914 30972
L65864 30935
" />
<path d="M65864 30935
L65813 30898
" />
<path d="M65813 30898
L65767 30865
" />
<path d="M65767 30865
L65720 30830
" />
<path d="M65720 30830
L65673 30797
" />
<path d="M65673 30797
L65624 30762
" />
<path d="M65624 30762
L65573 30726
" />
<path d="M65573 30726
L65526 30693
" />
<path d="M65526 30693
L65478 30659
" />
<path d="M65478 30659
L65427 30624
" />
<path d="M65427 30624
L65379 30591
" />
<path d="M65379 30591
L65330 30558
" />
<path d="M65330 30558
L65282 30525
" />
<path d="M65282 30525
L65234 30493
" />
<path d="M65234 30493
L65186 30461
" />
<path d="M65186 30461
L65137 30429
" />
<path d="M65137 30429
L65086 30395
" />
<path d="M65086 30395
L65037 30364
" />
<path d="M65037 30364
L64987 30332
" />
<path d="M64987 30332
L64939 30301
" />
<path d="M64939 30301
L64889 30271
" />
<path d="M64889 30271
L64840 30240
" />
<path d="M64840 30240
L64789 30209
" />
<path d="M64789 30209
L64739 30179
" />
<path d="M64739 30179
L64688 30149
" />
<path d="M64688 30149
L64638 30120
" />
<path d="M64638 30120
L64587 30090
" />
<path d="M64587 30090
L64537 30062
" />
<path d="M64537 30062
L64484 30032
" />
<path d="M64484 30032
L64431 30003
" />
<path d="M64431 30003
L64379 29975
" />
<path d="M64379 29975
L64327 29947
" />
<path d="M64327 29947
L64274 29919
" />
<path d="M64274 29919
L64221 29893
" />
<path d="M64221 29893
L64168 29866
" />
<path d="M64168 29866
L64115 29840
" />
<path d="M64115 29840
L64057 29812
" />
<path d="M64057 29812
L64003 29786
" />
<path d="M64003 29786
L63947 29760
" />
<path d="M63947 29760
L63892 29736
" />
<path d="M63892 29736
L63836 29711
" />
<path d="M63836 29711
L63781 29688
" />
<path d="M63781 29688
L63725 29665
" />
<path d="M63725 29665
L63667 29641
" />
<path d="M63667 29641
L63610 29618
" />
<path d="M63610 29618
L63591 29611
" />
<path d="M44124 31447
L53516 40213
" />
<path d="M57159 40213
L66551 31447
" />
<path d="M47084 29611
L47024 29635
" />
<path d="M47024 29635
L46965 29658
" />
<path d="M46965 29658
L46904 29684
" />
<path d="M46904 29684
L46845 29709
" />
<path d="M46845 29709
L46789 29733
" />
<path d="M46789 29733
L46734 29758
" />
<path d="M46734 29758
L46680 29783
" />
<path d="M46680 29783
L46622 29810
" />
<path d="M46622 29810
L46568 29836
" />
<path d="M46568 29836
L46510 29864
" />
<path d="M46510 29864
L46456 29891
" />
<path d="M46456 29891
L46403 29919
" />
<path d="M46403 29919
L46351 29946
" />
<path d="M46351 29946
L46298 29974
" />
<path d="M46298 29974
L46247 30002
" />
<path d="M46247 30002
L46196 30030
" />
<path d="M46196 30030
L46144 30059
" />
<path d="M46144 30059
L46094 30087
" />
<path d="M46094 30087
L46042 30117
" />
<path d="M46042 30117
L45989 30148
" />
<path d="M45989 30148
L45938 30178
" />
<path d="M45938 30178
L45887 30209
" />
<path d="M45887 30209
L45835 30240
" />
<path d="M45835 30240
L45786 30271
" />
<path d="M45786 30271
L45737 30302
" />
<path d="M45737 30302
L45679 30338
" />
<path d="M45679 30338
L45631 30369
" />
<path d="M45631 30369
L45582 30401
" />
<path d="M45582 30401
L45533 30432
" />
<path d="M45533 30432
L45485 30464
" />
<path d="M45485 30464
L45436 30497
" />
<path d="M45436 30497
L45385 30531
" />
<path d="M45385 30531
L45337 30563
" />
<path d="M45337 30563
L45288 30597
" />
<path d="M45288 30597
L45240 30630
" />
<path d="M45240 30630
L45187 30667
" />
<path d="M45187 30667
L45139 30701
" />
<path d="M45139 30701
L45091 30734
" />
<path d="M45091 30734
L45043 30768
" />
<path d="M45043 30768
L44995 30802
" />
<path d="M44995 30802
L44945 30838
" />
<path d="M44945 30838
L44896 30874
" />
<path d="M44896 30874
L44845 30910
" />
<path d="M44845 30910
L44798 30944
" />
<path d="M44798 30944
L44750 30980
" />
<path d="M44750 30980
L44704 31014
" />
<path d="M44704 31014
L44655 31050
" />
<path d="M44655 31050
L44605 31087
" />
<path d="M44605 31087
L44555 31124
" />
<path d="M44555 31124
L44509 31158
" />
<path d="M44509 31158
L44462 31193
" />
<path d="M44462 31193
L44416 31228
" />
<path d="M44416 31228
L44366 31265
" />
<path d="M44366 31265
L44316 31303
" />
<path d="M44316 31303
L44266 31340
" />
<path d="M44266 31340
L44208 31384
" />
<path d="M44208 31384
L44163 31418
" />
<path d="M44163 31418
L44124 31447
" />
<path d="M60176 29000
L50500 29000
" />
<path d="M50500 29000
L50413 29007
" />
<path d="M50413 29007
L50337 29014
" />
<path d="M50337 29014
L50261 29020
" />
<path d="M50261 29020
L50186 29027
" />
<path d="M50186 29027
L50112 29034
" />
<path d="M50112 29034
L50034 29041
" />
<path d="M50034 29041
L49960 29048
" />
<path d="M49960 29048
L49885 29055
" />
<path d="M49885 29055
L49807 29062
" />
<path d="M49807 29062
L49734 29070
" />
<path d="M49734 29070
L49662 29077
" />
<path d="M49662 29077
L49587 29085
" />
<path d="M49587 29085
L49514 29092
" />
<path d="M49514 29092
L49435 29101
" />
<path d="M49435 29101
L49360 29110
" />
<path d="M49360 29110
L49289 29118
" />
<path d="M49289 29118
L49218 29127
" />
<path d="M49218 29127
L49142 29136
" />
<path d="M49142 29136
L49071 29145
" />
<path d="M49071 29145
L48993 29156
" />
<path d="M48993 29156
L48918 29166
" />
<path d="M48918 29166
L48844 29177
" />
<path d="M48844 29177
L48773 29188
" />
<path d="M48773 29188
L48705 29198
" />
<path d="M48705 29198
L48636 29210
" />
<path d="M48636 29210
L48566 29221
" />
<path d="M48566 29221
L48498 29233
" />
<path d="M48498 29233
L48429 29246
" />
<path d="M48429 29246
L48362 29258
" />
<path d="M48362 29258
L48295 29271
" />
<path d="M48295 29271
L48226 29285
" />
<path d="M48226 29285
L48160 29299
" />
<path d="M48160 29299
L48091 29314
" />
<path d="M48091 29314
L48026 29329
" />
<path d="M48026 29329
L47957 29345
" />
<path d="M47957 29345
L47893 29361
" />
<path d="M47893 29361
L47829 29377
" />
<path d="M47829 29377
L47766 29393
" />
<path d="M47766 29393
L47704 29410
" />
<path d="M47704 29410
L47639 29428
" />
<path d="M47639 29428
L47576 29446
" />
<path d="M47576 29446
L47515 29464
" />
<path d="M47515 29464
L47451 29484
" />
<path d="M47451 29484
L47390 29504
" />
<path d="M47390 29504
L47329 29523
" />
<path d="M47329 29523
L47270 29544
" />
<path d="M47270 29544
L47211 29564
" />
<path d="M47211 29564
L47154 29585
" />
<path d="M47154 29585
L47093 29608
" />
<path d="M47093 29608
L47084 29611
" />
<g >
</g>
<g >
</g>
</g> 
</svg>
