<?xml version="1.0" standalone="no"?>
 <!DOCTYPE svg PUBLIC "-//W3C//DTD SVG 1.1//EN" 
 "http://www.w3.org/Graphics/SVG/1.1/DTD/svg11.dtd"> 
<svg xmlns="http://www.w3.org/2000/svg" version="1.1" 
    width="27.94cm" height="21.59cm" viewBox="0 0 110000 85000 ">
<title>SVG Picture created as seg2-brd.svg date 2021/10/21 21:15:25 </title>
  <desc>Picture generated by PCBNEW </desc>
<g style="fill:#000000; fill-opacity:1;stroke:#000000; stroke-opacity:1;
stroke-linecap:round; stroke-linejoin:round; "
 transform="translate(0 0) scale(1 1)">
</g>
<g style="fill:#000000; fill-opacity:0.0; 
stroke:#000000; stroke-width:-0.000393701; stroke-opacity:1; 
stroke-linecap:round; stroke-linejoin:round;">
</g>
<g style="fill:#000000; fill-opacity:0.0; 
stroke:#000000; stroke-width:39.3701; stroke-opacity:1; 
stroke-linecap:round; stroke-linejoin:round;">
</g>
<g style="fill:#000000; fill-opacity:0.0; 
stroke:#000000; stroke-width:59.0551; stroke-opacity:1; 
stroke-linecap:round; stroke-linejoin:round;">
<rect x="62755.9" y="67677.2" width="42519.7" height="12598.4" rx="0" />
</g>
<g style="fill:#000000; fill-opacity:0.0; 
stroke:#000000; stroke-width:39.3701; stroke-opacity:1; 
stroke-linecap:round; stroke-linejoin:round;">
</g>
<g style="fill:#000000; fill-opacity:0.0; 
stroke:#000000; stroke-width:59.0551; stroke-opacity:1; 
stroke-linecap:round; stroke-linejoin:round;">
<rect x="3937.01" y="3937.01" width="102126" height="77126" rx="0" />
</g>
<g style="fill:#000000; fill-opacity:0.0; 
stroke:#000000; stroke-width:39.3701; stroke-opacity:1; 
stroke-linecap:round; stroke-linejoin:round;">
</g>
<g style="fill:#000000; fill-opacity:0.0; 
stroke:#000000; stroke-width:59.0551; stroke-opacity:1; 
stroke-linecap:round; stroke-linejoin:round;">
<rect x="4724.41" y="4724.41" width="100551" height="75551.2" rx="0" />
</g>
<g style="fill:#000000; fill-opacity:0.0; 
stroke:#000000; stroke-width:39.3701; stroke-opacity:1; 
stroke-linecap:round; stroke-linejoin:round;">
</g>
<g style="fill:#000000; fill-opacity:0.0; 
stroke:#000000; stroke-width:59.0551; stroke-opacity:1; 
stroke-linecap:round; stroke-linejoin:round;">
<path d="M23622 4724
L23622 3937
" />
</g>
<g style="fill:#000000; fill-opacity:0.0; 
stroke:#000000; stroke-width:39.3701; stroke-opacity:1; 
stroke-linecap:round; stroke-linejoin:round;">
</g>
<g style="fill:#000000; fill-opacity:0.0; 
stroke:#000000; stroke-width:59.0551; stroke-opacity:1; 
stroke-linecap:round; stroke-linejoin:round;">
<path d="M43307 4724
L43307 3937
" />
</g>
<g style="fill:#000000; fill-opacity:0.0; 
stroke:#000000; stroke-width:39.3701; stroke-opacity:1; 
stroke-linecap:round; stroke-linejoin:round;">
</g>
<g style="fill:#000000; fill-opacity:0.0; 
stroke:#000000; stroke-width:59.0551; stroke-opacity:1; 
stroke-linecap:round; stroke-linejoin:round;">
<path d="M62992 4724
L62992 3937
" />
</g>
<g style="fill:#000000; fill-opacity:0.0; 
stroke:#000000; stroke-width:39.3701; stroke-opacity:1; 
stroke-linecap:round; stroke-linejoin:round;">
</g>
<g style="fill:#000000; fill-opacity:0.0; 
stroke:#000000; stroke-width:59.0551; stroke-opacity:1; 
stroke-linecap:round; stroke-linejoin:round;">
<path d="M82677 4724
L82677 3937
" />
</g>
<g style="fill:#000000; fill-opacity:0.0; 
stroke:#000000; stroke-width:39.3701; stroke-opacity:1; 
stroke-linecap:round; stroke-linejoin:round;">
</g>
<g style="fill:#000000; fill-opacity:0.0; 
stroke:#000000; stroke-width:59.0551; stroke-opacity:1; 
stroke-linecap:round; stroke-linejoin:round;">
<path d="M102362 4724
L102362 3937
" />
</g>
<g style="fill:#000000; fill-opacity:0.0; 
stroke:#000000; stroke-width:39.3701; stroke-opacity:1; 
stroke-linecap:round; stroke-linejoin:round;">
</g>
<g style="fill:#000000; fill-opacity:0.0; 
stroke:#000000; stroke-width:59.0551; stroke-opacity:1; 
stroke-linecap:round; stroke-linejoin:round;">
<text x="13779.5" y="4586.61"
textLength="487.439" font-size="682.415" lengthAdjust="spacingAndGlyphs"
text-anchor="start" opacity="0">1</text>
<path d="M14199 4562
L13906 4562
" />
<path d="M14052 4562
L14052 4050
L14004 4123
L13955 4172
L13906 4196
" />
</g>
<g style="fill:#000000; fill-opacity:0.0; 
stroke:#000000; stroke-width:39.3701; stroke-opacity:1; 
stroke-linecap:round; stroke-linejoin:round;">
</g>
<g style="fill:#000000; fill-opacity:0.0; 
stroke:#000000; stroke-width:59.0551; stroke-opacity:1; 
stroke-linecap:round; stroke-linejoin:round;">
<text x="33464.6" y="4586.61"
textLength="546.494" font-size="682.415" lengthAdjust="spacingAndGlyphs"
text-anchor="start" opacity="0">2</text>
<path d="M33591 4099
L33615 4074
L33664 4050
L33786 4050
L33835 4074
L33859 4099
L33884 4147
L33884 4196
L33859 4269
L33567 4562
L33884 4562
" />
</g>
<g style="fill:#000000; fill-opacity:0.0; 
stroke:#000000; stroke-width:39.3701; stroke-opacity:1; 
stroke-linecap:round; stroke-linejoin:round;">
</g>
<g style="fill:#000000; fill-opacity:0.0; 
stroke:#000000; stroke-width:59.0551; stroke-opacity:1; 
stroke-linecap:round; stroke-linejoin:round;">
<text x="53149.6" y="4586.61"
textLength="546.494" font-size="682.415" lengthAdjust="spacingAndGlyphs"
text-anchor="start" opacity="0">3</text>
<path d="M53252 4050
L53569 4050
L53398 4245
L53471 4245
L53520 4269
L53544 4294
L53569 4342
L53569 4464
L53544 4513
L53520 4537
L53471 4562
L53325 4562
L53276 4537
L53252 4513
" />
</g>
<g style="fill:#000000; fill-opacity:0.0; 
stroke:#000000; stroke-width:39.3701; stroke-opacity:1; 
stroke-linecap:round; stroke-linejoin:round;">
</g>
<g style="fill:#000000; fill-opacity:0.0; 
stroke:#000000; stroke-width:59.0551; stroke-opacity:1; 
stroke-linecap:round; stroke-linejoin:round;">
<text x="72834.6" y="4586.61"
textLength="546.494" font-size="682.415" lengthAdjust="spacingAndGlyphs"
text-anchor="start" opacity="0">4</text>
<path d="M73205 4221
L73205 4562
" />
<path d="M73083 4026
L72961 4391
L73278 4391
" />
</g>
<g style="fill:#000000; fill-opacity:0.0; 
stroke:#000000; stroke-width:39.3701; stroke-opacity:1; 
stroke-linecap:round; stroke-linejoin:round;">
</g>
<g style="fill:#000000; fill-opacity:0.0; 
stroke:#000000; stroke-width:59.0551; stroke-opacity:1; 
stroke-linecap:round; stroke-linejoin:round;">
<text x="92519.7" y="4586.61"
textLength="546.494" font-size="682.415" lengthAdjust="spacingAndGlyphs"
text-anchor="start" opacity="0">5</text>
<path d="M92914 4050
L92671 4050
L92646 4294
L92671 4269
L92719 4245
L92841 4245
L92890 4269
L92914 4294
L92939 4342
L92939 4464
L92914 4513
L92890 4537
L92841 4562
L92719 4562
L92671 4537
L92646 4513
" />
</g>
<g style="fill:#000000; fill-opacity:0.0; 
stroke:#000000; stroke-width:39.3701; stroke-opacity:1; 
stroke-linecap:round; stroke-linejoin:round;">
</g>
<g style="fill:#000000; fill-opacity:0.0; 
stroke:#000000; stroke-width:59.0551; stroke-opacity:1; 
stroke-linecap:round; stroke-linejoin:round;">
<path d="M23622 80275
L23622 81062
" />
</g>
<g style="fill:#000000; fill-opacity:0.0; 
stroke:#000000; stroke-width:39.3701; stroke-opacity:1; 
stroke-linecap:round; stroke-linejoin:round;">
</g>
<g style="fill:#000000; fill-opacity:0.0; 
stroke:#000000; stroke-width:59.0551; stroke-opacity:1; 
stroke-linecap:round; stroke-linejoin:round;">
<path d="M43307 80275
L43307 81062
" />
</g>
<g style="fill:#000000; fill-opacity:0.0; 
stroke:#000000; stroke-width:39.3701; stroke-opacity:1; 
stroke-linecap:round; stroke-linejoin:round;">
</g>
<g style="fill:#000000; fill-opacity:0.0; 
stroke:#000000; stroke-width:59.0551; stroke-opacity:1; 
stroke-linecap:round; stroke-linejoin:round;">
<path d="M62992 80275
L62992 81062
" />
</g>
<g style="fill:#000000; fill-opacity:0.0; 
stroke:#000000; stroke-width:39.3701; stroke-opacity:1; 
stroke-linecap:round; stroke-linejoin:round;">
</g>
<g style="fill:#000000; fill-opacity:0.0; 
stroke:#000000; stroke-width:59.0551; stroke-opacity:1; 
stroke-linecap:round; stroke-linejoin:round;">
<path d="M82677 80275
L82677 81062
" />
</g>
<g style="fill:#000000; fill-opacity:0.0; 
stroke:#000000; stroke-width:39.3701; stroke-opacity:1; 
stroke-linecap:round; stroke-linejoin:round;">
</g>
<g style="fill:#000000; fill-opacity:0.0; 
stroke:#000000; stroke-width:59.0551; stroke-opacity:1; 
stroke-linecap:round; stroke-linejoin:round;">
<path d="M102362 80275
L102362 81062
" />
</g>
<g style="fill:#000000; fill-opacity:0.0; 
stroke:#000000; stroke-width:39.3701; stroke-opacity:1; 
stroke-linecap:round; stroke-linejoin:round;">
</g>
<g style="fill:#000000; fill-opacity:0.0; 
stroke:#000000; stroke-width:59.0551; stroke-opacity:1; 
stroke-linecap:round; stroke-linejoin:round;">
<text x="13779.5" y="80925.2"
textLength="546.494" font-size="682.415" lengthAdjust="spacingAndGlyphs"
text-anchor="start" opacity="0">1</text>
<path d="M14199 80900
L13906 80900
" />
<path d="M14052 80900
L14052 80389
L14004 80462
L13955 80510
L13906 80535
" />
</g>
<g style="fill:#000000; fill-opacity:0.0; 
stroke:#000000; stroke-width:39.3701; stroke-opacity:1; 
stroke-linecap:round; stroke-linejoin:round;">
</g>
<g style="fill:#000000; fill-opacity:0.0; 
stroke:#000000; stroke-width:59.0551; stroke-opacity:1; 
stroke-linecap:round; stroke-linejoin:round;">
<text x="33464.6" y="80925.2"
textLength="546.494" font-size="682.415" lengthAdjust="spacingAndGlyphs"
text-anchor="start" opacity="0">2</text>
<path d="M33591 80437
L33615 80413
L33664 80389
L33786 80389
L33835 80413
L33859 80437
L33884 80486
L33884 80535
L33859 80608
L33567 80900
L33884 80900
" />
</g>
<g style="fill:#000000; fill-opacity:0.0; 
stroke:#000000; stroke-width:39.3701; stroke-opacity:1; 
stroke-linecap:round; stroke-linejoin:round;">
</g>
<g style="fill:#000000; fill-opacity:0.0; 
stroke:#000000; stroke-width:59.0551; stroke-opacity:1; 
stroke-linecap:round; stroke-linejoin:round;">
<text x="53149.6" y="80925.2"
textLength="546.494" font-size="682.415" lengthAdjust="spacingAndGlyphs"
text-anchor="start" opacity="0">3</text>
<path d="M53252 80389
L53569 80389
L53398 80583
L53471 80583
L53520 80608
L53544 80632
L53569 80681
L53569 80803
L53544 80852
L53520 80876
L53471 80900
L53325 80900
L53276 80876
L53252 80852
" />
</g>
<g style="fill:#000000; fill-opacity:0.0; 
stroke:#000000; stroke-width:39.3701; stroke-opacity:1; 
stroke-linecap:round; stroke-linejoin:round;">
</g>
<g style="fill:#000000; fill-opacity:0.0; 
stroke:#000000; stroke-width:59.0551; stroke-opacity:1; 
stroke-linecap:round; stroke-linejoin:round;">
<text x="72834.6" y="80925.2"
textLength="546.494" font-size="682.415" lengthAdjust="spacingAndGlyphs"
text-anchor="start" opacity="0">4</text>
<path d="M73205 80559
L73205 80900
" />
<path d="M73083 80364
L72961 80730
L73278 80730
" />
</g>
<g style="fill:#000000; fill-opacity:0.0; 
stroke:#000000; stroke-width:39.3701; stroke-opacity:1; 
stroke-linecap:round; stroke-linejoin:round;">
</g>
<g style="fill:#000000; fill-opacity:0.0; 
stroke:#000000; stroke-width:59.0551; stroke-opacity:1; 
stroke-linecap:round; stroke-linejoin:round;">
<text x="92519.7" y="80925.2"
textLength="546.494" font-size="682.415" lengthAdjust="spacingAndGlyphs"
text-anchor="start" opacity="0">5</text>
<path d="M92914 80389
L92671 80389
L92646 80632
L92671 80608
L92719 80583
L92841 80583
L92890 80608
L92914 80632
L92939 80681
L92939 80803
L92914 80852
L92890 80876
L92841 80900
L92719 80900
L92671 80876
L92646 80852
" />
</g>
<g style="fill:#000000; fill-opacity:0.0; 
stroke:#000000; stroke-width:39.3701; stroke-opacity:1; 
stroke-linecap:round; stroke-linejoin:round;">
</g>
<g style="fill:#000000; fill-opacity:0.0; 
stroke:#000000; stroke-width:59.0551; stroke-opacity:1; 
stroke-linecap:round; stroke-linejoin:round;">
<path d="M3937 23622
L4724 23622
" />
</g>
<g style="fill:#000000; fill-opacity:0.0; 
stroke:#000000; stroke-width:39.3701; stroke-opacity:1; 
stroke-linecap:round; stroke-linejoin:round;">
</g>
<g style="fill:#000000; fill-opacity:0.0; 
stroke:#000000; stroke-width:59.0551; stroke-opacity:1; 
stroke-linecap:round; stroke-linejoin:round;">
<path d="M3937 43307
L4724 43307
" />
</g>
<g style="fill:#000000; fill-opacity:0.0; 
stroke:#000000; stroke-width:39.3701; stroke-opacity:1; 
stroke-linecap:round; stroke-linejoin:round;">
</g>
<g style="fill:#000000; fill-opacity:0.0; 
stroke:#000000; stroke-width:59.0551; stroke-opacity:1; 
stroke-linecap:round; stroke-linejoin:round;">
<path d="M3937 62992
L4724 62992
" />
</g>
<g style="fill:#000000; fill-opacity:0.0; 
stroke:#000000; stroke-width:39.3701; stroke-opacity:1; 
stroke-linecap:round; stroke-linejoin:round;">
</g>
<g style="fill:#000000; fill-opacity:0.0; 
stroke:#000000; stroke-width:59.0551; stroke-opacity:1; 
stroke-linecap:round; stroke-linejoin:round;">
<text x="4330.71" y="14035.4"
textLength="497.75" font-size="682.415" lengthAdjust="spacingAndGlyphs"
text-anchor="middle" opacity="0">A</text>
<path d="M4208 13864
L4452 13864
" />
<path d="M4160 14011
L4330 13499
L4501 14011
" />
</g>
<g style="fill:#000000; fill-opacity:0.0; 
stroke:#000000; stroke-width:39.3701; stroke-opacity:1; 
stroke-linecap:round; stroke-linejoin:round;">
</g>
<g style="fill:#000000; fill-opacity:0.0; 
stroke:#000000; stroke-width:59.0551; stroke-opacity:1; 
stroke-linecap:round; stroke-linejoin:round;">
<text x="4330.71" y="33720.5"
textLength="570.866" font-size="682.415" lengthAdjust="spacingAndGlyphs"
text-anchor="middle" opacity="0">B</text>
<path d="M4367 33428
L4440 33452
L4464 33476
L4489 33525
L4489 33598
L4464 33647
L4440 33671
L4391 33696
L4196 33696
L4196 33184
L4367 33184
L4416 33208
L4440 33233
L4464 33281
L4464 33330
L4440 33379
L4416 33403
L4367 33428
L4196 33428
" />
</g>
<g style="fill:#000000; fill-opacity:0.0; 
stroke:#000000; stroke-width:39.3701; stroke-opacity:1; 
stroke-linecap:round; stroke-linejoin:round;">
</g>
<g style="fill:#000000; fill-opacity:0.0; 
stroke:#000000; stroke-width:59.0551; stroke-opacity:1; 
stroke-linecap:round; stroke-linejoin:round;">
<text x="4330.71" y="53405.5"
textLength="570.866" font-size="682.415" lengthAdjust="spacingAndGlyphs"
text-anchor="middle" opacity="0">C</text>
<path d="M4489 53332
L4464 53356
L4391 53381
L4342 53381
L4269 53356
L4221 53308
L4196 53259
L4172 53161
L4172 53088
L4196 52991
L4221 52942
L4269 52893
L4342 52869
L4391 52869
L4464 52893
L4489 52918
" />
</g>
<g style="fill:#000000; fill-opacity:0.0; 
stroke:#000000; stroke-width:39.3701; stroke-opacity:1; 
stroke-linecap:round; stroke-linejoin:round;">
</g>
<g style="fill:#000000; fill-opacity:0.0; 
stroke:#000000; stroke-width:59.0551; stroke-opacity:1; 
stroke-linecap:round; stroke-linejoin:round;">
<text x="4330.71" y="73090.6"
textLength="570.866" font-size="682.415" lengthAdjust="spacingAndGlyphs"
text-anchor="middle" opacity="0">D</text>
<path d="M4196 73066
L4196 72554
L4318 72554
L4391 72578
L4440 72627
L4464 72676
L4489 72773
L4489 72846
L4464 72944
L4440 72993
L4391 73041
L4318 73066
L4196 73066
" />
</g>
<g style="fill:#000000; fill-opacity:0.0; 
stroke:#000000; stroke-width:39.3701; stroke-opacity:1; 
stroke-linecap:round; stroke-linejoin:round;">
</g>
<g style="fill:#000000; fill-opacity:0.0; 
stroke:#000000; stroke-width:59.0551; stroke-opacity:1; 
stroke-linecap:round; stroke-linejoin:round;">
<path d="M106062 23622
L105275 23622
" />
</g>
<g style="fill:#000000; fill-opacity:0.0; 
stroke:#000000; stroke-width:39.3701; stroke-opacity:1; 
stroke-linecap:round; stroke-linejoin:round;">
</g>
<g style="fill:#000000; fill-opacity:0.0; 
stroke:#000000; stroke-width:59.0551; stroke-opacity:1; 
stroke-linecap:round; stroke-linejoin:round;">
<path d="M106062 43307
L105275 43307
" />
</g>
<g style="fill:#000000; fill-opacity:0.0; 
stroke:#000000; stroke-width:39.3701; stroke-opacity:1; 
stroke-linecap:round; stroke-linejoin:round;">
</g>
<g style="fill:#000000; fill-opacity:0.0; 
stroke:#000000; stroke-width:59.0551; stroke-opacity:1; 
stroke-linecap:round; stroke-linejoin:round;">
<path d="M106062 62992
L105275 62992
" />
</g>
<g style="fill:#000000; fill-opacity:0.0; 
stroke:#000000; stroke-width:39.3701; stroke-opacity:1; 
stroke-linecap:round; stroke-linejoin:round;">
</g>
<g style="fill:#000000; fill-opacity:0.0; 
stroke:#000000; stroke-width:59.0551; stroke-opacity:1; 
stroke-linecap:round; stroke-linejoin:round;">
<text x="105669" y="14035.4"
textLength="497.75" font-size="682.415" lengthAdjust="spacingAndGlyphs"
text-anchor="middle" opacity="0">A</text>
<path d="M105547 13864
L105791 13864
" />
<path d="M105498 14011
L105669 13499
L105839 14011
" />
</g>
<g style="fill:#000000; fill-opacity:0.0; 
stroke:#000000; stroke-width:39.3701; stroke-opacity:1; 
stroke-linecap:round; stroke-linejoin:round;">
</g>
<g style="fill:#000000; fill-opacity:0.0; 
stroke:#000000; stroke-width:59.0551; stroke-opacity:1; 
stroke-linecap:round; stroke-linejoin:round;">
<text x="105669" y="33720.5"
textLength="570.866" font-size="682.415" lengthAdjust="spacingAndGlyphs"
text-anchor="middle" opacity="0">B</text>
<path d="M105705 33428
L105778 33452
L105803 33476
L105827 33525
L105827 33598
L105803 33647
L105778 33671
L105730 33696
L105535 33696
L105535 33184
L105705 33184
L105754 33208
L105778 33233
L105803 33281
L105803 33330
L105778 33379
L105754 33403
L105705 33428
L105535 33428
" />
</g>
<g style="fill:#000000; fill-opacity:0.0; 
stroke:#000000; stroke-width:39.3701; stroke-opacity:1; 
stroke-linecap:round; stroke-linejoin:round;">
</g>
<g style="fill:#000000; fill-opacity:0.0; 
stroke:#000000; stroke-width:59.0551; stroke-opacity:1; 
stroke-linecap:round; stroke-linejoin:round;">
<text x="105669" y="53405.5"
textLength="570.866" font-size="682.415" lengthAdjust="spacingAndGlyphs"
text-anchor="middle" opacity="0">C</text>
<path d="M105827 53332
L105803 53356
L105730 53381
L105681 53381
L105608 53356
L105559 53308
L105535 53259
L105510 53161
L105510 53088
L105535 52991
L105559 52942
L105608 52893
L105681 52869
L105730 52869
L105803 52893
L105827 52918
" />
</g>
<g style="fill:#000000; fill-opacity:0.0; 
stroke:#000000; stroke-width:39.3701; stroke-opacity:1; 
stroke-linecap:round; stroke-linejoin:round;">
</g>
<g style="fill:#000000; fill-opacity:0.0; 
stroke:#000000; stroke-width:59.0551; stroke-opacity:1; 
stroke-linecap:round; stroke-linejoin:round;">
<text x="105669" y="73090.6"
textLength="570.866" font-size="682.415" lengthAdjust="spacingAndGlyphs"
text-anchor="middle" opacity="0">D</text>
<path d="M105535 73066
L105535 72554
L105657 72554
L105730 72578
L105778 72627
L105803 72676
L105827 72773
L105827 72846
L105803 72944
L105778 72993
L105730 73041
L105657 73066
L105535 73066
" />
</g>
<g style="fill:#000000; fill-opacity:0.0; 
stroke:#000000; stroke-width:39.3701; stroke-opacity:1; 
stroke-linecap:round; stroke-linejoin:round;">
</g>
<g style="fill:#000000; fill-opacity:0.0; 
stroke:#000000; stroke-width:59.0551; stroke-opacity:1; 
stroke-linecap:round; stroke-linejoin:round;">
<text x="71811" y="78641.7"
textLength="2758.72" font-size="787.402" lengthAdjust="spacingAndGlyphs"
text-anchor="start" opacity="0">Date: </text>
<path d="M71981 78613
L71981 78023
L72121 78023
L72206 78051
L72262 78107
L72290 78163
L72318 78276
L72318 78360
L72290 78473
L72262 78529
L72206 78585
L72121 78613
L71981 78613
" />
<path d="M72824 78613
L72824 78304
L72796 78248
L72740 78219
L72627 78219
L72571 78248
" />
<path d="M72824 78585
L72768 78613
L72627 78613
L72571 78585
L72543 78529
L72543 78473
L72571 78416
L72627 78388
L72768 78388
L72824 78360
" />
<path d="M73021 78219
L73246 78219
" />
<path d="M73106 78023
L73106 78529
L73134 78585
L73190 78613
L73246 78613
" />
<path d="M73668 78585
L73612 78613
L73499 78613
L73443 78585
L73415 78529
L73415 78304
L73443 78248
L73499 78219
L73612 78219
L73668 78248
L73696 78304
L73696 78360
L73415 78416
" />
<path d="M73949 78557
L73977 78585
L73949 78613
L73921 78585
L73949 78557
L73949 78613
" />
<path d="M73949 78248
L73977 78276
L73949 78304
L73921 78276
L73949 78248
L73949 78304
" />
</g>
<g style="fill:#000000; fill-opacity:0.0; 
stroke:#000000; stroke-width:39.3701; stroke-opacity:1; 
stroke-linecap:round; stroke-linejoin:round;">
</g>
<g style="fill:#000000; fill-opacity:0.0; 
stroke:#000000; stroke-width:59.0551; stroke-opacity:1; 
stroke-linecap:round; stroke-linejoin:round;">
<path d="M62755 78897
L105275 78897
" />
</g>
<g style="fill:#000000; fill-opacity:0.0; 
stroke:#000000; stroke-width:39.3701; stroke-opacity:1; 
stroke-linecap:round; stroke-linejoin:round;">
</g>
<g style="fill:#000000; fill-opacity:0.0; 
stroke:#000000; stroke-width:59.0551; stroke-opacity:1; 
stroke-linecap:round; stroke-linejoin:round;">
<text x="63149.6" y="79744.1"
textLength="14429.1" font-size="787.402" lengthAdjust="spacingAndGlyphs"
text-anchor="start" opacity="0">KiCad E.D.A.  pcbnew (5.1.5)-3</text>
<path d="M63319 79715
L63319 79125
" />
<path d="M63657 79715
L63404 79378
" />
<path d="M63657 79125
L63319 79462
" />
<path d="M63910 79715
L63910 79322
" />
<path d="M63910 79125
L63882 79153
L63910 79181
L63938 79153
L63910 79125
L63910 79181
" />
<path d="M64528 79659
L64500 79687
L64416 79715
L64360 79715
L64275 79687
L64219 79631
L64191 79575
L64163 79462
L64163 79378
L64191 79266
L64219 79209
L64275 79153
L64360 79125
L64416 79125
L64500 79153
L64528 79181
" />
<path d="M65035 79715
L65035 79406
L65007 79350
L64950 79322
L64838 79322
L64782 79350
" />
<path d="M65035 79687
L64978 79715
L64838 79715
L64782 79687
L64753 79631
L64753 79575
L64782 79519
L64838 79491
L64978 79491
L65035 79462
" />
<path d="M65569 79715
L65569 79125
" />
<path d="M65569 79687
L65513 79715
L65400 79715
L65344 79687
L65316 79659
L65288 79603
L65288 79434
L65316 79378
L65344 79350
L65400 79322
L65513 79322
L65569 79350
" />
<path d="M66300 79406
L66497 79406
" />
<path d="M66581 79715
L66300 79715
L66300 79125
L66581 79125
" />
<path d="M66834 79659
L66863 79687
L66834 79715
L66806 79687
L66834 79659
L66834 79715
" />
<path d="M67116 79715
L67116 79125
L67256 79125
L67341 79153
L67397 79209
L67425 79266
L67453 79378
L67453 79462
L67425 79575
L67397 79631
L67341 79687
L67256 79715
L67116 79715
" />
<path d="M67706 79659
L67734 79687
L67706 79715
L67678 79687
L67706 79659
L67706 79715
" />
<path d="M67959 79547
L68241 79547
" />
<path d="M67903 79715
L68100 79125
L68297 79715
" />
<path d="M68494 79659
L68522 79687
L68494 79715
L68465 79687
L68494 79659
L68494 79715
" />
<path d="M69675 79322
L69675 79912
" />
<path d="M69675 79350
L69731 79322
L69843 79322
L69900 79350
L69928 79378
L69956 79434
L69956 79603
L69928 79659
L69900 79687
L69843 79715
L69731 79715
L69675 79687
" />
<path d="M70462 79687
L70406 79715
L70293 79715
L70237 79687
L70209 79659
L70181 79603
L70181 79434
L70209 79378
L70237 79350
L70293 79322
L70406 79322
L70462 79350
" />
<path d="M70715 79715
L70715 79125
" />
<path d="M70715 79350
L70771 79322
L70884 79322
L70940 79350
L70968 79378
L70996 79434
L70996 79603
L70968 79659
L70940 79687
L70884 79715
L70771 79715
L70715 79687
" />
<path d="M71250 79322
L71250 79715
" />
<path d="M71250 79378
L71278 79350
L71334 79322
L71418 79322
L71474 79350
L71503 79406
L71503 79715
" />
<path d="M72009 79687
L71953 79715
L71840 79715
L71784 79687
L71756 79631
L71756 79406
L71784 79350
L71840 79322
L71953 79322
L72009 79350
L72037 79406
L72037 79462
L71756 79519
" />
<path d="M72234 79322
L72346 79715
L72459 79434
L72571 79715
L72684 79322
" />
<path d="M73527 79940
L73499 79912
L73443 79828
L73415 79772
L73387 79687
L73359 79547
L73359 79434
L73387 79294
L73415 79209
L73443 79153
L73499 79069
L73527 79041
" />
<path d="M74034 79125
L73752 79125
L73724 79406
L73752 79378
L73809 79350
L73949 79350
L74005 79378
L74034 79406
L74062 79462
L74062 79603
L74034 79659
L74005 79687
L73949 79715
L73809 79715
L73752 79687
L73724 79659
" />
<path d="M74315 79659
L74343 79687
L74315 79715
L74287 79687
L74315 79659
L74315 79715
" />
<path d="M74905 79715
L74568 79715
" />
<path d="M74737 79715
L74737 79125
L74680 79209
L74624 79266
L74568 79294
" />
<path d="M75158 79659
L75187 79687
L75158 79715
L75130 79687
L75158 79659
L75158 79715
" />
<path d="M75721 79125
L75440 79125
L75411 79406
L75440 79378
L75496 79350
L75636 79350
L75693 79378
L75721 79406
L75749 79462
L75749 79603
L75721 79659
L75693 79687
L75636 79715
L75496 79715
L75440 79687
L75411 79659
" />
<path d="M75946 79940
L75974 79912
L76030 79828
L76058 79772
L76086 79687
L76115 79547
L76115 79434
L76086 79294
L76058 79209
L76030 79153
L75974 79069
L75946 79041
" />
<path d="M76396 79491
L76846 79491
" />
<path d="M77071 79125
L77436 79125
L77239 79350
L77324 79350
L77380 79378
L77408 79406
L77436 79462
L77436 79603
L77408 79659
L77380 79687
L77324 79715
L77155 79715
L77099 79687
L77071 79659
" />
</g>
<g style="fill:#000000; fill-opacity:0.0; 
stroke:#000000; stroke-width:39.3701; stroke-opacity:1; 
stroke-linecap:round; stroke-linejoin:round;">
</g>
<g style="fill:#000000; fill-opacity:0.0; 
stroke:#000000; stroke-width:59.0551; stroke-opacity:1; 
stroke-linecap:round; stroke-linejoin:round;">
<path d="M62755 77716
L105275 77716
" />
</g>
<g style="fill:#000000; fill-opacity:0.0; 
stroke:#000000; stroke-width:39.3701; stroke-opacity:1; 
stroke-linecap:round; stroke-linejoin:round;">
</g>
<g style="fill:#000000; fill-opacity:0.0; 
stroke:#000000; stroke-width:118.11; stroke-opacity:1; 
stroke-linecap:round; stroke-linejoin:round;">
<text x="96614.2" y="78641.7"
textLength="2899.33" font-size="787.402" lengthAdjust="spacingAndGlyphs"
text-anchor="start" opacity="0">Rev: 1</text>
<path d="M97169 78613
L96972 78332
" />
<path d="M96831 78613
L96831 78023
L97056 78023
L97112 78051
L97140 78079
L97169 78135
L97169 78219
L97140 78276
L97112 78304
L97056 78332
L96831 78332
" />
<path d="M97647 78585
L97590 78613
L97478 78613
L97422 78585
L97393 78529
L97393 78304
L97422 78248
L97478 78219
L97590 78219
L97647 78248
L97675 78304
L97675 78360
L97393 78416
" />
<path d="M97872 78219
L98012 78613
L98153 78219
" />
<path d="M98378 78557
L98406 78585
L98378 78613
L98350 78585
L98378 78557
L98378 78613
" />
<path d="M98378 78248
L98406 78276
L98378 78304
L98350 78276
L98378 78248
L98378 78304
" />
<path d="M99418 78613
L99081 78613
" />
<path d="M99250 78613
L99250 78023
L99193 78107
L99137 78163
L99081 78191
" />
</g>
<g style="fill:#000000; fill-opacity:0.0; 
stroke:#000000; stroke-width:39.3701; stroke-opacity:1; 
stroke-linecap:round; stroke-linejoin:round;">
</g>
<g style="fill:#000000; fill-opacity:0.0; 
stroke:#000000; stroke-width:59.0551; stroke-opacity:1; 
stroke-linecap:round; stroke-linejoin:round;">
<text x="63149.6" y="78641.7"
textLength="6424.63" font-size="787.402" lengthAdjust="spacingAndGlyphs"
text-anchor="start" opacity="0">Size: USLetter</text>
<path d="M63291 78585
L63375 78613
L63516 78613
L63572 78585
L63600 78557
L63629 78501
L63629 78444
L63600 78388
L63572 78360
L63516 78332
L63404 78304
L63347 78276
L63319 78248
L63291 78191
L63291 78135
L63319 78079
L63347 78051
L63404 78023
L63544 78023
L63629 78051
" />
<path d="M63882 78613
L63882 78219
" />
<path d="M63882 78023
L63854 78051
L63882 78079
L63910 78051
L63882 78023
L63882 78079
" />
<path d="M64107 78219
L64416 78219
L64107 78613
L64416 78613
" />
<path d="M64866 78585
L64810 78613
L64697 78613
L64641 78585
L64613 78529
L64613 78304
L64641 78248
L64697 78219
L64810 78219
L64866 78248
L64894 78304
L64894 78360
L64613 78416
" />
<path d="M65147 78557
L65175 78585
L65147 78613
L65119 78585
L65147 78557
L65147 78613
" />
<path d="M65147 78248
L65175 78276
L65147 78304
L65119 78276
L65147 78248
L65147 78304
" />
<path d="M65878 78023
L65878 78501
L65906 78557
L65935 78585
L65991 78613
L66103 78613
L66160 78585
L66188 78557
L66216 78501
L66216 78023
" />
<path d="M66469 78585
L66553 78613
L66694 78613
L66750 78585
L66778 78557
L66806 78501
L66806 78444
L66778 78388
L66750 78360
L66694 78332
L66581 78304
L66525 78276
L66497 78248
L66469 78191
L66469 78135
L66497 78079
L66525 78051
L66581 78023
L66722 78023
L66806 78051
" />
<path d="M67341 78613
L67059 78613
L67059 78023
" />
<path d="M67762 78585
L67706 78613
L67594 78613
L67537 78585
L67509 78529
L67509 78304
L67537 78248
L67594 78219
L67706 78219
L67762 78248
L67791 78304
L67791 78360
L67509 78416
" />
<path d="M67959 78219
L68184 78219
" />
<path d="M68044 78023
L68044 78529
L68072 78585
L68128 78613
L68184 78613
" />
<path d="M68297 78219
L68522 78219
" />
<path d="M68381 78023
L68381 78529
L68409 78585
L68465 78613
L68522 78613
" />
<path d="M68944 78585
L68887 78613
L68775 78613
L68719 78585
L68690 78529
L68690 78304
L68719 78248
L68775 78219
L68887 78219
L68944 78248
L68972 78304
L68972 78360
L68690 78416
" />
<path d="M69225 78613
L69225 78219
" />
<path d="M69225 78332
L69253 78276
L69281 78248
L69337 78219
L69393 78219
" />
</g>
<g style="fill:#000000; fill-opacity:0.0; 
stroke:#000000; stroke-width:39.3701; stroke-opacity:1; 
stroke-linecap:round; stroke-linejoin:round;">
</g>
<g style="fill:#000000; fill-opacity:0.0; 
stroke:#000000; stroke-width:59.0551; stroke-opacity:1; 
stroke-linecap:round; stroke-linejoin:round;">
<text x="96614.2" y="79744.1"
textLength="3349.27" font-size="787.402" lengthAdjust="spacingAndGlyphs"
text-anchor="start" opacity="0">Id: 1/1</text>
<path d="M96784 79715
L96784 79125
" />
<path d="M97318 79715
L97318 79125
" />
<path d="M97318 79687
L97262 79715
L97149 79715
L97093 79687
L97065 79659
L97037 79603
L97037 79434
L97065 79378
L97093 79350
L97149 79322
L97262 79322
L97318 79350
" />
<path d="M97599 79659
L97627 79687
L97599 79715
L97571 79687
L97599 79659
L97599 79715
" />
<path d="M97599 79350
L97627 79378
L97599 79406
L97571 79378
L97599 79350
L97599 79406
" />
<path d="M98640 79715
L98302 79715
" />
<path d="M98471 79715
L98471 79125
L98415 79209
L98359 79266
L98302 79294
" />
<path d="M99315 79097
L98809 79856
" />
<path d="M99821 79715
L99483 79715
" />
<path d="M99652 79715
L99652 79125
L99596 79209
L99540 79266
L99483 79294
" />
</g>
<g style="fill:#000000; fill-opacity:0.0; 
stroke:#000000; stroke-width:39.3701; stroke-opacity:1; 
stroke-linecap:round; stroke-linejoin:round;">
</g>
<g style="fill:#000000; fill-opacity:0.0; 
stroke:#000000; stroke-width:59.0551; stroke-opacity:1; 
stroke-linecap:round; stroke-linejoin:round;">
<path d="M62755 76141
L105275 76141
" />
</g>
<g style="fill:#000000; fill-opacity:0.0; 
stroke:#000000; stroke-width:39.3701; stroke-opacity:1; 
stroke-linecap:round; stroke-linejoin:round;">
</g>
<g style="fill:#000000; fill-opacity:0.0; 
stroke:#000000; stroke-width:157.48; stroke-opacity:1; 
stroke-linecap:round; stroke-linejoin:round;">
<text x="63149.6" y="77244.1"
textLength="3701.14" font-size="1049.87" lengthAdjust="spacingAndGlyphs"
text-anchor="start" opacity="0">Title: </text>
<path d="M63430 76419
L63880 76419
" />
<path d="M63556 77206
L63655 76419
" />
<path d="M64044 77206
L64109 76681
" />
<path d="M64142 76419
L64100 76456
L64133 76494
L64175 76456
L64142 76419
L64133 76494
" />
<path d="M64372 76681
L64672 76681
" />
<path d="M64517 76419
L64433 77094
L64461 77169
L64531 77206
L64606 77206
" />
<path d="M64981 77206
L64911 77169
L64883 77094
L64967 76419
" />
<path d="M65586 77169
L65506 77206
L65356 77206
L65286 77169
L65257 77094
L65295 76794
L65342 76719
L65422 76681
L65571 76681
L65642 76719
L65670 76794
L65661 76869
L65276 76944
" />
<path d="M65965 77131
L65998 77169
L65956 77206
L65923 77169
L65965 77131
L65956 77206
" />
<path d="M66017 76719
L66050 76756
L66007 76794
L65975 76756
L66017 76719
L66007 76794
" />
</g>
<g style="fill:#000000; fill-opacity:0.0; 
stroke:#000000; stroke-width:39.3701; stroke-opacity:1; 
stroke-linecap:round; stroke-linejoin:round;">
</g>
<g style="fill:#000000; fill-opacity:0.0; 
stroke:#000000; stroke-width:59.0551; stroke-opacity:1; 
stroke-linecap:round; stroke-linejoin:round;">
<text x="63149.6" y="75728.3"
textLength="9259.84" font-size="787.402" lengthAdjust="spacingAndGlyphs"
text-anchor="start" opacity="0">File: seg2.kicad_pcb</text>
<path d="M63516 75390
L63319 75390
" />
<path d="M63319 75700
L63319 75109
L63600 75109
" />
<path d="M63825 75700
L63825 75306
" />
<path d="M63825 75109
L63797 75137
L63825 75165
L63854 75137
L63825 75109
L63825 75165
" />
<path d="M64191 75700
L64135 75672
L64107 75615
L64107 75109
" />
<path d="M64641 75672
L64585 75700
L64472 75700
L64416 75672
L64388 75615
L64388 75390
L64416 75334
L64472 75306
L64585 75306
L64641 75334
L64669 75390
L64669 75447
L64388 75503
" />
<path d="M64922 75643
L64950 75672
L64922 75700
L64894 75672
L64922 75643
L64922 75700
" />
<path d="M64922 75334
L64950 75362
L64922 75390
L64894 75362
L64922 75334
L64922 75390
" />
<path d="M65625 75672
L65681 75700
L65794 75700
L65850 75672
L65878 75615
L65878 75587
L65850 75531
L65794 75503
L65710 75503
L65653 75475
L65625 75419
L65625 75390
L65653 75334
L65710 75306
L65794 75306
L65850 75334
" />
<path d="M66356 75672
L66300 75700
L66188 75700
L66131 75672
L66103 75615
L66103 75390
L66131 75334
L66188 75306
L66300 75306
L66356 75334
L66384 75390
L66384 75447
L66103 75503
" />
<path d="M66891 75306
L66891 75784
L66863 75840
L66834 75868
L66778 75897
L66694 75897
L66638 75868
" />
<path d="M66891 75672
L66834 75700
L66722 75700
L66666 75672
L66638 75643
L66609 75587
L66609 75419
L66638 75362
L66666 75334
L66722 75306
L66834 75306
L66891 75334
" />
<path d="M67144 75165
L67172 75137
L67228 75109
L67369 75109
L67425 75137
L67453 75165
L67481 75222
L67481 75278
L67453 75362
L67116 75700
L67481 75700
" />
<path d="M67734 75643
L67762 75672
L67734 75700
L67706 75672
L67734 75643
L67734 75700
" />
<path d="M68016 75700
L68016 75109
" />
<path d="M68072 75475
L68241 75700
" />
<path d="M68241 75306
L68016 75531
" />
<path d="M68494 75700
L68494 75306
" />
<path d="M68494 75109
L68465 75137
L68494 75165
L68522 75137
L68494 75109
L68494 75165
" />
<path d="M69028 75672
L68972 75700
L68859 75700
L68803 75672
L68775 75643
L68747 75587
L68747 75419
L68775 75362
L68803 75334
L68859 75306
L68972 75306
L69028 75334
" />
<path d="M69534 75700
L69534 75390
L69506 75334
L69450 75306
L69337 75306
L69281 75334
" />
<path d="M69534 75672
L69478 75700
L69337 75700
L69281 75672
L69253 75615
L69253 75559
L69281 75503
L69337 75475
L69478 75475
L69534 75447
" />
<path d="M70068 75700
L70068 75109
" />
<path d="M70068 75672
L70012 75700
L69900 75700
L69843 75672
L69815 75643
L69787 75587
L69787 75419
L69815 75362
L69843 75334
L69900 75306
L70012 75306
L70068 75334
" />
<path d="M70209 75756
L70659 75756
" />
<path d="M70800 75306
L70800 75897
" />
<path d="M70800 75334
L70856 75306
L70968 75306
L71025 75334
L71053 75362
L71081 75419
L71081 75587
L71053 75643
L71025 75672
L70968 75700
L70856 75700
L70800 75672
" />
<path d="M71587 75672
L71531 75700
L71418 75700
L71362 75672
L71334 75643
L71306 75587
L71306 75419
L71334 75362
L71362 75334
L71418 75306
L71531 75306
L71587 75334
" />
<path d="M71840 75700
L71840 75109
" />
<path d="M71840 75334
L71896 75306
L72009 75306
L72065 75334
L72093 75362
L72121 75419
L72121 75587
L72093 75643
L72065 75672
L72009 75700
L71896 75700
L71840 75672
" />
</g>
<g style="fill:#000000; fill-opacity:0.0; 
stroke:#000000; stroke-width:39.3701; stroke-opacity:1; 
stroke-linecap:round; stroke-linejoin:round;">
</g>
<g style="fill:#000000; fill-opacity:0.0; 
stroke:#000000; stroke-width:59.0551; stroke-opacity:1; 
stroke-linecap:round; stroke-linejoin:round;">
<path d="M62755 73779
L105275 73779
" />
</g>
<g style="fill:#000000; fill-opacity:0.0; 
stroke:#000000; stroke-width:39.3701; stroke-opacity:1; 
stroke-linecap:round; stroke-linejoin:round;">
</g>
<g style="fill:#000000; fill-opacity:0.0; 
stroke:#000000; stroke-width:59.0551; stroke-opacity:1; 
stroke-linecap:round; stroke-linejoin:round;">
<text x="63149.6" y="74665.4"
textLength="3236.78" font-size="787.402" lengthAdjust="spacingAndGlyphs"
text-anchor="start" opacity="0">Sheet: </text>
<path d="M63291 74609
L63375 74637
L63516 74637
L63572 74609
L63600 74580
L63629 74524
L63629 74468
L63600 74412
L63572 74384
L63516 74356
L63404 74327
L63347 74299
L63319 74271
L63291 74215
L63291 74159
L63319 74102
L63347 74074
L63404 74046
L63544 74046
L63629 74074
" />
<path d="M63882 74637
L63882 74046
" />
<path d="M64135 74637
L64135 74327
L64107 74271
L64050 74243
L63966 74243
L63910 74271
L63882 74299
" />
<path d="M64641 74609
L64585 74637
L64472 74637
L64416 74609
L64388 74552
L64388 74327
L64416 74271
L64472 74243
L64585 74243
L64641 74271
L64669 74327
L64669 74384
L64388 74440
" />
<path d="M65147 74609
L65091 74637
L64978 74637
L64922 74609
L64894 74552
L64894 74327
L64922 74271
L64978 74243
L65091 74243
L65147 74271
L65175 74327
L65175 74384
L64894 74440
" />
<path d="M65344 74243
L65569 74243
" />
<path d="M65428 74046
L65428 74552
L65456 74609
L65513 74637
L65569 74637
" />
<path d="M65766 74580
L65794 74609
L65766 74637
L65738 74609
L65766 74580
L65766 74637
" />
<path d="M65766 74271
L65794 74299
L65766 74327
L65738 74299
L65766 74271
L65766 74327
" />
</g>
<g style="fill:#000000; fill-opacity:0.0; 
stroke:#000000; stroke-width:39.3701; stroke-opacity:1; 
stroke-linecap:round; stroke-linejoin:round;">
</g>
<g style="fill:#000000; fill-opacity:0.0; 
stroke:#000000; stroke-width:59.0551; stroke-opacity:1; 
stroke-linecap:round; stroke-linejoin:round;">
<path d="M70629 77716
L70629 78897
" />
</g>
<g style="fill:#000000; fill-opacity:0.0; 
stroke:#000000; stroke-width:39.3701; stroke-opacity:1; 
stroke-linecap:round; stroke-linejoin:round;">
</g>
<g style="fill:#000000; fill-opacity:0.0; 
stroke:#000000; stroke-width:59.0551; stroke-opacity:1; 
stroke-linecap:round; stroke-linejoin:round;">
<path d="M95826 77716
L95826 80275
" />
</g>
<g style="fill:#848484; fill-opacity:0.0; 
stroke:#848484; stroke-width:59.0551; stroke-opacity:1; 
stroke-linecap:round; stroke-linejoin:round;">
</g>
<g style="fill:#848484; fill-opacity:0.0; 
stroke:#848484; stroke-width:19.685; stroke-opacity:1; 
stroke-linecap:round; stroke-linejoin:round;">
<path d="M57165 36476
L53464 36476
" />
<path d="M57165 33129
L57165 36476
" />
<path d="M53464 33129
L57165 33129
" />
<path d="M53464 36476
L53464 33129
" />
<g >
</g>
<g >
</g>
</g>
<g style="fill:#000000; fill-opacity:0.0; 
stroke:#000000; stroke-width:19.685; stroke-opacity:1; 
stroke-linecap:round; stroke-linejoin:round;">
</g>
<g style="fill:#840084; fill-opacity:0.0; 
stroke:#840084; stroke-width:19.685; stroke-opacity:1; 
stroke-linecap:round; stroke-linejoin:round;">
</g>
<g style="fill:#840084; fill-opacity:0.0; 
stroke:#840084; stroke-width:78.7402; stroke-opacity:1; 
stroke-linecap:round; stroke-linejoin:round;">
<path d="M49471 29448
L48383 30110
" />
<path d="M48412 31382
L49528 31994
" />
<path d="M62032 29448
L63120 30110
" />
<path d="M48383 30110
L48412 31382
" />
<path d="M50587 30060
L49471 29448
" />
<path d="M50616 31332
L50587 30060
" />
<path d="M49528 31994
L50616 31332
" />
<path d="M60915 30060
L62032 29448
" />
<path d="M61974 31994
L60887 31332
" />
<path d="M60887 31332
L60915 30060
" />
<path d="M63091 31382
L61974 31994
" />
<path d="M63120 30110
L63091 31382
" />
</g>
<g style="fill:#840084; fill-opacity:0.0; 
stroke:#840084; stroke-width:47.2441; stroke-opacity:1; 
stroke-linecap:round; stroke-linejoin:round;">
<path d="M56923 36322
L56923 35988
" />
<path d="M53706 36322
L56923 36322
" />
<path d="M53706 35988
L53706 36322
" />
<path d="M56923 34267
L56007 34267
" />
<path d="M56923 34602
L56923 34267
" />
<path d="M54622 34267
L54622 33326
" />
<path d="M53706 34267
L54622 34267
" />
<path d="M53706 34602
L53706 34267
" />
</g>
<g style="fill:#840084; fill-opacity:0.0; 
stroke:#840084; stroke-width:59.0551; stroke-opacity:1; 
stroke-linecap:round; stroke-linejoin:round;">
<text x="55315" y="36948.8"
textLength="-615.861" font-size="-524.934" lengthAdjust="spacingAndGlyphs"
text-anchor="middle" opacity="0">J1</text>
<path d="M55446 36536
L55446 36817
L55464 36873
L55502 36911
L55558 36930
L55596 36930
" />
<path d="M55052 36930
L55277 36930
" />
<path d="M55164 36930
L55164 36536
L55202 36592
L55239 36630
L55277 36648
" />
<g >
</g>
</g>
<g style="fill:#000000; fill-opacity:0.0; 
stroke:#000000; stroke-width:59.0551; stroke-opacity:1; 
stroke-linecap:round; stroke-linejoin:round;">
</g>
<g style="fill:#C2C200; fill-opacity:0.0; 
stroke:#C2C200; stroke-width:59.0551; stroke-opacity:1; 
stroke-linecap:round; stroke-linejoin:round;">
</g>
<g style="fill:#C2C200; fill-opacity:0.0; 
stroke:#C2C200; stroke-width:78.7402; stroke-opacity:1; 
stroke-linecap:round; stroke-linejoin:round;">
<path d="M65940 30709
L65880 30660
" />
<path d="M65880 30660
L65822 30612
" />
<path d="M65822 30612
L65778 30577
" />
<path d="M65778 30577
L65734 30541
" />
<path d="M65734 30541
L65690 30505
" />
<path d="M65690 30505
L65645 30469
" />
<path d="M65645 30469
L65601 30433
" />
<path d="M65601 30433
L65552 30394
" />
<path d="M65552 30394
L65508 30359
" />
<path d="M65508 30359
L65463 30322
" />
<path d="M65463 30322
L65414 30284
" />
<path d="M65414 30284
L65370 30248
" />
<path d="M65370 30248
L65326 30213
" />
<path d="M65326 30213
L65280 30177
" />
<path d="M65280 30177
L65228 30136
" />
<path d="M65228 30136
L65181 30099
" />
<path d="M65181 30099
L65136 30064
" />
<path d="M65136 30064
L65091 30029
" />
<path d="M65091 30029
L65044 29993
" />
<path d="M65044 29993
L64998 29957
" />
<path d="M64998 29957
L64949 29921
" />
<path d="M64949 29921
L64904 29886
" />
<path d="M64904 29886
L64857 29851
" />
<path d="M64857 29851
L64809 29816
" />
<path d="M64809 29816
L64761 29780
" />
<path d="M64761 29780
L64710 29743
" />
<path d="M64710 29743
L64663 29708
" />
<path d="M64663 29708
L64617 29675
" />
<path d="M64617 29675
L64569 29641
" />
<path d="M64569 29641
L64521 29607
" />
<path d="M64521 29607
L64474 29574
" />
<path d="M64474 29574
L64424 29540
" />
<path d="M64424 29540
L64377 29507
" />
<path d="M64377 29507
L64327 29474
" />
<path d="M64327 29474
L64278 29441
" />
<path d="M64278 29441
L64229 29408
" />
<path d="M64229 29408
L64180 29376
" />
<path d="M64180 29376
L64131 29345
" />
<path d="M64131 29345
L64081 29313
" />
<path d="M64081 29313
L64032 29283
" />
<path d="M64032 29283
L63982 29252
" />
<path d="M63982 29252
L63932 29221
" />
<path d="M63932 29221
L63882 29191
" />
<path d="M63882 29191
L63831 29162
" />
<path d="M63831 29162
L63779 29131
" />
<path d="M63779 29131
L63727 29102
" />
<path d="M63727 29102
L63672 29071
" />
<path d="M63672 29071
L63620 29043
" />
<path d="M63620 29043
L63566 29014
" />
<path d="M63566 29014
L63513 28986
" />
<path d="M63513 28986
L63460 28959
" />
<path d="M63460 28959
L63408 28932
" />
<path d="M63408 28932
L63354 28906
" />
<path d="M63354 28906
L63300 28880
" />
<path d="M63300 28880
L63244 28854
" />
<path d="M63244 28854
L63188 28828
" />
<path d="M63188 28828
L63133 28804
" />
<path d="M63133 28804
L63076 28779
" />
<path d="M63076 28779
L63020 28756
" />
<path d="M63020 28756
L62994 28745
" />
<path d="M62994 28745
L62938 28722
" />
<path d="M62938 28722
L62880 28700
" />
<path d="M62880 28700
L62816 28676
" />
<path d="M62816 28676
L62757 28654
" />
<path d="M62757 28654
L62695 28632
" />
<path d="M62695 28632
L62635 28612
" />
<path d="M62635 28612
L62574 28592
" />
<path d="M62574 28592
L62514 28573
" />
<path d="M62514 28573
L62454 28554
" />
<path d="M62454 28554
L62390 28535
" />
<path d="M62390 28535
L62329 28517
" />
<path d="M62329 28517
L62262 28499
" />
<path d="M62262 28499
L62200 28482
" />
<path d="M62200 28482
L62136 28466
" />
<path d="M62136 28466
L62070 28449
" />
<path d="M62070 28449
L62005 28433
" />
<path d="M62005 28433
L61940 28418
" />
<path d="M61940 28418
L61874 28403
" />
<path d="M61874 28403
L61807 28389
" />
<path d="M61807 28389
L61741 28375
" />
<path d="M61741 28375
L61675 28362
" />
<path d="M61675 28362
L61605 28348
" />
<path d="M61605 28348
L61539 28336
" />
<path d="M61539 28336
L61471 28324
" />
<path d="M61471 28324
L61401 28312
" />
<path d="M61401 28312
L61331 28300
" />
<path d="M61331 28300
L61260 28289
" />
<path d="M61260 28289
L61191 28278
" />
<path d="M61191 28278
L61121 28268
" />
<path d="M61121 28268
L61050 28257
" />
<path d="M61050 28257
L60975 28247
" />
<path d="M60975 28247
L60904 28238
" />
<path d="M60904 28238
L60831 28228
" />
<path d="M60831 28228
L60759 28220
" />
<path d="M60759 28220
L60687 28211
" />
<path d="M60687 28211
L60616 28203
" />
<path d="M60616 28203
L60543 28195
" />
<path d="M60543 28195
L60463 28186
" />
<path d="M60463 28186
L60391 28179
" />
<path d="M60391 28179
L60319 28171
" />
<path d="M60319 28171
L60245 28164
" />
<path d="M60245 28164
L60173 28157
" />
<path d="M60173 28157
L60098 28150
" />
<path d="M60098 28150
L60026 28144
" />
<path d="M60026 28144
L59953 28137
" />
<path d="M59953 28137
L59880 28131
" />
<path d="M59880 28131
L59807 28125
" />
<path d="M59807 28125
L59734 28118
" />
<path d="M59734 28118
L59648 28111
" />
<path d="M59648 28111
L59566 28104
" />
<path d="M59566 28104
L59489 28098
" />
<path d="M59489 28098
L59394 28090
" />
<path d="M50330 28275
L50263 28289
" />
<path d="M50263 28289
L50194 28304
" />
<path d="M50194 28304
L50128 28319
" />
<path d="M50128 28319
L50063 28335
" />
<path d="M50063 28335
L49998 28351
" />
<path d="M49998 28351
L49934 28367
" />
<path d="M49934 28367
L49870 28384
" />
<path d="M49870 28384
L49806 28402
" />
<path d="M49806 28402
L49743 28420
" />
<path d="M49743 28420
L49682 28437
" />
<path d="M49682 28437
L49621 28455
" />
<path d="M49621 28455
L49558 28475
" />
<path d="M49558 28475
L49495 28494
" />
<path d="M49495 28494
L49435 28513
" />
<path d="M49435 28513
L49375 28532
" />
<path d="M49375 28532
L49315 28552
" />
<path d="M49315 28552
L49255 28572
" />
<path d="M49255 28572
L49196 28592
" />
<path d="M49196 28592
L49136 28612
" />
<path d="M49136 28612
L49077 28632
" />
<path d="M49077 28632
L49015 28654
" />
<path d="M49015 28654
L48954 28676
" />
<path d="M48954 28676
L48891 28698
" />
<path d="M48891 28698
L48828 28720
" />
<path d="M48828 28720
L48763 28743
" />
<path d="M48763 28743
L48701 28766
" />
<path d="M48701 28766
L48638 28789
" />
<path d="M48638 28789
L48571 28813
" />
<path d="M48571 28813
L48522 28830
" />
<path d="M45562 30766
L51425 40214
" />
<path d="M46872 29684
L46825 29716
" />
<path d="M46825 29716
L46776 29750
" />
<path d="M46776 29750
L46727 29784
" />
<path d="M46727 29784
L46680 29818
" />
<path d="M46680 29818
L46633 29852
" />
<path d="M46633 29852
L46586 29887
" />
<path d="M46586 29887
L46540 29922
" />
<path d="M46540 29922
L46493 29959
" />
<path d="M46493 29959
L46442 29999
" />
<path d="M46442 29999
L46398 30034
" />
<path d="M46398 30034
L46351 30072
" />
<path d="M46351 30072
L46307 30108
" />
<path d="M46307 30108
L46263 30144
" />
<path d="M46263 30144
L46218 30182
" />
<path d="M46218 30182
L46175 30218
" />
<path d="M46175 30218
L46132 30256
" />
<path d="M46132 30256
L46089 30293
" />
<path d="M46089 30293
L46042 30334
" />
<path d="M46042 30334
L45999 30371
" />
<path d="M45999 30371
L45957 30409
" />
<path d="M45957 30409
L45912 30448
" />
<path d="M45912 30448
L45870 30486
" />
<path d="M45870 30486
L45828 30524
" />
<path d="M45828 30524
L45785 30562
" />
<path d="M45785 30562
L45743 30601
" />
<path d="M45743 30601
L45699 30641
" />
<path d="M45699 30641
L45658 30678
" />
<path d="M45658 30678
L45615 30717
" />
<path d="M45615 30717
L45562 30766
" />
<path d="M52108 28090
L52028 28095
" />
<path d="M52028 28095
L51951 28099
" />
<path d="M51951 28099
L51873 28104
" />
<path d="M51873 28104
L51795 28109
" />
<path d="M51795 28109
L51720 28113
" />
<path d="M51720 28113
L51644 28118
" />
<path d="M51644 28118
L51567 28124
" />
<path d="M51567 28124
L51490 28129
" />
<path d="M51490 28129
L51417 28135
" />
<path d="M51417 28135
L51343 28140
" />
<path d="M51343 28140
L51271 28147
" />
<path d="M51271 28147
L51190 28154
" />
<path d="M51190 28154
L51118 28161
" />
<path d="M51118 28161
L51044 28169
" />
<path d="M51044 28169
L50972 28177
" />
<path d="M50972 28177
L50898 28185
" />
<path d="M50898 28185
L50823 28195
" />
<path d="M50823 28195
L50752 28204
" />
<path d="M50752 28204
L50681 28215
" />
<path d="M50681 28215
L50611 28225
" />
<path d="M50611 28225
L50541 28237
" />
<path d="M50541 28237
L50471 28249
" />
<path d="M50471 28249
L50404 28261
" />
<path d="M50404 28261
L50335 28274
" />
<path d="M50335 28274
L50330 28275
" />
<path d="M48522 28830
L48467 28855
" />
<path d="M48467 28855
L48412 28880
" />
<path d="M48412 28880
L48352 28907
" />
<path d="M48352 28907
L48274 28942
" />
<path d="M48274 28942
L48219 28967
" />
<path d="M48219 28967
L48164 28992
" />
<path d="M48164 28992
L48108 29018
" />
<path d="M48108 29018
L48048 29046
" />
<path d="M48048 29046
L47995 29071
" />
<path d="M47995 29071
L47937 29098
" />
<path d="M47937 29098
L47884 29123
" />
<path d="M47884 29123
L47830 29149
" />
<path d="M47830 29149
L47775 29176
" />
<path d="M47775 29176
L47721 29202
" />
<path d="M47721 29202
L47668 29229
" />
<path d="M47668 29229
L47613 29256
" />
<path d="M47613 29256
L47561 29283
" />
<path d="M47561 29283
L47508 29310
" />
<path d="M47508 29310
L47455 29338
" />
<path d="M47455 29338
L47403 29366
" />
<path d="M47403 29366
L47352 29394
" />
<path d="M47352 29394
L47300 29423
" />
<path d="M47300 29423
L47249 29452
" />
<path d="M47249 29452
L47194 29483
" />
<path d="M47194 29483
L47143 29514
" />
<path d="M47143 29514
L47090 29545
" />
<path d="M47090 29545
L47038 29577
" />
<path d="M47038 29577
L46989 29608
" />
<path d="M46989 29608
L46939 29640
" />
<path d="M46939 29640
L46890 29672
" />
<path d="M46890 29672
L46872 29684
" />
<path d="M57117 40214
L65940 30709
" />
<path d="M59394 28090
L52108 28090
" />
<path d="M51425 40214
L57117 40214
" />
<g >
</g>
<g >
</g>
</g> 
</svg>
