0
SECTION
2
HEADER
9
$INSUNITS
70
4
9
$ACADVER
1
AC1014
9
$HANDSEED
5
FFFF
0
ENDSEC
0
SECTION
2
TABLES
0
TABLE
2
VPORT
5
8
100
AcDbSymbolTable
0
ENDTAB
0
TABLE
2
LTYPE
5
5
100
AcDbSymbolTable
0
LTYPE
5
14
100
AcDbSymbolTableRecord
100
AcDbLinetypeTableRecord
2
BYBLOCK
70
0
0
LTYPE
5
15
100
AcDbSymbolTableRecord
100
AcDbLinetypeTableRecord
2
BYLAYER
70
0
0
ENDTAB
0
TABLE
2
LAYER
5
2
100
AcDbSymbolTable
70
2
0
LAYER
5
50
100
AcDbSymbolTableRecord
100
AcDbLayerTableRecord
2
0
70
0
6
CONTINUOUS
0
ENDTAB
0
TABLE
2
STYLE
5
3
100
AcDbSymbolTable
70
1
0
STYLE
5
11
100
AcDbSymbolTableRecord
100
AcDbTextStyleTableRecord
2
STANDARD
70
0
0
ENDTAB
0
TABLE
2
VIEW
5
6
100
AcDbSymbolTable
70
0
0
ENDTAB
0
TABLE
2
UCS
5
7
100
AcDbSymbolTable
70
0
0
ENDTAB
0
TABLE
2
APPID
5
9
100
AcDbSymbolTable
70
2
0
APPID
5
12
100
AcDbSymbolTableRecord
100
AcDbRegAppTableRecord
2
ACAD
70
0
0
ENDTAB
0
TABLE
2
DIMSTYLE
5
A
100
AcDbSymbolTable
70
1
0
ENDTAB
0
TABLE
2
BLOCK_RECORD
5
1
100
AcDbSymbolTable
70
1
0
BLOCK_RECORD
5
1F
100
AcDbSymbolTableRecord
100
AcDbBlockTableRecord
2
*MODEL_SPACE
0
BLOCK_RECORD
5
1B
100
AcDbSymbolTableRecord
100
AcDbBlockTableRecord
2
*PAPER_SPACE
0
ENDTAB
0
ENDSEC
0
SECTION
2
BLOCKS
0
BLOCK
5
20
100
AcDbEntity
100
AcDbBlockBegin
2
*MODEL_SPACE
0
ENDBLK
5
21
100
AcDbEntity
100
AcDbBlockEnd
0
BLOCK
5
1C
100
AcDbEntity
100
AcDbBlockBegin
2
*PAPER_SPACE
0
ENDBLK
5
1D
100
AcDbEntity
100
AcDbBlockEnd
0
ENDSEC
0
SECTION
2
ENTITIES
0
LWPOLYLINE
5
100
100
AcDbEntity
8
0
100
AcDbPolyline
90
4
70
1
43
0.0
10
140.00000000000006
20
-175
10
139.99999999999997
20
175
10
-139.99999999999997
20
175.00000000000003
10
-139.99999999999994
20
-174.99999999999997
0
CIRCLE
5
101
100
AcDbEntity
8
0
100
AcDbCircle
10
93.334743334793927
20
-32.161126065139989
30
0
40
1.7499999999999893
210
0
220
0
230
1
0
CIRCLE
5
102
100
AcDbEntity
8
0
100
AcDbCircle
10
34.395486571138498
20
-32.189223357698502
30
0
40
1.7499999999999982
210
0
220
0
230
1
0
CIRCLE
5
103
100
AcDbEntity
8
0
100
AcDbCircle
10
63.825826387664783
20
-76.756833499999942
30
0
40
5.4999999999999982
210
0
220
0
230
1
0
CIRCLE
5
104
100
AcDbEntity
8
0
100
AcDbCircle
10
93.290563202405949
20
-117.78306236568986
30
0
40
1.7500000000000071
210
0
220
0
230
1
0
CIRCLE
5
105
100
AcDbEntity
8
0
100
AcDbCircle
10
34.35130643875052
20
-117.81115965824836
30
0
40
1.7499999999999982
210
0
220
0
230
1
0
CIRCLE
5
106
100
AcDbEntity
8
0
100
AcDbCircle
10
-3.5769027704944456
20
-117.78306236568986
30
0
40
1.7500000000000004
210
0
220
0
230
1
0
CIRCLE
5
107
100
AcDbEntity
8
0
100
AcDbCircle
10
-51.50766449065614
20
-128.74157485476883
30
0
40
1.7500000000000071
210
0
220
0
230
1
0
CIRCLE
5
108
100
AcDbEntity
8
0
100
AcDbCircle
10
-50.843209026794405
20
-49.216408038818251
30
0
40
5.5000000000000071
210
0
220
0
230
1
0
CIRCLE
5
109
100
AcDbEntity
8
0
100
AcDbCircle
10
-14.517878652796776
20
-75.040237714364494
30
0
40
1.7499999999999982
210
0
220
0
230
1
0
CIRCLE
5
110
100
AcDbEntity
8
0
100
AcDbCircle
10
-14.541217681600207
20
-21.2307108686195
30
0
40
1.7500000000000027
210
0
220
0
230
1
0
CIRCLE
5
111
100
AcDbEntity
8
0
100
AcDbCircle
10
-93.35951518982003
20
32.18884034175165
30
0
40
1.7499999999999893
210
0
220
0
230
1
0
CIRCLE
5
112
100
AcDbEntity
8
0
100
AcDbCircle
10
-34.420258426164608
20
32.216937634310142
30
0
40
1.7499999999999982
210
0
220
0
230
1
0
CIRCLE
5
113
100
AcDbEntity
8
0
100
AcDbCircle
10
51.463290267068032
20
21.234584797599663
30
0
40
1.7500000000000071
210
0
220
0
230
1
0
CIRCLE
5
114
100
AcDbEntity
8
0
100
AcDbCircle
10
14.503978571884417
20
74.931210837425809
30
0
40
1.7499999999999982
210
0
220
0
230
1
0
CIRCLE
5
115
100
AcDbEntity
8
0
100
AcDbCircle
10
14.536048195136075
20
128.79312947901198
30
0
40
1.7500000000000071
210
0
220
0
230
1
0
CIRCLE
5
116
100
AcDbEntity
8
0
100
AcDbCircle
10
50.123523453308223
20
98.920922461181902
30
0
40
5.4999999999999982
210
0
220
0
230
1
0
CIRCLE
5
117
100
AcDbEntity
8
0
100
AcDbCircle
10
3.5144815088959369
20
63.954014118639847
30
0
40
1.7500000000000071
210
0
220
0
230
1
0
CIRCLE
5
118
100
AcDbEntity
8
0
100
AcDbCircle
10
-80.991650964004492
20
51.106791815429759
30
0
40
5.5000000000000071
210
0
220
0
230
1
0
CIRCLE
5
119
100
AcDbEntity
8
0
100
AcDbCircle
10
-46.743942519592167
20
98.920922461181902
30
0
40
5.4999999999999982
210
0
220
0
230
1
0
CIRCLE
5
120
100
AcDbEntity
8
0
100
AcDbCircle
10
-93.298236114192633
20
86.039891162544521
30
0
40
1.7499999999999893
210
0
220
0
230
1
0
CIRCLE
5
121
100
AcDbEntity
8
0
100
AcDbCircle
10
-45.384573337270375
20
128.7692891313805
30
0
40
1.7500000000000071
210
0
220
0
230
1
0
CIRCLE
5
122
100
AcDbEntity
8
0
100
AcDbCircle
10
-82.331417777764315
20
128.79312947901198
30
0
40
1.7500000000000071
210
0
220
0
230
1
0
CIRCLE
5
123
100
AcDbEntity
8
0
100
AcDbCircle
10
-82.363487401015973
20
74.931210837425809
30
0
40
1.7500000000000071
210
0
220
0
230
1
0
CIRCLE
5
124
100
AcDbEntity
8
0
100
AcDbCircle
10
-34.382609019592209
20
86.073700157971814
30
0
40
1.7500000000000071
210
0
220
0
230
1
0
CIRCLE
5
125
100
AcDbEntity
8
0
100
AcDbCircle
10
-46.049028801132096
20
49.244122315429891
30
0
40
5.5000000000000071
210
0
220
0
230
1
0
CIRCLE
5
126
100
AcDbEntity
8
0
100
AcDbCircle
10
32.982470731994617
20
73.243166500000058
30
0
40
5.4999999999999982
210
0
220
0
230
1
0
CIRCLE
5
127
100
AcDbEntity
8
0
100
AcDbCircle
10
62.491387679123761
20
117.83887393486
30
0
40
1.7499999999999982
210
0
220
0
230
1
0
CIRCLE
5
128
100
AcDbEntity
8
0
100
AcDbCircle
10
3.5521309154683323
20
117.81077664230151
30
0
40
1.7500000000000004
210
0
220
0
230
1
0
CIRCLE
5
129
100
AcDbEntity
8
0
100
AcDbCircle
10
62.43010860349635
20
63.987823114067126
30
0
40
1.7499999999999982
210
0
220
0
230
1
0
CIRCLE
5
130
100
AcDbEntity
8
0
100
AcDbCircle
10
33.042387450454775
20
31.044737594116505
30
0
40
5.4999999999999982
210
0
220
0
230
1
0
CIRCLE
5
131
100
AcDbEntity
8
0
100
AcDbCircle
10
-45.404175705832358
20
21.234584797599663
30
0
40
1.7500000000000071
210
0
220
0
230
1
0
CIRCLE
5
132
100
AcDbEntity
8
0
100
AcDbCircle
10
-62.471979401761892
20
-32.189223357698502
30
0
40
1.7499999999999982
210
0
220
0
230
1
0
CIRCLE
5
133
100
AcDbEntity
8
0
100
AcDbCircle
10
-3.5327226381064625
20
-32.161126065139989
30
0
40
1.7499999999999973
210
0
220
0
230
1
0
CIRCLE
5
134
100
AcDbEntity
8
0
100
AcDbCircle
10
-33.041639585235608
20
-76.756833499999942
30
0
40
5.4999999999999982
210
0
220
0
230
1
0
CIRCLE
5
135
100
AcDbEntity
8
0
100
AcDbCircle
10
-62.509628808334284
20
-86.045985881360153
30
0
40
1.7500000000000071
210
0
220
0
230
1
0
CIRCLE
5
136
100
AcDbEntity
8
0
100
AcDbCircle
10
-32.981722866775449
20
-118.9552624058835
30
0
40
5.4999999999999982
210
0
220
0
230
1
0
CIRCLE
5
137
100
AcDbEntity
8
0
100
AcDbCircle
10
-14.560820050162189
20
-128.76541520240033
30
0
40
1.7500000000000071
210
0
220
0
230
1
0
CIRCLE
5
138
100
AcDbEntity
8
0
100
AcDbCircle
10
45.359801482244251
20
-128.74157485476883
30
0
40
1.7500000000000071
210
0
220
0
230
1
0
CIRCLE
5
139
100
AcDbEntity
8
0
100
AcDbCircle
10
81.661792827438461
20
-100.75587768457011
30
0
40
5.5000000000000071
210
0
220
0
230
1
0
CIRCLE
5
140
100
AcDbEntity
8
0
100
AcDbCircle
10
45.347334227554583
20
-75.068789162574191
30
0
40
1.7499999999999982
210
0
220
0
230
1
0
CIRCLE
5
141
100
AcDbEntity
8
0
100
AcDbCircle
10
45.379403850806241
20
-21.206870520988019
30
0
40
1.7500000000000071
210
0
220
0
230
1
0
CIRCLE
5
142
100
AcDbEntity
8
0
100
AcDbCircle
10
80.966879108978389
20
-51.079077538818098
30
0
40
5.5000000000000071
210
0
220
0
230
1
0
CIRCLE
5
143
100
AcDbEntity
8
0
100
AcDbCircle
10
82.326248291300175
20
-21.2307108686195
30
0
40
1.7500000000000071
210
0
220
0
230
1
0
CIRCLE
5
144
100
AcDbEntity
8
0
100
AcDbCircle
10
46.024256946105986
20
-49.216408038818251
30
0
40
5.5000000000000071
210
0
220
0
230
1
0
CIRCLE
5
145
100
AcDbEntity
8
0
100
AcDbCircle
10
82.349587320103623
20
-75.040237714364494
30
0
40
1.7500000000000071
210
0
220
0
230
1
0
CIRCLE
5
146
100
AcDbEntity
8
0
100
AcDbCircle
10
82.306645922738198
20
-128.76541520240033
30
0
40
1.7500000000000071
210
0
220
0
230
1
0
CIRCLE
5
147
100
AcDbEntity
8
0
100
AcDbCircle
10
34.357837164566106
20
-86.045985881360153
30
0
40
1.7500000000000071
210
0
220
0
230
1
0
CIRCLE
5
148
100
AcDbEntity
8
0
100
AcDbCircle
10
-3.5940017137338742
20
-86.012176885932874
30
0
40
1.7499999999999956
210
0
220
0
230
1
0
CIRCLE
5
149
100
AcDbEntity
8
0
100
AcDbCircle
10
-62.516159534149871
20
-117.81115965824836
30
0
40
1.7499999999999982
210
0
220
0
230
1
0
CIRCLE
5
150
100
AcDbEntity
8
0
100
AcDbCircle
10
-62.454880458522467
20
-63.960108837455479
30
0
40
1.7499999999999982
210
0
220
0
230
1
0
CIRCLE
5
151
100
AcDbEntity
8
0
100
AcDbCircle
10
-3.5392533639220458
20
-63.926299842028186
30
0
40
1.7500000000000071
210
0
220
0
230
1
0
CIRCLE
5
152
100
AcDbEntity
8
0
100
AcDbCircle
10
-33.067159305480899
20
-31.017023317504844
30
0
40
5.4999999999999982
210
0
220
0
230
1
0
CIRCLE
5
153
100
AcDbEntity
8
0
100
AcDbCircle
10
-82.351020146326306
20
21.258425145231161
30
0
40
1.7500000000000071
210
0
220
0
230
1
0
CIRCLE
5
154
100
AcDbEntity
8
0
100
AcDbCircle
10
3.5079507830803536
20
32.18884034175165
30
0
40
1.7499999999999971
210
0
220
0
230
1
0
CIRCLE
5
155
100
AcDbEntity
8
0
100
AcDbCircle
10
62.447207546735783
20
32.216937634310142
30
0
40
1.7499999999999982
210
0
220
0
230
1
0
CIRCLE
5
156
100
AcDbEntity
8
0
100
AcDbCircle
10
3.5692298587077609
20
86.039891162544521
30
0
40
1.749999999999996
210
0
220
0
230
1
0
CIRCLE
5
157
100
AcDbEntity
8
0
100
AcDbCircle
10
32.956951011749325
20
118.98297668249515
30
0
40
5.4999999999999982
210
0
220
0
230
1
0
CIRCLE
5
158
100
AcDbEntity
8
0
100
AcDbCircle
10
62.484856953308174
20
86.073700157971814
30
0
40
1.7500000000000071
210
0
220
0
230
1
0
CIRCLE
5
159
100
AcDbEntity
8
0
100
AcDbCircle
10
15.875815008895895
20
51.106791815429759
30
0
40
5.5000000000000027
210
0
220
0
230
1
0
CIRCLE
5
160
100
AcDbEntity
8
0
100
AcDbCircle
10
-93.35298446400445
20
63.954014118639847
30
0
40
1.7500000000000071
210
0
220
0
230
1
0
CIRCLE
5
161
100
AcDbEntity
8
0
100
AcDbCircle
10
-45.36123430846694
20
74.959762285635506
30
0
40
1.7499999999999982
210
0
220
0
230
1
0
CIRCLE
5
162
100
AcDbEntity
8
0
100
AcDbCircle
10
-81.686564682464564
20
100.78359196118174
30
0
40
5.5000000000000071
210
0
220
0
230
1
0
CIRCLE
5
163
100
AcDbEntity
8
0
100
AcDbCircle
10
-63.910514961151065
20
118.98297668249515
30
0
40
5.4999999999999982
210
0
220
0
230
1
0
CIRCLE
5
164
100
AcDbEntity
8
0
100
AcDbCircle
10
-93.315335057432065
20
117.81077664230151
30
0
40
1.7500000000000071
210
0
220
0
230
1
0
CIRCLE
5
165
100
AcDbEntity
8
0
100
AcDbCircle
10
-63.884995240905774
20
73.243166500000058
30
0
40
5.4999999999999982
210
0
220
0
230
1
0
CIRCLE
5
166
100
AcDbEntity
8
0
100
AcDbCircle
10
-34.376078293776629
20
117.83887393486
30
0
40
1.7499999999999982
210
0
220
0
230
1
0
CIRCLE
5
167
100
AcDbEntity
8
0
100
AcDbCircle
10
-34.43735736940404
20
63.987823114067126
30
0
40
1.7499999999999938
210
0
220
0
230
1
0
CIRCLE
5
168
100
AcDbEntity
8
0
100
AcDbCircle
10
51.50623166443345
20
74.959762285635506
30
0
40
1.7499999999999982
210
0
220
0
230
1
0
CIRCLE
5
169
100
AcDbEntity
8
0
100
AcDbCircle
10
51.482892635630016
20
128.7692891313805
30
0
40
1.7500000000000071
210
0
220
0
230
1
0
CIRCLE
5
170
100
AcDbEntity
8
0
100
AcDbCircle
10
15.18090129043582
20
100.78359196118174
30
0
40
5.5000000000000071
210
0
220
0
230
1
0
CIRCLE
5
171
100
AcDbEntity
8
0
100
AcDbCircle
10
50.818437171768295
20
49.244122315429891
30
0
40
5.5000000000000071
210
0
220
0
230
1
0
CIRCLE
5
172
100
AcDbEntity
8
0
100
AcDbCircle
10
14.516445826574085
20
21.258425145231161
30
0
40
1.7500000000000027
210
0
220
0
230
1
0
CIRCLE
5
173
100
AcDbEntity
8
0
100
AcDbCircle
10
-63.825078522445615
20
31.044737594116505
30
0
40
5.4999999999999982
210
0
220
0
230
1
0
CIRCLE
5
174
100
AcDbEntity
8
0
100
AcDbCircle
10
-51.488062122094149
20
-21.206870520988019
30
0
40
1.7500000000000071
210
0
220
0
230
1
0
CIRCLE
5
175
100
AcDbEntity
8
0
100
AcDbCircle
10
-15.900586863921999
20
-51.079077538818098
30
0
40
5.5000000000000027
210
0
220
0
230
1
0
CIRCLE
5
176
100
AcDbEntity
8
0
100
AcDbCircle
10
-51.520131745345807
20
-75.068789162574191
30
0
40
1.7499999999999982
210
0
220
0
230
1
0
CIRCLE
5
177
100
AcDbEntity
8
0
100
AcDbCircle
10
-50.148295308334326
20
-98.893208184570241
30
0
40
5.5000000000000071
210
0
220
0
230
1
0
CIRCLE
5
178
100
AcDbEntity
8
0
100
AcDbCircle
10
-15.205673145461933
20
-100.75587768457011
30
0
40
5.5000000000000071
210
0
220
0
230
1
0
CIRCLE
5
179
100
AcDbEntity
8
0
100
AcDbCircle
10
46.719170664566064
20
-98.893208184570241
30
0
40
5.5000000000000071
210
0
220
0
230
1
0
CIRCLE
5
180
100
AcDbEntity
8
0
100
AcDbCircle
10
63.885743106124941
20
-118.9552624058835
30
0
40
5.4999999999999982
210
0
220
0
230
1
0
CIRCLE
5
181
100
AcDbEntity
8
0
100
AcDbCircle
10
93.273464259166516
20
-86.012176885932874
30
0
40
1.7499999999999893
210
0
220
0
230
1
0
CIRCLE
5
182
100
AcDbEntity
8
0
100
AcDbCircle
10
34.412585514377923
20
-63.960108837455479
30
0
40
1.7499999999999938
210
0
220
0
230
1
0
CIRCLE
5
183
100
AcDbEntity
8
0
100
AcDbCircle
10
63.800306667419491
20
-31.017023317504844
30
0
40
5.4999999999999982
210
0
220
0
230
1
0
CIRCLE
5
184
100
AcDbEntity
8
0
100
AcDbCircle
10
93.328212608978333
20
-63.926299842028186
30
0
40
1.7500000000000071
210
0
220
0
230
1
0
ENDSEC
0
SECTION
2
OBJECTS
0
DICTIONARY
5
C
100
AcDbDictionary
3
ACAD_GROUP
350
D
3
ACAD_MLINESTYLE
350
17
0
DICTIONARY
5
D
100
AcDbDictionary
0
DICTIONARY
5
1A
330
C
100
AcDbDictionary
0
DICTIONARY
5
17
100
AcDbDictionary
0
ENDSEC
0
EOF
